<mxfile modified="2022-02-15T09:19:55.438Z" host="app.diagrams.net" agent="5.0 (Windows NT 10.0; Win64; x64) AppleWebKit/537.36 (KHTML, like Gecko) Chrome/98.0.4758.82 Safari/537.36" etag="RRBxlnyODlfu3p43Vy8s" version="16.5.6" type="github">
  <diagram id="WI9T0HZ2pTsCkuznbFz-" name="Page-1">
    <mxGraphModel dx="1673" dy="908" grid="1" gridSize="10" guides="1" tooltips="1" connect="1" arrows="1" fold="1" page="1" pageScale="1" pageWidth="827" pageHeight="1169" math="0" shadow="0">
      <root>
        <mxCell id="0" />
        <mxCell id="1" parent="0" />
        <mxCell id="eWjkR0wsdmifyLcniZH0-1" value="" style="shape=image;verticalLabelPosition=bottom;labelBackgroundColor=none;verticalAlign=top;aspect=fixed;imageAspect=0;image=data:image/svg+xml,PHN2ZyB4bWxuczpjYz0iaHR0cDovL2NyZWF0aXZlY29tbW9ucy5vcmcvbnMjIiB4bWxuczpkYz0iaHR0cDovL3B1cmwub3JnL2RjL2VsZW1lbnRzLzEuMS8iIHhtbG5zOmlua3NjYXBlPSJodHRwOi8vd3d3Lmlua3NjYXBlLm9yZy9uYW1lc3BhY2VzL2lua3NjYXBlIiB4bWxuczpyZGY9Imh0dHA6Ly93d3cudzMub3JnLzE5OTkvMDIvMjItcmRmLXN5bnRheC1ucyMiIHhtbG5zOnNvZGlwb2RpPSJodHRwOi8vc29kaXBvZGkuc291cmNlZm9yZ2UubmV0L0RURC9zb2RpcG9kaS0wLmR0ZCIgeG1sbnM6c3ZnPSJodHRwOi8vd3d3LnczLm9yZy8yMDAwL3N2ZyIgeG1sbnM9Imh0dHA6Ly93d3cudzMub3JnLzIwMDAvc3ZnIiB4bWxuczp4bGluaz0iaHR0cDovL3d3dy53My5vcmcvMTk5OS94bGluayIgdmVyc2lvbj0iMS4xIiBpZD0ic3ZnMjQzMyIgaW5rc2NhcGU6dmVyc2lvbj0iMC45Mi4zICgyNDA1NTQ2LCAyMDE4LTAzLTExKSIgc29kaXBvZGk6ZG9jbmFtZT0iZGV2aWNlX2FuZHJvaWQuc3ZnIiB4PSIwcHgiIHk9IjBweCIgdmlld0JveD0iMCAwIDI4LjY5IDU5LjIiIHN0eWxlPSJlbmFibGUtYmFja2dyb3VuZDpuZXcgMCAwIDI4LjY5IDU5LjI7IiB4bWw6c3BhY2U9InByZXNlcnZlIj4mI3hhOzxzb2RpcG9kaTpuYW1lZHZpZXcgYm9yZGVyY29sb3I9IiM2NjY2NjYiIGJvcmRlcm9wYWNpdHk9IjEiIGZpdC1tYXJnaW4tYm90dG9tPSIwIiBmaXQtbWFyZ2luLWxlZnQ9IjAiIGZpdC1tYXJnaW4tcmlnaHQ9IjAiIGZpdC1tYXJnaW4tdG9wPSIwIiBncmlkdG9sZXJhbmNlPSIxMCIgZ3VpZGV0b2xlcmFuY2U9IjEwIiBpZD0ibmFtZWR2aWV3MjQzNSIgaW5rc2NhcGU6Y3VycmVudC1sYXllcj0ic3ZnMjQzMyIgaW5rc2NhcGU6Y3g9IjE5LjEyODg2NCIgaW5rc2NhcGU6Y3k9IjM5LjQ2OTkyOCIgaW5rc2NhcGU6cGFnZW9wYWNpdHk9IjAiIGlua3NjYXBlOnBhZ2VzaGFkb3c9IjIiIGlua3NjYXBlOndpbmRvdy1oZWlnaHQ9IjEwMTciIGlua3NjYXBlOndpbmRvdy1tYXhpbWl6ZWQ9IjEiIGlua3NjYXBlOndpbmRvdy13aWR0aD0iMTkyMCIgaW5rc2NhcGU6d2luZG93LXg9Ii04IiBpbmtzY2FwZTp3aW5kb3cteT0iLTgiIGlua3NjYXBlOnpvb209IjEwLjk4NDg1MSIgb2JqZWN0dG9sZXJhbmNlPSIxMCIgcGFnZWNvbG9yPSIjZmZmZmZmIiBzaG93Z3JpZD0iZmFsc2UiPiYjeGE7CTwvc29kaXBvZGk6bmFtZWR2aWV3PiYjeGE7PGcgaWQ9ImcyNDMxIiB0cmFuc2Zvcm09InRyYW5zbGF0ZSgwLC0zLjM2MzU5OTFlLTUpIj4mI3hhOwk8dGl0bGUgaWQ9InRpdGxlMjM3NyI+UGFnZS0xPC90aXRsZT4mI3hhOwk8ZyBpZD0iZ3JvdXAzNDgxLTEiPiYjeGE7CQk8dGl0bGUgaWQ9InRpdGxlMjM3OSI+RGV2aWNlOiBBbmRyb2lkPC90aXRsZT4mI3hhOwkJPGcgaWQ9InNoYXBlMzQ4Mi0yIj4mI3hhOwkJCTx0aXRsZSBpZD0idGl0bGUyMzgxIj5TaGVldC4zNDgyPC90aXRsZT4mI3hhOwkJCTxwYXRoIGlkPSJwYXRoMjM4MyIgaW5rc2NhcGU6Y29ubmVjdG9yLWN1cnZhdHVyZT0iMCIgc3R5bGU9ImZpbGw6IzNGNTc2NTsiIGQ9Ik0yOC42OSw1NS4wNGMwLDIuMjctMS44OSw0LjE2LTQuMjIsNC4xNiAgICAgYy0yMC4yOCwwLTIwLjI4LDAtMjAuMjgsMEMxLjg1LDU5LjIsMCw1Ny4zMSwwLDU1LjA0QzAsNC4yMiwwLDQuMjIsMCw0LjIyQzAsMS44OSwxLjg1LDAsNC4xOSwwYzIwLjI4LDAsMjAuMjgsMCwyMC4yOCwwICAgICBjMi4zMywwLDQuMjIsMS44OSw0LjIyLDQuMjJWNTUuMDR6Ii8+JiN4YTsJCTwvZz4mI3hhOwkJPGcgaWQ9InNoYXBlMzQ4My00IiB0cmFuc2Zvcm09InRyYW5zbGF0ZSg3LjI3NDYzLC0zMS44MTgyKSI+JiN4YTsJCQk8dGl0bGUgaWQ9InRpdGxlMjM4NiI+U2hlZXQuMzQ4MzwvdGl0bGU+JiN4YTsJCQk8ZGVzYyBpZD0iZGVzYzIzODgiPlY8L2Rlc2M+JiN4YTsJCQk8cGF0aCBpZD0icGF0aDIzOTAiIGlua3NjYXBlOmNvbm5lY3Rvci1jdXJ2YXR1cmU9IjAiIHN0eWxlPSJmaWxsOm5vbmU7IiBkPSJNMTYuNDEsMzcuNjJIMFY1OS4yaDE2LjQxVjM3LjYyIi8+JiN4YTsJCQk8dGV4dCBpZD0idGV4dDIzOTIiIHRyYW5zZm9ybT0ibWF0cml4KDEgMCAwIDEgMy4xIDUzLjgpIiBzdHlsZT0iZmlsbDojNTA1MDUwOyBmb250LWZhbWlseTonQ2FsaWJyaSc7IGZvbnQtc2l6ZToxNy45NzQycHg7Ij5WPC90ZXh0PiYjeGE7CQk8L2c+JiN4YTsJCTxnIGlkPSJzaGFwZTM0ODQtOCIgdHJhbnNmb3JtPSJ0cmFuc2xhdGUoMS41NjA3MiwtOC4xNDgzMikiPiYjeGE7CQkJPHRpdGxlIGlkPSJ0aXRsZTIzOTUiPlNoZWV0LjM0ODQ8L3RpdGxlPiYjeGE7CQkJPHBhdGggaWQ9InBhdGgyMzk3IiBpbmtzY2FwZTpjb25uZWN0b3ItY3VydmF0dXJlPSIwIiBzdHlsZT0iZmlsbDojOEQ5RkIwOyIgZD0iTTAsMTQuNjJWNTkuMmgyNS41N1YxNC42MkgweiIvPiYjeGE7CQk8L2c+JiN4YTsJCTxnIGlkPSJzaGFwZTM0ODUtMTAiIHRyYW5zZm9ybT0idHJhbnNsYXRlKDYuMjQyODksLTU1LjQ4MDUpIj4mI3hhOwkJCTx0aXRsZSBpZD0idGl0bGUyNDAwIj5TaGVldC4zNDg1PC90aXRsZT4mI3hhOwkJCTxwYXRoIGlkPSJwYXRoMjQwMiIgaW5rc2NhcGU6Y29ubmVjdG9yLWN1cnZhdHVyZT0iMCIgc3R5bGU9ImZpbGw6IzhFOUZCMDsiIGQ9Ik0xMi45Nyw1OC42YzAsMC4zMy0wLjMsMC42LTAuNjMsMC42ICAgICBjLTExLjcsMC0xMS43LDAtMTEuNywwQzAuMyw1OS4yLDAsNTguOTMsMCw1OC42bDAsMEMwLDU4LjI3LDAuMyw1OCwwLjY0LDU4YzExLjcsMCwxMS43LDAsMTEuNywwICAgICBDMTIuNjcsNTgsMTIuOTcsNTguMjcsMTIuOTcsNTguNnoiLz4mI3hhOwkJPC9nPiYjeGE7CQk8ZyBpZD0ic2hhcGUzNDg2LTEyIiB0cmFuc2Zvcm09InRyYW5zbGF0ZSgyMS4wMDk3LC01NS4zNjA2KSI+JiN4YTsJCQk8dGl0bGUgaWQ9InRpdGxlMjQwNSI+U2hlZXQuMzQ4NjwvdGl0bGU+JiN4YTsJCQk8cGF0aCBpZD0icGF0aDI0MDciIGlua3NjYXBlOmNvbm5lY3Rvci1jdXJ2YXR1cmU9IjAiIHN0eWxlPSJmaWxsOiM4RTlGQjA7IiBkPSJNMCw1OC40OGMwLTAuNCwwLjMyLTAuNzIsMC43Mi0wLjcyICAgICBzMC43MiwwLjMyLDAuNzIsMC43MmMwLDAuMzktMC4zMiwwLjcyLTAuNzIsMC43MlMwLDU4Ljg3LDAsNTguNDh6Ii8+JiN4YTsJCTwvZz4mI3hhOwkJPGcgaWQ9InNoYXBlMzQ4Ny0xNCIgdHJhbnNmb3JtPSJ0cmFuc2xhdGUoNi4yNDI4OSwtMi4wMzcwOCkiPiYjeGE7CQkJPHRpdGxlIGlkPSJ0aXRsZTI0MTAiPlNoZWV0LjM0ODc8L3RpdGxlPiYjeGE7CQkJPHBhdGggaWQ9InBhdGgyNDEyIiBpbmtzY2FwZTpjb25uZWN0b3ItY3VydmF0dXJlPSIwIiBzdHlsZT0iZmlsbDojOEU5RkIwOyIgZD0iTTE2LjIxLDU4LjY5YzAsMC4zLTAuMiwwLjUxLTAuNDksMC41MSAgICAgYy0xNS4xOCwwLTE1LjE4LDAtMTUuMTgsMEMwLjI1LDU5LjIsMCw1OC45OSwwLDU4LjY5bDAsMGMwLTAuMzEsMC4yNS0wLjU3LDAuNTQtMC41N2MxNS4xOCwwLDE1LjE4LDAsMTUuMTgsMCAgICAgQzE2LjAxLDU4LjEyLDE2LjIxLDU4LjM4LDE2LjIxLDU4LjY5eiIvPiYjeGE7CQk8L2c+JiN4YTsJCTxnIGlkPSJzaGFwZTM0ODgtMTYiIHRyYW5zZm9ybT0idHJhbnNsYXRlKDcuOTIzNjcsLTI2Ljg0MTUpIj4mI3hhOwkJCTx0aXRsZSBpZD0idGl0bGUyNDE1Ij5TaGVldC4zNDg4PC90aXRsZT4mI3hhOwkJCTxwYXRoIGlkPSJwYXRoMjQxNyIgaW5rc2NhcGU6Y29ubmVjdG9yLWN1cnZhdHVyZT0iMCIgc3R5bGU9ImZpbGw6I0ZGRkZGRjsiIGQ9Ik0xMS45NCw1My42OGMtMC41LDAtMC45MiwwLjQyLTAuOTIsMC45NSAgICAgYzAsMy42MywwLDMuNjMsMCwzLjYzYzAsMC41MiwwLjQyLDAuOTQsMC45MiwwLjk0YzAuNDksMCwwLjkxLTAuNDIsMC45MS0wLjk0YzAtMy42MywwLTMuNjMsMC0zLjYzICAgICBDMTIuODUsNTQuMSwxMi40Myw1My42OCwxMS45NCw1My42OHogTTAuOTIsNTMuNjhDMC40Miw1My42OCwwLDU0LjEsMCw1NC42M2MwLDMuNjMsMCwzLjYzLDAsMy42M2MwLDAuNTIsMC40MiwwLjk0LDAuOTIsMC45NCAgICAgczAuOTEtMC40MiwwLjkxLTAuOTRjMC0zLjYzLDAtMy42MywwLTMuNjNDMS44Myw1NC4xLDEuNDIsNTMuNjgsMC45Miw1My42OHoiLz4mI3hhOwkJPC9nPiYjeGE7CQk8ZyBpZD0ic2hhcGUzNDg5LTE4IiB0cmFuc2Zvcm09InRyYW5zbGF0ZSgxMC4zMjQ4LC0yMi4wNDg0KSI+JiN4YTsJCQk8dGl0bGUgaWQ9InRpdGxlMjQyMCI+U2hlZXQuMzQ4OTwvdGl0bGU+JiN4YTsJCQk8cGF0aCBpZD0icGF0aDI0MjIiIGlua3NjYXBlOmNvbm5lY3Rvci1jdXJ2YXR1cmU9IjAiIHN0eWxlPSJmaWxsOiNGRkZGRkY7IiBkPSJNMCw0OC44OWMwLDYuNjQsMCw2LjY0LDAsNi42NCAgICAgYzAsMC40LDAuMzIsMC43MSwwLjcxLDAuNzFjMC44MiwwLDAuODIsMCwwLjgyLDBjMCwyLjAyLDAsMi4wMiwwLDIuMDJjMCwwLjUyLDAuNDIsMC45NCwwLjkyLDAuOTRjMC41MSwwLDAuOTMtMC40MiwwLjkzLTAuOTQgICAgIGMwLTIuMDIsMC0yLjAyLDAtMi4wMmMxLjQxLDAsMS40MSwwLDEuNDEsMGMwLDIuMDIsMCwyLjAyLDAsMi4wMmMwLDAuNTIsMC40MiwwLjk0LDAuOTMsMC45NGMwLjUsMCwwLjkyLTAuNDIsMC45Mi0wLjk0ICAgICBjMC0yLjAyLDAtMi4wMiwwLTIuMDJjMC44MiwwLDAuODIsMCwwLjgyLDBjMC40LDAsMC43LTAuMzEsMC43LTAuNzFjMC02LjY0LDAtNi42NCwwLTYuNjRIMHoiLz4mI3hhOwkJPC9nPiYjeGE7CQk8ZyBpZD0ic2hhcGUzNDkwLTIwIiB0cmFuc2Zvcm09InRyYW5zbGF0ZSgxMC4zMjQ4LC0zMi45NTI4KSI+JiN4YTsJCQk8dGl0bGUgaWQ9InRpdGxlMjQyNSI+U2hlZXQuMzQ5MDwvdGl0bGU+JiN4YTsJCQk8cGF0aCBpZD0icGF0aDI0MjciIGlua3NjYXBlOmNvbm5lY3Rvci1jdXJ2YXR1cmU9IjAiIHN0eWxlPSJmaWxsOiNGRkZGRkY7IiBkPSJNNS45NCw1Ni40MWMwLjc1LTEuMDYsMC43NS0xLjA2LDAuNzUtMS4wNiAgICAgYzAuMDQtMC4wNiwwLjAyLTAuMTUtMC4wMy0wLjE4Yy0wLjA2LTAuMDUtMC4xNC0wLjAzLTAuMTgsMC4wM0M1LjcsNTYuMzMsNS43LDU2LjMzLDUuNyw1Ni4zM0M1LjE4LDU2LjEyLDQuNjIsNTYsNC4wMiw1NiAgICAgYy0wLjU5LDAtMS4xNSwwLjEyLTEuNjYsMC4zM0MxLjU3LDU1LjIsMS41Nyw1NS4yLDEuNTcsNTUuMmMtMC4wNC0wLjA2LTAuMTItMC4wOC0wLjE4LTAuMDNjLTAuMDUsMC4wMy0wLjA3LDAuMTItMC4wMiwwLjE4ICAgICBjMC43NCwxLjA2LDAuNzQsMS4wNiwwLjc0LDEuMDZDMC45Myw1Ni45NiwwLjExLDU4LDAsNTkuMmM4LjA0LDAsOC4wNCwwLDguMDQsMEM3Ljk1LDU4LDcuMTIsNTYuOTYsNS45NCw1Ni40MXogTTIuMzMsNTguMSAgICAgYy0wLjI0LDAtMC40NS0wLjIxLTAuNDUtMC40NWMwLTAuMjIsMC4yMS0wLjQyLDAuNDUtMC40MmMwLjI1LDAsMC40NCwwLjIsMC40NCwwLjQyQzIuNzcsNTcuODksMi41OCw1OC4xLDIuMzMsNTguMXogTTUuNzgsNTguMSAgICAgYy0wLjI1LDAtMC40NC0wLjIxLTAuNDQtMC40NWMwLTAuMjIsMC4xOS0wLjQyLDAuNDQtMC40MnMwLjQ2LDAuMiwwLjQ2LDAuNDJDNi4yNCw1Ny44OSw2LjAzLDU4LjEsNS43OCw1OC4xeiIvPiYjeGE7CQk8L2c+JiN4YTsJPC9nPiYjeGE7PC9nPiYjeGE7PC9zdmc+;" parent="1" vertex="1">
          <mxGeometry x="790" y="646" width="29" height="59" as="geometry" />
        </mxCell>
        <mxCell id="eWjkR0wsdmifyLcniZH0-2" value="" style="shape=image;verticalLabelPosition=bottom;labelBackgroundColor=none;verticalAlign=top;aspect=fixed;imageAspect=0;image=data:image/svg+xml,PHN2ZyB4bWxuczpjYz0iaHR0cDovL2NyZWF0aXZlY29tbW9ucy5vcmcvbnMjIiB4bWxuczpkYz0iaHR0cDovL3B1cmwub3JnL2RjL2VsZW1lbnRzLzEuMS8iIHhtbG5zOmlua3NjYXBlPSJodHRwOi8vd3d3Lmlua3NjYXBlLm9yZy9uYW1lc3BhY2VzL2lua3NjYXBlIiB4bWxuczpyZGY9Imh0dHA6Ly93d3cudzMub3JnLzE5OTkvMDIvMjItcmRmLXN5bnRheC1ucyMiIHhtbG5zOnNvZGlwb2RpPSJodHRwOi8vc29kaXBvZGkuc291cmNlZm9yZ2UubmV0L0RURC9zb2RpcG9kaS0wLmR0ZCIgeG1sbnM6c3ZnPSJodHRwOi8vd3d3LnczLm9yZy8yMDAwL3N2ZyIgeG1sbnM9Imh0dHA6Ly93d3cudzMub3JnLzIwMDAvc3ZnIiB4bWxuczp4bGluaz0iaHR0cDovL3d3dy53My5vcmcvMTk5OS94bGluayIgdmVyc2lvbj0iMS4xIiBpZD0ic3ZnNDE2OSIgaW5rc2NhcGU6dmVyc2lvbj0iMC45Mi4zICgyNDA1NTQ2LCAyMDE4LTAzLTExKSIgc29kaXBvZGk6ZG9jbmFtZT0iZGV2aWNlX2lwaG9uZS5zdmciIHg9IjBweCIgeT0iMHB4IiB2aWV3Qm94PSIwIDAgMjguODEgNTguMTIiIHN0eWxlPSJlbmFibGUtYmFja2dyb3VuZDpuZXcgMCAwIDI4LjgxIDU4LjEyOyIgeG1sOnNwYWNlPSJwcmVzZXJ2ZSI+JiN4YTs8c29kaXBvZGk6bmFtZWR2aWV3IGJvcmRlcmNvbG9yPSIjNjY2NjY2IiBib3JkZXJvcGFjaXR5PSIxIiBmaXQtbWFyZ2luLWJvdHRvbT0iMCIgZml0LW1hcmdpbi1sZWZ0PSIwIiBmaXQtbWFyZ2luLXJpZ2h0PSIwIiBmaXQtbWFyZ2luLXRvcD0iMCIgZ3JpZHRvbGVyYW5jZT0iMTAiIGd1aWRldG9sZXJhbmNlPSIxMCIgaWQ9Im5hbWVkdmlldzQxNzEiIGlua3NjYXBlOmN1cnJlbnQtbGF5ZXI9InN2ZzQxNjkiIGlua3NjYXBlOmN4PSIxOS4yMDg4NTYiIGlua3NjYXBlOmN5PSIzOC43NDg4NDQiIGlua3NjYXBlOnBhZ2VvcGFjaXR5PSIwIiBpbmtzY2FwZTpwYWdlc2hhZG93PSIyIiBpbmtzY2FwZTp3aW5kb3ctaGVpZ2h0PSIxMDE3IiBpbmtzY2FwZTp3aW5kb3ctbWF4aW1pemVkPSIxIiBpbmtzY2FwZTp3aW5kb3ctd2lkdGg9IjE5MjAiIGlua3NjYXBlOndpbmRvdy14PSItOCIgaW5rc2NhcGU6d2luZG93LXk9Ii04IiBpbmtzY2FwZTp6b29tPSIxMS4xODg3IiBvYmplY3R0b2xlcmFuY2U9IjEwIiBwYWdlY29sb3I9IiNmZmZmZmYiIHNob3dncmlkPSJmYWxzZSI+JiN4YTsJPC9zb2RpcG9kaTpuYW1lZHZpZXc+JiN4YTs8ZyBpZD0iZzQxNjciIHRyYW5zZm9ybT0idHJhbnNsYXRlKC0xLjczNjE4NDllLTUpIj4mI3hhOwk8dGl0bGUgaWQ9InRpdGxlNDEyMiI+UGFnZS0xPC90aXRsZT4mI3hhOwk8ZyBpZD0iZ3JvdXAzNDU4LTEiPiYjeGE7CQk8dGl0bGUgaWQ9InRpdGxlNDEyNCI+RGV2aWNlOiBpUGhvbmU8L3RpdGxlPiYjeGE7CQk8ZyBpZD0ic2hhcGUzNDU5LTIiPiYjeGE7CQkJPHRpdGxlIGlkPSJ0aXRsZTQxMjYiPlNoZWV0LjM0NTk8L3RpdGxlPiYjeGE7CQkJPHBhdGggaWQ9InBhdGg0MTI4IiBpbmtzY2FwZTpjb25uZWN0b3ItY3VydmF0dXJlPSIwIiBzdHlsZT0iZmlsbDojM0Y1NzY1OyIgZD0iTTI4LjgxLDUzLjhjMCwyLjQyLTEuOSw0LjMyLTQuMzQsNC4zMiAgICAgYy0yMC4wNywwLTIwLjA3LDAtMjAuMDcsMGMtMi40MywwLTQuNC0xLjktNC40LTQuMzJDMCw0LjM3LDAsNC4zNywwLDQuMzdDMCwxLjk1LDEuOTcsMCw0LjQsMGMyMC4wNywwLDIwLjA3LDAsMjAuMDcsMCAgICAgYzIuNDQsMCw0LjM0LDEuOTUsNC4zNCw0LjM3VjUzLjh6Ii8+JiN4YTsJCTwvZz4mI3hhOwkJPGcgaWQ9InNoYXBlMzQ2MC00IiB0cmFuc2Zvcm09InRyYW5zbGF0ZSgxMi42MDU4LC01NC40MDIpIj4mI3hhOwkJCTx0aXRsZSBpZD0idGl0bGU0MTMxIj5TaGVldC4zNDYwPC90aXRsZT4mI3hhOwkJCTxwYXRoIGlkPSJwYXRoNDEzMyIgaW5rc2NhcGU6Y29ubmVjdG9yLWN1cnZhdHVyZT0iMCIgc3R5bGU9ImZpbGw6IzhFOUZCMDsiIGQ9Ik0zLjg0LDU3Ljg2YzAsMC4xNy0wLjA5LDAuMjYtMC4yNCwwLjI2ICAgICBjLTMuMzEsMC0zLjMxLDAtMy4zMSwwQzAuMTUsNTguMTIsMCw1OC4wMywwLDU3Ljg2bDAsMGMwLTAuMTMsMC4xNS0wLjIyLDAuMjktMC4yMmMzLjMxLDAsMy4zMSwwLDMuMzEsMCAgICAgQzMuNzUsNTcuNjQsMy44NCw1Ny43MywzLjg0LDU3Ljg2eiIvPiYjeGE7CQk8L2c+JiN4YTsJCTxnIGlkPSJzaGFwZTM0NjEtNiIgdHJhbnNmb3JtPSJ0cmFuc2xhdGUoMTIuNjA1OCwtMS43OTc0MikiPiYjeGE7CQkJPHRpdGxlIGlkPSJ0aXRsZTQxMzYiPlNoZWV0LjM0NjE8L3RpdGxlPiYjeGE7CQkJPHBhdGggaWQ9InBhdGg0MTM4IiBpbmtzY2FwZTpjb25uZWN0b3ItY3VydmF0dXJlPSIwIiBzdHlsZT0iZmlsbDojOEU5RkIwOyIgZD0iTTAsNTYuMjZjMC0xLjAyLDAuODYtMS44NiwxLjkyLTEuODYgICAgIGMxLjA3LDAsMS45MiwwLjg0LDEuOTIsMS44NmMwLDEuMDMtMC44NSwxLjg2LTEuOTIsMS44NkMwLjg2LDU4LjEyLDAsNTcuMjksMCw1Ni4yNnoiLz4mI3hhOwkJPC9nPiYjeGE7CQk8ZyBpZD0ic2hhcGUzNDYyLTgiIHRyYW5zZm9ybT0idHJhbnNsYXRlKDEwLjA4NDcsLTU0LjE2MjMpIj4mI3hhOwkJCTx0aXRsZSBpZD0idGl0bGU0MTQxIj5TaGVldC4zNDYyPC90aXRsZT4mI3hhOwkJCTxwYXRoIGlkPSJwYXRoNDE0MyIgaW5rc2NhcGU6Y29ubmVjdG9yLWN1cnZhdHVyZT0iMCIgc3R5bGU9ImZpbGw6IzhFOUZCMDsiIGQ9Ik0wLDU3LjY0YzAtMC4yNiwwLjIyLTAuNDgsMC40OC0wLjQ4ICAgICBjMC4yNywwLDAuNDgsMC4yMiwwLjQ4LDAuNDhjMCwwLjI3LTAuMjEsMC40OC0wLjQ4LDAuNDhDMC4yMiw1OC4xMiwwLDU3LjkxLDAsNTcuNjR6Ii8+JiN4YTsJCTwvZz4mI3hhOwkJPGcgaWQ9InNoYXBlMzQ2My0xMCIgdHJhbnNmb3JtPSJ0cmFuc2xhdGUoMTQuMjg2NiwtNTYuMzE5MykiPiYjeGE7CQkJPHRpdGxlIGlkPSJ0aXRsZTQxNDYiPlNoZWV0LjM0NjM8L3RpdGxlPiYjeGE7CQkJPHBhdGggaWQ9InBhdGg0MTQ4IiBpbmtzY2FwZTpjb25uZWN0b3ItY3VydmF0dXJlPSIwIiBzdHlsZT0iZmlsbDojOEU5RkIwOyIgZD0iTTAsNTcuODhjMC0wLjEzLDAuMTQtMC4yNCwwLjMtMC4yNCAgICAgYzAuMTcsMCwwLjMsMC4xMSwwLjMsMC4yNHMtMC4xMywwLjI0LTAuMywwLjI0QzAuMTQsNTguMTIsMCw1OC4wMSwwLDU3Ljg4eiIvPiYjeGE7CQk8L2c+JiN4YTsJCTxnIGlkPSJzaGFwZTM0NjQtMTIiIHRyYW5zZm9ybT0idHJhbnNsYXRlKDEuNjgwNzgsLTYuMzUwODkpIj4mI3hhOwkJCTx0aXRsZSBpZD0idGl0bGU0MTUxIj5TaGVldC4zNDY0PC90aXRsZT4mI3hhOwkJCTxwYXRoIGlkPSJwYXRoNDE1MyIgaW5rc2NhcGU6Y29ubmVjdG9yLWN1cnZhdHVyZT0iMCIgc3R5bGU9ImZpbGw6IzhEOUZCMDsiIGQ9Ik0wLDEyLjd2NDUuNDJoMjUuNjlWMTIuN0gweiIvPiYjeGE7CQk8L2c+JiN4YTsJCTxnIGlkPSJzaGFwZTM0NjUtMTQiIHRyYW5zZm9ybT0idHJhbnNsYXRlKDguNDM4NDgsLTIzLjYwNjIpIj4mI3hhOwkJCTx0aXRsZSBpZD0idGl0bGU0MTU2Ij5TaGVldC4zNDY1PC90aXRsZT4mI3hhOwkJCTxwYXRoIGlkPSJwYXRoNDE1OCIgaW5rc2NhcGU6Y29ubmVjdG9yLWN1cnZhdHVyZT0iMCIgc3R5bGU9ImZpbGw6I0ZGRkZGRjsiIGQ9Ik0xMi4zMyw1NC4yOWMtMC4zNCwwLjczLTAuNTEsMS4wNy0wLjk0LDEuNzIgICAgIGMtMC42LDAuOTUtMS40NiwyLjA3LTIuNSwyLjExYy0wLjk0LDAtMS4yLTAuNjUtMi40NS0wLjZjLTEuMjgsMC0xLjU0LDAuNi0yLjQ5LDAuNmMtMS4wNy0wLjA0LTEuODUtMS4wNy0yLjQ1LTEuOTggICAgIGMtMS43Mi0yLjU4LTEuODktNS42LTAuODYtNy4yNGMwLjc3LTEuMTIsMS45NC0xLjgxLDMuMDEtMS44MWMxLjEyLDAsMS44NSwwLjY1LDIuNzUsMC42NXMxLjQ3LTAuNjUsMi43NS0wLjY1ICAgICBjMC45OSwwLDIuMDMsMC41NiwyLjc1LDEuNDdDOS40OSw0OS44OSw5Ljg5LDUzLjM0LDEyLjMzLDU0LjI5eiIvPiYjeGE7CQk8L2c+JiN4YTsJCTxnIGlkPSJzaGFwZTM0NjYtMTYiIHRyYW5zZm9ybT0idHJhbnNsYXRlKDEzLjU3NjYsLTM0LjUxMDUpIj4mI3hhOwkJCTx0aXRsZSBpZD0idGl0bGU0MTYxIj5TaGVldC4zNDY2PC90aXRsZT4mI3hhOwkJCTxwYXRoIGlkPSJwYXRoNDE2MyIgaW5rc2NhcGU6Y29ubmVjdG9yLWN1cnZhdHVyZT0iMCIgc3R5bGU9ImZpbGw6I0ZGRkZGRjsiIGQ9Ik0yLjIsNTYuOTZjMC40NS0wLjYsMC43OS0xLjQxLDAuNjctMi4zMiAgICAgYy0wLjcyLDAuMDktMS42LDAuNTYtMi4xNSwxLjIxYy0wLjQ3LDAuNTUtMC44NSwxLjQxLTAuNjgsMi4yN0MwLjg1LDU4LjEyLDEuNzMsNTcuNjQsMi4yLDU2Ljk2eiIvPiYjeGE7CQk8L2c+JiN4YTsJPC9nPiYjeGE7PC9nPiYjeGE7PC9zdmc+;" parent="1" vertex="1">
          <mxGeometry x="855.5021834061135" y="646.5" width="29" height="58" as="geometry" />
        </mxCell>
        <mxCell id="28heIlWIprtDJxRmpmQK-2" value="" style="rounded=0;whiteSpace=wrap;html=1;fillColor=#f5f5f5;strokeColor=none;fontColor=#333333;labelBackgroundColor=none;" parent="1" vertex="1">
          <mxGeometry x="300" y="436" width="680" height="280" as="geometry" />
        </mxCell>
        <mxCell id="UOPAoyRl8zIuu1TyD0ZJ-6" value="kdo_park_business" style="shape=image;verticalLabelPosition=bottom;labelBackgroundColor=#ffffff;verticalAlign=top;aspect=fixed;imageAspect=0;image=data:image/svg+xml,PHN2ZyB4bWxuczpjYz0iaHR0cDovL2NyZWF0aXZlY29tbW9ucy5vcmcvbnMjIiB4bWxuczpkYz0iaHR0cDovL3B1cmwub3JnL2RjL2VsZW1lbnRzLzEuMS8iIHhtbG5zOmlua3NjYXBlPSJodHRwOi8vd3d3Lmlua3NjYXBlLm9yZy9uYW1lc3BhY2VzL2lua3NjYXBlIiB4bWxuczpyZGY9Imh0dHA6Ly93d3cudzMub3JnLzE5OTkvMDIvMjItcmRmLXN5bnRheC1ucyMiIHhtbG5zOnNvZGlwb2RpPSJodHRwOi8vc29kaXBvZGkuc291cmNlZm9yZ2UubmV0L0RURC9zb2RpcG9kaS0wLmR0ZCIgeG1sbnM6c3ZnPSJodHRwOi8vd3d3LnczLm9yZy8yMDAwL3N2ZyIgeG1sbnM9Imh0dHA6Ly93d3cudzMub3JnLzIwMDAvc3ZnIiB4bWxuczp4bGluaz0iaHR0cDovL3d3dy53My5vcmcvMTk5OS94bGluayIgdmVyc2lvbj0iMS4xIiBpZD0ic3ZnNzMyNjUiIGlua3NjYXBlOnZlcnNpb249IjAuOTIuMyAoMjQwNTU0NiwgMjAxOC0wMy0xMSkiIHNvZGlwb2RpOmRvY25hbWU9ImNvbnRhaW5lcnMuc3ZnIiB4PSIwcHgiIHk9IjBweCIgdmlld0JveD0iMCAwIDExNyA5NC4wNyIgc3R5bGU9ImVuYWJsZS1iYWNrZ3JvdW5kOm5ldyAwIDAgMTE3IDk0LjA3OyIgeG1sOnNwYWNlPSJwcmVzZXJ2ZSI+JiN4YTs8c29kaXBvZGk6bmFtZWR2aWV3IGJvcmRlcmNvbG9yPSIjNjY2NjY2IiBib3JkZXJvcGFjaXR5PSIxIiBmaXQtbWFyZ2luLWJvdHRvbT0iMCIgZml0LW1hcmdpbi1sZWZ0PSIwIiBmaXQtbWFyZ2luLXJpZ2h0PSIwIiBmaXQtbWFyZ2luLXRvcD0iMCIgZ3JpZHRvbGVyYW5jZT0iMTAiIGd1aWRldG9sZXJhbmNlPSIxMCIgaWQ9Im5hbWVkdmlldzczMjY3IiBpbmtzY2FwZTpjdXJyZW50LWxheWVyPSJzdmc3MzI2NSIgaW5rc2NhcGU6Y3g9IjkwLjQwMDE0NiIgaW5rc2NhcGU6Y3k9IjU1LjUyNTQ2OCIgaW5rc2NhcGU6cGFnZW9wYWNpdHk9IjAiIGlua3NjYXBlOnBhZ2VzaGFkb3c9IjIiIGlua3NjYXBlOndpbmRvdy1oZWlnaHQ9IjEwMTciIGlua3NjYXBlOndpbmRvdy1tYXhpbWl6ZWQ9IjEiIGlua3NjYXBlOndpbmRvdy13aWR0aD0iMTkyMCIgaW5rc2NhcGU6d2luZG93LXg9Ii04IiBpbmtzY2FwZTp3aW5kb3cteT0iLTgiIGlua3NjYXBlOnpvb209IjQuNDY5ODM4NSIgb2JqZWN0dG9sZXJhbmNlPSIxMCIgcGFnZWNvbG9yPSIjZmZmZmZmIiBzaG93Z3JpZD0iZmFsc2UiPiYjeGE7CTwvc29kaXBvZGk6bmFtZWR2aWV3PiYjeGE7PGcgaWQ9InNoYXBlNTc5Ni0zIiB0cmFuc2Zvcm09InRyYW5zbGF0ZSgyNi42MjQ3MDcsLTEzLjUxNzUpIj4mI3hhOwk8dGl0bGUgaWQ9InRpdGxlNzI5ODgiPnJlY3Q0MDQwPC90aXRsZT4mI3hhOwk8cmVjdCBpZD0icmVjdDcyOTkwIiB4PSIwIiB5PSIzNS4zNyIgc3R5bGU9ImZpbGw6bm9uZTsiIHdpZHRoPSI2OS43NSIgaGVpZ2h0PSI2Ny41Ii8+JiN4YTs8L2c+JiN4YTs8ZyBpZD0iZ3JvdXA1Nzk3LTUiIHRyYW5zZm9ybT0idHJhbnNsYXRlKDM0Ljg3NDcwNywtMjAuODE1KSI+JiN4YTsJPHRpdGxlIGlkPSJ0aXRsZTcyOTkzIj5nNDA1ODwvdGl0bGU+JiN4YTsJPGcgaWQ9InNoYXBlNTc5OC02IiB0cmFuc2Zvcm09InRyYW5zbGF0ZSgxMiwtMTMuODQ1KSI+JiN4YTsJCTx0aXRsZSBpZD0idGl0bGU3Mjk5NSI+cG9seWdvbjQwNDI8L3RpdGxlPiYjeGE7CQk8cGF0aCBpZD0icGF0aDcyOTk3IiBpbmtzY2FwZTpjb25uZWN0b3ItY3VydmF0dXJlPSIwIiBzdHlsZT0iZmlsbDojNTU2QThBOyIgZD0iTTAsOTYuMjFsMTEuMjUsNi42NlY5MC4yNEwwLDgzLjU4Vjk2LjIxeiIvPiYjeGE7CTwvZz4mI3hhOwk8ZyBpZD0ic2hhcGU1Nzk5LTgiIHRyYW5zZm9ybT0idHJhbnNsYXRlKDAsLTIxLjExMjUpIj4mI3hhOwkJPHRpdGxlIGlkPSJ0aXRsZTczMDAwIj5wb2x5Z29uNDA0NDwvdGl0bGU+JiN4YTsJCTxwYXRoIGlkPSJwYXRoNzMwMDIiIGlua3NjYXBlOmNvbm5lY3Rvci1jdXJ2YXR1cmU9IjAiIHN0eWxlPSJmaWxsOiM1NTZBOEE7IiBkPSJNMCw4My4zM3YxMi41OGwxMS4yNSw2Ljk2VjkwLjI0TDAsODMuMzFWODMuMzN6Ii8+JiN4YTsJPC9nPiYjeGE7CTxnIGlkPSJzaGFwZTU4MDAtMTAiIHRyYW5zZm9ybT0idHJhbnNsYXRlKDM2LC0yMS4xMTI1KSI+JiN4YTsJCTx0aXRsZSBpZD0idGl0bGU3MzAwNSI+cG9seWdvbjQwNDY8L3RpdGxlPiYjeGE7CQk8cGF0aCBpZD0icGF0aDczMDA3IiBpbmtzY2FwZTpjb25uZWN0b3ItY3VydmF0dXJlPSIwIiBzdHlsZT0iZmlsbDojOTM5NTk4OyIgZD0iTTExLjI1LDgzLjMzdi0wLjAyTDAsOTAuMjR2MTIuNjNsMTEuMjUtNi45NiAgICBWODMuMzN6Ii8+JiN4YTsJPC9nPiYjeGE7CTxnIGlkPSJzaGFwZTU4MDEtMTIiIHRyYW5zZm9ybT0idHJhbnNsYXRlKDEyKSI+JiN4YTsJCTx0aXRsZSBpZD0idGl0bGU3MzAxMCI+cG9seWdvbjQwNDg8L3RpdGxlPiYjeGE7CQk8cGF0aCBpZD0icGF0aDczMDEyIiBpbmtzY2FwZTpjb25uZWN0b3ItY3VydmF0dXJlPSIwIiBzdHlsZT0iZmlsbDojNTU2QThBOyIgZD0iTTAsODMuNTJ2MTMuMDlsMTEuMjUsNi4yNlY5MC4xOEwwLDgzLjUyeiIvPiYjeGE7CTwvZz4mI3hhOwk8ZyBpZD0ic2hhcGU1ODAyLTE0IiB0cmFuc2Zvcm09InRyYW5zbGF0ZSgzNiwtNi44MjUpIj4mI3hhOwkJPHRpdGxlIGlkPSJ0aXRsZTczMDE1Ij5wb2x5Z29uNDA1MDwvdGl0bGU+JiN4YTsJCTxwYXRoIGlkPSJwYXRoNzMwMTciIGlua3NjYXBlOmNvbm5lY3Rvci1jdXJ2YXR1cmU9IjAiIHN0eWxlPSJmaWxsOiM5Mzk1OTg7IiBkPSJNMTEuMjUsOTYuMzNWODIuNzdMMCw4OS43NHYxMy4xM0wxMS4yNSw5Ni4zM3oiLz4mI3hhOwk8L2c+JiN4YTsJPGcgaWQ9InNoYXBlNTgwMy0xNiIgdHJhbnNmb3JtPSJ0cmFuc2xhdGUoMCwtNi44MjUpIj4mI3hhOwkJPHRpdGxlIGlkPSJ0aXRsZTczMDIwIj5wb2x5Z29uNDA1MjwvdGl0bGU+JiN4YTsJCTxwYXRoIGlkPSJwYXRoNzMwMjIiIGlua3NjYXBlOmNvbm5lY3Rvci1jdXJ2YXR1cmU9IjAiIHN0eWxlPSJmaWxsOiM1NTZBOEE7IiBkPSJNMCw5Ni4zM2wxMS4yNSw2LjU0Vjg5Ljc0TDAsODIuNzdWOTYuMzN6Ii8+JiN4YTsJPC9nPiYjeGE7CTxnIGlkPSJzaGFwZTU4MDQtMTgiIHRyYW5zZm9ybT0idHJhbnNsYXRlKDI0LC0xMy44NDUpIj4mI3hhOwkJPHRpdGxlIGlkPSJ0aXRsZTczMDI1Ij5wb2x5Z29uNDA1NDwvdGl0bGU+JiN4YTsJCTxwYXRoIGlkPSJwYXRoNzMwMjciIGlua3NjYXBlOmNvbm5lY3Rvci1jdXJ2YXR1cmU9IjAiIHN0eWxlPSJmaWxsOiM5Mzk1OTg7IiBkPSJNMTEuMjUsOTYuMjFWODMuNThMMCw5MC4yNHYxMi42M0wxMS4yNSw5Ni4yMXoiLz4mI3hhOwk8L2c+JiN4YTsJPGcgaWQ9InNoYXBlNTgwNS0yMCIgdHJhbnNmb3JtPSJ0cmFuc2xhdGUoMjQpIj4mI3hhOwkJPHRpdGxlIGlkPSJ0aXRsZTczMDMwIj5wb2x5Z29uNDA1NjwvdGl0bGU+JiN4YTsJCTxwYXRoIGlkPSJwYXRoNzMwMzIiIGlua3NjYXBlOmNvbm5lY3Rvci1jdXJ2YXR1cmU9IjAiIHN0eWxlPSJmaWxsOiM5Mzk1OTg7IiBkPSJNMCwxMDIuODdsMTEuMjUtNi4yNlY4My41MkwwLDkwLjE4VjEwMi44N3oiLz4mI3hhOwk8L2c+JiN4YTs8L2c+JiN4YTs8ZyBpZD0ic2hhcGU1ODA3LTIzIiB0cmFuc2Zvcm09InRyYW5zbGF0ZSg0Ny41MTk3MDcsLTc1Ljg4NzUpIj4mI3hhOwk8dGl0bGUgaWQ9InRpdGxlNzMwMzkiPnBvbHlnb240MDYyPC90aXRsZT4mI3hhOwk8cGF0aCBpZD0icGF0aDczMDQxIiBpbmtzY2FwZTpjb25uZWN0b3ItY3VydmF0dXJlPSIwIiBzdHlsZT0iZmlsbDojMkJDN0Y0OyIgZD0iTTEwLjU2LDg5LjY4TDAsOTYuMTJsMTAuOTYsNi43NWwxMC41Ni02LjUgICBMMTAuNTYsODkuNjh6Ii8+JiN4YTs8L2c+JiN4YTs8ZyBpZD0ic2hhcGU1ODA4LTI1IiB0cmFuc2Zvcm09InRyYW5zbGF0ZSg0Ni44NzQ3MDcsLTYyLjQxKSI+JiN4YTsJPHRpdGxlIGlkPSJ0aXRsZTczMDQ0Ij5wb2x5Z29uNDA2NDwvdGl0bGU+JiN4YTsJPHBhdGggaWQ9InBhdGg3MzA0NiIgaW5rc2NhcGU6Y29ubmVjdG9yLWN1cnZhdHVyZT0iMCIgc3R5bGU9ImZpbGw6IzU1NkE4QTsiIGQ9Ik0wLDk2LjIxbDExLjI1LDYuNjZWOTAuMjRMMCw4My41OFY5Ni4yMXoiLz4mI3hhOzwvZz4mI3hhOzxnIGlkPSJzaGFwZTU4MDktMjciIHRyYW5zZm9ybT0idHJhbnNsYXRlKDU5LjAyNDcwNywtODIuOTYpIj4mI3hhOwk8dGl0bGUgaWQ9InRpdGxlNzMwNDkiPnBvbHlnb240MDY2PC90aXRsZT4mI3hhOwk8cGF0aCBpZD0icGF0aDczMDUxIiBpbmtzY2FwZTpjb25uZWN0b3ItY3VydmF0dXJlPSIwIiBzdHlsZT0iZmlsbDojMkJDN0Y0OyIgZD0iTTEwLjk2LDEwMi44N2wxMS4xMS02Ljg0bC0xMS4yMS02LjQ4TDAsOTYuMTggICBMMTAuOTYsMTAyLjg3eiIvPiYjeGE7PC9nPiYjeGE7PGcgaWQ9InNoYXBlNTgxMC0yOSIgdHJhbnNmb3JtPSJ0cmFuc2xhdGUoMzQuODc0NzA3LC02OS42Nzc1KSI+JiN4YTsJPHRpdGxlIGlkPSJ0aXRsZTczMDU0Ij5wb2x5Z29uNDA2ODwvdGl0bGU+JiN4YTsJPHBhdGggaWQ9InBhdGg3MzA1NiIgaW5rc2NhcGU6Y29ubmVjdG9yLWN1cnZhdHVyZT0iMCIgc3R5bGU9ImZpbGw6IzU1NkE4QTsiIGQ9Ik0wLDgzLjMzdjEyLjU4bDExLjI1LDYuOTZWOTAuMjRMMCw4My4zMVY4My4zM3oiLz4mI3hhOzwvZz4mI3hhOzxnIGlkPSJzaGFwZTU4MTEtMzEiIHRyYW5zZm9ybT0idHJhbnNsYXRlKDcwLjg3NDcwNywtNjkuNjc3NSkiPiYjeGE7CTx0aXRsZSBpZD0idGl0bGU3MzA1OSI+cG9seWdvbjQwNzA8L3RpdGxlPiYjeGE7CTxwYXRoIGlkPSJwYXRoNzMwNjEiIGlua3NjYXBlOmNvbm5lY3Rvci1jdXJ2YXR1cmU9IjAiIHN0eWxlPSJmaWxsOiM5Mzk1OTg7IiBkPSJNMTEuMjUsODMuMzN2LTAuMDJMMCw5MC4yNHYxMi42M2wxMS4yNS02Ljk2ICAgVjgzLjMzeiIvPiYjeGE7PC9nPiYjeGE7PGcgaWQ9InNoYXBlNTgxMi0zMyIgdHJhbnNmb3JtPSJ0cmFuc2xhdGUoMzUuODcyMjA3LC04My4yMDc1KSI+JiN4YTsJPHRpdGxlIGlkPSJ0aXRsZTczMDY0Ij5wb2x5Z29uNDA3MjwvdGl0bGU+JiN4YTsJPHBhdGggaWQ9InBhdGg3MzA2NiIgaW5rc2NhcGU6Y29ubmVjdG9yLWN1cnZhdHVyZT0iMCIgc3R5bGU9ImZpbGw6IzJCQzdGNDsiIGQ9Ik0yMS4yNiw5Ni40MmwtMTAuNDctNi4zOEwwLDk2LjI3bDEwLjcxLDYuNiAgIEwyMS4yNiw5Ni40MnoiLz4mI3hhOzwvZz4mI3hhOzxnIGlkPSJzaGFwZTU4MTMtMzUiIHRyYW5zZm9ybT0idHJhbnNsYXRlKDQ2Ljg3NDcwNywtNDguNTY1KSI+JiN4YTsJPHRpdGxlIGlkPSJ0aXRsZTczMDY5Ij5wb2x5Z29uNDA3NDwvdGl0bGU+JiN4YTsJPHBhdGggaWQ9InBhdGg3MzA3MSIgaW5rc2NhcGU6Y29ubmVjdG9yLWN1cnZhdHVyZT0iMCIgc3R5bGU9ImZpbGw6IzU1NkE4QTsiIGQ9Ik0wLDgzLjUydjEzLjA5bDExLjI1LDYuMjZWOTAuMThMMCw4My41MnoiLz4mI3hhOzwvZz4mI3hhOzxnIGlkPSJzaGFwZTU4MTQtMzciIHRyYW5zZm9ybT0idHJhbnNsYXRlKDQ3LjYzOTcwNywtOTAuMjIpIj4mI3hhOwk8dGl0bGUgaWQ9InRpdGxlNzMwNzQiPnBvbHlnb240MDc2PC90aXRsZT4mI3hhOwk8cGF0aCBpZD0icGF0aDczMDc2IiBpbmtzY2FwZTpjb25uZWN0b3ItY3VydmF0dXJlPSIwIiBzdHlsZT0iZmlsbDojMkJDN0Y0OyIgZD0iTTEwLjg0LDkwLjIyTDAsOTYuNDlsMTAuNDQsNi4zOGwxMC44NC02LjYyICAgTDEwLjg0LDkwLjIyeiIvPiYjeGE7PC9nPiYjeGE7PGcgaWQ9InNoYXBlNTgxNS0zOSIgdHJhbnNmb3JtPSJ0cmFuc2xhdGUoNzAuODc0NzA3LC01NS4zOSkiPiYjeGE7CTx0aXRsZSBpZD0idGl0bGU3MzA3OSI+cG9seWdvbjQwNzg8L3RpdGxlPiYjeGE7CTxwYXRoIGlkPSJwYXRoNzMwODEiIGlua3NjYXBlOmNvbm5lY3Rvci1jdXJ2YXR1cmU9IjAiIHN0eWxlPSJmaWxsOiM5Mzk1OTg7IiBkPSJNMTEuMjUsOTYuMzNWODIuNzdMMCw4OS43M3YxMy4xNEwxMS4yNSw5Ni4zM3oiLz4mI3hhOzwvZz4mI3hhOzxnIGlkPSJzaGFwZTU4MTYtNDEiIHRyYW5zZm9ybT0idHJhbnNsYXRlKDM0Ljg3NDcwNywtNTUuMzkpIj4mI3hhOwk8dGl0bGUgaWQ9InRpdGxlNzMwODQiPnBvbHlnb240MDgwPC90aXRsZT4mI3hhOwk8cGF0aCBpZD0icGF0aDczMDg2IiBpbmtzY2FwZTpjb25uZWN0b3ItY3VydmF0dXJlPSIwIiBzdHlsZT0iZmlsbDojNTU2QThBOyIgZD0iTTAsOTYuMzNsMTEuMjUsNi41NFY4OS43M0wwLDgyLjc3Vjk2LjMzeiIvPiYjeGE7PC9nPiYjeGE7PGcgaWQ9InNoYXBlNTgxNy00MyIgdHJhbnNmb3JtPSJ0cmFuc2xhdGUoNTguODc0NzA3LC02Mi40MSkiPiYjeGE7CTx0aXRsZSBpZD0idGl0bGU3MzA4OSI+cG9seWdvbjQwODI8L3RpdGxlPiYjeGE7CTxwYXRoIGlkPSJwYXRoNzMwOTEiIGlua3NjYXBlOmNvbm5lY3Rvci1jdXJ2YXR1cmU9IjAiIHN0eWxlPSJmaWxsOiM5Mzk1OTg7IiBkPSJNMTEuMjUsOTYuMjFWODMuNThMMCw5MC4yNHYxMi42M0wxMS4yNSw5Ni4yMXoiLz4mI3hhOzwvZz4mI3hhOzxnIGlkPSJzaGFwZTU4MTgtNDUiIHRyYW5zZm9ybT0idHJhbnNsYXRlKDU4Ljg3NDcwNywtNDguNTY1KSI+JiN4YTsJPHRpdGxlIGlkPSJ0aXRsZTczMDk0Ij5wb2x5Z29uNDA4NDwvdGl0bGU+JiN4YTsJPHBhdGggaWQ9InBhdGg3MzA5NiIgaW5rc2NhcGU6Y29ubmVjdG9yLWN1cnZhdHVyZT0iMCIgc3R5bGU9ImZpbGw6IzkzOTU5ODsiIGQ9Ik0wLDEwMi44N2wxMS4yNS02LjI2VjgzLjUyTDAsOTAuMThWMTAyLjg3eiIvPiYjeGE7PC9nPiYjeGE7PGcgaWQ9InNoYXBlNTgyMC00OCIgdHJhbnNmb3JtPSJ0cmFuc2xhdGUoLTguMjUwMjkyNSwtMS40OTgzKSI+JiN4YTsJPHRpdGxlIGlkPSJ0aXRsZTczMTAyIj5yZWN0Mzk3MjwvdGl0bGU+JiN4YTsJPHJlY3QgaWQ9InJlY3Q3MzEwNCIgeD0iMCIgeT0iMzUuMzciIHN0eWxlPSJmaWxsOm5vbmU7IiB3aWR0aD0iNjkuNzUiIGhlaWdodD0iNjcuNSIvPiYjeGE7PC9nPiYjeGE7PGcgaWQ9Imdyb3VwNTgyMS01MCIgdHJhbnNmb3JtPSJ0cmFuc2xhdGUoLTIuOTI1MTc1OWUtNCwtOC43OTU4KSI+JiN4YTsJPHRpdGxlIGlkPSJ0aXRsZTczMTA3Ij5nMzk5ODwvdGl0bGU+JiN4YTsJPGcgaWQ9InNoYXBlNTgyMi01MSIgdHJhbnNmb3JtPSJ0cmFuc2xhdGUoMTIuNjQ1LC0yNy4zMjI1KSI+JiN4YTsJCTx0aXRsZSBpZD0idGl0bGU3MzEwOSI+cG9seWdvbjM5NzQ8L3RpdGxlPiYjeGE7CQk8cGF0aCBpZD0icGF0aDczMTExIiBpbmtzY2FwZTpjb25uZWN0b3ItY3VydmF0dXJlPSIwIiBzdHlsZT0iZmlsbDojMkJDN0Y0OyIgZD0iTTEwLjU2LDg5LjY4TDAsOTYuMTJsMTAuOTYsNi43NWwxMC41Ni02LjUgICAgTDEwLjU2LDg5LjY4eiIvPiYjeGE7CTwvZz4mI3hhOwk8ZyBpZD0ic2hhcGU1ODIzLTUzIiB0cmFuc2Zvcm09InRyYW5zbGF0ZSgxMiwtMTMuODQ1KSI+JiN4YTsJCTx0aXRsZSBpZD0idGl0bGU3MzExNCI+cG9seWdvbjM5NzY8L3RpdGxlPiYjeGE7CQk8cGF0aCBpZD0icGF0aDczMTE2IiBpbmtzY2FwZTpjb25uZWN0b3ItY3VydmF0dXJlPSIwIiBzdHlsZT0iZmlsbDojNTU2QThBOyIgZD0iTTAsOTYuMjFsMTEuMjUsNi42NlY5MC4yNEwwLDgzLjU4Vjk2LjIxeiIvPiYjeGE7CTwvZz4mI3hhOwk8ZyBpZD0ic2hhcGU1ODI0LTU1IiB0cmFuc2Zvcm09InRyYW5zbGF0ZSgyNC4xNSwtMzQuMzk1KSI+JiN4YTsJCTx0aXRsZSBpZD0idGl0bGU3MzExOSI+cG9seWdvbjM5Nzg8L3RpdGxlPiYjeGE7CQk8cGF0aCBpZD0icGF0aDczMTIxIiBpbmtzY2FwZTpjb25uZWN0b3ItY3VydmF0dXJlPSIwIiBzdHlsZT0iZmlsbDojMkJDN0Y0OyIgZD0iTTEwLjk2LDEwMi44N2wxMS4xMS02Ljg0bC0xMS4yMS02LjQ4TDAsOTYuMTggICAgTDEwLjk2LDEwMi44N3oiLz4mI3hhOwk8L2c+JiN4YTsJPGcgaWQ9InNoYXBlNTgyNS01NyIgdHJhbnNmb3JtPSJ0cmFuc2xhdGUoMCwtMjEuMTEyNSkiPiYjeGE7CQk8dGl0bGUgaWQ9InRpdGxlNzMxMjQiPnBvbHlnb24zOTgwPC90aXRsZT4mI3hhOwkJPHBhdGggaWQ9InBhdGg3MzEyNiIgaW5rc2NhcGU6Y29ubmVjdG9yLWN1cnZhdHVyZT0iMCIgc3R5bGU9ImZpbGw6IzU1NkE4QTsiIGQ9Ik0wLDgzLjMzdjEyLjU4bDExLjI1LDYuOTZWOTAuMjRMMCw4My4zMVY4My4zM3oiLz4mI3hhOwk8L2c+JiN4YTsJPGcgaWQ9InNoYXBlNTgyNi01OSIgdHJhbnNmb3JtPSJ0cmFuc2xhdGUoMzYsLTIxLjExMjUpIj4mI3hhOwkJPHRpdGxlIGlkPSJ0aXRsZTczMTI5Ij5wb2x5Z29uMzk4MjwvdGl0bGU+JiN4YTsJCTxwYXRoIGlkPSJwYXRoNzMxMzEiIGlua3NjYXBlOmNvbm5lY3Rvci1jdXJ2YXR1cmU9IjAiIHN0eWxlPSJmaWxsOiM5Mzk1OTg7IiBkPSJNMTEuMjUsODMuMzN2LTAuMDJMMCw5MC4yNHYxMi42M2wxMS4yNS02Ljk2ICAgIFY4My4zM3oiLz4mI3hhOwk8L2c+JiN4YTsJPGcgaWQ9InNoYXBlNTgyNy02MSIgdHJhbnNmb3JtPSJ0cmFuc2xhdGUoMC45OTc1LC0zNC42NDI1KSI+JiN4YTsJCTx0aXRsZSBpZD0idGl0bGU3MzEzNCI+cG9seWdvbjM5ODQ8L3RpdGxlPiYjeGE7CQk8cGF0aCBpZD0icGF0aDczMTM2IiBpbmtzY2FwZTpjb25uZWN0b3ItY3VydmF0dXJlPSIwIiBzdHlsZT0iZmlsbDojMkJDN0Y0OyIgZD0iTTIxLjI2LDk2LjQybC0xMC40Ny02LjM4TDAsOTYuMjdsMTAuNzEsNi42ICAgIEwyMS4yNiw5Ni40MnoiLz4mI3hhOwk8L2c+JiN4YTsJPGcgaWQ9InNoYXBlNTgyOC02MyIgdHJhbnNmb3JtPSJ0cmFuc2xhdGUoMTIpIj4mI3hhOwkJPHRpdGxlIGlkPSJ0aXRsZTczMTM5Ij5wb2x5Z29uMzk4NjwvdGl0bGU+JiN4YTsJCTxwYXRoIGlkPSJwYXRoNzMxNDEiIGlua3NjYXBlOmNvbm5lY3Rvci1jdXJ2YXR1cmU9IjAiIHN0eWxlPSJmaWxsOiM1NTZBOEE7IiBkPSJNMCw4My41MnYxMy4wOWwxMS4yNSw2LjI2VjkwLjE4TDAsODMuNTJ6Ii8+JiN4YTsJPC9nPiYjeGE7CTxnIGlkPSJzaGFwZTU4MjktNjUiIHRyYW5zZm9ybT0idHJhbnNsYXRlKDEyLjc2NSwtNDEuNjYyNSkiPiYjeGE7CQk8dGl0bGUgaWQ9InRpdGxlNzMxNDQiPnBvbHlnb24zOTg4PC90aXRsZT4mI3hhOwkJPHBhdGggaWQ9InBhdGg3MzE0NiIgaW5rc2NhcGU6Y29ubmVjdG9yLWN1cnZhdHVyZT0iMCIgc3R5bGU9ImZpbGw6IzJCQzdGNDsiIGQ9Ik0xMC44NCw5MC4yM0wwLDk2LjVsMTAuNDQsNi4zN2wxMC44NC02LjYxICAgIEwxMC44NCw5MC4yM3oiLz4mI3hhOwk8L2c+JiN4YTsJPGcgaWQ9InNoYXBlNTgzMC02NyIgdHJhbnNmb3JtPSJ0cmFuc2xhdGUoMzYsLTYuODI1KSI+JiN4YTsJCTx0aXRsZSBpZD0idGl0bGU3MzE0OSI+cG9seWdvbjM5OTA8L3RpdGxlPiYjeGE7CQk8cGF0aCBpZD0icGF0aDczMTUxIiBpbmtzY2FwZTpjb25uZWN0b3ItY3VydmF0dXJlPSIwIiBzdHlsZT0iZmlsbDojOTM5NTk4OyIgZD0iTTExLjI1LDk2LjMzVjgyLjc3TDAsODkuNzR2MTMuMTNMMTEuMjUsOTYuMzN6Ii8+JiN4YTsJPC9nPiYjeGE7CTxnIGlkPSJzaGFwZTU4MzEtNjkiIHRyYW5zZm9ybT0idHJhbnNsYXRlKDAsLTYuODI1KSI+JiN4YTsJCTx0aXRsZSBpZD0idGl0bGU3MzE1NCI+cG9seWdvbjM5OTI8L3RpdGxlPiYjeGE7CQk8cGF0aCBpZD0icGF0aDczMTU2IiBpbmtzY2FwZTpjb25uZWN0b3ItY3VydmF0dXJlPSIwIiBzdHlsZT0iZmlsbDojNTU2QThBOyIgZD0iTTAsOTYuMzNsMTEuMjUsNi41NFY4OS43NEwwLDgyLjc3Vjk2LjMzeiIvPiYjeGE7CTwvZz4mI3hhOwk8ZyBpZD0ic2hhcGU1ODMyLTcxIiB0cmFuc2Zvcm09InRyYW5zbGF0ZSgyNCwtMTMuODQ1KSI+JiN4YTsJCTx0aXRsZSBpZD0idGl0bGU3MzE1OSI+cG9seWdvbjM5OTQ8L3RpdGxlPiYjeGE7CQk8cGF0aCBpZD0icGF0aDczMTYxIiBpbmtzY2FwZTpjb25uZWN0b3ItY3VydmF0dXJlPSIwIiBzdHlsZT0iZmlsbDojOTM5NTk4OyIgZD0iTTExLjI1LDk2LjIxVjgzLjU4TDAsOTAuMjR2MTIuNjNMMTEuMjUsOTYuMjF6Ii8+JiN4YTsJPC9nPiYjeGE7CTxnIGlkPSJzaGFwZTU4MzMtNzMiIHRyYW5zZm9ybT0idHJhbnNsYXRlKDI0KSI+JiN4YTsJCTx0aXRsZSBpZD0idGl0bGU3MzE2NCI+cG9seWdvbjM5OTY8L3RpdGxlPiYjeGE7CQk8cGF0aCBpZD0icGF0aDczMTY2IiBpbmtzY2FwZTpjb25uZWN0b3ItY3VydmF0dXJlPSIwIiBzdHlsZT0iZmlsbDojOTM5NTk4OyIgZD0iTTAsMTAyLjg3bDExLjI1LTYuMjZWODMuNTJMMCw5MC4xOFYxMDIuODd6Ii8+JiN4YTsJPC9nPiYjeGE7PC9nPiYjeGE7PGcgaWQ9InNoYXBlNTgzNS03NiIgdHJhbnNmb3JtPSJ0cmFuc2xhdGUoNjEuNDk5NzA3LC02LjA5NDI0KSI+JiN4YTsJPHRpdGxlIGlkPSJ0aXRsZTczMTczIj5yZWN0NDAwMjwvdGl0bGU+JiN4YTsJPHJlY3QgaWQ9InJlY3Q3MzE3NSIgeD0iMCIgeT0iMzUuMzciIHN0eWxlPSJmaWxsOm5vbmU7IiB3aWR0aD0iNjkuNzUiIGhlaWdodD0iNjcuNSIvPiYjeGE7PC9nPiYjeGE7PGcgaWQ9Imdyb3VwNTgzNi03OCIgdHJhbnNmb3JtPSJ0cmFuc2xhdGUoNjkuNzQ5NzA3LC0xMy4zOTE3NCkiPiYjeGE7CTx0aXRsZSBpZD0idGl0bGU3MzE3OCI+ZzQwMzY8L3RpdGxlPiYjeGE7CTxnIGlkPSJzaGFwZTU4MzctNzkiIHRyYW5zZm9ybT0idHJhbnNsYXRlKDEyLC0xMy44NDUpIj4mI3hhOwkJPHRpdGxlIGlkPSJ0aXRsZTczMTgwIj5wb2x5Z29uNDAwNDwvdGl0bGU+JiN4YTsJCTxwYXRoIGlkPSJwYXRoNzMxODIiIGlua3NjYXBlOmNvbm5lY3Rvci1jdXJ2YXR1cmU9IjAiIHN0eWxlPSJmaWxsOiM1NTZBOEE7IiBkPSJNMCw5Ni4yMWwxMS4yNSw2LjY2VjkwLjI0TDAsODMuNThWOTYuMjF6Ii8+JiN4YTsJPC9nPiYjeGE7CTxnIGlkPSJzaGFwZTU4MzgtODEiIHRyYW5zZm9ybT0idHJhbnNsYXRlKDAsLTIxLjExMjUpIj4mI3hhOwkJPHRpdGxlIGlkPSJ0aXRsZTczMTg1Ij5wb2x5Z29uNDAwNjwvdGl0bGU+JiN4YTsJCTxwYXRoIGlkPSJwYXRoNzMxODciIGlua3NjYXBlOmNvbm5lY3Rvci1jdXJ2YXR1cmU9IjAiIHN0eWxlPSJmaWxsOiM1NTZBOEE7IiBkPSJNMCw4My4zM3YxMi41OGwxMS4yNSw2Ljk2VjkwLjI0TDAsODMuMzFWODMuMzN6Ii8+JiN4YTsJPC9nPiYjeGE7CTxnIGlkPSJzaGFwZTU4MzktODMiIHRyYW5zZm9ybT0idHJhbnNsYXRlKDM2LC0yMS4xMTI1KSI+JiN4YTsJCTx0aXRsZSBpZD0idGl0bGU3MzE5MCI+cG9seWdvbjQwMDg8L3RpdGxlPiYjeGE7CQk8cGF0aCBpZD0icGF0aDczMTkyIiBpbmtzY2FwZTpjb25uZWN0b3ItY3VydmF0dXJlPSIwIiBzdHlsZT0iZmlsbDojOTM5NTk4OyIgZD0iTTExLjI1LDgzLjMzdi0wLjAyTDAsOTAuMjR2MTIuNjNsMTEuMjUtNi45NiAgICBWODMuMzN6Ii8+JiN4YTsJPC9nPiYjeGE7CTxnIGlkPSJzaGFwZTU4NDAtODUiIHRyYW5zZm9ybT0idHJhbnNsYXRlKDEyKSI+JiN4YTsJCTx0aXRsZSBpZD0idGl0bGU3MzE5NSI+cG9seWdvbjQwMTA8L3RpdGxlPiYjeGE7CQk8cGF0aCBpZD0icGF0aDczMTk3IiBpbmtzY2FwZTpjb25uZWN0b3ItY3VydmF0dXJlPSIwIiBzdHlsZT0iZmlsbDojNTU2QThBOyIgZD0iTTAsODMuNTJ2MTMuMDlsMTEuMjUsNi4yNlY5MC4xOEwwLDgzLjUyeiIvPiYjeGE7CTwvZz4mI3hhOwk8ZyBpZD0ic2hhcGU1ODQxLTg3IiB0cmFuc2Zvcm09InRyYW5zbGF0ZSgzNiwtNi44MjUpIj4mI3hhOwkJPHRpdGxlIGlkPSJ0aXRsZTczMjAwIj5wb2x5Z29uNDAxMjwvdGl0bGU+JiN4YTsJCTxwYXRoIGlkPSJwYXRoNzMyMDIiIGlua3NjYXBlOmNvbm5lY3Rvci1jdXJ2YXR1cmU9IjAiIHN0eWxlPSJmaWxsOiM5Mzk1OTg7IiBkPSJNMTEuMjUsOTYuMzNWODIuNzdMMCw4OS43NHYxMy4xM0wxMS4yNSw5Ni4zM3oiLz4mI3hhOwk8L2c+JiN4YTsJPGcgaWQ9InNoYXBlNTg0Mi04OSIgdHJhbnNmb3JtPSJ0cmFuc2xhdGUoMCwtNi44MjUpIj4mI3hhOwkJPHRpdGxlIGlkPSJ0aXRsZTczMjA1Ij5wb2x5Z29uNDAxNDwvdGl0bGU+JiN4YTsJCTxwYXRoIGlkPSJwYXRoNzMyMDciIGlua3NjYXBlOmNvbm5lY3Rvci1jdXJ2YXR1cmU9IjAiIHN0eWxlPSJmaWxsOiM1NTZBOEE7IiBkPSJNMCw5Ni4zM2wxMS4yNSw2LjU0Vjg5Ljc0TDAsODIuNzdWOTYuMzN6Ii8+JiN4YTsJPC9nPiYjeGE7CTxnIGlkPSJzaGFwZTU4NDMtOTEiIHRyYW5zZm9ybT0idHJhbnNsYXRlKDI0LC0xMy44NDUpIj4mI3hhOwkJPHRpdGxlIGlkPSJ0aXRsZTczMjEwIj5wb2x5Z29uNDAxNjwvdGl0bGU+JiN4YTsJCTxwYXRoIGlkPSJwYXRoNzMyMTIiIGlua3NjYXBlOmNvbm5lY3Rvci1jdXJ2YXR1cmU9IjAiIHN0eWxlPSJmaWxsOiM5Mzk1OTg7IiBkPSJNMTEuMjUsOTYuMjFWODMuNThMMCw5MC4yNHYxMi42M0wxMS4yNSw5Ni4yMXoiLz4mI3hhOwk8L2c+JiN4YTsJPGcgaWQ9InNoYXBlNTg0NC05MyIgdHJhbnNmb3JtPSJ0cmFuc2xhdGUoMTIuNjQ1LC00MS41NzI1KSI+JiN4YTsJCTx0aXRsZSBpZD0idGl0bGU3MzIxNSI+cG9seWdvbjQwMTg8L3RpdGxlPiYjeGE7CQk8cGF0aCBpZD0icGF0aDczMjE3IiBpbmtzY2FwZTpjb25uZWN0b3ItY3VydmF0dXJlPSIwIiBzdHlsZT0iZmlsbDojMkJDN0Y0OyIgZD0iTTEwLjU2LDg5LjY4TDAsOTYuMTJsMTAuOTYsNi43NWwxMC41Ni02LjUgICAgTDEwLjU2LDg5LjY4eiIvPiYjeGE7CTwvZz4mI3hhOwk8ZyBpZD0ic2hhcGU1ODQ1LTk1IiB0cmFuc2Zvcm09InRyYW5zbGF0ZSgxMiwtMjguMDk1KSI+JiN4YTsJCTx0aXRsZSBpZD0idGl0bGU3MzIyMCI+cG9seWdvbjQwMjA8L3RpdGxlPiYjeGE7CQk8cGF0aCBpZD0icGF0aDczMjIyIiBpbmtzY2FwZTpjb25uZWN0b3ItY3VydmF0dXJlPSIwIiBzdHlsZT0iZmlsbDojNTU2QThBOyIgZD0iTTAsOTYuMjFsMTEuMjUsNi42NlY5MC4yNEwwLDgzLjU4Vjk2LjIxeiIvPiYjeGE7CTwvZz4mI3hhOwk8ZyBpZD0ic2hhcGU1ODQ2LTk3IiB0cmFuc2Zvcm09InRyYW5zbGF0ZSgyNC4xNSwtNDguNjQ1KSI+JiN4YTsJCTx0aXRsZSBpZD0idGl0bGU3MzIyNSI+cG9seWdvbjQwMjI8L3RpdGxlPiYjeGE7CQk8cGF0aCBpZD0icGF0aDczMjI3IiBpbmtzY2FwZTpjb25uZWN0b3ItY3VydmF0dXJlPSIwIiBzdHlsZT0iZmlsbDojMkJDN0Y0OyIgZD0iTTEwLjk2LDEwMi44N2wxMS4xMS02Ljg0bC0xMS4yMS02LjQ4TDAsOTYuMTggICAgTDEwLjk2LDEwMi44N3oiLz4mI3hhOwk8L2c+JiN4YTsJPGcgaWQ9InNoYXBlNTg0Ny05OSIgdHJhbnNmb3JtPSJ0cmFuc2xhdGUoMCwtMzUuMzYyNSkiPiYjeGE7CQk8dGl0bGUgaWQ9InRpdGxlNzMyMzAiPnBvbHlnb240MDI0PC90aXRsZT4mI3hhOwkJPHBhdGggaWQ9InBhdGg3MzIzMiIgaW5rc2NhcGU6Y29ubmVjdG9yLWN1cnZhdHVyZT0iMCIgc3R5bGU9ImZpbGw6IzU1NkE4QTsiIGQ9Ik0wLDgzLjMzdjEyLjU4bDExLjI1LDYuOTZWOTAuMjRMMCw4My4zMVY4My4zM3oiLz4mI3hhOwk8L2c+JiN4YTsJPGcgaWQ9InNoYXBlNTg0OC0xMDEiIHRyYW5zZm9ybT0idHJhbnNsYXRlKDM2LC0zNS4zNjI1KSI+JiN4YTsJCTx0aXRsZSBpZD0idGl0bGU3MzIzNSI+cG9seWdvbjQwMjY8L3RpdGxlPiYjeGE7CQk8cGF0aCBpZD0icGF0aDczMjM3IiBpbmtzY2FwZTpjb25uZWN0b3ItY3VydmF0dXJlPSIwIiBzdHlsZT0iZmlsbDojOTM5NTk4OyIgZD0iTTExLjI1LDgzLjMzdi0wLjAyTDAsOTAuMjR2MTIuNjNsMTEuMjUtNi45NiAgICBWODMuMzN6Ii8+JiN4YTsJPC9nPiYjeGE7CTxnIGlkPSJzaGFwZTU4NDktMTAzIiB0cmFuc2Zvcm09InRyYW5zbGF0ZSgwLjk5NzUsLTQ4Ljg5MjUpIj4mI3hhOwkJPHRpdGxlIGlkPSJ0aXRsZTczMjQwIj5wb2x5Z29uNDAyODwvdGl0bGU+JiN4YTsJCTxwYXRoIGlkPSJwYXRoNzMyNDIiIGlua3NjYXBlOmNvbm5lY3Rvci1jdXJ2YXR1cmU9IjAiIHN0eWxlPSJmaWxsOiMyQkM3RjQ7IiBkPSJNMjEuMjYsOTYuNDJsLTEwLjQ3LTYuMzhMMCw5Ni4yN2wxMC43MSw2LjYgICAgTDIxLjI2LDk2LjQyeiIvPiYjeGE7CTwvZz4mI3hhOwk8ZyBpZD0ic2hhcGU1ODUwLTEwNSIgdHJhbnNmb3JtPSJ0cmFuc2xhdGUoMTIuNzY1LC01NS45MDUpIj4mI3hhOwkJPHRpdGxlIGlkPSJ0aXRsZTczMjQ1Ij5wb2x5Z29uNDAzMDwvdGl0bGU+JiN4YTsJCTxwYXRoIGlkPSJwYXRoNzMyNDciIGlua3NjYXBlOmNvbm5lY3Rvci1jdXJ2YXR1cmU9IjAiIHN0eWxlPSJmaWxsOiMyQkM3RjQ7IiBkPSJNMTAuODQsOTAuMjJMMCw5Ni40OWwxMC40NCw2LjM4bDEwLjg0LTYuNjIgICAgTDEwLjg0LDkwLjIyeiIvPiYjeGE7CTwvZz4mI3hhOwk8ZyBpZD0ic2hhcGU1ODUxLTEwNyIgdHJhbnNmb3JtPSJ0cmFuc2xhdGUoMjQsLTI4LjA5NSkiPiYjeGE7CQk8dGl0bGUgaWQ9InRpdGxlNzMyNTAiPnBvbHlnb240MDMyPC90aXRsZT4mI3hhOwkJPHBhdGggaWQ9InBhdGg3MzI1MiIgaW5rc2NhcGU6Y29ubmVjdG9yLWN1cnZhdHVyZT0iMCIgc3R5bGU9ImZpbGw6IzkzOTU5ODsiIGQ9Ik0xMS4yNSw5Ni4yMVY4My41OEwwLDkwLjI0djEyLjYzTDExLjI1LDk2LjIxeiIvPiYjeGE7CTwvZz4mI3hhOwk8ZyBpZD0ic2hhcGU1ODUyLTEwOSIgdHJhbnNmb3JtPSJ0cmFuc2xhdGUoMjQpIj4mI3hhOwkJPHRpdGxlIGlkPSJ0aXRsZTczMjU1Ij5wb2x5Z29uNDAzNDwvdGl0bGU+JiN4YTsJCTxwYXRoIGlkPSJwYXRoNzMyNTciIGlua3NjYXBlOmNvbm5lY3Rvci1jdXJ2YXR1cmU9IjAiIHN0eWxlPSJmaWxsOiM5Mzk1OTg7IiBkPSJNMCwxMDIuODdsMTEuMjUtNi4yNlY4My41MkwwLDkwLjE4VjEwMi44N3oiLz4mI3hhOwk8L2c+JiN4YTs8L2c+JiN4YTs8L3N2Zz4=;" vertex="1" parent="1">
          <mxGeometry x="300" y="596" width="117" height="94" as="geometry" />
        </mxCell>
        <mxCell id="UOPAoyRl8zIuu1TyD0ZJ-64" style="edgeStyle=orthogonalEdgeStyle;rounded=0;orthogonalLoop=1;jettySize=auto;html=1;exitX=1;exitY=1;exitDx=0;exitDy=0;entryX=0;entryY=0.5;entryDx=0;entryDy=0;fillColor=#d5e8d4;strokeColor=#82b366;" edge="1" parent="1" source="UOPAoyRl8zIuu1TyD0ZJ-7" target="UOPAoyRl8zIuu1TyD0ZJ-63">
          <mxGeometry relative="1" as="geometry" />
        </mxCell>
        <mxCell id="UOPAoyRl8zIuu1TyD0ZJ-7" value="kdo_ic" style="shape=image;verticalLabelPosition=bottom;labelBackgroundColor=#ffffff;verticalAlign=top;aspect=fixed;imageAspect=0;image=data:image/svg+xml,PHN2ZyB4bWxuczpjYz0iaHR0cDovL2NyZWF0aXZlY29tbW9ucy5vcmcvbnMjIiB4bWxuczpkYz0iaHR0cDovL3B1cmwub3JnL2RjL2VsZW1lbnRzLzEuMS8iIHhtbG5zOmlua3NjYXBlPSJodHRwOi8vd3d3Lmlua3NjYXBlLm9yZy9uYW1lc3BhY2VzL2lua3NjYXBlIiB4bWxuczpyZGY9Imh0dHA6Ly93d3cudzMub3JnLzE5OTkvMDIvMjItcmRmLXN5bnRheC1ucyMiIHhtbG5zOnNvZGlwb2RpPSJodHRwOi8vc29kaXBvZGkuc291cmNlZm9yZ2UubmV0L0RURC9zb2RpcG9kaS0wLmR0ZCIgeG1sbnM6c3ZnPSJodHRwOi8vd3d3LnczLm9yZy8yMDAwL3N2ZyIgeG1sbnM9Imh0dHA6Ly93d3cudzMub3JnLzIwMDAvc3ZnIiB4bWxuczp4bGluaz0iaHR0cDovL3d3dy53My5vcmcvMTk5OS94bGluayIgdmVyc2lvbj0iMS4xIiBpZD0ic3ZnNzMyNjUiIGlua3NjYXBlOnZlcnNpb249IjAuOTIuMyAoMjQwNTU0NiwgMjAxOC0wMy0xMSkiIHNvZGlwb2RpOmRvY25hbWU9ImNvbnRhaW5lcnMuc3ZnIiB4PSIwcHgiIHk9IjBweCIgdmlld0JveD0iMCAwIDExNyA5NC4wNyIgc3R5bGU9ImVuYWJsZS1iYWNrZ3JvdW5kOm5ldyAwIDAgMTE3IDk0LjA3OyIgeG1sOnNwYWNlPSJwcmVzZXJ2ZSI+JiN4YTs8c29kaXBvZGk6bmFtZWR2aWV3IGJvcmRlcmNvbG9yPSIjNjY2NjY2IiBib3JkZXJvcGFjaXR5PSIxIiBmaXQtbWFyZ2luLWJvdHRvbT0iMCIgZml0LW1hcmdpbi1sZWZ0PSIwIiBmaXQtbWFyZ2luLXJpZ2h0PSIwIiBmaXQtbWFyZ2luLXRvcD0iMCIgZ3JpZHRvbGVyYW5jZT0iMTAiIGd1aWRldG9sZXJhbmNlPSIxMCIgaWQ9Im5hbWVkdmlldzczMjY3IiBpbmtzY2FwZTpjdXJyZW50LWxheWVyPSJzdmc3MzI2NSIgaW5rc2NhcGU6Y3g9IjkwLjQwMDE0NiIgaW5rc2NhcGU6Y3k9IjU1LjUyNTQ2OCIgaW5rc2NhcGU6cGFnZW9wYWNpdHk9IjAiIGlua3NjYXBlOnBhZ2VzaGFkb3c9IjIiIGlua3NjYXBlOndpbmRvdy1oZWlnaHQ9IjEwMTciIGlua3NjYXBlOndpbmRvdy1tYXhpbWl6ZWQ9IjEiIGlua3NjYXBlOndpbmRvdy13aWR0aD0iMTkyMCIgaW5rc2NhcGU6d2luZG93LXg9Ii04IiBpbmtzY2FwZTp3aW5kb3cteT0iLTgiIGlua3NjYXBlOnpvb209IjQuNDY5ODM4NSIgb2JqZWN0dG9sZXJhbmNlPSIxMCIgcGFnZWNvbG9yPSIjZmZmZmZmIiBzaG93Z3JpZD0iZmFsc2UiPiYjeGE7CTwvc29kaXBvZGk6bmFtZWR2aWV3PiYjeGE7PGcgaWQ9InNoYXBlNTc5Ni0zIiB0cmFuc2Zvcm09InRyYW5zbGF0ZSgyNi42MjQ3MDcsLTEzLjUxNzUpIj4mI3hhOwk8dGl0bGUgaWQ9InRpdGxlNzI5ODgiPnJlY3Q0MDQwPC90aXRsZT4mI3hhOwk8cmVjdCBpZD0icmVjdDcyOTkwIiB4PSIwIiB5PSIzNS4zNyIgc3R5bGU9ImZpbGw6bm9uZTsiIHdpZHRoPSI2OS43NSIgaGVpZ2h0PSI2Ny41Ii8+JiN4YTs8L2c+JiN4YTs8ZyBpZD0iZ3JvdXA1Nzk3LTUiIHRyYW5zZm9ybT0idHJhbnNsYXRlKDM0Ljg3NDcwNywtMjAuODE1KSI+JiN4YTsJPHRpdGxlIGlkPSJ0aXRsZTcyOTkzIj5nNDA1ODwvdGl0bGU+JiN4YTsJPGcgaWQ9InNoYXBlNTc5OC02IiB0cmFuc2Zvcm09InRyYW5zbGF0ZSgxMiwtMTMuODQ1KSI+JiN4YTsJCTx0aXRsZSBpZD0idGl0bGU3Mjk5NSI+cG9seWdvbjQwNDI8L3RpdGxlPiYjeGE7CQk8cGF0aCBpZD0icGF0aDcyOTk3IiBpbmtzY2FwZTpjb25uZWN0b3ItY3VydmF0dXJlPSIwIiBzdHlsZT0iZmlsbDojNTU2QThBOyIgZD0iTTAsOTYuMjFsMTEuMjUsNi42NlY5MC4yNEwwLDgzLjU4Vjk2LjIxeiIvPiYjeGE7CTwvZz4mI3hhOwk8ZyBpZD0ic2hhcGU1Nzk5LTgiIHRyYW5zZm9ybT0idHJhbnNsYXRlKDAsLTIxLjExMjUpIj4mI3hhOwkJPHRpdGxlIGlkPSJ0aXRsZTczMDAwIj5wb2x5Z29uNDA0NDwvdGl0bGU+JiN4YTsJCTxwYXRoIGlkPSJwYXRoNzMwMDIiIGlua3NjYXBlOmNvbm5lY3Rvci1jdXJ2YXR1cmU9IjAiIHN0eWxlPSJmaWxsOiM1NTZBOEE7IiBkPSJNMCw4My4zM3YxMi41OGwxMS4yNSw2Ljk2VjkwLjI0TDAsODMuMzFWODMuMzN6Ii8+JiN4YTsJPC9nPiYjeGE7CTxnIGlkPSJzaGFwZTU4MDAtMTAiIHRyYW5zZm9ybT0idHJhbnNsYXRlKDM2LC0yMS4xMTI1KSI+JiN4YTsJCTx0aXRsZSBpZD0idGl0bGU3MzAwNSI+cG9seWdvbjQwNDY8L3RpdGxlPiYjeGE7CQk8cGF0aCBpZD0icGF0aDczMDA3IiBpbmtzY2FwZTpjb25uZWN0b3ItY3VydmF0dXJlPSIwIiBzdHlsZT0iZmlsbDojOTM5NTk4OyIgZD0iTTExLjI1LDgzLjMzdi0wLjAyTDAsOTAuMjR2MTIuNjNsMTEuMjUtNi45NiAgICBWODMuMzN6Ii8+JiN4YTsJPC9nPiYjeGE7CTxnIGlkPSJzaGFwZTU4MDEtMTIiIHRyYW5zZm9ybT0idHJhbnNsYXRlKDEyKSI+JiN4YTsJCTx0aXRsZSBpZD0idGl0bGU3MzAxMCI+cG9seWdvbjQwNDg8L3RpdGxlPiYjeGE7CQk8cGF0aCBpZD0icGF0aDczMDEyIiBpbmtzY2FwZTpjb25uZWN0b3ItY3VydmF0dXJlPSIwIiBzdHlsZT0iZmlsbDojNTU2QThBOyIgZD0iTTAsODMuNTJ2MTMuMDlsMTEuMjUsNi4yNlY5MC4xOEwwLDgzLjUyeiIvPiYjeGE7CTwvZz4mI3hhOwk8ZyBpZD0ic2hhcGU1ODAyLTE0IiB0cmFuc2Zvcm09InRyYW5zbGF0ZSgzNiwtNi44MjUpIj4mI3hhOwkJPHRpdGxlIGlkPSJ0aXRsZTczMDE1Ij5wb2x5Z29uNDA1MDwvdGl0bGU+JiN4YTsJCTxwYXRoIGlkPSJwYXRoNzMwMTciIGlua3NjYXBlOmNvbm5lY3Rvci1jdXJ2YXR1cmU9IjAiIHN0eWxlPSJmaWxsOiM5Mzk1OTg7IiBkPSJNMTEuMjUsOTYuMzNWODIuNzdMMCw4OS43NHYxMy4xM0wxMS4yNSw5Ni4zM3oiLz4mI3hhOwk8L2c+JiN4YTsJPGcgaWQ9InNoYXBlNTgwMy0xNiIgdHJhbnNmb3JtPSJ0cmFuc2xhdGUoMCwtNi44MjUpIj4mI3hhOwkJPHRpdGxlIGlkPSJ0aXRsZTczMDIwIj5wb2x5Z29uNDA1MjwvdGl0bGU+JiN4YTsJCTxwYXRoIGlkPSJwYXRoNzMwMjIiIGlua3NjYXBlOmNvbm5lY3Rvci1jdXJ2YXR1cmU9IjAiIHN0eWxlPSJmaWxsOiM1NTZBOEE7IiBkPSJNMCw5Ni4zM2wxMS4yNSw2LjU0Vjg5Ljc0TDAsODIuNzdWOTYuMzN6Ii8+JiN4YTsJPC9nPiYjeGE7CTxnIGlkPSJzaGFwZTU4MDQtMTgiIHRyYW5zZm9ybT0idHJhbnNsYXRlKDI0LC0xMy44NDUpIj4mI3hhOwkJPHRpdGxlIGlkPSJ0aXRsZTczMDI1Ij5wb2x5Z29uNDA1NDwvdGl0bGU+JiN4YTsJCTxwYXRoIGlkPSJwYXRoNzMwMjciIGlua3NjYXBlOmNvbm5lY3Rvci1jdXJ2YXR1cmU9IjAiIHN0eWxlPSJmaWxsOiM5Mzk1OTg7IiBkPSJNMTEuMjUsOTYuMjFWODMuNThMMCw5MC4yNHYxMi42M0wxMS4yNSw5Ni4yMXoiLz4mI3hhOwk8L2c+JiN4YTsJPGcgaWQ9InNoYXBlNTgwNS0yMCIgdHJhbnNmb3JtPSJ0cmFuc2xhdGUoMjQpIj4mI3hhOwkJPHRpdGxlIGlkPSJ0aXRsZTczMDMwIj5wb2x5Z29uNDA1NjwvdGl0bGU+JiN4YTsJCTxwYXRoIGlkPSJwYXRoNzMwMzIiIGlua3NjYXBlOmNvbm5lY3Rvci1jdXJ2YXR1cmU9IjAiIHN0eWxlPSJmaWxsOiM5Mzk1OTg7IiBkPSJNMCwxMDIuODdsMTEuMjUtNi4yNlY4My41MkwwLDkwLjE4VjEwMi44N3oiLz4mI3hhOwk8L2c+JiN4YTs8L2c+JiN4YTs8ZyBpZD0ic2hhcGU1ODA3LTIzIiB0cmFuc2Zvcm09InRyYW5zbGF0ZSg0Ny41MTk3MDcsLTc1Ljg4NzUpIj4mI3hhOwk8dGl0bGUgaWQ9InRpdGxlNzMwMzkiPnBvbHlnb240MDYyPC90aXRsZT4mI3hhOwk8cGF0aCBpZD0icGF0aDczMDQxIiBpbmtzY2FwZTpjb25uZWN0b3ItY3VydmF0dXJlPSIwIiBzdHlsZT0iZmlsbDojMkJDN0Y0OyIgZD0iTTEwLjU2LDg5LjY4TDAsOTYuMTJsMTAuOTYsNi43NWwxMC41Ni02LjUgICBMMTAuNTYsODkuNjh6Ii8+JiN4YTs8L2c+JiN4YTs8ZyBpZD0ic2hhcGU1ODA4LTI1IiB0cmFuc2Zvcm09InRyYW5zbGF0ZSg0Ni44NzQ3MDcsLTYyLjQxKSI+JiN4YTsJPHRpdGxlIGlkPSJ0aXRsZTczMDQ0Ij5wb2x5Z29uNDA2NDwvdGl0bGU+JiN4YTsJPHBhdGggaWQ9InBhdGg3MzA0NiIgaW5rc2NhcGU6Y29ubmVjdG9yLWN1cnZhdHVyZT0iMCIgc3R5bGU9ImZpbGw6IzU1NkE4QTsiIGQ9Ik0wLDk2LjIxbDExLjI1LDYuNjZWOTAuMjRMMCw4My41OFY5Ni4yMXoiLz4mI3hhOzwvZz4mI3hhOzxnIGlkPSJzaGFwZTU4MDktMjciIHRyYW5zZm9ybT0idHJhbnNsYXRlKDU5LjAyNDcwNywtODIuOTYpIj4mI3hhOwk8dGl0bGUgaWQ9InRpdGxlNzMwNDkiPnBvbHlnb240MDY2PC90aXRsZT4mI3hhOwk8cGF0aCBpZD0icGF0aDczMDUxIiBpbmtzY2FwZTpjb25uZWN0b3ItY3VydmF0dXJlPSIwIiBzdHlsZT0iZmlsbDojMkJDN0Y0OyIgZD0iTTEwLjk2LDEwMi44N2wxMS4xMS02Ljg0bC0xMS4yMS02LjQ4TDAsOTYuMTggICBMMTAuOTYsMTAyLjg3eiIvPiYjeGE7PC9nPiYjeGE7PGcgaWQ9InNoYXBlNTgxMC0yOSIgdHJhbnNmb3JtPSJ0cmFuc2xhdGUoMzQuODc0NzA3LC02OS42Nzc1KSI+JiN4YTsJPHRpdGxlIGlkPSJ0aXRsZTczMDU0Ij5wb2x5Z29uNDA2ODwvdGl0bGU+JiN4YTsJPHBhdGggaWQ9InBhdGg3MzA1NiIgaW5rc2NhcGU6Y29ubmVjdG9yLWN1cnZhdHVyZT0iMCIgc3R5bGU9ImZpbGw6IzU1NkE4QTsiIGQ9Ik0wLDgzLjMzdjEyLjU4bDExLjI1LDYuOTZWOTAuMjRMMCw4My4zMVY4My4zM3oiLz4mI3hhOzwvZz4mI3hhOzxnIGlkPSJzaGFwZTU4MTEtMzEiIHRyYW5zZm9ybT0idHJhbnNsYXRlKDcwLjg3NDcwNywtNjkuNjc3NSkiPiYjeGE7CTx0aXRsZSBpZD0idGl0bGU3MzA1OSI+cG9seWdvbjQwNzA8L3RpdGxlPiYjeGE7CTxwYXRoIGlkPSJwYXRoNzMwNjEiIGlua3NjYXBlOmNvbm5lY3Rvci1jdXJ2YXR1cmU9IjAiIHN0eWxlPSJmaWxsOiM5Mzk1OTg7IiBkPSJNMTEuMjUsODMuMzN2LTAuMDJMMCw5MC4yNHYxMi42M2wxMS4yNS02Ljk2ICAgVjgzLjMzeiIvPiYjeGE7PC9nPiYjeGE7PGcgaWQ9InNoYXBlNTgxMi0zMyIgdHJhbnNmb3JtPSJ0cmFuc2xhdGUoMzUuODcyMjA3LC04My4yMDc1KSI+JiN4YTsJPHRpdGxlIGlkPSJ0aXRsZTczMDY0Ij5wb2x5Z29uNDA3MjwvdGl0bGU+JiN4YTsJPHBhdGggaWQ9InBhdGg3MzA2NiIgaW5rc2NhcGU6Y29ubmVjdG9yLWN1cnZhdHVyZT0iMCIgc3R5bGU9ImZpbGw6IzJCQzdGNDsiIGQ9Ik0yMS4yNiw5Ni40MmwtMTAuNDctNi4zOEwwLDk2LjI3bDEwLjcxLDYuNiAgIEwyMS4yNiw5Ni40MnoiLz4mI3hhOzwvZz4mI3hhOzxnIGlkPSJzaGFwZTU4MTMtMzUiIHRyYW5zZm9ybT0idHJhbnNsYXRlKDQ2Ljg3NDcwNywtNDguNTY1KSI+JiN4YTsJPHRpdGxlIGlkPSJ0aXRsZTczMDY5Ij5wb2x5Z29uNDA3NDwvdGl0bGU+JiN4YTsJPHBhdGggaWQ9InBhdGg3MzA3MSIgaW5rc2NhcGU6Y29ubmVjdG9yLWN1cnZhdHVyZT0iMCIgc3R5bGU9ImZpbGw6IzU1NkE4QTsiIGQ9Ik0wLDgzLjUydjEzLjA5bDExLjI1LDYuMjZWOTAuMThMMCw4My41MnoiLz4mI3hhOzwvZz4mI3hhOzxnIGlkPSJzaGFwZTU4MTQtMzciIHRyYW5zZm9ybT0idHJhbnNsYXRlKDQ3LjYzOTcwNywtOTAuMjIpIj4mI3hhOwk8dGl0bGUgaWQ9InRpdGxlNzMwNzQiPnBvbHlnb240MDc2PC90aXRsZT4mI3hhOwk8cGF0aCBpZD0icGF0aDczMDc2IiBpbmtzY2FwZTpjb25uZWN0b3ItY3VydmF0dXJlPSIwIiBzdHlsZT0iZmlsbDojMkJDN0Y0OyIgZD0iTTEwLjg0LDkwLjIyTDAsOTYuNDlsMTAuNDQsNi4zOGwxMC44NC02LjYyICAgTDEwLjg0LDkwLjIyeiIvPiYjeGE7PC9nPiYjeGE7PGcgaWQ9InNoYXBlNTgxNS0zOSIgdHJhbnNmb3JtPSJ0cmFuc2xhdGUoNzAuODc0NzA3LC01NS4zOSkiPiYjeGE7CTx0aXRsZSBpZD0idGl0bGU3MzA3OSI+cG9seWdvbjQwNzg8L3RpdGxlPiYjeGE7CTxwYXRoIGlkPSJwYXRoNzMwODEiIGlua3NjYXBlOmNvbm5lY3Rvci1jdXJ2YXR1cmU9IjAiIHN0eWxlPSJmaWxsOiM5Mzk1OTg7IiBkPSJNMTEuMjUsOTYuMzNWODIuNzdMMCw4OS43M3YxMy4xNEwxMS4yNSw5Ni4zM3oiLz4mI3hhOzwvZz4mI3hhOzxnIGlkPSJzaGFwZTU4MTYtNDEiIHRyYW5zZm9ybT0idHJhbnNsYXRlKDM0Ljg3NDcwNywtNTUuMzkpIj4mI3hhOwk8dGl0bGUgaWQ9InRpdGxlNzMwODQiPnBvbHlnb240MDgwPC90aXRsZT4mI3hhOwk8cGF0aCBpZD0icGF0aDczMDg2IiBpbmtzY2FwZTpjb25uZWN0b3ItY3VydmF0dXJlPSIwIiBzdHlsZT0iZmlsbDojNTU2QThBOyIgZD0iTTAsOTYuMzNsMTEuMjUsNi41NFY4OS43M0wwLDgyLjc3Vjk2LjMzeiIvPiYjeGE7PC9nPiYjeGE7PGcgaWQ9InNoYXBlNTgxNy00MyIgdHJhbnNmb3JtPSJ0cmFuc2xhdGUoNTguODc0NzA3LC02Mi40MSkiPiYjeGE7CTx0aXRsZSBpZD0idGl0bGU3MzA4OSI+cG9seWdvbjQwODI8L3RpdGxlPiYjeGE7CTxwYXRoIGlkPSJwYXRoNzMwOTEiIGlua3NjYXBlOmNvbm5lY3Rvci1jdXJ2YXR1cmU9IjAiIHN0eWxlPSJmaWxsOiM5Mzk1OTg7IiBkPSJNMTEuMjUsOTYuMjFWODMuNThMMCw5MC4yNHYxMi42M0wxMS4yNSw5Ni4yMXoiLz4mI3hhOzwvZz4mI3hhOzxnIGlkPSJzaGFwZTU4MTgtNDUiIHRyYW5zZm9ybT0idHJhbnNsYXRlKDU4Ljg3NDcwNywtNDguNTY1KSI+JiN4YTsJPHRpdGxlIGlkPSJ0aXRsZTczMDk0Ij5wb2x5Z29uNDA4NDwvdGl0bGU+JiN4YTsJPHBhdGggaWQ9InBhdGg3MzA5NiIgaW5rc2NhcGU6Y29ubmVjdG9yLWN1cnZhdHVyZT0iMCIgc3R5bGU9ImZpbGw6IzkzOTU5ODsiIGQ9Ik0wLDEwMi44N2wxMS4yNS02LjI2VjgzLjUyTDAsOTAuMThWMTAyLjg3eiIvPiYjeGE7PC9nPiYjeGE7PGcgaWQ9InNoYXBlNTgyMC00OCIgdHJhbnNmb3JtPSJ0cmFuc2xhdGUoLTguMjUwMjkyNSwtMS40OTgzKSI+JiN4YTsJPHRpdGxlIGlkPSJ0aXRsZTczMTAyIj5yZWN0Mzk3MjwvdGl0bGU+JiN4YTsJPHJlY3QgaWQ9InJlY3Q3MzEwNCIgeD0iMCIgeT0iMzUuMzciIHN0eWxlPSJmaWxsOm5vbmU7IiB3aWR0aD0iNjkuNzUiIGhlaWdodD0iNjcuNSIvPiYjeGE7PC9nPiYjeGE7PGcgaWQ9Imdyb3VwNTgyMS01MCIgdHJhbnNmb3JtPSJ0cmFuc2xhdGUoLTIuOTI1MTc1OWUtNCwtOC43OTU4KSI+JiN4YTsJPHRpdGxlIGlkPSJ0aXRsZTczMTA3Ij5nMzk5ODwvdGl0bGU+JiN4YTsJPGcgaWQ9InNoYXBlNTgyMi01MSIgdHJhbnNmb3JtPSJ0cmFuc2xhdGUoMTIuNjQ1LC0yNy4zMjI1KSI+JiN4YTsJCTx0aXRsZSBpZD0idGl0bGU3MzEwOSI+cG9seWdvbjM5NzQ8L3RpdGxlPiYjeGE7CQk8cGF0aCBpZD0icGF0aDczMTExIiBpbmtzY2FwZTpjb25uZWN0b3ItY3VydmF0dXJlPSIwIiBzdHlsZT0iZmlsbDojMkJDN0Y0OyIgZD0iTTEwLjU2LDg5LjY4TDAsOTYuMTJsMTAuOTYsNi43NWwxMC41Ni02LjUgICAgTDEwLjU2LDg5LjY4eiIvPiYjeGE7CTwvZz4mI3hhOwk8ZyBpZD0ic2hhcGU1ODIzLTUzIiB0cmFuc2Zvcm09InRyYW5zbGF0ZSgxMiwtMTMuODQ1KSI+JiN4YTsJCTx0aXRsZSBpZD0idGl0bGU3MzExNCI+cG9seWdvbjM5NzY8L3RpdGxlPiYjeGE7CQk8cGF0aCBpZD0icGF0aDczMTE2IiBpbmtzY2FwZTpjb25uZWN0b3ItY3VydmF0dXJlPSIwIiBzdHlsZT0iZmlsbDojNTU2QThBOyIgZD0iTTAsOTYuMjFsMTEuMjUsNi42NlY5MC4yNEwwLDgzLjU4Vjk2LjIxeiIvPiYjeGE7CTwvZz4mI3hhOwk8ZyBpZD0ic2hhcGU1ODI0LTU1IiB0cmFuc2Zvcm09InRyYW5zbGF0ZSgyNC4xNSwtMzQuMzk1KSI+JiN4YTsJCTx0aXRsZSBpZD0idGl0bGU3MzExOSI+cG9seWdvbjM5Nzg8L3RpdGxlPiYjeGE7CQk8cGF0aCBpZD0icGF0aDczMTIxIiBpbmtzY2FwZTpjb25uZWN0b3ItY3VydmF0dXJlPSIwIiBzdHlsZT0iZmlsbDojMkJDN0Y0OyIgZD0iTTEwLjk2LDEwMi44N2wxMS4xMS02Ljg0bC0xMS4yMS02LjQ4TDAsOTYuMTggICAgTDEwLjk2LDEwMi44N3oiLz4mI3hhOwk8L2c+JiN4YTsJPGcgaWQ9InNoYXBlNTgyNS01NyIgdHJhbnNmb3JtPSJ0cmFuc2xhdGUoMCwtMjEuMTEyNSkiPiYjeGE7CQk8dGl0bGUgaWQ9InRpdGxlNzMxMjQiPnBvbHlnb24zOTgwPC90aXRsZT4mI3hhOwkJPHBhdGggaWQ9InBhdGg3MzEyNiIgaW5rc2NhcGU6Y29ubmVjdG9yLWN1cnZhdHVyZT0iMCIgc3R5bGU9ImZpbGw6IzU1NkE4QTsiIGQ9Ik0wLDgzLjMzdjEyLjU4bDExLjI1LDYuOTZWOTAuMjRMMCw4My4zMVY4My4zM3oiLz4mI3hhOwk8L2c+JiN4YTsJPGcgaWQ9InNoYXBlNTgyNi01OSIgdHJhbnNmb3JtPSJ0cmFuc2xhdGUoMzYsLTIxLjExMjUpIj4mI3hhOwkJPHRpdGxlIGlkPSJ0aXRsZTczMTI5Ij5wb2x5Z29uMzk4MjwvdGl0bGU+JiN4YTsJCTxwYXRoIGlkPSJwYXRoNzMxMzEiIGlua3NjYXBlOmNvbm5lY3Rvci1jdXJ2YXR1cmU9IjAiIHN0eWxlPSJmaWxsOiM5Mzk1OTg7IiBkPSJNMTEuMjUsODMuMzN2LTAuMDJMMCw5MC4yNHYxMi42M2wxMS4yNS02Ljk2ICAgIFY4My4zM3oiLz4mI3hhOwk8L2c+JiN4YTsJPGcgaWQ9InNoYXBlNTgyNy02MSIgdHJhbnNmb3JtPSJ0cmFuc2xhdGUoMC45OTc1LC0zNC42NDI1KSI+JiN4YTsJCTx0aXRsZSBpZD0idGl0bGU3MzEzNCI+cG9seWdvbjM5ODQ8L3RpdGxlPiYjeGE7CQk8cGF0aCBpZD0icGF0aDczMTM2IiBpbmtzY2FwZTpjb25uZWN0b3ItY3VydmF0dXJlPSIwIiBzdHlsZT0iZmlsbDojMkJDN0Y0OyIgZD0iTTIxLjI2LDk2LjQybC0xMC40Ny02LjM4TDAsOTYuMjdsMTAuNzEsNi42ICAgIEwyMS4yNiw5Ni40MnoiLz4mI3hhOwk8L2c+JiN4YTsJPGcgaWQ9InNoYXBlNTgyOC02MyIgdHJhbnNmb3JtPSJ0cmFuc2xhdGUoMTIpIj4mI3hhOwkJPHRpdGxlIGlkPSJ0aXRsZTczMTM5Ij5wb2x5Z29uMzk4NjwvdGl0bGU+JiN4YTsJCTxwYXRoIGlkPSJwYXRoNzMxNDEiIGlua3NjYXBlOmNvbm5lY3Rvci1jdXJ2YXR1cmU9IjAiIHN0eWxlPSJmaWxsOiM1NTZBOEE7IiBkPSJNMCw4My41MnYxMy4wOWwxMS4yNSw2LjI2VjkwLjE4TDAsODMuNTJ6Ii8+JiN4YTsJPC9nPiYjeGE7CTxnIGlkPSJzaGFwZTU4MjktNjUiIHRyYW5zZm9ybT0idHJhbnNsYXRlKDEyLjc2NSwtNDEuNjYyNSkiPiYjeGE7CQk8dGl0bGUgaWQ9InRpdGxlNzMxNDQiPnBvbHlnb24zOTg4PC90aXRsZT4mI3hhOwkJPHBhdGggaWQ9InBhdGg3MzE0NiIgaW5rc2NhcGU6Y29ubmVjdG9yLWN1cnZhdHVyZT0iMCIgc3R5bGU9ImZpbGw6IzJCQzdGNDsiIGQ9Ik0xMC44NCw5MC4yM0wwLDk2LjVsMTAuNDQsNi4zN2wxMC44NC02LjYxICAgIEwxMC44NCw5MC4yM3oiLz4mI3hhOwk8L2c+JiN4YTsJPGcgaWQ9InNoYXBlNTgzMC02NyIgdHJhbnNmb3JtPSJ0cmFuc2xhdGUoMzYsLTYuODI1KSI+JiN4YTsJCTx0aXRsZSBpZD0idGl0bGU3MzE0OSI+cG9seWdvbjM5OTA8L3RpdGxlPiYjeGE7CQk8cGF0aCBpZD0icGF0aDczMTUxIiBpbmtzY2FwZTpjb25uZWN0b3ItY3VydmF0dXJlPSIwIiBzdHlsZT0iZmlsbDojOTM5NTk4OyIgZD0iTTExLjI1LDk2LjMzVjgyLjc3TDAsODkuNzR2MTMuMTNMMTEuMjUsOTYuMzN6Ii8+JiN4YTsJPC9nPiYjeGE7CTxnIGlkPSJzaGFwZTU4MzEtNjkiIHRyYW5zZm9ybT0idHJhbnNsYXRlKDAsLTYuODI1KSI+JiN4YTsJCTx0aXRsZSBpZD0idGl0bGU3MzE1NCI+cG9seWdvbjM5OTI8L3RpdGxlPiYjeGE7CQk8cGF0aCBpZD0icGF0aDczMTU2IiBpbmtzY2FwZTpjb25uZWN0b3ItY3VydmF0dXJlPSIwIiBzdHlsZT0iZmlsbDojNTU2QThBOyIgZD0iTTAsOTYuMzNsMTEuMjUsNi41NFY4OS43NEwwLDgyLjc3Vjk2LjMzeiIvPiYjeGE7CTwvZz4mI3hhOwk8ZyBpZD0ic2hhcGU1ODMyLTcxIiB0cmFuc2Zvcm09InRyYW5zbGF0ZSgyNCwtMTMuODQ1KSI+JiN4YTsJCTx0aXRsZSBpZD0idGl0bGU3MzE1OSI+cG9seWdvbjM5OTQ8L3RpdGxlPiYjeGE7CQk8cGF0aCBpZD0icGF0aDczMTYxIiBpbmtzY2FwZTpjb25uZWN0b3ItY3VydmF0dXJlPSIwIiBzdHlsZT0iZmlsbDojOTM5NTk4OyIgZD0iTTExLjI1LDk2LjIxVjgzLjU4TDAsOTAuMjR2MTIuNjNMMTEuMjUsOTYuMjF6Ii8+JiN4YTsJPC9nPiYjeGE7CTxnIGlkPSJzaGFwZTU4MzMtNzMiIHRyYW5zZm9ybT0idHJhbnNsYXRlKDI0KSI+JiN4YTsJCTx0aXRsZSBpZD0idGl0bGU3MzE2NCI+cG9seWdvbjM5OTY8L3RpdGxlPiYjeGE7CQk8cGF0aCBpZD0icGF0aDczMTY2IiBpbmtzY2FwZTpjb25uZWN0b3ItY3VydmF0dXJlPSIwIiBzdHlsZT0iZmlsbDojOTM5NTk4OyIgZD0iTTAsMTAyLjg3bDExLjI1LTYuMjZWODMuNTJMMCw5MC4xOFYxMDIuODd6Ii8+JiN4YTsJPC9nPiYjeGE7PC9nPiYjeGE7PGcgaWQ9InNoYXBlNTgzNS03NiIgdHJhbnNmb3JtPSJ0cmFuc2xhdGUoNjEuNDk5NzA3LC02LjA5NDI0KSI+JiN4YTsJPHRpdGxlIGlkPSJ0aXRsZTczMTczIj5yZWN0NDAwMjwvdGl0bGU+JiN4YTsJPHJlY3QgaWQ9InJlY3Q3MzE3NSIgeD0iMCIgeT0iMzUuMzciIHN0eWxlPSJmaWxsOm5vbmU7IiB3aWR0aD0iNjkuNzUiIGhlaWdodD0iNjcuNSIvPiYjeGE7PC9nPiYjeGE7PGcgaWQ9Imdyb3VwNTgzNi03OCIgdHJhbnNmb3JtPSJ0cmFuc2xhdGUoNjkuNzQ5NzA3LC0xMy4zOTE3NCkiPiYjeGE7CTx0aXRsZSBpZD0idGl0bGU3MzE3OCI+ZzQwMzY8L3RpdGxlPiYjeGE7CTxnIGlkPSJzaGFwZTU4MzctNzkiIHRyYW5zZm9ybT0idHJhbnNsYXRlKDEyLC0xMy44NDUpIj4mI3hhOwkJPHRpdGxlIGlkPSJ0aXRsZTczMTgwIj5wb2x5Z29uNDAwNDwvdGl0bGU+JiN4YTsJCTxwYXRoIGlkPSJwYXRoNzMxODIiIGlua3NjYXBlOmNvbm5lY3Rvci1jdXJ2YXR1cmU9IjAiIHN0eWxlPSJmaWxsOiM1NTZBOEE7IiBkPSJNMCw5Ni4yMWwxMS4yNSw2LjY2VjkwLjI0TDAsODMuNThWOTYuMjF6Ii8+JiN4YTsJPC9nPiYjeGE7CTxnIGlkPSJzaGFwZTU4MzgtODEiIHRyYW5zZm9ybT0idHJhbnNsYXRlKDAsLTIxLjExMjUpIj4mI3hhOwkJPHRpdGxlIGlkPSJ0aXRsZTczMTg1Ij5wb2x5Z29uNDAwNjwvdGl0bGU+JiN4YTsJCTxwYXRoIGlkPSJwYXRoNzMxODciIGlua3NjYXBlOmNvbm5lY3Rvci1jdXJ2YXR1cmU9IjAiIHN0eWxlPSJmaWxsOiM1NTZBOEE7IiBkPSJNMCw4My4zM3YxMi41OGwxMS4yNSw2Ljk2VjkwLjI0TDAsODMuMzFWODMuMzN6Ii8+JiN4YTsJPC9nPiYjeGE7CTxnIGlkPSJzaGFwZTU4MzktODMiIHRyYW5zZm9ybT0idHJhbnNsYXRlKDM2LC0yMS4xMTI1KSI+JiN4YTsJCTx0aXRsZSBpZD0idGl0bGU3MzE5MCI+cG9seWdvbjQwMDg8L3RpdGxlPiYjeGE7CQk8cGF0aCBpZD0icGF0aDczMTkyIiBpbmtzY2FwZTpjb25uZWN0b3ItY3VydmF0dXJlPSIwIiBzdHlsZT0iZmlsbDojOTM5NTk4OyIgZD0iTTExLjI1LDgzLjMzdi0wLjAyTDAsOTAuMjR2MTIuNjNsMTEuMjUtNi45NiAgICBWODMuMzN6Ii8+JiN4YTsJPC9nPiYjeGE7CTxnIGlkPSJzaGFwZTU4NDAtODUiIHRyYW5zZm9ybT0idHJhbnNsYXRlKDEyKSI+JiN4YTsJCTx0aXRsZSBpZD0idGl0bGU3MzE5NSI+cG9seWdvbjQwMTA8L3RpdGxlPiYjeGE7CQk8cGF0aCBpZD0icGF0aDczMTk3IiBpbmtzY2FwZTpjb25uZWN0b3ItY3VydmF0dXJlPSIwIiBzdHlsZT0iZmlsbDojNTU2QThBOyIgZD0iTTAsODMuNTJ2MTMuMDlsMTEuMjUsNi4yNlY5MC4xOEwwLDgzLjUyeiIvPiYjeGE7CTwvZz4mI3hhOwk8ZyBpZD0ic2hhcGU1ODQxLTg3IiB0cmFuc2Zvcm09InRyYW5zbGF0ZSgzNiwtNi44MjUpIj4mI3hhOwkJPHRpdGxlIGlkPSJ0aXRsZTczMjAwIj5wb2x5Z29uNDAxMjwvdGl0bGU+JiN4YTsJCTxwYXRoIGlkPSJwYXRoNzMyMDIiIGlua3NjYXBlOmNvbm5lY3Rvci1jdXJ2YXR1cmU9IjAiIHN0eWxlPSJmaWxsOiM5Mzk1OTg7IiBkPSJNMTEuMjUsOTYuMzNWODIuNzdMMCw4OS43NHYxMy4xM0wxMS4yNSw5Ni4zM3oiLz4mI3hhOwk8L2c+JiN4YTsJPGcgaWQ9InNoYXBlNTg0Mi04OSIgdHJhbnNmb3JtPSJ0cmFuc2xhdGUoMCwtNi44MjUpIj4mI3hhOwkJPHRpdGxlIGlkPSJ0aXRsZTczMjA1Ij5wb2x5Z29uNDAxNDwvdGl0bGU+JiN4YTsJCTxwYXRoIGlkPSJwYXRoNzMyMDciIGlua3NjYXBlOmNvbm5lY3Rvci1jdXJ2YXR1cmU9IjAiIHN0eWxlPSJmaWxsOiM1NTZBOEE7IiBkPSJNMCw5Ni4zM2wxMS4yNSw2LjU0Vjg5Ljc0TDAsODIuNzdWOTYuMzN6Ii8+JiN4YTsJPC9nPiYjeGE7CTxnIGlkPSJzaGFwZTU4NDMtOTEiIHRyYW5zZm9ybT0idHJhbnNsYXRlKDI0LC0xMy44NDUpIj4mI3hhOwkJPHRpdGxlIGlkPSJ0aXRsZTczMjEwIj5wb2x5Z29uNDAxNjwvdGl0bGU+JiN4YTsJCTxwYXRoIGlkPSJwYXRoNzMyMTIiIGlua3NjYXBlOmNvbm5lY3Rvci1jdXJ2YXR1cmU9IjAiIHN0eWxlPSJmaWxsOiM5Mzk1OTg7IiBkPSJNMTEuMjUsOTYuMjFWODMuNThMMCw5MC4yNHYxMi42M0wxMS4yNSw5Ni4yMXoiLz4mI3hhOwk8L2c+JiN4YTsJPGcgaWQ9InNoYXBlNTg0NC05MyIgdHJhbnNmb3JtPSJ0cmFuc2xhdGUoMTIuNjQ1LC00MS41NzI1KSI+JiN4YTsJCTx0aXRsZSBpZD0idGl0bGU3MzIxNSI+cG9seWdvbjQwMTg8L3RpdGxlPiYjeGE7CQk8cGF0aCBpZD0icGF0aDczMjE3IiBpbmtzY2FwZTpjb25uZWN0b3ItY3VydmF0dXJlPSIwIiBzdHlsZT0iZmlsbDojMkJDN0Y0OyIgZD0iTTEwLjU2LDg5LjY4TDAsOTYuMTJsMTAuOTYsNi43NWwxMC41Ni02LjUgICAgTDEwLjU2LDg5LjY4eiIvPiYjeGE7CTwvZz4mI3hhOwk8ZyBpZD0ic2hhcGU1ODQ1LTk1IiB0cmFuc2Zvcm09InRyYW5zbGF0ZSgxMiwtMjguMDk1KSI+JiN4YTsJCTx0aXRsZSBpZD0idGl0bGU3MzIyMCI+cG9seWdvbjQwMjA8L3RpdGxlPiYjeGE7CQk8cGF0aCBpZD0icGF0aDczMjIyIiBpbmtzY2FwZTpjb25uZWN0b3ItY3VydmF0dXJlPSIwIiBzdHlsZT0iZmlsbDojNTU2QThBOyIgZD0iTTAsOTYuMjFsMTEuMjUsNi42NlY5MC4yNEwwLDgzLjU4Vjk2LjIxeiIvPiYjeGE7CTwvZz4mI3hhOwk8ZyBpZD0ic2hhcGU1ODQ2LTk3IiB0cmFuc2Zvcm09InRyYW5zbGF0ZSgyNC4xNSwtNDguNjQ1KSI+JiN4YTsJCTx0aXRsZSBpZD0idGl0bGU3MzIyNSI+cG9seWdvbjQwMjI8L3RpdGxlPiYjeGE7CQk8cGF0aCBpZD0icGF0aDczMjI3IiBpbmtzY2FwZTpjb25uZWN0b3ItY3VydmF0dXJlPSIwIiBzdHlsZT0iZmlsbDojMkJDN0Y0OyIgZD0iTTEwLjk2LDEwMi44N2wxMS4xMS02Ljg0bC0xMS4yMS02LjQ4TDAsOTYuMTggICAgTDEwLjk2LDEwMi44N3oiLz4mI3hhOwk8L2c+JiN4YTsJPGcgaWQ9InNoYXBlNTg0Ny05OSIgdHJhbnNmb3JtPSJ0cmFuc2xhdGUoMCwtMzUuMzYyNSkiPiYjeGE7CQk8dGl0bGUgaWQ9InRpdGxlNzMyMzAiPnBvbHlnb240MDI0PC90aXRsZT4mI3hhOwkJPHBhdGggaWQ9InBhdGg3MzIzMiIgaW5rc2NhcGU6Y29ubmVjdG9yLWN1cnZhdHVyZT0iMCIgc3R5bGU9ImZpbGw6IzU1NkE4QTsiIGQ9Ik0wLDgzLjMzdjEyLjU4bDExLjI1LDYuOTZWOTAuMjRMMCw4My4zMVY4My4zM3oiLz4mI3hhOwk8L2c+JiN4YTsJPGcgaWQ9InNoYXBlNTg0OC0xMDEiIHRyYW5zZm9ybT0idHJhbnNsYXRlKDM2LC0zNS4zNjI1KSI+JiN4YTsJCTx0aXRsZSBpZD0idGl0bGU3MzIzNSI+cG9seWdvbjQwMjY8L3RpdGxlPiYjeGE7CQk8cGF0aCBpZD0icGF0aDczMjM3IiBpbmtzY2FwZTpjb25uZWN0b3ItY3VydmF0dXJlPSIwIiBzdHlsZT0iZmlsbDojOTM5NTk4OyIgZD0iTTExLjI1LDgzLjMzdi0wLjAyTDAsOTAuMjR2MTIuNjNsMTEuMjUtNi45NiAgICBWODMuMzN6Ii8+JiN4YTsJPC9nPiYjeGE7CTxnIGlkPSJzaGFwZTU4NDktMTAzIiB0cmFuc2Zvcm09InRyYW5zbGF0ZSgwLjk5NzUsLTQ4Ljg5MjUpIj4mI3hhOwkJPHRpdGxlIGlkPSJ0aXRsZTczMjQwIj5wb2x5Z29uNDAyODwvdGl0bGU+JiN4YTsJCTxwYXRoIGlkPSJwYXRoNzMyNDIiIGlua3NjYXBlOmNvbm5lY3Rvci1jdXJ2YXR1cmU9IjAiIHN0eWxlPSJmaWxsOiMyQkM3RjQ7IiBkPSJNMjEuMjYsOTYuNDJsLTEwLjQ3LTYuMzhMMCw5Ni4yN2wxMC43MSw2LjYgICAgTDIxLjI2LDk2LjQyeiIvPiYjeGE7CTwvZz4mI3hhOwk8ZyBpZD0ic2hhcGU1ODUwLTEwNSIgdHJhbnNmb3JtPSJ0cmFuc2xhdGUoMTIuNzY1LC01NS45MDUpIj4mI3hhOwkJPHRpdGxlIGlkPSJ0aXRsZTczMjQ1Ij5wb2x5Z29uNDAzMDwvdGl0bGU+JiN4YTsJCTxwYXRoIGlkPSJwYXRoNzMyNDciIGlua3NjYXBlOmNvbm5lY3Rvci1jdXJ2YXR1cmU9IjAiIHN0eWxlPSJmaWxsOiMyQkM3RjQ7IiBkPSJNMTAuODQsOTAuMjJMMCw5Ni40OWwxMC40NCw2LjM4bDEwLjg0LTYuNjIgICAgTDEwLjg0LDkwLjIyeiIvPiYjeGE7CTwvZz4mI3hhOwk8ZyBpZD0ic2hhcGU1ODUxLTEwNyIgdHJhbnNmb3JtPSJ0cmFuc2xhdGUoMjQsLTI4LjA5NSkiPiYjeGE7CQk8dGl0bGUgaWQ9InRpdGxlNzMyNTAiPnBvbHlnb240MDMyPC90aXRsZT4mI3hhOwkJPHBhdGggaWQ9InBhdGg3MzI1MiIgaW5rc2NhcGU6Y29ubmVjdG9yLWN1cnZhdHVyZT0iMCIgc3R5bGU9ImZpbGw6IzkzOTU5ODsiIGQ9Ik0xMS4yNSw5Ni4yMVY4My41OEwwLDkwLjI0djEyLjYzTDExLjI1LDk2LjIxeiIvPiYjeGE7CTwvZz4mI3hhOwk8ZyBpZD0ic2hhcGU1ODUyLTEwOSIgdHJhbnNmb3JtPSJ0cmFuc2xhdGUoMjQpIj4mI3hhOwkJPHRpdGxlIGlkPSJ0aXRsZTczMjU1Ij5wb2x5Z29uNDAzNDwvdGl0bGU+JiN4YTsJCTxwYXRoIGlkPSJwYXRoNzMyNTciIGlua3NjYXBlOmNvbm5lY3Rvci1jdXJ2YXR1cmU9IjAiIHN0eWxlPSJmaWxsOiM5Mzk1OTg7IiBkPSJNMCwxMDIuODdsMTEuMjUtNi4yNlY4My41MkwwLDkwLjE4VjEwMi44N3oiLz4mI3hhOwk8L2c+JiN4YTs8L2c+JiN4YTs8L3N2Zz4=;" vertex="1" parent="1">
          <mxGeometry x="480" y="596" width="117" height="94" as="geometry" />
        </mxCell>
        <mxCell id="UOPAoyRl8zIuu1TyD0ZJ-66" style="edgeStyle=orthogonalEdgeStyle;rounded=0;orthogonalLoop=1;jettySize=auto;html=1;exitX=1;exitY=1;exitDx=0;exitDy=0;entryX=0;entryY=0.5;entryDx=0;entryDy=0;fillColor=#d5e8d4;strokeColor=#82b366;" edge="1" parent="1" source="UOPAoyRl8zIuu1TyD0ZJ-8" target="UOPAoyRl8zIuu1TyD0ZJ-63">
          <mxGeometry relative="1" as="geometry" />
        </mxCell>
        <mxCell id="UOPAoyRl8zIuu1TyD0ZJ-8" value="kdo_sc" style="shape=image;verticalLabelPosition=bottom;labelBackgroundColor=#ffffff;verticalAlign=top;aspect=fixed;imageAspect=0;image=data:image/svg+xml,PHN2ZyB4bWxuczpjYz0iaHR0cDovL2NyZWF0aXZlY29tbW9ucy5vcmcvbnMjIiB4bWxuczpkYz0iaHR0cDovL3B1cmwub3JnL2RjL2VsZW1lbnRzLzEuMS8iIHhtbG5zOmlua3NjYXBlPSJodHRwOi8vd3d3Lmlua3NjYXBlLm9yZy9uYW1lc3BhY2VzL2lua3NjYXBlIiB4bWxuczpyZGY9Imh0dHA6Ly93d3cudzMub3JnLzE5OTkvMDIvMjItcmRmLXN5bnRheC1ucyMiIHhtbG5zOnNvZGlwb2RpPSJodHRwOi8vc29kaXBvZGkuc291cmNlZm9yZ2UubmV0L0RURC9zb2RpcG9kaS0wLmR0ZCIgeG1sbnM6c3ZnPSJodHRwOi8vd3d3LnczLm9yZy8yMDAwL3N2ZyIgeG1sbnM9Imh0dHA6Ly93d3cudzMub3JnLzIwMDAvc3ZnIiB4bWxuczp4bGluaz0iaHR0cDovL3d3dy53My5vcmcvMTk5OS94bGluayIgdmVyc2lvbj0iMS4xIiBpZD0ic3ZnNzMyNjUiIGlua3NjYXBlOnZlcnNpb249IjAuOTIuMyAoMjQwNTU0NiwgMjAxOC0wMy0xMSkiIHNvZGlwb2RpOmRvY25hbWU9ImNvbnRhaW5lcnMuc3ZnIiB4PSIwcHgiIHk9IjBweCIgdmlld0JveD0iMCAwIDExNyA5NC4wNyIgc3R5bGU9ImVuYWJsZS1iYWNrZ3JvdW5kOm5ldyAwIDAgMTE3IDk0LjA3OyIgeG1sOnNwYWNlPSJwcmVzZXJ2ZSI+JiN4YTs8c29kaXBvZGk6bmFtZWR2aWV3IGJvcmRlcmNvbG9yPSIjNjY2NjY2IiBib3JkZXJvcGFjaXR5PSIxIiBmaXQtbWFyZ2luLWJvdHRvbT0iMCIgZml0LW1hcmdpbi1sZWZ0PSIwIiBmaXQtbWFyZ2luLXJpZ2h0PSIwIiBmaXQtbWFyZ2luLXRvcD0iMCIgZ3JpZHRvbGVyYW5jZT0iMTAiIGd1aWRldG9sZXJhbmNlPSIxMCIgaWQ9Im5hbWVkdmlldzczMjY3IiBpbmtzY2FwZTpjdXJyZW50LWxheWVyPSJzdmc3MzI2NSIgaW5rc2NhcGU6Y3g9IjkwLjQwMDE0NiIgaW5rc2NhcGU6Y3k9IjU1LjUyNTQ2OCIgaW5rc2NhcGU6cGFnZW9wYWNpdHk9IjAiIGlua3NjYXBlOnBhZ2VzaGFkb3c9IjIiIGlua3NjYXBlOndpbmRvdy1oZWlnaHQ9IjEwMTciIGlua3NjYXBlOndpbmRvdy1tYXhpbWl6ZWQ9IjEiIGlua3NjYXBlOndpbmRvdy13aWR0aD0iMTkyMCIgaW5rc2NhcGU6d2luZG93LXg9Ii04IiBpbmtzY2FwZTp3aW5kb3cteT0iLTgiIGlua3NjYXBlOnpvb209IjQuNDY5ODM4NSIgb2JqZWN0dG9sZXJhbmNlPSIxMCIgcGFnZWNvbG9yPSIjZmZmZmZmIiBzaG93Z3JpZD0iZmFsc2UiPiYjeGE7CTwvc29kaXBvZGk6bmFtZWR2aWV3PiYjeGE7PGcgaWQ9InNoYXBlNTc5Ni0zIiB0cmFuc2Zvcm09InRyYW5zbGF0ZSgyNi42MjQ3MDcsLTEzLjUxNzUpIj4mI3hhOwk8dGl0bGUgaWQ9InRpdGxlNzI5ODgiPnJlY3Q0MDQwPC90aXRsZT4mI3hhOwk8cmVjdCBpZD0icmVjdDcyOTkwIiB4PSIwIiB5PSIzNS4zNyIgc3R5bGU9ImZpbGw6bm9uZTsiIHdpZHRoPSI2OS43NSIgaGVpZ2h0PSI2Ny41Ii8+JiN4YTs8L2c+JiN4YTs8ZyBpZD0iZ3JvdXA1Nzk3LTUiIHRyYW5zZm9ybT0idHJhbnNsYXRlKDM0Ljg3NDcwNywtMjAuODE1KSI+JiN4YTsJPHRpdGxlIGlkPSJ0aXRsZTcyOTkzIj5nNDA1ODwvdGl0bGU+JiN4YTsJPGcgaWQ9InNoYXBlNTc5OC02IiB0cmFuc2Zvcm09InRyYW5zbGF0ZSgxMiwtMTMuODQ1KSI+JiN4YTsJCTx0aXRsZSBpZD0idGl0bGU3Mjk5NSI+cG9seWdvbjQwNDI8L3RpdGxlPiYjeGE7CQk8cGF0aCBpZD0icGF0aDcyOTk3IiBpbmtzY2FwZTpjb25uZWN0b3ItY3VydmF0dXJlPSIwIiBzdHlsZT0iZmlsbDojNTU2QThBOyIgZD0iTTAsOTYuMjFsMTEuMjUsNi42NlY5MC4yNEwwLDgzLjU4Vjk2LjIxeiIvPiYjeGE7CTwvZz4mI3hhOwk8ZyBpZD0ic2hhcGU1Nzk5LTgiIHRyYW5zZm9ybT0idHJhbnNsYXRlKDAsLTIxLjExMjUpIj4mI3hhOwkJPHRpdGxlIGlkPSJ0aXRsZTczMDAwIj5wb2x5Z29uNDA0NDwvdGl0bGU+JiN4YTsJCTxwYXRoIGlkPSJwYXRoNzMwMDIiIGlua3NjYXBlOmNvbm5lY3Rvci1jdXJ2YXR1cmU9IjAiIHN0eWxlPSJmaWxsOiM1NTZBOEE7IiBkPSJNMCw4My4zM3YxMi41OGwxMS4yNSw2Ljk2VjkwLjI0TDAsODMuMzFWODMuMzN6Ii8+JiN4YTsJPC9nPiYjeGE7CTxnIGlkPSJzaGFwZTU4MDAtMTAiIHRyYW5zZm9ybT0idHJhbnNsYXRlKDM2LC0yMS4xMTI1KSI+JiN4YTsJCTx0aXRsZSBpZD0idGl0bGU3MzAwNSI+cG9seWdvbjQwNDY8L3RpdGxlPiYjeGE7CQk8cGF0aCBpZD0icGF0aDczMDA3IiBpbmtzY2FwZTpjb25uZWN0b3ItY3VydmF0dXJlPSIwIiBzdHlsZT0iZmlsbDojOTM5NTk4OyIgZD0iTTExLjI1LDgzLjMzdi0wLjAyTDAsOTAuMjR2MTIuNjNsMTEuMjUtNi45NiAgICBWODMuMzN6Ii8+JiN4YTsJPC9nPiYjeGE7CTxnIGlkPSJzaGFwZTU4MDEtMTIiIHRyYW5zZm9ybT0idHJhbnNsYXRlKDEyKSI+JiN4YTsJCTx0aXRsZSBpZD0idGl0bGU3MzAxMCI+cG9seWdvbjQwNDg8L3RpdGxlPiYjeGE7CQk8cGF0aCBpZD0icGF0aDczMDEyIiBpbmtzY2FwZTpjb25uZWN0b3ItY3VydmF0dXJlPSIwIiBzdHlsZT0iZmlsbDojNTU2QThBOyIgZD0iTTAsODMuNTJ2MTMuMDlsMTEuMjUsNi4yNlY5MC4xOEwwLDgzLjUyeiIvPiYjeGE7CTwvZz4mI3hhOwk8ZyBpZD0ic2hhcGU1ODAyLTE0IiB0cmFuc2Zvcm09InRyYW5zbGF0ZSgzNiwtNi44MjUpIj4mI3hhOwkJPHRpdGxlIGlkPSJ0aXRsZTczMDE1Ij5wb2x5Z29uNDA1MDwvdGl0bGU+JiN4YTsJCTxwYXRoIGlkPSJwYXRoNzMwMTciIGlua3NjYXBlOmNvbm5lY3Rvci1jdXJ2YXR1cmU9IjAiIHN0eWxlPSJmaWxsOiM5Mzk1OTg7IiBkPSJNMTEuMjUsOTYuMzNWODIuNzdMMCw4OS43NHYxMy4xM0wxMS4yNSw5Ni4zM3oiLz4mI3hhOwk8L2c+JiN4YTsJPGcgaWQ9InNoYXBlNTgwMy0xNiIgdHJhbnNmb3JtPSJ0cmFuc2xhdGUoMCwtNi44MjUpIj4mI3hhOwkJPHRpdGxlIGlkPSJ0aXRsZTczMDIwIj5wb2x5Z29uNDA1MjwvdGl0bGU+JiN4YTsJCTxwYXRoIGlkPSJwYXRoNzMwMjIiIGlua3NjYXBlOmNvbm5lY3Rvci1jdXJ2YXR1cmU9IjAiIHN0eWxlPSJmaWxsOiM1NTZBOEE7IiBkPSJNMCw5Ni4zM2wxMS4yNSw2LjU0Vjg5Ljc0TDAsODIuNzdWOTYuMzN6Ii8+JiN4YTsJPC9nPiYjeGE7CTxnIGlkPSJzaGFwZTU4MDQtMTgiIHRyYW5zZm9ybT0idHJhbnNsYXRlKDI0LC0xMy44NDUpIj4mI3hhOwkJPHRpdGxlIGlkPSJ0aXRsZTczMDI1Ij5wb2x5Z29uNDA1NDwvdGl0bGU+JiN4YTsJCTxwYXRoIGlkPSJwYXRoNzMwMjciIGlua3NjYXBlOmNvbm5lY3Rvci1jdXJ2YXR1cmU9IjAiIHN0eWxlPSJmaWxsOiM5Mzk1OTg7IiBkPSJNMTEuMjUsOTYuMjFWODMuNThMMCw5MC4yNHYxMi42M0wxMS4yNSw5Ni4yMXoiLz4mI3hhOwk8L2c+JiN4YTsJPGcgaWQ9InNoYXBlNTgwNS0yMCIgdHJhbnNmb3JtPSJ0cmFuc2xhdGUoMjQpIj4mI3hhOwkJPHRpdGxlIGlkPSJ0aXRsZTczMDMwIj5wb2x5Z29uNDA1NjwvdGl0bGU+JiN4YTsJCTxwYXRoIGlkPSJwYXRoNzMwMzIiIGlua3NjYXBlOmNvbm5lY3Rvci1jdXJ2YXR1cmU9IjAiIHN0eWxlPSJmaWxsOiM5Mzk1OTg7IiBkPSJNMCwxMDIuODdsMTEuMjUtNi4yNlY4My41MkwwLDkwLjE4VjEwMi44N3oiLz4mI3hhOwk8L2c+JiN4YTs8L2c+JiN4YTs8ZyBpZD0ic2hhcGU1ODA3LTIzIiB0cmFuc2Zvcm09InRyYW5zbGF0ZSg0Ny41MTk3MDcsLTc1Ljg4NzUpIj4mI3hhOwk8dGl0bGUgaWQ9InRpdGxlNzMwMzkiPnBvbHlnb240MDYyPC90aXRsZT4mI3hhOwk8cGF0aCBpZD0icGF0aDczMDQxIiBpbmtzY2FwZTpjb25uZWN0b3ItY3VydmF0dXJlPSIwIiBzdHlsZT0iZmlsbDojMkJDN0Y0OyIgZD0iTTEwLjU2LDg5LjY4TDAsOTYuMTJsMTAuOTYsNi43NWwxMC41Ni02LjUgICBMMTAuNTYsODkuNjh6Ii8+JiN4YTs8L2c+JiN4YTs8ZyBpZD0ic2hhcGU1ODA4LTI1IiB0cmFuc2Zvcm09InRyYW5zbGF0ZSg0Ni44NzQ3MDcsLTYyLjQxKSI+JiN4YTsJPHRpdGxlIGlkPSJ0aXRsZTczMDQ0Ij5wb2x5Z29uNDA2NDwvdGl0bGU+JiN4YTsJPHBhdGggaWQ9InBhdGg3MzA0NiIgaW5rc2NhcGU6Y29ubmVjdG9yLWN1cnZhdHVyZT0iMCIgc3R5bGU9ImZpbGw6IzU1NkE4QTsiIGQ9Ik0wLDk2LjIxbDExLjI1LDYuNjZWOTAuMjRMMCw4My41OFY5Ni4yMXoiLz4mI3hhOzwvZz4mI3hhOzxnIGlkPSJzaGFwZTU4MDktMjciIHRyYW5zZm9ybT0idHJhbnNsYXRlKDU5LjAyNDcwNywtODIuOTYpIj4mI3hhOwk8dGl0bGUgaWQ9InRpdGxlNzMwNDkiPnBvbHlnb240MDY2PC90aXRsZT4mI3hhOwk8cGF0aCBpZD0icGF0aDczMDUxIiBpbmtzY2FwZTpjb25uZWN0b3ItY3VydmF0dXJlPSIwIiBzdHlsZT0iZmlsbDojMkJDN0Y0OyIgZD0iTTEwLjk2LDEwMi44N2wxMS4xMS02Ljg0bC0xMS4yMS02LjQ4TDAsOTYuMTggICBMMTAuOTYsMTAyLjg3eiIvPiYjeGE7PC9nPiYjeGE7PGcgaWQ9InNoYXBlNTgxMC0yOSIgdHJhbnNmb3JtPSJ0cmFuc2xhdGUoMzQuODc0NzA3LC02OS42Nzc1KSI+JiN4YTsJPHRpdGxlIGlkPSJ0aXRsZTczMDU0Ij5wb2x5Z29uNDA2ODwvdGl0bGU+JiN4YTsJPHBhdGggaWQ9InBhdGg3MzA1NiIgaW5rc2NhcGU6Y29ubmVjdG9yLWN1cnZhdHVyZT0iMCIgc3R5bGU9ImZpbGw6IzU1NkE4QTsiIGQ9Ik0wLDgzLjMzdjEyLjU4bDExLjI1LDYuOTZWOTAuMjRMMCw4My4zMVY4My4zM3oiLz4mI3hhOzwvZz4mI3hhOzxnIGlkPSJzaGFwZTU4MTEtMzEiIHRyYW5zZm9ybT0idHJhbnNsYXRlKDcwLjg3NDcwNywtNjkuNjc3NSkiPiYjeGE7CTx0aXRsZSBpZD0idGl0bGU3MzA1OSI+cG9seWdvbjQwNzA8L3RpdGxlPiYjeGE7CTxwYXRoIGlkPSJwYXRoNzMwNjEiIGlua3NjYXBlOmNvbm5lY3Rvci1jdXJ2YXR1cmU9IjAiIHN0eWxlPSJmaWxsOiM5Mzk1OTg7IiBkPSJNMTEuMjUsODMuMzN2LTAuMDJMMCw5MC4yNHYxMi42M2wxMS4yNS02Ljk2ICAgVjgzLjMzeiIvPiYjeGE7PC9nPiYjeGE7PGcgaWQ9InNoYXBlNTgxMi0zMyIgdHJhbnNmb3JtPSJ0cmFuc2xhdGUoMzUuODcyMjA3LC04My4yMDc1KSI+JiN4YTsJPHRpdGxlIGlkPSJ0aXRsZTczMDY0Ij5wb2x5Z29uNDA3MjwvdGl0bGU+JiN4YTsJPHBhdGggaWQ9InBhdGg3MzA2NiIgaW5rc2NhcGU6Y29ubmVjdG9yLWN1cnZhdHVyZT0iMCIgc3R5bGU9ImZpbGw6IzJCQzdGNDsiIGQ9Ik0yMS4yNiw5Ni40MmwtMTAuNDctNi4zOEwwLDk2LjI3bDEwLjcxLDYuNiAgIEwyMS4yNiw5Ni40MnoiLz4mI3hhOzwvZz4mI3hhOzxnIGlkPSJzaGFwZTU4MTMtMzUiIHRyYW5zZm9ybT0idHJhbnNsYXRlKDQ2Ljg3NDcwNywtNDguNTY1KSI+JiN4YTsJPHRpdGxlIGlkPSJ0aXRsZTczMDY5Ij5wb2x5Z29uNDA3NDwvdGl0bGU+JiN4YTsJPHBhdGggaWQ9InBhdGg3MzA3MSIgaW5rc2NhcGU6Y29ubmVjdG9yLWN1cnZhdHVyZT0iMCIgc3R5bGU9ImZpbGw6IzU1NkE4QTsiIGQ9Ik0wLDgzLjUydjEzLjA5bDExLjI1LDYuMjZWOTAuMThMMCw4My41MnoiLz4mI3hhOzwvZz4mI3hhOzxnIGlkPSJzaGFwZTU4MTQtMzciIHRyYW5zZm9ybT0idHJhbnNsYXRlKDQ3LjYzOTcwNywtOTAuMjIpIj4mI3hhOwk8dGl0bGUgaWQ9InRpdGxlNzMwNzQiPnBvbHlnb240MDc2PC90aXRsZT4mI3hhOwk8cGF0aCBpZD0icGF0aDczMDc2IiBpbmtzY2FwZTpjb25uZWN0b3ItY3VydmF0dXJlPSIwIiBzdHlsZT0iZmlsbDojMkJDN0Y0OyIgZD0iTTEwLjg0LDkwLjIyTDAsOTYuNDlsMTAuNDQsNi4zOGwxMC44NC02LjYyICAgTDEwLjg0LDkwLjIyeiIvPiYjeGE7PC9nPiYjeGE7PGcgaWQ9InNoYXBlNTgxNS0zOSIgdHJhbnNmb3JtPSJ0cmFuc2xhdGUoNzAuODc0NzA3LC01NS4zOSkiPiYjeGE7CTx0aXRsZSBpZD0idGl0bGU3MzA3OSI+cG9seWdvbjQwNzg8L3RpdGxlPiYjeGE7CTxwYXRoIGlkPSJwYXRoNzMwODEiIGlua3NjYXBlOmNvbm5lY3Rvci1jdXJ2YXR1cmU9IjAiIHN0eWxlPSJmaWxsOiM5Mzk1OTg7IiBkPSJNMTEuMjUsOTYuMzNWODIuNzdMMCw4OS43M3YxMy4xNEwxMS4yNSw5Ni4zM3oiLz4mI3hhOzwvZz4mI3hhOzxnIGlkPSJzaGFwZTU4MTYtNDEiIHRyYW5zZm9ybT0idHJhbnNsYXRlKDM0Ljg3NDcwNywtNTUuMzkpIj4mI3hhOwk8dGl0bGUgaWQ9InRpdGxlNzMwODQiPnBvbHlnb240MDgwPC90aXRsZT4mI3hhOwk8cGF0aCBpZD0icGF0aDczMDg2IiBpbmtzY2FwZTpjb25uZWN0b3ItY3VydmF0dXJlPSIwIiBzdHlsZT0iZmlsbDojNTU2QThBOyIgZD0iTTAsOTYuMzNsMTEuMjUsNi41NFY4OS43M0wwLDgyLjc3Vjk2LjMzeiIvPiYjeGE7PC9nPiYjeGE7PGcgaWQ9InNoYXBlNTgxNy00MyIgdHJhbnNmb3JtPSJ0cmFuc2xhdGUoNTguODc0NzA3LC02Mi40MSkiPiYjeGE7CTx0aXRsZSBpZD0idGl0bGU3MzA4OSI+cG9seWdvbjQwODI8L3RpdGxlPiYjeGE7CTxwYXRoIGlkPSJwYXRoNzMwOTEiIGlua3NjYXBlOmNvbm5lY3Rvci1jdXJ2YXR1cmU9IjAiIHN0eWxlPSJmaWxsOiM5Mzk1OTg7IiBkPSJNMTEuMjUsOTYuMjFWODMuNThMMCw5MC4yNHYxMi42M0wxMS4yNSw5Ni4yMXoiLz4mI3hhOzwvZz4mI3hhOzxnIGlkPSJzaGFwZTU4MTgtNDUiIHRyYW5zZm9ybT0idHJhbnNsYXRlKDU4Ljg3NDcwNywtNDguNTY1KSI+JiN4YTsJPHRpdGxlIGlkPSJ0aXRsZTczMDk0Ij5wb2x5Z29uNDA4NDwvdGl0bGU+JiN4YTsJPHBhdGggaWQ9InBhdGg3MzA5NiIgaW5rc2NhcGU6Y29ubmVjdG9yLWN1cnZhdHVyZT0iMCIgc3R5bGU9ImZpbGw6IzkzOTU5ODsiIGQ9Ik0wLDEwMi44N2wxMS4yNS02LjI2VjgzLjUyTDAsOTAuMThWMTAyLjg3eiIvPiYjeGE7PC9nPiYjeGE7PGcgaWQ9InNoYXBlNTgyMC00OCIgdHJhbnNmb3JtPSJ0cmFuc2xhdGUoLTguMjUwMjkyNSwtMS40OTgzKSI+JiN4YTsJPHRpdGxlIGlkPSJ0aXRsZTczMTAyIj5yZWN0Mzk3MjwvdGl0bGU+JiN4YTsJPHJlY3QgaWQ9InJlY3Q3MzEwNCIgeD0iMCIgeT0iMzUuMzciIHN0eWxlPSJmaWxsOm5vbmU7IiB3aWR0aD0iNjkuNzUiIGhlaWdodD0iNjcuNSIvPiYjeGE7PC9nPiYjeGE7PGcgaWQ9Imdyb3VwNTgyMS01MCIgdHJhbnNmb3JtPSJ0cmFuc2xhdGUoLTIuOTI1MTc1OWUtNCwtOC43OTU4KSI+JiN4YTsJPHRpdGxlIGlkPSJ0aXRsZTczMTA3Ij5nMzk5ODwvdGl0bGU+JiN4YTsJPGcgaWQ9InNoYXBlNTgyMi01MSIgdHJhbnNmb3JtPSJ0cmFuc2xhdGUoMTIuNjQ1LC0yNy4zMjI1KSI+JiN4YTsJCTx0aXRsZSBpZD0idGl0bGU3MzEwOSI+cG9seWdvbjM5NzQ8L3RpdGxlPiYjeGE7CQk8cGF0aCBpZD0icGF0aDczMTExIiBpbmtzY2FwZTpjb25uZWN0b3ItY3VydmF0dXJlPSIwIiBzdHlsZT0iZmlsbDojMkJDN0Y0OyIgZD0iTTEwLjU2LDg5LjY4TDAsOTYuMTJsMTAuOTYsNi43NWwxMC41Ni02LjUgICAgTDEwLjU2LDg5LjY4eiIvPiYjeGE7CTwvZz4mI3hhOwk8ZyBpZD0ic2hhcGU1ODIzLTUzIiB0cmFuc2Zvcm09InRyYW5zbGF0ZSgxMiwtMTMuODQ1KSI+JiN4YTsJCTx0aXRsZSBpZD0idGl0bGU3MzExNCI+cG9seWdvbjM5NzY8L3RpdGxlPiYjeGE7CQk8cGF0aCBpZD0icGF0aDczMTE2IiBpbmtzY2FwZTpjb25uZWN0b3ItY3VydmF0dXJlPSIwIiBzdHlsZT0iZmlsbDojNTU2QThBOyIgZD0iTTAsOTYuMjFsMTEuMjUsNi42NlY5MC4yNEwwLDgzLjU4Vjk2LjIxeiIvPiYjeGE7CTwvZz4mI3hhOwk8ZyBpZD0ic2hhcGU1ODI0LTU1IiB0cmFuc2Zvcm09InRyYW5zbGF0ZSgyNC4xNSwtMzQuMzk1KSI+JiN4YTsJCTx0aXRsZSBpZD0idGl0bGU3MzExOSI+cG9seWdvbjM5Nzg8L3RpdGxlPiYjeGE7CQk8cGF0aCBpZD0icGF0aDczMTIxIiBpbmtzY2FwZTpjb25uZWN0b3ItY3VydmF0dXJlPSIwIiBzdHlsZT0iZmlsbDojMkJDN0Y0OyIgZD0iTTEwLjk2LDEwMi44N2wxMS4xMS02Ljg0bC0xMS4yMS02LjQ4TDAsOTYuMTggICAgTDEwLjk2LDEwMi44N3oiLz4mI3hhOwk8L2c+JiN4YTsJPGcgaWQ9InNoYXBlNTgyNS01NyIgdHJhbnNmb3JtPSJ0cmFuc2xhdGUoMCwtMjEuMTEyNSkiPiYjeGE7CQk8dGl0bGUgaWQ9InRpdGxlNzMxMjQiPnBvbHlnb24zOTgwPC90aXRsZT4mI3hhOwkJPHBhdGggaWQ9InBhdGg3MzEyNiIgaW5rc2NhcGU6Y29ubmVjdG9yLWN1cnZhdHVyZT0iMCIgc3R5bGU9ImZpbGw6IzU1NkE4QTsiIGQ9Ik0wLDgzLjMzdjEyLjU4bDExLjI1LDYuOTZWOTAuMjRMMCw4My4zMVY4My4zM3oiLz4mI3hhOwk8L2c+JiN4YTsJPGcgaWQ9InNoYXBlNTgyNi01OSIgdHJhbnNmb3JtPSJ0cmFuc2xhdGUoMzYsLTIxLjExMjUpIj4mI3hhOwkJPHRpdGxlIGlkPSJ0aXRsZTczMTI5Ij5wb2x5Z29uMzk4MjwvdGl0bGU+JiN4YTsJCTxwYXRoIGlkPSJwYXRoNzMxMzEiIGlua3NjYXBlOmNvbm5lY3Rvci1jdXJ2YXR1cmU9IjAiIHN0eWxlPSJmaWxsOiM5Mzk1OTg7IiBkPSJNMTEuMjUsODMuMzN2LTAuMDJMMCw5MC4yNHYxMi42M2wxMS4yNS02Ljk2ICAgIFY4My4zM3oiLz4mI3hhOwk8L2c+JiN4YTsJPGcgaWQ9InNoYXBlNTgyNy02MSIgdHJhbnNmb3JtPSJ0cmFuc2xhdGUoMC45OTc1LC0zNC42NDI1KSI+JiN4YTsJCTx0aXRsZSBpZD0idGl0bGU3MzEzNCI+cG9seWdvbjM5ODQ8L3RpdGxlPiYjeGE7CQk8cGF0aCBpZD0icGF0aDczMTM2IiBpbmtzY2FwZTpjb25uZWN0b3ItY3VydmF0dXJlPSIwIiBzdHlsZT0iZmlsbDojMkJDN0Y0OyIgZD0iTTIxLjI2LDk2LjQybC0xMC40Ny02LjM4TDAsOTYuMjdsMTAuNzEsNi42ICAgIEwyMS4yNiw5Ni40MnoiLz4mI3hhOwk8L2c+JiN4YTsJPGcgaWQ9InNoYXBlNTgyOC02MyIgdHJhbnNmb3JtPSJ0cmFuc2xhdGUoMTIpIj4mI3hhOwkJPHRpdGxlIGlkPSJ0aXRsZTczMTM5Ij5wb2x5Z29uMzk4NjwvdGl0bGU+JiN4YTsJCTxwYXRoIGlkPSJwYXRoNzMxNDEiIGlua3NjYXBlOmNvbm5lY3Rvci1jdXJ2YXR1cmU9IjAiIHN0eWxlPSJmaWxsOiM1NTZBOEE7IiBkPSJNMCw4My41MnYxMy4wOWwxMS4yNSw2LjI2VjkwLjE4TDAsODMuNTJ6Ii8+JiN4YTsJPC9nPiYjeGE7CTxnIGlkPSJzaGFwZTU4MjktNjUiIHRyYW5zZm9ybT0idHJhbnNsYXRlKDEyLjc2NSwtNDEuNjYyNSkiPiYjeGE7CQk8dGl0bGUgaWQ9InRpdGxlNzMxNDQiPnBvbHlnb24zOTg4PC90aXRsZT4mI3hhOwkJPHBhdGggaWQ9InBhdGg3MzE0NiIgaW5rc2NhcGU6Y29ubmVjdG9yLWN1cnZhdHVyZT0iMCIgc3R5bGU9ImZpbGw6IzJCQzdGNDsiIGQ9Ik0xMC44NCw5MC4yM0wwLDk2LjVsMTAuNDQsNi4zN2wxMC44NC02LjYxICAgIEwxMC44NCw5MC4yM3oiLz4mI3hhOwk8L2c+JiN4YTsJPGcgaWQ9InNoYXBlNTgzMC02NyIgdHJhbnNmb3JtPSJ0cmFuc2xhdGUoMzYsLTYuODI1KSI+JiN4YTsJCTx0aXRsZSBpZD0idGl0bGU3MzE0OSI+cG9seWdvbjM5OTA8L3RpdGxlPiYjeGE7CQk8cGF0aCBpZD0icGF0aDczMTUxIiBpbmtzY2FwZTpjb25uZWN0b3ItY3VydmF0dXJlPSIwIiBzdHlsZT0iZmlsbDojOTM5NTk4OyIgZD0iTTExLjI1LDk2LjMzVjgyLjc3TDAsODkuNzR2MTMuMTNMMTEuMjUsOTYuMzN6Ii8+JiN4YTsJPC9nPiYjeGE7CTxnIGlkPSJzaGFwZTU4MzEtNjkiIHRyYW5zZm9ybT0idHJhbnNsYXRlKDAsLTYuODI1KSI+JiN4YTsJCTx0aXRsZSBpZD0idGl0bGU3MzE1NCI+cG9seWdvbjM5OTI8L3RpdGxlPiYjeGE7CQk8cGF0aCBpZD0icGF0aDczMTU2IiBpbmtzY2FwZTpjb25uZWN0b3ItY3VydmF0dXJlPSIwIiBzdHlsZT0iZmlsbDojNTU2QThBOyIgZD0iTTAsOTYuMzNsMTEuMjUsNi41NFY4OS43NEwwLDgyLjc3Vjk2LjMzeiIvPiYjeGE7CTwvZz4mI3hhOwk8ZyBpZD0ic2hhcGU1ODMyLTcxIiB0cmFuc2Zvcm09InRyYW5zbGF0ZSgyNCwtMTMuODQ1KSI+JiN4YTsJCTx0aXRsZSBpZD0idGl0bGU3MzE1OSI+cG9seWdvbjM5OTQ8L3RpdGxlPiYjeGE7CQk8cGF0aCBpZD0icGF0aDczMTYxIiBpbmtzY2FwZTpjb25uZWN0b3ItY3VydmF0dXJlPSIwIiBzdHlsZT0iZmlsbDojOTM5NTk4OyIgZD0iTTExLjI1LDk2LjIxVjgzLjU4TDAsOTAuMjR2MTIuNjNMMTEuMjUsOTYuMjF6Ii8+JiN4YTsJPC9nPiYjeGE7CTxnIGlkPSJzaGFwZTU4MzMtNzMiIHRyYW5zZm9ybT0idHJhbnNsYXRlKDI0KSI+JiN4YTsJCTx0aXRsZSBpZD0idGl0bGU3MzE2NCI+cG9seWdvbjM5OTY8L3RpdGxlPiYjeGE7CQk8cGF0aCBpZD0icGF0aDczMTY2IiBpbmtzY2FwZTpjb25uZWN0b3ItY3VydmF0dXJlPSIwIiBzdHlsZT0iZmlsbDojOTM5NTk4OyIgZD0iTTAsMTAyLjg3bDExLjI1LTYuMjZWODMuNTJMMCw5MC4xOFYxMDIuODd6Ii8+JiN4YTsJPC9nPiYjeGE7PC9nPiYjeGE7PGcgaWQ9InNoYXBlNTgzNS03NiIgdHJhbnNmb3JtPSJ0cmFuc2xhdGUoNjEuNDk5NzA3LC02LjA5NDI0KSI+JiN4YTsJPHRpdGxlIGlkPSJ0aXRsZTczMTczIj5yZWN0NDAwMjwvdGl0bGU+JiN4YTsJPHJlY3QgaWQ9InJlY3Q3MzE3NSIgeD0iMCIgeT0iMzUuMzciIHN0eWxlPSJmaWxsOm5vbmU7IiB3aWR0aD0iNjkuNzUiIGhlaWdodD0iNjcuNSIvPiYjeGE7PC9nPiYjeGE7PGcgaWQ9Imdyb3VwNTgzNi03OCIgdHJhbnNmb3JtPSJ0cmFuc2xhdGUoNjkuNzQ5NzA3LC0xMy4zOTE3NCkiPiYjeGE7CTx0aXRsZSBpZD0idGl0bGU3MzE3OCI+ZzQwMzY8L3RpdGxlPiYjeGE7CTxnIGlkPSJzaGFwZTU4MzctNzkiIHRyYW5zZm9ybT0idHJhbnNsYXRlKDEyLC0xMy44NDUpIj4mI3hhOwkJPHRpdGxlIGlkPSJ0aXRsZTczMTgwIj5wb2x5Z29uNDAwNDwvdGl0bGU+JiN4YTsJCTxwYXRoIGlkPSJwYXRoNzMxODIiIGlua3NjYXBlOmNvbm5lY3Rvci1jdXJ2YXR1cmU9IjAiIHN0eWxlPSJmaWxsOiM1NTZBOEE7IiBkPSJNMCw5Ni4yMWwxMS4yNSw2LjY2VjkwLjI0TDAsODMuNThWOTYuMjF6Ii8+JiN4YTsJPC9nPiYjeGE7CTxnIGlkPSJzaGFwZTU4MzgtODEiIHRyYW5zZm9ybT0idHJhbnNsYXRlKDAsLTIxLjExMjUpIj4mI3hhOwkJPHRpdGxlIGlkPSJ0aXRsZTczMTg1Ij5wb2x5Z29uNDAwNjwvdGl0bGU+JiN4YTsJCTxwYXRoIGlkPSJwYXRoNzMxODciIGlua3NjYXBlOmNvbm5lY3Rvci1jdXJ2YXR1cmU9IjAiIHN0eWxlPSJmaWxsOiM1NTZBOEE7IiBkPSJNMCw4My4zM3YxMi41OGwxMS4yNSw2Ljk2VjkwLjI0TDAsODMuMzFWODMuMzN6Ii8+JiN4YTsJPC9nPiYjeGE7CTxnIGlkPSJzaGFwZTU4MzktODMiIHRyYW5zZm9ybT0idHJhbnNsYXRlKDM2LC0yMS4xMTI1KSI+JiN4YTsJCTx0aXRsZSBpZD0idGl0bGU3MzE5MCI+cG9seWdvbjQwMDg8L3RpdGxlPiYjeGE7CQk8cGF0aCBpZD0icGF0aDczMTkyIiBpbmtzY2FwZTpjb25uZWN0b3ItY3VydmF0dXJlPSIwIiBzdHlsZT0iZmlsbDojOTM5NTk4OyIgZD0iTTExLjI1LDgzLjMzdi0wLjAyTDAsOTAuMjR2MTIuNjNsMTEuMjUtNi45NiAgICBWODMuMzN6Ii8+JiN4YTsJPC9nPiYjeGE7CTxnIGlkPSJzaGFwZTU4NDAtODUiIHRyYW5zZm9ybT0idHJhbnNsYXRlKDEyKSI+JiN4YTsJCTx0aXRsZSBpZD0idGl0bGU3MzE5NSI+cG9seWdvbjQwMTA8L3RpdGxlPiYjeGE7CQk8cGF0aCBpZD0icGF0aDczMTk3IiBpbmtzY2FwZTpjb25uZWN0b3ItY3VydmF0dXJlPSIwIiBzdHlsZT0iZmlsbDojNTU2QThBOyIgZD0iTTAsODMuNTJ2MTMuMDlsMTEuMjUsNi4yNlY5MC4xOEwwLDgzLjUyeiIvPiYjeGE7CTwvZz4mI3hhOwk8ZyBpZD0ic2hhcGU1ODQxLTg3IiB0cmFuc2Zvcm09InRyYW5zbGF0ZSgzNiwtNi44MjUpIj4mI3hhOwkJPHRpdGxlIGlkPSJ0aXRsZTczMjAwIj5wb2x5Z29uNDAxMjwvdGl0bGU+JiN4YTsJCTxwYXRoIGlkPSJwYXRoNzMyMDIiIGlua3NjYXBlOmNvbm5lY3Rvci1jdXJ2YXR1cmU9IjAiIHN0eWxlPSJmaWxsOiM5Mzk1OTg7IiBkPSJNMTEuMjUsOTYuMzNWODIuNzdMMCw4OS43NHYxMy4xM0wxMS4yNSw5Ni4zM3oiLz4mI3hhOwk8L2c+JiN4YTsJPGcgaWQ9InNoYXBlNTg0Mi04OSIgdHJhbnNmb3JtPSJ0cmFuc2xhdGUoMCwtNi44MjUpIj4mI3hhOwkJPHRpdGxlIGlkPSJ0aXRsZTczMjA1Ij5wb2x5Z29uNDAxNDwvdGl0bGU+JiN4YTsJCTxwYXRoIGlkPSJwYXRoNzMyMDciIGlua3NjYXBlOmNvbm5lY3Rvci1jdXJ2YXR1cmU9IjAiIHN0eWxlPSJmaWxsOiM1NTZBOEE7IiBkPSJNMCw5Ni4zM2wxMS4yNSw2LjU0Vjg5Ljc0TDAsODIuNzdWOTYuMzN6Ii8+JiN4YTsJPC9nPiYjeGE7CTxnIGlkPSJzaGFwZTU4NDMtOTEiIHRyYW5zZm9ybT0idHJhbnNsYXRlKDI0LC0xMy44NDUpIj4mI3hhOwkJPHRpdGxlIGlkPSJ0aXRsZTczMjEwIj5wb2x5Z29uNDAxNjwvdGl0bGU+JiN4YTsJCTxwYXRoIGlkPSJwYXRoNzMyMTIiIGlua3NjYXBlOmNvbm5lY3Rvci1jdXJ2YXR1cmU9IjAiIHN0eWxlPSJmaWxsOiM5Mzk1OTg7IiBkPSJNMTEuMjUsOTYuMjFWODMuNThMMCw5MC4yNHYxMi42M0wxMS4yNSw5Ni4yMXoiLz4mI3hhOwk8L2c+JiN4YTsJPGcgaWQ9InNoYXBlNTg0NC05MyIgdHJhbnNmb3JtPSJ0cmFuc2xhdGUoMTIuNjQ1LC00MS41NzI1KSI+JiN4YTsJCTx0aXRsZSBpZD0idGl0bGU3MzIxNSI+cG9seWdvbjQwMTg8L3RpdGxlPiYjeGE7CQk8cGF0aCBpZD0icGF0aDczMjE3IiBpbmtzY2FwZTpjb25uZWN0b3ItY3VydmF0dXJlPSIwIiBzdHlsZT0iZmlsbDojMkJDN0Y0OyIgZD0iTTEwLjU2LDg5LjY4TDAsOTYuMTJsMTAuOTYsNi43NWwxMC41Ni02LjUgICAgTDEwLjU2LDg5LjY4eiIvPiYjeGE7CTwvZz4mI3hhOwk8ZyBpZD0ic2hhcGU1ODQ1LTk1IiB0cmFuc2Zvcm09InRyYW5zbGF0ZSgxMiwtMjguMDk1KSI+JiN4YTsJCTx0aXRsZSBpZD0idGl0bGU3MzIyMCI+cG9seWdvbjQwMjA8L3RpdGxlPiYjeGE7CQk8cGF0aCBpZD0icGF0aDczMjIyIiBpbmtzY2FwZTpjb25uZWN0b3ItY3VydmF0dXJlPSIwIiBzdHlsZT0iZmlsbDojNTU2QThBOyIgZD0iTTAsOTYuMjFsMTEuMjUsNi42NlY5MC4yNEwwLDgzLjU4Vjk2LjIxeiIvPiYjeGE7CTwvZz4mI3hhOwk8ZyBpZD0ic2hhcGU1ODQ2LTk3IiB0cmFuc2Zvcm09InRyYW5zbGF0ZSgyNC4xNSwtNDguNjQ1KSI+JiN4YTsJCTx0aXRsZSBpZD0idGl0bGU3MzIyNSI+cG9seWdvbjQwMjI8L3RpdGxlPiYjeGE7CQk8cGF0aCBpZD0icGF0aDczMjI3IiBpbmtzY2FwZTpjb25uZWN0b3ItY3VydmF0dXJlPSIwIiBzdHlsZT0iZmlsbDojMkJDN0Y0OyIgZD0iTTEwLjk2LDEwMi44N2wxMS4xMS02Ljg0bC0xMS4yMS02LjQ4TDAsOTYuMTggICAgTDEwLjk2LDEwMi44N3oiLz4mI3hhOwk8L2c+JiN4YTsJPGcgaWQ9InNoYXBlNTg0Ny05OSIgdHJhbnNmb3JtPSJ0cmFuc2xhdGUoMCwtMzUuMzYyNSkiPiYjeGE7CQk8dGl0bGUgaWQ9InRpdGxlNzMyMzAiPnBvbHlnb240MDI0PC90aXRsZT4mI3hhOwkJPHBhdGggaWQ9InBhdGg3MzIzMiIgaW5rc2NhcGU6Y29ubmVjdG9yLWN1cnZhdHVyZT0iMCIgc3R5bGU9ImZpbGw6IzU1NkE4QTsiIGQ9Ik0wLDgzLjMzdjEyLjU4bDExLjI1LDYuOTZWOTAuMjRMMCw4My4zMVY4My4zM3oiLz4mI3hhOwk8L2c+JiN4YTsJPGcgaWQ9InNoYXBlNTg0OC0xMDEiIHRyYW5zZm9ybT0idHJhbnNsYXRlKDM2LC0zNS4zNjI1KSI+JiN4YTsJCTx0aXRsZSBpZD0idGl0bGU3MzIzNSI+cG9seWdvbjQwMjY8L3RpdGxlPiYjeGE7CQk8cGF0aCBpZD0icGF0aDczMjM3IiBpbmtzY2FwZTpjb25uZWN0b3ItY3VydmF0dXJlPSIwIiBzdHlsZT0iZmlsbDojOTM5NTk4OyIgZD0iTTExLjI1LDgzLjMzdi0wLjAyTDAsOTAuMjR2MTIuNjNsMTEuMjUtNi45NiAgICBWODMuMzN6Ii8+JiN4YTsJPC9nPiYjeGE7CTxnIGlkPSJzaGFwZTU4NDktMTAzIiB0cmFuc2Zvcm09InRyYW5zbGF0ZSgwLjk5NzUsLTQ4Ljg5MjUpIj4mI3hhOwkJPHRpdGxlIGlkPSJ0aXRsZTczMjQwIj5wb2x5Z29uNDAyODwvdGl0bGU+JiN4YTsJCTxwYXRoIGlkPSJwYXRoNzMyNDIiIGlua3NjYXBlOmNvbm5lY3Rvci1jdXJ2YXR1cmU9IjAiIHN0eWxlPSJmaWxsOiMyQkM3RjQ7IiBkPSJNMjEuMjYsOTYuNDJsLTEwLjQ3LTYuMzhMMCw5Ni4yN2wxMC43MSw2LjYgICAgTDIxLjI2LDk2LjQyeiIvPiYjeGE7CTwvZz4mI3hhOwk8ZyBpZD0ic2hhcGU1ODUwLTEwNSIgdHJhbnNmb3JtPSJ0cmFuc2xhdGUoMTIuNzY1LC01NS45MDUpIj4mI3hhOwkJPHRpdGxlIGlkPSJ0aXRsZTczMjQ1Ij5wb2x5Z29uNDAzMDwvdGl0bGU+JiN4YTsJCTxwYXRoIGlkPSJwYXRoNzMyNDciIGlua3NjYXBlOmNvbm5lY3Rvci1jdXJ2YXR1cmU9IjAiIHN0eWxlPSJmaWxsOiMyQkM3RjQ7IiBkPSJNMTAuODQsOTAuMjJMMCw5Ni40OWwxMC40NCw2LjM4bDEwLjg0LTYuNjIgICAgTDEwLjg0LDkwLjIyeiIvPiYjeGE7CTwvZz4mI3hhOwk8ZyBpZD0ic2hhcGU1ODUxLTEwNyIgdHJhbnNmb3JtPSJ0cmFuc2xhdGUoMjQsLTI4LjA5NSkiPiYjeGE7CQk8dGl0bGUgaWQ9InRpdGxlNzMyNTAiPnBvbHlnb240MDMyPC90aXRsZT4mI3hhOwkJPHBhdGggaWQ9InBhdGg3MzI1MiIgaW5rc2NhcGU6Y29ubmVjdG9yLWN1cnZhdHVyZT0iMCIgc3R5bGU9ImZpbGw6IzkzOTU5ODsiIGQ9Ik0xMS4yNSw5Ni4yMVY4My41OEwwLDkwLjI0djEyLjYzTDExLjI1LDk2LjIxeiIvPiYjeGE7CTwvZz4mI3hhOwk8ZyBpZD0ic2hhcGU1ODUyLTEwOSIgdHJhbnNmb3JtPSJ0cmFuc2xhdGUoMjQpIj4mI3hhOwkJPHRpdGxlIGlkPSJ0aXRsZTczMjU1Ij5wb2x5Z29uNDAzNDwvdGl0bGU+JiN4YTsJCTxwYXRoIGlkPSJwYXRoNzMyNTciIGlua3NjYXBlOmNvbm5lY3Rvci1jdXJ2YXR1cmU9IjAiIHN0eWxlPSJmaWxsOiM5Mzk1OTg7IiBkPSJNMCwxMDIuODdsMTEuMjUtNi4yNlY4My41MkwwLDkwLjE4VjEwMi44N3oiLz4mI3hhOwk8L2c+JiN4YTs8L2c+JiN4YTs8L3N2Zz4=;" vertex="1" parent="1">
          <mxGeometry x="660" y="596" width="117" height="94" as="geometry" />
        </mxCell>
        <mxCell id="UOPAoyRl8zIuu1TyD0ZJ-9" value="kdo_iot" style="shape=image;verticalLabelPosition=bottom;labelBackgroundColor=#ffffff;verticalAlign=top;aspect=fixed;imageAspect=0;image=data:image/svg+xml,PHN2ZyB4bWxuczpjYz0iaHR0cDovL2NyZWF0aXZlY29tbW9ucy5vcmcvbnMjIiB4bWxuczpkYz0iaHR0cDovL3B1cmwub3JnL2RjL2VsZW1lbnRzLzEuMS8iIHhtbG5zOmlua3NjYXBlPSJodHRwOi8vd3d3Lmlua3NjYXBlLm9yZy9uYW1lc3BhY2VzL2lua3NjYXBlIiB4bWxuczpyZGY9Imh0dHA6Ly93d3cudzMub3JnLzE5OTkvMDIvMjItcmRmLXN5bnRheC1ucyMiIHhtbG5zOnNvZGlwb2RpPSJodHRwOi8vc29kaXBvZGkuc291cmNlZm9yZ2UubmV0L0RURC9zb2RpcG9kaS0wLmR0ZCIgeG1sbnM6c3ZnPSJodHRwOi8vd3d3LnczLm9yZy8yMDAwL3N2ZyIgeG1sbnM9Imh0dHA6Ly93d3cudzMub3JnLzIwMDAvc3ZnIiB4bWxuczp4bGluaz0iaHR0cDovL3d3dy53My5vcmcvMTk5OS94bGluayIgdmVyc2lvbj0iMS4xIiBpZD0ic3ZnNzMyNjUiIGlua3NjYXBlOnZlcnNpb249IjAuOTIuMyAoMjQwNTU0NiwgMjAxOC0wMy0xMSkiIHNvZGlwb2RpOmRvY25hbWU9ImNvbnRhaW5lcnMuc3ZnIiB4PSIwcHgiIHk9IjBweCIgdmlld0JveD0iMCAwIDExNyA5NC4wNyIgc3R5bGU9ImVuYWJsZS1iYWNrZ3JvdW5kOm5ldyAwIDAgMTE3IDk0LjA3OyIgeG1sOnNwYWNlPSJwcmVzZXJ2ZSI+JiN4YTs8c29kaXBvZGk6bmFtZWR2aWV3IGJvcmRlcmNvbG9yPSIjNjY2NjY2IiBib3JkZXJvcGFjaXR5PSIxIiBmaXQtbWFyZ2luLWJvdHRvbT0iMCIgZml0LW1hcmdpbi1sZWZ0PSIwIiBmaXQtbWFyZ2luLXJpZ2h0PSIwIiBmaXQtbWFyZ2luLXRvcD0iMCIgZ3JpZHRvbGVyYW5jZT0iMTAiIGd1aWRldG9sZXJhbmNlPSIxMCIgaWQ9Im5hbWVkdmlldzczMjY3IiBpbmtzY2FwZTpjdXJyZW50LWxheWVyPSJzdmc3MzI2NSIgaW5rc2NhcGU6Y3g9IjkwLjQwMDE0NiIgaW5rc2NhcGU6Y3k9IjU1LjUyNTQ2OCIgaW5rc2NhcGU6cGFnZW9wYWNpdHk9IjAiIGlua3NjYXBlOnBhZ2VzaGFkb3c9IjIiIGlua3NjYXBlOndpbmRvdy1oZWlnaHQ9IjEwMTciIGlua3NjYXBlOndpbmRvdy1tYXhpbWl6ZWQ9IjEiIGlua3NjYXBlOndpbmRvdy13aWR0aD0iMTkyMCIgaW5rc2NhcGU6d2luZG93LXg9Ii04IiBpbmtzY2FwZTp3aW5kb3cteT0iLTgiIGlua3NjYXBlOnpvb209IjQuNDY5ODM4NSIgb2JqZWN0dG9sZXJhbmNlPSIxMCIgcGFnZWNvbG9yPSIjZmZmZmZmIiBzaG93Z3JpZD0iZmFsc2UiPiYjeGE7CTwvc29kaXBvZGk6bmFtZWR2aWV3PiYjeGE7PGcgaWQ9InNoYXBlNTc5Ni0zIiB0cmFuc2Zvcm09InRyYW5zbGF0ZSgyNi42MjQ3MDcsLTEzLjUxNzUpIj4mI3hhOwk8dGl0bGUgaWQ9InRpdGxlNzI5ODgiPnJlY3Q0MDQwPC90aXRsZT4mI3hhOwk8cmVjdCBpZD0icmVjdDcyOTkwIiB4PSIwIiB5PSIzNS4zNyIgc3R5bGU9ImZpbGw6bm9uZTsiIHdpZHRoPSI2OS43NSIgaGVpZ2h0PSI2Ny41Ii8+JiN4YTs8L2c+JiN4YTs8ZyBpZD0iZ3JvdXA1Nzk3LTUiIHRyYW5zZm9ybT0idHJhbnNsYXRlKDM0Ljg3NDcwNywtMjAuODE1KSI+JiN4YTsJPHRpdGxlIGlkPSJ0aXRsZTcyOTkzIj5nNDA1ODwvdGl0bGU+JiN4YTsJPGcgaWQ9InNoYXBlNTc5OC02IiB0cmFuc2Zvcm09InRyYW5zbGF0ZSgxMiwtMTMuODQ1KSI+JiN4YTsJCTx0aXRsZSBpZD0idGl0bGU3Mjk5NSI+cG9seWdvbjQwNDI8L3RpdGxlPiYjeGE7CQk8cGF0aCBpZD0icGF0aDcyOTk3IiBpbmtzY2FwZTpjb25uZWN0b3ItY3VydmF0dXJlPSIwIiBzdHlsZT0iZmlsbDojNTU2QThBOyIgZD0iTTAsOTYuMjFsMTEuMjUsNi42NlY5MC4yNEwwLDgzLjU4Vjk2LjIxeiIvPiYjeGE7CTwvZz4mI3hhOwk8ZyBpZD0ic2hhcGU1Nzk5LTgiIHRyYW5zZm9ybT0idHJhbnNsYXRlKDAsLTIxLjExMjUpIj4mI3hhOwkJPHRpdGxlIGlkPSJ0aXRsZTczMDAwIj5wb2x5Z29uNDA0NDwvdGl0bGU+JiN4YTsJCTxwYXRoIGlkPSJwYXRoNzMwMDIiIGlua3NjYXBlOmNvbm5lY3Rvci1jdXJ2YXR1cmU9IjAiIHN0eWxlPSJmaWxsOiM1NTZBOEE7IiBkPSJNMCw4My4zM3YxMi41OGwxMS4yNSw2Ljk2VjkwLjI0TDAsODMuMzFWODMuMzN6Ii8+JiN4YTsJPC9nPiYjeGE7CTxnIGlkPSJzaGFwZTU4MDAtMTAiIHRyYW5zZm9ybT0idHJhbnNsYXRlKDM2LC0yMS4xMTI1KSI+JiN4YTsJCTx0aXRsZSBpZD0idGl0bGU3MzAwNSI+cG9seWdvbjQwNDY8L3RpdGxlPiYjeGE7CQk8cGF0aCBpZD0icGF0aDczMDA3IiBpbmtzY2FwZTpjb25uZWN0b3ItY3VydmF0dXJlPSIwIiBzdHlsZT0iZmlsbDojOTM5NTk4OyIgZD0iTTExLjI1LDgzLjMzdi0wLjAyTDAsOTAuMjR2MTIuNjNsMTEuMjUtNi45NiAgICBWODMuMzN6Ii8+JiN4YTsJPC9nPiYjeGE7CTxnIGlkPSJzaGFwZTU4MDEtMTIiIHRyYW5zZm9ybT0idHJhbnNsYXRlKDEyKSI+JiN4YTsJCTx0aXRsZSBpZD0idGl0bGU3MzAxMCI+cG9seWdvbjQwNDg8L3RpdGxlPiYjeGE7CQk8cGF0aCBpZD0icGF0aDczMDEyIiBpbmtzY2FwZTpjb25uZWN0b3ItY3VydmF0dXJlPSIwIiBzdHlsZT0iZmlsbDojNTU2QThBOyIgZD0iTTAsODMuNTJ2MTMuMDlsMTEuMjUsNi4yNlY5MC4xOEwwLDgzLjUyeiIvPiYjeGE7CTwvZz4mI3hhOwk8ZyBpZD0ic2hhcGU1ODAyLTE0IiB0cmFuc2Zvcm09InRyYW5zbGF0ZSgzNiwtNi44MjUpIj4mI3hhOwkJPHRpdGxlIGlkPSJ0aXRsZTczMDE1Ij5wb2x5Z29uNDA1MDwvdGl0bGU+JiN4YTsJCTxwYXRoIGlkPSJwYXRoNzMwMTciIGlua3NjYXBlOmNvbm5lY3Rvci1jdXJ2YXR1cmU9IjAiIHN0eWxlPSJmaWxsOiM5Mzk1OTg7IiBkPSJNMTEuMjUsOTYuMzNWODIuNzdMMCw4OS43NHYxMy4xM0wxMS4yNSw5Ni4zM3oiLz4mI3hhOwk8L2c+JiN4YTsJPGcgaWQ9InNoYXBlNTgwMy0xNiIgdHJhbnNmb3JtPSJ0cmFuc2xhdGUoMCwtNi44MjUpIj4mI3hhOwkJPHRpdGxlIGlkPSJ0aXRsZTczMDIwIj5wb2x5Z29uNDA1MjwvdGl0bGU+JiN4YTsJCTxwYXRoIGlkPSJwYXRoNzMwMjIiIGlua3NjYXBlOmNvbm5lY3Rvci1jdXJ2YXR1cmU9IjAiIHN0eWxlPSJmaWxsOiM1NTZBOEE7IiBkPSJNMCw5Ni4zM2wxMS4yNSw2LjU0Vjg5Ljc0TDAsODIuNzdWOTYuMzN6Ii8+JiN4YTsJPC9nPiYjeGE7CTxnIGlkPSJzaGFwZTU4MDQtMTgiIHRyYW5zZm9ybT0idHJhbnNsYXRlKDI0LC0xMy44NDUpIj4mI3hhOwkJPHRpdGxlIGlkPSJ0aXRsZTczMDI1Ij5wb2x5Z29uNDA1NDwvdGl0bGU+JiN4YTsJCTxwYXRoIGlkPSJwYXRoNzMwMjciIGlua3NjYXBlOmNvbm5lY3Rvci1jdXJ2YXR1cmU9IjAiIHN0eWxlPSJmaWxsOiM5Mzk1OTg7IiBkPSJNMTEuMjUsOTYuMjFWODMuNThMMCw5MC4yNHYxMi42M0wxMS4yNSw5Ni4yMXoiLz4mI3hhOwk8L2c+JiN4YTsJPGcgaWQ9InNoYXBlNTgwNS0yMCIgdHJhbnNmb3JtPSJ0cmFuc2xhdGUoMjQpIj4mI3hhOwkJPHRpdGxlIGlkPSJ0aXRsZTczMDMwIj5wb2x5Z29uNDA1NjwvdGl0bGU+JiN4YTsJCTxwYXRoIGlkPSJwYXRoNzMwMzIiIGlua3NjYXBlOmNvbm5lY3Rvci1jdXJ2YXR1cmU9IjAiIHN0eWxlPSJmaWxsOiM5Mzk1OTg7IiBkPSJNMCwxMDIuODdsMTEuMjUtNi4yNlY4My41MkwwLDkwLjE4VjEwMi44N3oiLz4mI3hhOwk8L2c+JiN4YTs8L2c+JiN4YTs8ZyBpZD0ic2hhcGU1ODA3LTIzIiB0cmFuc2Zvcm09InRyYW5zbGF0ZSg0Ny41MTk3MDcsLTc1Ljg4NzUpIj4mI3hhOwk8dGl0bGUgaWQ9InRpdGxlNzMwMzkiPnBvbHlnb240MDYyPC90aXRsZT4mI3hhOwk8cGF0aCBpZD0icGF0aDczMDQxIiBpbmtzY2FwZTpjb25uZWN0b3ItY3VydmF0dXJlPSIwIiBzdHlsZT0iZmlsbDojMkJDN0Y0OyIgZD0iTTEwLjU2LDg5LjY4TDAsOTYuMTJsMTAuOTYsNi43NWwxMC41Ni02LjUgICBMMTAuNTYsODkuNjh6Ii8+JiN4YTs8L2c+JiN4YTs8ZyBpZD0ic2hhcGU1ODA4LTI1IiB0cmFuc2Zvcm09InRyYW5zbGF0ZSg0Ni44NzQ3MDcsLTYyLjQxKSI+JiN4YTsJPHRpdGxlIGlkPSJ0aXRsZTczMDQ0Ij5wb2x5Z29uNDA2NDwvdGl0bGU+JiN4YTsJPHBhdGggaWQ9InBhdGg3MzA0NiIgaW5rc2NhcGU6Y29ubmVjdG9yLWN1cnZhdHVyZT0iMCIgc3R5bGU9ImZpbGw6IzU1NkE4QTsiIGQ9Ik0wLDk2LjIxbDExLjI1LDYuNjZWOTAuMjRMMCw4My41OFY5Ni4yMXoiLz4mI3hhOzwvZz4mI3hhOzxnIGlkPSJzaGFwZTU4MDktMjciIHRyYW5zZm9ybT0idHJhbnNsYXRlKDU5LjAyNDcwNywtODIuOTYpIj4mI3hhOwk8dGl0bGUgaWQ9InRpdGxlNzMwNDkiPnBvbHlnb240MDY2PC90aXRsZT4mI3hhOwk8cGF0aCBpZD0icGF0aDczMDUxIiBpbmtzY2FwZTpjb25uZWN0b3ItY3VydmF0dXJlPSIwIiBzdHlsZT0iZmlsbDojMkJDN0Y0OyIgZD0iTTEwLjk2LDEwMi44N2wxMS4xMS02Ljg0bC0xMS4yMS02LjQ4TDAsOTYuMTggICBMMTAuOTYsMTAyLjg3eiIvPiYjeGE7PC9nPiYjeGE7PGcgaWQ9InNoYXBlNTgxMC0yOSIgdHJhbnNmb3JtPSJ0cmFuc2xhdGUoMzQuODc0NzA3LC02OS42Nzc1KSI+JiN4YTsJPHRpdGxlIGlkPSJ0aXRsZTczMDU0Ij5wb2x5Z29uNDA2ODwvdGl0bGU+JiN4YTsJPHBhdGggaWQ9InBhdGg3MzA1NiIgaW5rc2NhcGU6Y29ubmVjdG9yLWN1cnZhdHVyZT0iMCIgc3R5bGU9ImZpbGw6IzU1NkE4QTsiIGQ9Ik0wLDgzLjMzdjEyLjU4bDExLjI1LDYuOTZWOTAuMjRMMCw4My4zMVY4My4zM3oiLz4mI3hhOzwvZz4mI3hhOzxnIGlkPSJzaGFwZTU4MTEtMzEiIHRyYW5zZm9ybT0idHJhbnNsYXRlKDcwLjg3NDcwNywtNjkuNjc3NSkiPiYjeGE7CTx0aXRsZSBpZD0idGl0bGU3MzA1OSI+cG9seWdvbjQwNzA8L3RpdGxlPiYjeGE7CTxwYXRoIGlkPSJwYXRoNzMwNjEiIGlua3NjYXBlOmNvbm5lY3Rvci1jdXJ2YXR1cmU9IjAiIHN0eWxlPSJmaWxsOiM5Mzk1OTg7IiBkPSJNMTEuMjUsODMuMzN2LTAuMDJMMCw5MC4yNHYxMi42M2wxMS4yNS02Ljk2ICAgVjgzLjMzeiIvPiYjeGE7PC9nPiYjeGE7PGcgaWQ9InNoYXBlNTgxMi0zMyIgdHJhbnNmb3JtPSJ0cmFuc2xhdGUoMzUuODcyMjA3LC04My4yMDc1KSI+JiN4YTsJPHRpdGxlIGlkPSJ0aXRsZTczMDY0Ij5wb2x5Z29uNDA3MjwvdGl0bGU+JiN4YTsJPHBhdGggaWQ9InBhdGg3MzA2NiIgaW5rc2NhcGU6Y29ubmVjdG9yLWN1cnZhdHVyZT0iMCIgc3R5bGU9ImZpbGw6IzJCQzdGNDsiIGQ9Ik0yMS4yNiw5Ni40MmwtMTAuNDctNi4zOEwwLDk2LjI3bDEwLjcxLDYuNiAgIEwyMS4yNiw5Ni40MnoiLz4mI3hhOzwvZz4mI3hhOzxnIGlkPSJzaGFwZTU4MTMtMzUiIHRyYW5zZm9ybT0idHJhbnNsYXRlKDQ2Ljg3NDcwNywtNDguNTY1KSI+JiN4YTsJPHRpdGxlIGlkPSJ0aXRsZTczMDY5Ij5wb2x5Z29uNDA3NDwvdGl0bGU+JiN4YTsJPHBhdGggaWQ9InBhdGg3MzA3MSIgaW5rc2NhcGU6Y29ubmVjdG9yLWN1cnZhdHVyZT0iMCIgc3R5bGU9ImZpbGw6IzU1NkE4QTsiIGQ9Ik0wLDgzLjUydjEzLjA5bDExLjI1LDYuMjZWOTAuMThMMCw4My41MnoiLz4mI3hhOzwvZz4mI3hhOzxnIGlkPSJzaGFwZTU4MTQtMzciIHRyYW5zZm9ybT0idHJhbnNsYXRlKDQ3LjYzOTcwNywtOTAuMjIpIj4mI3hhOwk8dGl0bGUgaWQ9InRpdGxlNzMwNzQiPnBvbHlnb240MDc2PC90aXRsZT4mI3hhOwk8cGF0aCBpZD0icGF0aDczMDc2IiBpbmtzY2FwZTpjb25uZWN0b3ItY3VydmF0dXJlPSIwIiBzdHlsZT0iZmlsbDojMkJDN0Y0OyIgZD0iTTEwLjg0LDkwLjIyTDAsOTYuNDlsMTAuNDQsNi4zOGwxMC44NC02LjYyICAgTDEwLjg0LDkwLjIyeiIvPiYjeGE7PC9nPiYjeGE7PGcgaWQ9InNoYXBlNTgxNS0zOSIgdHJhbnNmb3JtPSJ0cmFuc2xhdGUoNzAuODc0NzA3LC01NS4zOSkiPiYjeGE7CTx0aXRsZSBpZD0idGl0bGU3MzA3OSI+cG9seWdvbjQwNzg8L3RpdGxlPiYjeGE7CTxwYXRoIGlkPSJwYXRoNzMwODEiIGlua3NjYXBlOmNvbm5lY3Rvci1jdXJ2YXR1cmU9IjAiIHN0eWxlPSJmaWxsOiM5Mzk1OTg7IiBkPSJNMTEuMjUsOTYuMzNWODIuNzdMMCw4OS43M3YxMy4xNEwxMS4yNSw5Ni4zM3oiLz4mI3hhOzwvZz4mI3hhOzxnIGlkPSJzaGFwZTU4MTYtNDEiIHRyYW5zZm9ybT0idHJhbnNsYXRlKDM0Ljg3NDcwNywtNTUuMzkpIj4mI3hhOwk8dGl0bGUgaWQ9InRpdGxlNzMwODQiPnBvbHlnb240MDgwPC90aXRsZT4mI3hhOwk8cGF0aCBpZD0icGF0aDczMDg2IiBpbmtzY2FwZTpjb25uZWN0b3ItY3VydmF0dXJlPSIwIiBzdHlsZT0iZmlsbDojNTU2QThBOyIgZD0iTTAsOTYuMzNsMTEuMjUsNi41NFY4OS43M0wwLDgyLjc3Vjk2LjMzeiIvPiYjeGE7PC9nPiYjeGE7PGcgaWQ9InNoYXBlNTgxNy00MyIgdHJhbnNmb3JtPSJ0cmFuc2xhdGUoNTguODc0NzA3LC02Mi40MSkiPiYjeGE7CTx0aXRsZSBpZD0idGl0bGU3MzA4OSI+cG9seWdvbjQwODI8L3RpdGxlPiYjeGE7CTxwYXRoIGlkPSJwYXRoNzMwOTEiIGlua3NjYXBlOmNvbm5lY3Rvci1jdXJ2YXR1cmU9IjAiIHN0eWxlPSJmaWxsOiM5Mzk1OTg7IiBkPSJNMTEuMjUsOTYuMjFWODMuNThMMCw5MC4yNHYxMi42M0wxMS4yNSw5Ni4yMXoiLz4mI3hhOzwvZz4mI3hhOzxnIGlkPSJzaGFwZTU4MTgtNDUiIHRyYW5zZm9ybT0idHJhbnNsYXRlKDU4Ljg3NDcwNywtNDguNTY1KSI+JiN4YTsJPHRpdGxlIGlkPSJ0aXRsZTczMDk0Ij5wb2x5Z29uNDA4NDwvdGl0bGU+JiN4YTsJPHBhdGggaWQ9InBhdGg3MzA5NiIgaW5rc2NhcGU6Y29ubmVjdG9yLWN1cnZhdHVyZT0iMCIgc3R5bGU9ImZpbGw6IzkzOTU5ODsiIGQ9Ik0wLDEwMi44N2wxMS4yNS02LjI2VjgzLjUyTDAsOTAuMThWMTAyLjg3eiIvPiYjeGE7PC9nPiYjeGE7PGcgaWQ9InNoYXBlNTgyMC00OCIgdHJhbnNmb3JtPSJ0cmFuc2xhdGUoLTguMjUwMjkyNSwtMS40OTgzKSI+JiN4YTsJPHRpdGxlIGlkPSJ0aXRsZTczMTAyIj5yZWN0Mzk3MjwvdGl0bGU+JiN4YTsJPHJlY3QgaWQ9InJlY3Q3MzEwNCIgeD0iMCIgeT0iMzUuMzciIHN0eWxlPSJmaWxsOm5vbmU7IiB3aWR0aD0iNjkuNzUiIGhlaWdodD0iNjcuNSIvPiYjeGE7PC9nPiYjeGE7PGcgaWQ9Imdyb3VwNTgyMS01MCIgdHJhbnNmb3JtPSJ0cmFuc2xhdGUoLTIuOTI1MTc1OWUtNCwtOC43OTU4KSI+JiN4YTsJPHRpdGxlIGlkPSJ0aXRsZTczMTA3Ij5nMzk5ODwvdGl0bGU+JiN4YTsJPGcgaWQ9InNoYXBlNTgyMi01MSIgdHJhbnNmb3JtPSJ0cmFuc2xhdGUoMTIuNjQ1LC0yNy4zMjI1KSI+JiN4YTsJCTx0aXRsZSBpZD0idGl0bGU3MzEwOSI+cG9seWdvbjM5NzQ8L3RpdGxlPiYjeGE7CQk8cGF0aCBpZD0icGF0aDczMTExIiBpbmtzY2FwZTpjb25uZWN0b3ItY3VydmF0dXJlPSIwIiBzdHlsZT0iZmlsbDojMkJDN0Y0OyIgZD0iTTEwLjU2LDg5LjY4TDAsOTYuMTJsMTAuOTYsNi43NWwxMC41Ni02LjUgICAgTDEwLjU2LDg5LjY4eiIvPiYjeGE7CTwvZz4mI3hhOwk8ZyBpZD0ic2hhcGU1ODIzLTUzIiB0cmFuc2Zvcm09InRyYW5zbGF0ZSgxMiwtMTMuODQ1KSI+JiN4YTsJCTx0aXRsZSBpZD0idGl0bGU3MzExNCI+cG9seWdvbjM5NzY8L3RpdGxlPiYjeGE7CQk8cGF0aCBpZD0icGF0aDczMTE2IiBpbmtzY2FwZTpjb25uZWN0b3ItY3VydmF0dXJlPSIwIiBzdHlsZT0iZmlsbDojNTU2QThBOyIgZD0iTTAsOTYuMjFsMTEuMjUsNi42NlY5MC4yNEwwLDgzLjU4Vjk2LjIxeiIvPiYjeGE7CTwvZz4mI3hhOwk8ZyBpZD0ic2hhcGU1ODI0LTU1IiB0cmFuc2Zvcm09InRyYW5zbGF0ZSgyNC4xNSwtMzQuMzk1KSI+JiN4YTsJCTx0aXRsZSBpZD0idGl0bGU3MzExOSI+cG9seWdvbjM5Nzg8L3RpdGxlPiYjeGE7CQk8cGF0aCBpZD0icGF0aDczMTIxIiBpbmtzY2FwZTpjb25uZWN0b3ItY3VydmF0dXJlPSIwIiBzdHlsZT0iZmlsbDojMkJDN0Y0OyIgZD0iTTEwLjk2LDEwMi44N2wxMS4xMS02Ljg0bC0xMS4yMS02LjQ4TDAsOTYuMTggICAgTDEwLjk2LDEwMi44N3oiLz4mI3hhOwk8L2c+JiN4YTsJPGcgaWQ9InNoYXBlNTgyNS01NyIgdHJhbnNmb3JtPSJ0cmFuc2xhdGUoMCwtMjEuMTEyNSkiPiYjeGE7CQk8dGl0bGUgaWQ9InRpdGxlNzMxMjQiPnBvbHlnb24zOTgwPC90aXRsZT4mI3hhOwkJPHBhdGggaWQ9InBhdGg3MzEyNiIgaW5rc2NhcGU6Y29ubmVjdG9yLWN1cnZhdHVyZT0iMCIgc3R5bGU9ImZpbGw6IzU1NkE4QTsiIGQ9Ik0wLDgzLjMzdjEyLjU4bDExLjI1LDYuOTZWOTAuMjRMMCw4My4zMVY4My4zM3oiLz4mI3hhOwk8L2c+JiN4YTsJPGcgaWQ9InNoYXBlNTgyNi01OSIgdHJhbnNmb3JtPSJ0cmFuc2xhdGUoMzYsLTIxLjExMjUpIj4mI3hhOwkJPHRpdGxlIGlkPSJ0aXRsZTczMTI5Ij5wb2x5Z29uMzk4MjwvdGl0bGU+JiN4YTsJCTxwYXRoIGlkPSJwYXRoNzMxMzEiIGlua3NjYXBlOmNvbm5lY3Rvci1jdXJ2YXR1cmU9IjAiIHN0eWxlPSJmaWxsOiM5Mzk1OTg7IiBkPSJNMTEuMjUsODMuMzN2LTAuMDJMMCw5MC4yNHYxMi42M2wxMS4yNS02Ljk2ICAgIFY4My4zM3oiLz4mI3hhOwk8L2c+JiN4YTsJPGcgaWQ9InNoYXBlNTgyNy02MSIgdHJhbnNmb3JtPSJ0cmFuc2xhdGUoMC45OTc1LC0zNC42NDI1KSI+JiN4YTsJCTx0aXRsZSBpZD0idGl0bGU3MzEzNCI+cG9seWdvbjM5ODQ8L3RpdGxlPiYjeGE7CQk8cGF0aCBpZD0icGF0aDczMTM2IiBpbmtzY2FwZTpjb25uZWN0b3ItY3VydmF0dXJlPSIwIiBzdHlsZT0iZmlsbDojMkJDN0Y0OyIgZD0iTTIxLjI2LDk2LjQybC0xMC40Ny02LjM4TDAsOTYuMjdsMTAuNzEsNi42ICAgIEwyMS4yNiw5Ni40MnoiLz4mI3hhOwk8L2c+JiN4YTsJPGcgaWQ9InNoYXBlNTgyOC02MyIgdHJhbnNmb3JtPSJ0cmFuc2xhdGUoMTIpIj4mI3hhOwkJPHRpdGxlIGlkPSJ0aXRsZTczMTM5Ij5wb2x5Z29uMzk4NjwvdGl0bGU+JiN4YTsJCTxwYXRoIGlkPSJwYXRoNzMxNDEiIGlua3NjYXBlOmNvbm5lY3Rvci1jdXJ2YXR1cmU9IjAiIHN0eWxlPSJmaWxsOiM1NTZBOEE7IiBkPSJNMCw4My41MnYxMy4wOWwxMS4yNSw2LjI2VjkwLjE4TDAsODMuNTJ6Ii8+JiN4YTsJPC9nPiYjeGE7CTxnIGlkPSJzaGFwZTU4MjktNjUiIHRyYW5zZm9ybT0idHJhbnNsYXRlKDEyLjc2NSwtNDEuNjYyNSkiPiYjeGE7CQk8dGl0bGUgaWQ9InRpdGxlNzMxNDQiPnBvbHlnb24zOTg4PC90aXRsZT4mI3hhOwkJPHBhdGggaWQ9InBhdGg3MzE0NiIgaW5rc2NhcGU6Y29ubmVjdG9yLWN1cnZhdHVyZT0iMCIgc3R5bGU9ImZpbGw6IzJCQzdGNDsiIGQ9Ik0xMC44NCw5MC4yM0wwLDk2LjVsMTAuNDQsNi4zN2wxMC44NC02LjYxICAgIEwxMC44NCw5MC4yM3oiLz4mI3hhOwk8L2c+JiN4YTsJPGcgaWQ9InNoYXBlNTgzMC02NyIgdHJhbnNmb3JtPSJ0cmFuc2xhdGUoMzYsLTYuODI1KSI+JiN4YTsJCTx0aXRsZSBpZD0idGl0bGU3MzE0OSI+cG9seWdvbjM5OTA8L3RpdGxlPiYjeGE7CQk8cGF0aCBpZD0icGF0aDczMTUxIiBpbmtzY2FwZTpjb25uZWN0b3ItY3VydmF0dXJlPSIwIiBzdHlsZT0iZmlsbDojOTM5NTk4OyIgZD0iTTExLjI1LDk2LjMzVjgyLjc3TDAsODkuNzR2MTMuMTNMMTEuMjUsOTYuMzN6Ii8+JiN4YTsJPC9nPiYjeGE7CTxnIGlkPSJzaGFwZTU4MzEtNjkiIHRyYW5zZm9ybT0idHJhbnNsYXRlKDAsLTYuODI1KSI+JiN4YTsJCTx0aXRsZSBpZD0idGl0bGU3MzE1NCI+cG9seWdvbjM5OTI8L3RpdGxlPiYjeGE7CQk8cGF0aCBpZD0icGF0aDczMTU2IiBpbmtzY2FwZTpjb25uZWN0b3ItY3VydmF0dXJlPSIwIiBzdHlsZT0iZmlsbDojNTU2QThBOyIgZD0iTTAsOTYuMzNsMTEuMjUsNi41NFY4OS43NEwwLDgyLjc3Vjk2LjMzeiIvPiYjeGE7CTwvZz4mI3hhOwk8ZyBpZD0ic2hhcGU1ODMyLTcxIiB0cmFuc2Zvcm09InRyYW5zbGF0ZSgyNCwtMTMuODQ1KSI+JiN4YTsJCTx0aXRsZSBpZD0idGl0bGU3MzE1OSI+cG9seWdvbjM5OTQ8L3RpdGxlPiYjeGE7CQk8cGF0aCBpZD0icGF0aDczMTYxIiBpbmtzY2FwZTpjb25uZWN0b3ItY3VydmF0dXJlPSIwIiBzdHlsZT0iZmlsbDojOTM5NTk4OyIgZD0iTTExLjI1LDk2LjIxVjgzLjU4TDAsOTAuMjR2MTIuNjNMMTEuMjUsOTYuMjF6Ii8+JiN4YTsJPC9nPiYjeGE7CTxnIGlkPSJzaGFwZTU4MzMtNzMiIHRyYW5zZm9ybT0idHJhbnNsYXRlKDI0KSI+JiN4YTsJCTx0aXRsZSBpZD0idGl0bGU3MzE2NCI+cG9seWdvbjM5OTY8L3RpdGxlPiYjeGE7CQk8cGF0aCBpZD0icGF0aDczMTY2IiBpbmtzY2FwZTpjb25uZWN0b3ItY3VydmF0dXJlPSIwIiBzdHlsZT0iZmlsbDojOTM5NTk4OyIgZD0iTTAsMTAyLjg3bDExLjI1LTYuMjZWODMuNTJMMCw5MC4xOFYxMDIuODd6Ii8+JiN4YTsJPC9nPiYjeGE7PC9nPiYjeGE7PGcgaWQ9InNoYXBlNTgzNS03NiIgdHJhbnNmb3JtPSJ0cmFuc2xhdGUoNjEuNDk5NzA3LC02LjA5NDI0KSI+JiN4YTsJPHRpdGxlIGlkPSJ0aXRsZTczMTczIj5yZWN0NDAwMjwvdGl0bGU+JiN4YTsJPHJlY3QgaWQ9InJlY3Q3MzE3NSIgeD0iMCIgeT0iMzUuMzciIHN0eWxlPSJmaWxsOm5vbmU7IiB3aWR0aD0iNjkuNzUiIGhlaWdodD0iNjcuNSIvPiYjeGE7PC9nPiYjeGE7PGcgaWQ9Imdyb3VwNTgzNi03OCIgdHJhbnNmb3JtPSJ0cmFuc2xhdGUoNjkuNzQ5NzA3LC0xMy4zOTE3NCkiPiYjeGE7CTx0aXRsZSBpZD0idGl0bGU3MzE3OCI+ZzQwMzY8L3RpdGxlPiYjeGE7CTxnIGlkPSJzaGFwZTU4MzctNzkiIHRyYW5zZm9ybT0idHJhbnNsYXRlKDEyLC0xMy44NDUpIj4mI3hhOwkJPHRpdGxlIGlkPSJ0aXRsZTczMTgwIj5wb2x5Z29uNDAwNDwvdGl0bGU+JiN4YTsJCTxwYXRoIGlkPSJwYXRoNzMxODIiIGlua3NjYXBlOmNvbm5lY3Rvci1jdXJ2YXR1cmU9IjAiIHN0eWxlPSJmaWxsOiM1NTZBOEE7IiBkPSJNMCw5Ni4yMWwxMS4yNSw2LjY2VjkwLjI0TDAsODMuNThWOTYuMjF6Ii8+JiN4YTsJPC9nPiYjeGE7CTxnIGlkPSJzaGFwZTU4MzgtODEiIHRyYW5zZm9ybT0idHJhbnNsYXRlKDAsLTIxLjExMjUpIj4mI3hhOwkJPHRpdGxlIGlkPSJ0aXRsZTczMTg1Ij5wb2x5Z29uNDAwNjwvdGl0bGU+JiN4YTsJCTxwYXRoIGlkPSJwYXRoNzMxODciIGlua3NjYXBlOmNvbm5lY3Rvci1jdXJ2YXR1cmU9IjAiIHN0eWxlPSJmaWxsOiM1NTZBOEE7IiBkPSJNMCw4My4zM3YxMi41OGwxMS4yNSw2Ljk2VjkwLjI0TDAsODMuMzFWODMuMzN6Ii8+JiN4YTsJPC9nPiYjeGE7CTxnIGlkPSJzaGFwZTU4MzktODMiIHRyYW5zZm9ybT0idHJhbnNsYXRlKDM2LC0yMS4xMTI1KSI+JiN4YTsJCTx0aXRsZSBpZD0idGl0bGU3MzE5MCI+cG9seWdvbjQwMDg8L3RpdGxlPiYjeGE7CQk8cGF0aCBpZD0icGF0aDczMTkyIiBpbmtzY2FwZTpjb25uZWN0b3ItY3VydmF0dXJlPSIwIiBzdHlsZT0iZmlsbDojOTM5NTk4OyIgZD0iTTExLjI1LDgzLjMzdi0wLjAyTDAsOTAuMjR2MTIuNjNsMTEuMjUtNi45NiAgICBWODMuMzN6Ii8+JiN4YTsJPC9nPiYjeGE7CTxnIGlkPSJzaGFwZTU4NDAtODUiIHRyYW5zZm9ybT0idHJhbnNsYXRlKDEyKSI+JiN4YTsJCTx0aXRsZSBpZD0idGl0bGU3MzE5NSI+cG9seWdvbjQwMTA8L3RpdGxlPiYjeGE7CQk8cGF0aCBpZD0icGF0aDczMTk3IiBpbmtzY2FwZTpjb25uZWN0b3ItY3VydmF0dXJlPSIwIiBzdHlsZT0iZmlsbDojNTU2QThBOyIgZD0iTTAsODMuNTJ2MTMuMDlsMTEuMjUsNi4yNlY5MC4xOEwwLDgzLjUyeiIvPiYjeGE7CTwvZz4mI3hhOwk8ZyBpZD0ic2hhcGU1ODQxLTg3IiB0cmFuc2Zvcm09InRyYW5zbGF0ZSgzNiwtNi44MjUpIj4mI3hhOwkJPHRpdGxlIGlkPSJ0aXRsZTczMjAwIj5wb2x5Z29uNDAxMjwvdGl0bGU+JiN4YTsJCTxwYXRoIGlkPSJwYXRoNzMyMDIiIGlua3NjYXBlOmNvbm5lY3Rvci1jdXJ2YXR1cmU9IjAiIHN0eWxlPSJmaWxsOiM5Mzk1OTg7IiBkPSJNMTEuMjUsOTYuMzNWODIuNzdMMCw4OS43NHYxMy4xM0wxMS4yNSw5Ni4zM3oiLz4mI3hhOwk8L2c+JiN4YTsJPGcgaWQ9InNoYXBlNTg0Mi04OSIgdHJhbnNmb3JtPSJ0cmFuc2xhdGUoMCwtNi44MjUpIj4mI3hhOwkJPHRpdGxlIGlkPSJ0aXRsZTczMjA1Ij5wb2x5Z29uNDAxNDwvdGl0bGU+JiN4YTsJCTxwYXRoIGlkPSJwYXRoNzMyMDciIGlua3NjYXBlOmNvbm5lY3Rvci1jdXJ2YXR1cmU9IjAiIHN0eWxlPSJmaWxsOiM1NTZBOEE7IiBkPSJNMCw5Ni4zM2wxMS4yNSw2LjU0Vjg5Ljc0TDAsODIuNzdWOTYuMzN6Ii8+JiN4YTsJPC9nPiYjeGE7CTxnIGlkPSJzaGFwZTU4NDMtOTEiIHRyYW5zZm9ybT0idHJhbnNsYXRlKDI0LC0xMy44NDUpIj4mI3hhOwkJPHRpdGxlIGlkPSJ0aXRsZTczMjEwIj5wb2x5Z29uNDAxNjwvdGl0bGU+JiN4YTsJCTxwYXRoIGlkPSJwYXRoNzMyMTIiIGlua3NjYXBlOmNvbm5lY3Rvci1jdXJ2YXR1cmU9IjAiIHN0eWxlPSJmaWxsOiM5Mzk1OTg7IiBkPSJNMTEuMjUsOTYuMjFWODMuNThMMCw5MC4yNHYxMi42M0wxMS4yNSw5Ni4yMXoiLz4mI3hhOwk8L2c+JiN4YTsJPGcgaWQ9InNoYXBlNTg0NC05MyIgdHJhbnNmb3JtPSJ0cmFuc2xhdGUoMTIuNjQ1LC00MS41NzI1KSI+JiN4YTsJCTx0aXRsZSBpZD0idGl0bGU3MzIxNSI+cG9seWdvbjQwMTg8L3RpdGxlPiYjeGE7CQk8cGF0aCBpZD0icGF0aDczMjE3IiBpbmtzY2FwZTpjb25uZWN0b3ItY3VydmF0dXJlPSIwIiBzdHlsZT0iZmlsbDojMkJDN0Y0OyIgZD0iTTEwLjU2LDg5LjY4TDAsOTYuMTJsMTAuOTYsNi43NWwxMC41Ni02LjUgICAgTDEwLjU2LDg5LjY4eiIvPiYjeGE7CTwvZz4mI3hhOwk8ZyBpZD0ic2hhcGU1ODQ1LTk1IiB0cmFuc2Zvcm09InRyYW5zbGF0ZSgxMiwtMjguMDk1KSI+JiN4YTsJCTx0aXRsZSBpZD0idGl0bGU3MzIyMCI+cG9seWdvbjQwMjA8L3RpdGxlPiYjeGE7CQk8cGF0aCBpZD0icGF0aDczMjIyIiBpbmtzY2FwZTpjb25uZWN0b3ItY3VydmF0dXJlPSIwIiBzdHlsZT0iZmlsbDojNTU2QThBOyIgZD0iTTAsOTYuMjFsMTEuMjUsNi42NlY5MC4yNEwwLDgzLjU4Vjk2LjIxeiIvPiYjeGE7CTwvZz4mI3hhOwk8ZyBpZD0ic2hhcGU1ODQ2LTk3IiB0cmFuc2Zvcm09InRyYW5zbGF0ZSgyNC4xNSwtNDguNjQ1KSI+JiN4YTsJCTx0aXRsZSBpZD0idGl0bGU3MzIyNSI+cG9seWdvbjQwMjI8L3RpdGxlPiYjeGE7CQk8cGF0aCBpZD0icGF0aDczMjI3IiBpbmtzY2FwZTpjb25uZWN0b3ItY3VydmF0dXJlPSIwIiBzdHlsZT0iZmlsbDojMkJDN0Y0OyIgZD0iTTEwLjk2LDEwMi44N2wxMS4xMS02Ljg0bC0xMS4yMS02LjQ4TDAsOTYuMTggICAgTDEwLjk2LDEwMi44N3oiLz4mI3hhOwk8L2c+JiN4YTsJPGcgaWQ9InNoYXBlNTg0Ny05OSIgdHJhbnNmb3JtPSJ0cmFuc2xhdGUoMCwtMzUuMzYyNSkiPiYjeGE7CQk8dGl0bGUgaWQ9InRpdGxlNzMyMzAiPnBvbHlnb240MDI0PC90aXRsZT4mI3hhOwkJPHBhdGggaWQ9InBhdGg3MzIzMiIgaW5rc2NhcGU6Y29ubmVjdG9yLWN1cnZhdHVyZT0iMCIgc3R5bGU9ImZpbGw6IzU1NkE4QTsiIGQ9Ik0wLDgzLjMzdjEyLjU4bDExLjI1LDYuOTZWOTAuMjRMMCw4My4zMVY4My4zM3oiLz4mI3hhOwk8L2c+JiN4YTsJPGcgaWQ9InNoYXBlNTg0OC0xMDEiIHRyYW5zZm9ybT0idHJhbnNsYXRlKDM2LC0zNS4zNjI1KSI+JiN4YTsJCTx0aXRsZSBpZD0idGl0bGU3MzIzNSI+cG9seWdvbjQwMjY8L3RpdGxlPiYjeGE7CQk8cGF0aCBpZD0icGF0aDczMjM3IiBpbmtzY2FwZTpjb25uZWN0b3ItY3VydmF0dXJlPSIwIiBzdHlsZT0iZmlsbDojOTM5NTk4OyIgZD0iTTExLjI1LDgzLjMzdi0wLjAyTDAsOTAuMjR2MTIuNjNsMTEuMjUtNi45NiAgICBWODMuMzN6Ii8+JiN4YTsJPC9nPiYjeGE7CTxnIGlkPSJzaGFwZTU4NDktMTAzIiB0cmFuc2Zvcm09InRyYW5zbGF0ZSgwLjk5NzUsLTQ4Ljg5MjUpIj4mI3hhOwkJPHRpdGxlIGlkPSJ0aXRsZTczMjQwIj5wb2x5Z29uNDAyODwvdGl0bGU+JiN4YTsJCTxwYXRoIGlkPSJwYXRoNzMyNDIiIGlua3NjYXBlOmNvbm5lY3Rvci1jdXJ2YXR1cmU9IjAiIHN0eWxlPSJmaWxsOiMyQkM3RjQ7IiBkPSJNMjEuMjYsOTYuNDJsLTEwLjQ3LTYuMzhMMCw5Ni4yN2wxMC43MSw2LjYgICAgTDIxLjI2LDk2LjQyeiIvPiYjeGE7CTwvZz4mI3hhOwk8ZyBpZD0ic2hhcGU1ODUwLTEwNSIgdHJhbnNmb3JtPSJ0cmFuc2xhdGUoMTIuNzY1LC01NS45MDUpIj4mI3hhOwkJPHRpdGxlIGlkPSJ0aXRsZTczMjQ1Ij5wb2x5Z29uNDAzMDwvdGl0bGU+JiN4YTsJCTxwYXRoIGlkPSJwYXRoNzMyNDciIGlua3NjYXBlOmNvbm5lY3Rvci1jdXJ2YXR1cmU9IjAiIHN0eWxlPSJmaWxsOiMyQkM3RjQ7IiBkPSJNMTAuODQsOTAuMjJMMCw5Ni40OWwxMC40NCw2LjM4bDEwLjg0LTYuNjIgICAgTDEwLjg0LDkwLjIyeiIvPiYjeGE7CTwvZz4mI3hhOwk8ZyBpZD0ic2hhcGU1ODUxLTEwNyIgdHJhbnNmb3JtPSJ0cmFuc2xhdGUoMjQsLTI4LjA5NSkiPiYjeGE7CQk8dGl0bGUgaWQ9InRpdGxlNzMyNTAiPnBvbHlnb240MDMyPC90aXRsZT4mI3hhOwkJPHBhdGggaWQ9InBhdGg3MzI1MiIgaW5rc2NhcGU6Y29ubmVjdG9yLWN1cnZhdHVyZT0iMCIgc3R5bGU9ImZpbGw6IzkzOTU5ODsiIGQ9Ik0xMS4yNSw5Ni4yMVY4My41OEwwLDkwLjI0djEyLjYzTDExLjI1LDk2LjIxeiIvPiYjeGE7CTwvZz4mI3hhOwk8ZyBpZD0ic2hhcGU1ODUyLTEwOSIgdHJhbnNmb3JtPSJ0cmFuc2xhdGUoMjQpIj4mI3hhOwkJPHRpdGxlIGlkPSJ0aXRsZTczMjU1Ij5wb2x5Z29uNDAzNDwvdGl0bGU+JiN4YTsJCTxwYXRoIGlkPSJwYXRoNzMyNTciIGlua3NjYXBlOmNvbm5lY3Rvci1jdXJ2YXR1cmU9IjAiIHN0eWxlPSJmaWxsOiM5Mzk1OTg7IiBkPSJNMCwxMDIuODdsMTEuMjUtNi4yNlY4My41MkwwLDkwLjE4VjEwMi44N3oiLz4mI3hhOwk8L2c+JiN4YTs8L2c+JiN4YTs8L3N2Zz4=;" vertex="1" parent="1">
          <mxGeometry x="863" y="596" width="117" height="94" as="geometry" />
        </mxCell>
        <mxCell id="UOPAoyRl8zIuu1TyD0ZJ-81" style="edgeStyle=orthogonalEdgeStyle;rounded=0;orthogonalLoop=1;jettySize=auto;html=1;exitX=0.5;exitY=1;exitDx=0;exitDy=0;entryX=0.397;entryY=0;entryDx=0;entryDy=0;entryPerimeter=0;fillColor=#d5e8d4;strokeColor=#82b366;" edge="1" parent="1" source="UOPAoyRl8zIuu1TyD0ZJ-63" target="UOPAoyRl8zIuu1TyD0ZJ-24">
          <mxGeometry relative="1" as="geometry" />
        </mxCell>
        <mxCell id="UOPAoyRl8zIuu1TyD0ZJ-63" value="" style="rounded=0;whiteSpace=wrap;html=1;fillColor=#f5f5f5;strokeColor=none;fontColor=#333333;labelBackgroundColor=none;" vertex="1" parent="1">
          <mxGeometry x="850" y="746" width="150" height="90" as="geometry" />
        </mxCell>
        <mxCell id="UOPAoyRl8zIuu1TyD0ZJ-25" value="&lt;font style=&quot;vertical-align: inherit&quot;&gt;&lt;font style=&quot;vertical-align: inherit&quot;&gt;ķafka&lt;/font&gt;&lt;/font&gt;" style="sketch=0;points=[[0,0,0],[0.25,0,0],[0.5,0,0],[0.75,0,0],[1,0,0],[0,1,0],[0.25,1,0],[0.5,1,0],[0.75,1,0],[1,1,0],[0,0.25,0],[0,0.5,0],[0,0.75,0],[1,0.25,0],[1,0.5,0],[1,0.75,0]];outlineConnect=0;fontColor=#232F3E;gradientColor=#945DF2;gradientDirection=north;fillColor=#5A30B5;strokeColor=#ffffff;dashed=0;verticalLabelPosition=bottom;verticalAlign=top;align=center;html=1;fontSize=12;fontStyle=0;aspect=fixed;shape=mxgraph.aws4.resourceIcon;resIcon=mxgraph.aws4.managed_streaming_for_kafka;" vertex="1" parent="1">
          <mxGeometry x="870" y="771" width="40" height="40" as="geometry" />
        </mxCell>
        <mxCell id="UOPAoyRl8zIuu1TyD0ZJ-26" value="canal" style="shape=image;verticalLabelPosition=bottom;labelBackgroundColor=#ffffff;verticalAlign=top;aspect=fixed;imageAspect=0;image=data:image/svg+xml,PHN2ZyB4bWxuczpjYz0iaHR0cDovL2NyZWF0aXZlY29tbW9ucy5vcmcvbnMjIiB4bWxuczpkYz0iaHR0cDovL3B1cmwub3JnL2RjL2VsZW1lbnRzLzEuMS8iIHhtbG5zOmlua3NjYXBlPSJodHRwOi8vd3d3Lmlua3NjYXBlLm9yZy9uYW1lc3BhY2VzL2lua3NjYXBlIiB4bWxuczpyZGY9Imh0dHA6Ly93d3cudzMub3JnLzE5OTkvMDIvMjItcmRmLXN5bnRheC1ucyMiIHhtbG5zOnNvZGlwb2RpPSJodHRwOi8vc29kaXBvZGkuc291cmNlZm9yZ2UubmV0L0RURC9zb2RpcG9kaS0wLmR0ZCIgeG1sbnM6c3ZnPSJodHRwOi8vd3d3LnczLm9yZy8yMDAwL3N2ZyIgeG1sbnM9Imh0dHA6Ly93d3cudzMub3JnLzIwMDAvc3ZnIiB4bWxuczp4bGluaz0iaHR0cDovL3d3dy53My5vcmcvMTk5OS94bGluayIgdmVyc2lvbj0iMS4xIiBpZD0ic3ZnOTg2NjciIGlua3NjYXBlOnZlcnNpb249IjAuOTIuMyAoMjQwNTU0NiwgMjAxOC0wMy0xMSkiIHNvZGlwb2RpOmRvY25hbWU9ImRhdGFiYXNlX21pcnJvci5zdmciIHg9IjBweCIgeT0iMHB4IiB2aWV3Qm94PSIwIDAgNjEuODkgNTAuNzEiIHN0eWxlPSJlbmFibGUtYmFja2dyb3VuZDpuZXcgMCAwIDYxLjg5IDUwLjcxOyIgeG1sOnNwYWNlPSJwcmVzZXJ2ZSI+JiN4YTs8c29kaXBvZGk6bmFtZWR2aWV3IGJvcmRlcmNvbG9yPSIjNjY2NjY2IiBib3JkZXJvcGFjaXR5PSIxIiBmaXQtbWFyZ2luLWJvdHRvbT0iMCIgZml0LW1hcmdpbi1sZWZ0PSIwIiBmaXQtbWFyZ2luLXJpZ2h0PSIwIiBmaXQtbWFyZ2luLXRvcD0iMCIgZ3JpZHRvbGVyYW5jZT0iMTAiIGd1aWRldG9sZXJhbmNlPSIxMCIgaWQ9Im5hbWVkdmlldzk4NjY5IiBpbmtzY2FwZTpjdXJyZW50LWxheWVyPSJzdmc5ODY2NyIgaW5rc2NhcGU6Y3g9IjQxLjI2MDEyOCIgaW5rc2NhcGU6Y3k9IjMzLjgwNDE5NCIgaW5rc2NhcGU6cGFnZW9wYWNpdHk9IjAiIGlua3NjYXBlOnBhZ2VzaGFkb3c9IjIiIGlua3NjYXBlOndpbmRvdy1oZWlnaHQ9IjEwMTciIGlua3NjYXBlOndpbmRvdy1tYXhpbWl6ZWQ9IjEiIGlua3NjYXBlOndpbmRvdy13aWR0aD0iMTkyMCIgaW5rc2NhcGU6d2luZG93LXg9Ii04IiBpbmtzY2FwZTp3aW5kb3cteT0iLTgiIGlua3NjYXBlOnpvb209IjEyLjgyMTk3OCIgb2JqZWN0dG9sZXJhbmNlPSIxMCIgcGFnZWNvbG9yPSIjZmZmZmZmIiBzaG93Z3JpZD0iZmFsc2UiPiYjeGE7CTwvc29kaXBvZGk6bmFtZWR2aWV3PiYjeGE7PGcgaWQ9Imc5ODY2NSIgdHJhbnNmb3JtPSJ0cmFuc2xhdGUoMCwwLjAwMTEpIj4mI3hhOwk8dGl0bGUgaWQ9InRpdGxlOTg2NDUiPlBhZ2UtMTwvdGl0bGU+JiN4YTsJPGcgaWQ9Imdyb3VwMzg1Mi0xIj4mI3hhOwkJPHRpdGxlIGlkPSJ0aXRsZTk4NjQ3Ij5EYXRhYmFzZSBNaXJyb3I8L3RpdGxlPiYjeGE7CQk8ZyBpZD0ic2hhcGUzODUzLTIiIHRyYW5zZm9ybT0idHJhbnNsYXRlKDcuMzc5ODEsLTEuNjU0MTYpIj4mI3hhOwkJCTx0aXRsZSBpZD0idGl0bGU5ODY0OSI+U2hlZXQuMzg1MzwvdGl0bGU+JiN4YTsJCQk8cGF0aCBpZD0icGF0aDk4NjUxIiBpbmtzY2FwZTpjb25uZWN0b3ItY3VydmF0dXJlPSIwIiBzdHlsZT0iZmlsbDojM0Y1NzY1OyIgZD0iTTE0LjgsMzcuMTRoLTQuN2w0Ljc4LDQuOTNIOS4wNiAgICAgYy0yLjM1LDAtNC41NS0yLjE2LTUuMzYtNC45M0gwYzAuOTMsNC44Miw0LjgyLDguNjQsOS4xNCw4LjY0aDUuNzhsLTQuODIsNC45M2g0LjYzbDYuNzgtNi44MkwxNC44LDM3LjE0eiIvPiYjeGE7CQk8L2c+JiN4YTsJCTxnIGlkPSJzaGFwZTM4NTQtNCIgdHJhbnNmb3JtPSJ0cmFuc2xhdGUoMCwtMTYuNzMxMSkiPiYjeGE7CQkJPHRpdGxlIGlkPSJ0aXRsZTk4NjU0Ij5EYXRhYmFzZTwvdGl0bGU+JiN4YTsJCQk8cGF0aCBpZD0icGF0aDk4NjU2IiBpbmtzY2FwZTpjb25uZWN0b3ItY3VydmF0dXJlPSIwIiBzdHlsZT0iZmlsbDojM0Y1NzY1OyIgZD0iTTAsMjQuODNjMCwyMC41MSwwLDIwLjUxLDAsMjAuNTFsMCwwICAgICBjMC42NiwzLjEyLDcuMjksNS4zNywxNS4zOSw1LjM3YzguMTUsMCwxNC43OC0yLjI1LDE1LjM4LTUuMzdsMCwwbDAsMGMwLTAuMiwwLTAuMiwwLTAuNGMwLDAsMCwwLDAtMC4yYzAtMTkuNzEsMC0xOS43MSwwLTE5LjcxICAgICBjLTIuNDUsMi43Mi05LjA5LDQuMTgtMTUuMzgsNC4xOEM5LjE1LDI5LjIxLDIuNTIsMjcuNzUsMCwyNC44M3ogTTE1LjM5LDI4LjE1QzYuOSwyOC4xNSwwLDI1LjY5LDAsMjIuNTdzNi45LTUuODQsMTUuMzktNS44NCAgICAgYzguNTUsMCwxNS4zOCwyLjcyLDE1LjM4LDUuODRTMjMuOTQsMjguMTUsMTUuMzksMjguMTV6Ii8+JiN4YTsJCTwvZz4mI3hhOwkJPGcgaWQ9InNoYXBlMzg1NS02IiB0cmFuc2Zvcm09InRyYW5zbGF0ZSgzMS4xMjAxKSI+JiN4YTsJCQk8dGl0bGUgaWQ9InRpdGxlOTg2NTkiPkRhdGFiYXNlLjc4NDwvdGl0bGU+JiN4YTsJCQk8cGF0aCBpZD0icGF0aDk4NjYxIiBpbmtzY2FwZTpjb25uZWN0b3ItY3VydmF0dXJlPSIwIiBzdHlsZT0iZmlsbDojM0Y1NzY1OyIgZD0iTTAsMjQuODNjMCwyMC41MSwwLDIwLjUxLDAsMjAuNTFsMCwwICAgICBjMC42NiwzLjEyLDcuMjksNS4zNywxNS4zOSw1LjM3YzguMTUsMCwxNC43OC0yLjI1LDE1LjM4LTUuMzdsMCwwbDAsMGMwLTAuMiwwLTAuMiwwLTAuNGMwLDAsMCwwLDAtMC4yYzAtMTkuNzEsMC0xOS43MSwwLTE5LjcxICAgICBjLTIuNDUsMi43Mi05LjA5LDQuMTgtMTUuMzgsNC4xOEM5LjE1LDI5LjIxLDIuNTIsMjcuNzUsMCwyNC44M3ogTTE1LjM5LDI4LjE1QzYuOSwyOC4xNSwwLDI1LjY5LDAsMjIuNTdzNi45LTUuODQsMTUuMzktNS44NCAgICAgYzguNTUsMCwxNS4zOCwyLjcyLDE1LjM4LDUuODRTMjMuOTQsMjguMTUsMTUuMzksMjguMTV6Ii8+JiN4YTsJCTwvZz4mI3hhOwk8L2c+JiN4YTs8L2c+JiN4YTs8L3N2Zz4=;" vertex="1" parent="1">
          <mxGeometry x="931.37" y="771" width="48.63" height="40" as="geometry" />
        </mxCell>
        <mxCell id="UOPAoyRl8zIuu1TyD0ZJ-24" value="mg" style="shape=image;verticalLabelPosition=bottom;labelBackgroundColor=#ffffff;verticalAlign=top;aspect=fixed;imageAspect=0;image=data:image/svg+xml,PHN2ZyB4bWxuczpjYz0iaHR0cDovL2NyZWF0aXZlY29tbW9ucy5vcmcvbnMjIiB4bWxuczpkYz0iaHR0cDovL3B1cmwub3JnL2RjL2VsZW1lbnRzLzEuMS8iIHhtbG5zOmlua3NjYXBlPSJodHRwOi8vd3d3Lmlua3NjYXBlLm9yZy9uYW1lc3BhY2VzL2lua3NjYXBlIiB4bWxuczpyZGY9Imh0dHA6Ly93d3cudzMub3JnLzE5OTkvMDIvMjItcmRmLXN5bnRheC1ucyMiIHhtbG5zOnNvZGlwb2RpPSJodHRwOi8vc29kaXBvZGkuc291cmNlZm9yZ2UubmV0L0RURC9zb2RpcG9kaS0wLmR0ZCIgeG1sbnM6c3ZnPSJodHRwOi8vd3d3LnczLm9yZy8yMDAwL3N2ZyIgeG1sbnM9Imh0dHA6Ly93d3cudzMub3JnLzIwMDAvc3ZnIiB4bWxuczp4bGluaz0iaHR0cDovL3d3dy53My5vcmcvMTk5OS94bGluayIgdmVyc2lvbj0iMS4xIiBpZD0ic3ZnMTM0OTUiIGlua3NjYXBlOnZlcnNpb249IjAuOTIuMyAoMjQwNTU0NiwgMjAxOC0wMy0xMSkiIHNvZGlwb2RpOmRvY25hbWU9IndlYl9hcHBsaWNhdGlvbl9zZXJ2ZXIuc3ZnIiB4PSIwcHgiIHk9IjBweCIgdmlld0JveD0iMCAwIDYzLjExIDY5Ljc1IiBzdHlsZT0iZW5hYmxlLWJhY2tncm91bmQ6bmV3IDAgMCA2My4xMSA2OS43NTsiIHhtbDpzcGFjZT0icHJlc2VydmUiPiYjeGE7PHNvZGlwb2RpOm5hbWVkdmlldyBib3JkZXJjb2xvcj0iIzY2NjY2NiIgYm9yZGVyb3BhY2l0eT0iMSIgZml0LW1hcmdpbi1ib3R0b209IjAiIGZpdC1tYXJnaW4tbGVmdD0iMCIgZml0LW1hcmdpbi1yaWdodD0iMCIgZml0LW1hcmdpbi10b3A9IjAiIGdyaWR0b2xlcmFuY2U9IjEwIiBndWlkZXRvbGVyYW5jZT0iMTAiIGlkPSJuYW1lZHZpZXcxMzQ5NyIgaW5rc2NhcGU6Y3VycmVudC1sYXllcj0ic3ZnMTM0OTUiIGlua3NjYXBlOmN4PSI0Mi4wNzQ4MTUiIGlua3NjYXBlOmN5PSI0Ni41MDAwMTUiIGlua3NjYXBlOnBhZ2VvcGFjaXR5PSIwIiBpbmtzY2FwZTpwYWdlc2hhZG93PSIyIiBpbmtzY2FwZTp3aW5kb3ctaGVpZ2h0PSIxMDE3IiBpbmtzY2FwZTp3aW5kb3ctbWF4aW1pemVkPSIxIiBpbmtzY2FwZTp3aW5kb3ctd2lkdGg9IjE5MjAiIGlua3NjYXBlOndpbmRvdy14PSItOCIgaW5rc2NhcGU6d2luZG93LXk9Ii04IiBpbmtzY2FwZTp6b29tPSI5LjEyNjMxODciIG9iamVjdHRvbGVyYW5jZT0iMTAiIHBhZ2Vjb2xvcj0iI2ZmZmZmZiIgc2hvd2dyaWQ9ImZhbHNlIj4mI3hhOwk8L3NvZGlwb2RpOm5hbWVkdmlldz4mI3hhOzxnIGlkPSJnMTM0OTMiIHRyYW5zZm9ybT0idHJhbnNsYXRlKC0wLjc1LC0wLjc1KSI+JiN4YTsJPHRpdGxlIGlkPSJ0aXRsZTEzMzcxIj5QYWdlLTE8L3RpdGxlPiYjeGE7CTxnIGlkPSJncm91cDc5MDgtMSIgdHJhbnNmb3JtPSJ0cmFuc2xhdGUoMS41LC0xLjUpIj4mI3hhOwkJPHRpdGxlIGlkPSJ0aXRsZTEzMzczIj5XZWIgQXBwbGljYXRpb24gU2VydmVyPC90aXRsZT4mI3hhOwkJPGcgaWQ9Imdyb3VwNzkwOS0yIj4mI3hhOwkJCTx0aXRsZSBpZD0idGl0bGUxMzM3NSI+U2hlZXQuNzkwOTwvdGl0bGU+JiN4YTsJCQk8ZyBpZD0iZ3JvdXA3OTEwLTMiPiYjeGE7CQkJCTx0aXRsZSBpZD0idGl0bGUxMzM3NyI+ZzE2NDA4PC90aXRsZT4mI3hhOwkJCQk8ZyBpZD0ic2hhcGU3OTExLTQiPiYjeGE7CQkJCQk8dGl0bGUgaWQ9InRpdGxlMTMzNzkiPnJlY3QxNjM4MDwvdGl0bGU+JiN4YTsJCQkJCSYjeGE7CQkJCQkJPHJlY3QgaWQ9InJlY3QxMzM4MSIgeD0iMCIgeT0iMyIgc3R5bGU9ImZpbGw6I0ZGRkZGRjtzdHJva2U6IzU1NkE4QTtzdHJva2Utd2lkdGg6MS41O3N0cm9rZS1taXRlcmxpbWl0OjM7IiB3aWR0aD0iMzkuNzUiIGhlaWdodD0iNjguMjUiLz4mI3hhOwkJCQk8L2c+JiN4YTsJCQkJPGcgaWQ9Imdyb3VwNzkxMi02IiB0cmFuc2Zvcm09InRyYW5zbGF0ZSgxLjUsLTAuNzUpIj4mI3hhOwkJCQkJPHRpdGxlIGlkPSJ0aXRsZTEzMzg0Ij5nMTY0MDA8L3RpdGxlPiYjeGE7CQkJCQk8ZyBpZD0ic2hhcGU3OTEzLTciIHRyYW5zZm9ybT0idHJhbnNsYXRlKDE4KSI+JiN4YTsJCQkJCQk8dGl0bGUgaWQ9InRpdGxlMTMzODYiPnJlY3QxNjM4MjwvdGl0bGU+JiN4YTsJCQkJCQk8cmVjdCBpZD0icmVjdDEzMzg4IiB4PSIwIiB5PSI0LjUiIHN0eWxlPSJmaWxsOiNFNUU1RTU7IiB3aWR0aD0iMTkuNSIgaGVpZ2h0PSI2Ni43NSIvPiYjeGE7CQkJCQk8L2c+JiN4YTsJCQkJCTxnIGlkPSJzaGFwZTc5MTQtOSIgdHJhbnNmb3JtPSJ0cmFuc2xhdGUoMCwtNDgpIj4mI3hhOwkJCQkJCTx0aXRsZSBpZD0idGl0bGUxMzM5MSI+cmVjdDE2Mzg0PC90aXRsZT4mI3hhOwkJCQkJCTxyZWN0IGlkPSJyZWN0MTMzOTMiIHg9IjAiIHk9IjY5IiBzdHlsZT0iZmlsbDojMkJDN0Y0OyIgd2lkdGg9IjE4IiBoZWlnaHQ9IjIuMjUiLz4mI3hhOwkJCQkJPC9nPiYjeGE7CQkJCQk8ZyBpZD0ic2hhcGU3OTE1LTExIiB0cmFuc2Zvcm09InRyYW5zbGF0ZSgwLC01OC41KSI+JiN4YTsJCQkJCQk8dGl0bGUgaWQ9InRpdGxlMTMzOTYiPnBvbHlnb24xNjM4NjwvdGl0bGU+JiN4YTsJCQkJCQk8cmVjdCBpZD0icmVjdDEzMzk4IiB4PSIwIiB5PSI2OSIgc3R5bGU9ImZpbGw6bm9uZTsiIHdpZHRoPSIyNyIgaGVpZ2h0PSIyLjI1Ii8+JiN4YTsJCQkJCTwvZz4mI3hhOwkJCQkJPGcgaWQ9InNoYXBlNzkxNi0xMyIgdHJhbnNmb3JtPSJ0cmFuc2xhdGUoMCwtNTguNSkiPiYjeGE7CQkJCQkJPHRpdGxlIGlkPSJ0aXRsZTEzNDAxIj5wb2x5bGluZTE2Mzg4PC90aXRsZT4mI3hhOwkJCQkJCTxyZWN0IGlkPSJyZWN0MTM0MDMiIHg9IjAiIHk9IjY5IiBzdHlsZT0iZmlsbDpub25lOyIgd2lkdGg9IjI3IiBoZWlnaHQ9IjIuMjUiLz4mI3hhOwkJCQkJPC9nPiYjeGE7CQkJCQk8ZyBpZD0ic2hhcGU3OTE3LTE1IiB0cmFuc2Zvcm09InRyYW5zbGF0ZSgwLC01My4yNSkiPiYjeGE7CQkJCQkJPHRpdGxlIGlkPSJ0aXRsZTEzNDA2Ij5yZWN0MTYzOTA8L3RpdGxlPiYjeGE7CQkJCQkJPHJlY3QgaWQ9InJlY3QxMzQwOCIgeD0iMCIgeT0iNjkiIHN0eWxlPSJmaWxsOiMyQkM3RjQ7IiB3aWR0aD0iMTgiIGhlaWdodD0iMi4yNSIvPiYjeGE7CQkJCQk8L2c+JiN4YTsJCQkJCTxnIGlkPSJzaGFwZTc5MTgtMTciIHRyYW5zZm9ybT0idHJhbnNsYXRlKDAsLTU4LjUpIj4mI3hhOwkJCQkJCTx0aXRsZSBpZD0idGl0bGUxMzQxMSI+cmVjdDE2MzkyPC90aXRsZT4mI3hhOwkJCQkJCTxyZWN0IGlkPSJyZWN0MTM0MTMiIHg9IjAiIHk9IjY5IiBzdHlsZT0iZmlsbDojMkJDN0Y0OyIgd2lkdGg9IjE4IiBoZWlnaHQ9IjIuMjUiLz4mI3hhOwkJCQkJPC9nPiYjeGE7CQkJCQk8ZyBpZD0ic2hhcGU3OTE5LTE5IiB0cmFuc2Zvcm09InRyYW5zbGF0ZSgxOCwtNDgpIj4mI3hhOwkJCQkJCTx0aXRsZSBpZD0idGl0bGUxMzQxNiI+cmVjdDE2Mzk0PC90aXRsZT4mI3hhOwkJCQkJCTxyZWN0IGlkPSJyZWN0MTM0MTgiIHg9IjAiIHk9IjY5IiBzdHlsZT0iZmlsbDojNTU2QThBOyIgd2lkdGg9IjE5LjUiIGhlaWdodD0iMi4yNSIvPiYjeGE7CQkJCQk8L2c+JiN4YTsJCQkJCTxnIGlkPSJzaGFwZTc5MjAtMjEiIHRyYW5zZm9ybT0idHJhbnNsYXRlKDE4LC01My4yNSkiPiYjeGE7CQkJCQkJPHRpdGxlIGlkPSJ0aXRsZTEzNDIxIj5yZWN0MTYzOTY8L3RpdGxlPiYjeGE7CQkJCQkJPHJlY3QgaWQ9InJlY3QxMzQyMyIgeD0iMCIgeT0iNjkiIHN0eWxlPSJmaWxsOiM1NTZBOEE7IiB3aWR0aD0iMTkuNSIgaGVpZ2h0PSIyLjI1Ii8+JiN4YTsJCQkJCTwvZz4mI3hhOwkJCQkJPGcgaWQ9InNoYXBlNzkyMS0yMyIgdHJhbnNmb3JtPSJ0cmFuc2xhdGUoMTgsLTU4LjUpIj4mI3hhOwkJCQkJCTx0aXRsZSBpZD0idGl0bGUxMzQyNiI+cmVjdDE2Mzk4PC90aXRsZT4mI3hhOwkJCQkJCTxyZWN0IGlkPSJyZWN0MTM0MjgiIHg9IjAiIHk9IjY5IiBzdHlsZT0iZmlsbDojNTU2QThBOyIgd2lkdGg9IjE5LjUiIGhlaWdodD0iMi4yNSIvPiYjeGE7CQkJCQk8L2c+JiN4YTsJCQkJPC9nPiYjeGE7CQkJCTxnIGlkPSJzaGFwZTc5MjItMjUiIHRyYW5zZm9ybT0idHJhbnNsYXRlKDAuNzUsLTU5LjI1KSI+JiN4YTsJCQkJCTx0aXRsZSBpZD0idGl0bGUxMzQzMiI+cmVjdDE2NDAyPC90aXRsZT4mI3hhOwkJCQkJPHJlY3QgaWQ9InJlY3QxMzQzNCIgeD0iMCIgeT0iNjkiIHN0eWxlPSJmaWxsOiM1NTZBOEE7IiB3aWR0aD0iMi4yNSIgaGVpZ2h0PSIyLjI1Ii8+JiN4YTsJCQkJPC9nPiYjeGE7CQkJCTxnIGlkPSJzaGFwZTc5MjMtMjciIHRyYW5zZm9ybT0idHJhbnNsYXRlKDAuNzUsLTU0KSI+JiN4YTsJCQkJCTx0aXRsZSBpZD0idGl0bGUxMzQzNyI+cmVjdDE2NDA0PC90aXRsZT4mI3hhOwkJCQkJPHJlY3QgaWQ9InJlY3QxMzQzOSIgeD0iMCIgeT0iNjkiIHN0eWxlPSJmaWxsOiM1NTZBOEE7IiB3aWR0aD0iMi4yNSIgaGVpZ2h0PSIyLjI1Ii8+JiN4YTsJCQkJPC9nPiYjeGE7CQkJCTxnIGlkPSJzaGFwZTc5MjQtMjkiIHRyYW5zZm9ybT0idHJhbnNsYXRlKDAuNzUsLTQ4Ljc1KSI+JiN4YTsJCQkJCTx0aXRsZSBpZD0idGl0bGUxMzQ0MiI+cmVjdDE2NDA2PC90aXRsZT4mI3hhOwkJCQkJPHJlY3QgaWQ9InJlY3QxMzQ0NCIgeD0iMCIgeT0iNjkiIHN0eWxlPSJmaWxsOiM1NTZBOEE7IiB3aWR0aD0iMi4yNSIgaGVpZ2h0PSIyLjI1Ii8+JiN4YTsJCQkJPC9nPiYjeGE7CQkJPC9nPiYjeGE7CQk8L2c+JiN4YTsJCTxnIGlkPSJzaGFwZTc5MjUtMzEiIHRyYW5zZm9ybT0idHJhbnNsYXRlKDE3LjM2MjIsLTMuNzA0NykiPiYjeGE7CQkJPHRpdGxlIGlkPSJ0aXRsZTEzNDQ5Ij5TaGVldC43OTI1PC90aXRsZT4mI3hhOwkJCTxwYXRoIGlkPSJwYXRoMTM0NTEiIGlua3NjYXBlOmNvbm5lY3Rvci1jdXJ2YXR1cmU9IjAiIHN0eWxlPSJmaWxsOiM1NTZBOEE7IiBkPSJNNDMuMjgsMzguM2MtNDEuNjIsMC00MS42MiwwLTQxLjYyLDAgICAgIEMwLjI4LDM4LjMsMCwzOC42MywwLDQwLjAxYzAsMjkuNTgsMCwyOS41OCwwLDI5LjU4YzAsMS4zOCwwLjI4LDEuNjYsMS42NiwxLjY2YzQxLjYyLDAsNDEuNjIsMCw0MS42MiwwICAgICBjMS40NCwwLDEuNzItMC4yOCwxLjcyLTEuNjZjMC0yOS41OCwwLTI5LjU4LDAtMjkuNThDNDUsMzguNjMsNDQuNzIsMzguMyw0My4yOCwzOC4zeiIvPiYjeGE7CQk8L2c+JiN4YTsJCTxnIGlkPSJzaGFwZTc5MjYtMzMiIHRyYW5zZm9ybT0idHJhbnNsYXRlKDE4LjQ2OTMsLTUuMjUyNykiPiYjeGE7CQkJPHRpdGxlIGlkPSJ0aXRsZTEzNDU0Ij5TaGVldC43OTI2PC90aXRsZT4mI3hhOwkJCTxwYXRoIGlkPSJwYXRoMTM0NTYiIGlua3NjYXBlOmNvbm5lY3Rvci1jdXJ2YXR1cmU9IjAiIHN0eWxlPSJmaWxsOiMwMEIwNTA7IiBkPSJNMCw0Ni4wNHYyNS4yMWg0Mi43OVY0Ni4wNEgweiIvPiYjeGE7CQk8L2c+JiN4YTsJCTxnIGlkPSJzaGFwZTc5MjctMzUiIHRyYW5zZm9ybT0idHJhbnNsYXRlKDE4LjUyNDYsLTMxLjM0NzcpIj4mI3hhOwkJCTx0aXRsZSBpZD0idGl0bGUxMzQ1OSI+U2hlZXQuNzkyNzwvdGl0bGU+JiN4YTsJCQk8cGF0aCBpZD0icGF0aDEzNDYxIiBpbmtzY2FwZTpjb25uZWN0b3ItY3VydmF0dXJlPSIwIiBzdHlsZT0iZmlsbDojNTVEMkY2OyIgZD0iTTQuNDgsNjkuMDRjMCwxLjI3LTAuOTksMi4yMS0yLjIxLDIuMjEgICAgIFMwLDcwLjMxLDAsNjkuMDRjMC0xLjIyLDEuMDUtMi4yMSwyLjI3LTIuMjFTNC40OCw2Ny44Miw0LjQ4LDY5LjA0eiIvPiYjeGE7CQk8L2c+JiN4YTsJCTxnIGlkPSJzaGFwZTc5MjgtMzciIHRyYW5zZm9ybT0idHJhbnNsYXRlKDE5LjQ2NTYsLTMyLjU2NCkiPiYjeGE7CQkJPHRpdGxlIGlkPSJ0aXRsZTEzNDY0Ij5TaGVldC43OTI4PC90aXRsZT4mI3hhOwkJCTxwYXRoIGlkPSJwYXRoMTM0NjYiIGlua3NjYXBlOmNvbm5lY3Rvci1jdXJ2YXR1cmU9IjAiIHN0eWxlPSJmaWxsOiNGRkZGRkY7IiBkPSJNMC44OSw3MC4wM2wwLjc3LTAuNzJIMS4wNUwwLDcwLjI1bDEuMDUsMWgwLjYxICAgICBsLTAuNzctMC43N2gxLjc3di0wLjQ1TDAuODksNzAuMDN6Ii8+JiN4YTsJCTwvZz4mI3hhOwkJPGcgaWQ9InNoYXBlNzkyOS0zOSIgdHJhbnNmb3JtPSJ0cmFuc2xhdGUoMjMuODM4MywtMzIuNTY0KSI+JiN4YTsJCQk8dGl0bGUgaWQ9InRpdGxlMTM0NjkiPlNoZWV0Ljc5Mjk8L3RpdGxlPiYjeGE7CQkJPHBhdGggaWQ9InBhdGgxMzQ3MSIgaW5rc2NhcGU6Y29ubmVjdG9yLWN1cnZhdHVyZT0iMCIgc3R5bGU9ImZpbGw6I0ZGRkZGRjsiIGQ9Ik0wLDY5LjE1djIuMWgzNy40N3YtMi4xSDB6Ii8+JiN4YTsJCTwvZz4mI3hhOwkJPGcgaWQ9InNoYXBlNzkzMC00MSIgdHJhbnNmb3JtPSJ0cmFuc2xhdGUoMjguOTMwNSwtMTMuMzI0NSkiPiYjeGE7CQkJPHRpdGxlIGlkPSJ0aXRsZTEzNDc0Ij5TaGVldC43OTMwPC90aXRsZT4mI3hhOwkJCTxwYXRoIGlkPSJwYXRoMTM0NzYiIGlua3NjYXBlOmNvbm5lY3Rvci1jdXJ2YXR1cmU9IjAiIHN0eWxlPSJmaWxsOiNGRkZGRkY7IiBkPSJNMjEuMDksNjYuNDRjMC0xLjExLTAuODktMi4wNS0yLjA1LTIuMDUgICAgIGMtMy4xLDAtMy4xLDAtMy4xLDBjLTIuNzEtMi42NS0yLjcxLTIuNjUtMi43MS0yLjY1Yy02LjY0LDAtNi42NCwwLTYuNjQsMGMtMi44MywyLjcxLTIuODMsMi43MS0yLjgzLDIuNzEgICAgIGMtMS43MSwwLjE3LTMuMSwxLjYtMy4xLDMuMzdjMCwwLjY3LDAsMC42NywwLDAuNjdjLTAuNjYsMC0wLjY2LDAtMC42NiwwYzAsMS4zMiwwLDEuMzIsMCwxLjMyYzIuODgsMCwyLjg4LDAsMi44OCwwICAgICBjMC4yNywwLjgzLDEuMDUsMS40NCwxLjk0LDEuNDRjMC44OCwwLDEuNi0wLjYxLDEuODgtMS40NGM4LjQxLDAsOC40MSwwLDguNDEsMGMwLjMzLDAuODMsMS4wNSwxLjQ0LDEuOTQsMS40NCAgICAgYzAuODgsMCwxLjYtMC42MSwxLjk0LTEuNDRjMi43NiwwLDIuNzYsMCwyLjc2LDBjMC0xLjMyLDAtMS4zMiwwLTEuMzJjLTAuNjYsMC0wLjY2LDAtMC42NiwwTDIxLjA5LDY2LjQ0eiBNMTkuNzYsNjYuNDQgICAgIGMwLDIuMDUsMCwyLjA1LDAsMi4wNWMtMC43NywwLTAuNzcsMC0wLjc3LDBjLTAuMzQtMC43OC0xLjA2LTEuMzktMS45NC0xLjM5Yy0wLjg5LDAtMS42MSwwLjYxLTEuOTQsMS4zOWMtNS41OSwwLTUuNTksMC01LjU5LDAgICAgIGMwLTIuNzEsMC0yLjcxLDAtMi43MWM5LjUyLDAsOS41MiwwLDkuNTIsMEMxOS40OCw2NS43OCwxOS43Niw2Ni4wNSwxOS43Niw2Ni40NHogTTE0LDY0LjM5Yy00LjQ4LDAtNC40OCwwLTQuNDgsMCAgICAgYzAtMS4zMiwwLTEuMzIsMC0xLjMyYzMuMTYsMCwzLjE2LDAsMy4xNiwwTDE0LDY0LjM5eiBNNy4wOCw2My4wN2MxLjExLDAsMS4xMSwwLDEuMTEsMGMwLDEuMzIsMCwxLjMyLDAsMS4zMiAgICAgYy0yLjQzLDAtMi40MywwLTIuNDMsMEw3LjA4LDYzLjA3eiBNMi4wNSw2Ny44MmMwLTEuMTYsMC44OC0yLjA0LDIuMS0yLjA0YzQuMDQsMCw0LjA0LDAsNC4wNCwwYzAsMi43MSwwLDIuNzEsMCwyLjcxICAgICBjLTEuNDksMC0xLjQ5LDAtMS40OSwwYy0wLjI4LTAuNzgtMS0xLjM5LTEuODgtMS4zOWMtMC44OSwwLTEuNjcsMC42MS0xLjk0LDEuMzljLTAuODMsMC0wLjgzLDAtMC44MywwVjY3LjgyeiBNNC44Miw2OS44MSAgICAgYy0wLjM5LDAtMC42Ny0wLjI3LTAuNjctMC42NmMwLTAuMzMsMC4yOC0wLjY2LDAuNjctMC42NmMwLjMzLDAsMC42NiwwLjMzLDAuNjYsMC42NkM1LjQ4LDY5LjU0LDUuMTUsNjkuODEsNC44Miw2OS44MXogICAgICBNMTcuMDUsNjkuODFjLTAuMzksMC0wLjY3LTAuMjctMC42Ny0wLjY2YzAtMC4zMywwLjI4LTAuNjYsMC42Ny0wLjY2czAuNjYsMC4zMywwLjY2LDAuNjZDMTcuNzEsNjkuNTQsMTcuNDQsNjkuODEsMTcuMDUsNjkuODEgICAgIHoiLz4mI3hhOwkJPC9nPiYjeGE7CQk8ZyBpZD0ic2hhcGU3OTMxLTQzIiB0cmFuc2Zvcm09InRyYW5zbGF0ZSgxOC4zMjcxLC01LjIyNzI5KSI+JiN4YTsJCQk8dGl0bGUgaWQ9InRpdGxlMTM0NzkiPlNoZWV0Ljc5MzE8L3RpdGxlPiYjeGE7CQkJPHBhdGggaWQ9InBhdGgxMzQ4MSIgaW5rc2NhcGU6Y29ubmVjdG9yLWN1cnZhdHVyZT0iMCIgc3R5bGU9ImZpbGw6IzU1RDJGNjsiIGQ9Ik0wLDQ2LjAzdjI1LjIyaDQyLjg1VjQ2LjAzSDB6Ii8+JiN4YTsJCTwvZz4mI3hhOwkJPGcgaWQ9Imdyb3VwNzkzMi00NSIgdHJhbnNmb3JtPSJ0cmFuc2xhdGUoMjkuNzA3MiwtOC40MjM1NykiPiYjeGE7CQkJPHRpdGxlIGlkPSJ0aXRsZTEzNDg0Ij5XZWJzaXRlczwvdGl0bGU+JiN4YTsJCQk8ZyBpZD0ic2hhcGU3OTMzLTQ2Ij4mI3hhOwkJCQk8dGl0bGUgaWQ9InRpdGxlMTM0ODYiPlNoZWV0Ljc5MzM8L3RpdGxlPiYjeGE7CQkJCTxwYXRoIGlkPSJwYXRoMTM0ODgiIGlua3NjYXBlOmNvbm5lY3Rvci1jdXJ2YXR1cmU9IjAiIHN0eWxlPSJmaWxsOiNGRkZGRkY7IiBkPSJNMTAuMSw1MS4wNGM1LjU5LDAsMTAuMjEsNC40OSwxMC4yMSwxMC4wNSAgICAgIGMwLDUuNjctNC42MiwxMC4xNi0xMC4yMSwxMC4xNkM0LjUyLDcxLjI1LDAsNjYuNzYsMCw2MS4wOUMwLDU1LjUzLDQuNTIsNTEuMDQsMTAuMSw1MS4wNHogTTEzLjg2LDY5LjQzICAgICAgYy0wLjMyLTEuNzEsMC42NS00LjU5LDAuMTEtNS4xM2MtMC4yMS0wLjExLTAuNDMtMC4yMS0wLjY0LTAuMTFjLTAuNDMsMC4xMS0wLjg2LDAuMzItMS4xOSwwLjIyICAgICAgYy0xLjgyLTAuODYtMC43NS0zLjc1LDEuMDgtNC4zOWMwLjMyLTAuMSwwLjY0LTAuMSwwLjk3LTAuMWMwLjUzLTAuMTEsMC44Ni0wLjExLDAuODYsMC4yMWMwLDAuNDMsMC44NiwwLjc1LDEuMDcsMC43NSAgICAgIGMwLjExLDAsMC4xMS0wLjMyLDAuMjItMC4zMmMwLjc1LDAsMS4yOCwwLjQzLDEuMzksMC4xYzAuMjItMS4wNywwLjExLTAuNTMtMC43NS0wLjY0Yy0wLjMyLTAuMS0wLjExLTAuNjQtMC40My0wLjY0ICAgICAgYy0wLjIxLTAuMSwwLjExLDAuNjQtMC4yMSwwLjQzYy0wLjQzLTAuMzItMC42NS0xLjA3LTEuMDgtMS4xOGMtMC41NC0wLjEsMC4zMiwwLjQzLDAuNDMsMC43NWMwLjExLDAuMzItMC4zMiwwLjc1LTAuNTQsMC40MyAgICAgIGMtMC4xLTAuMTEsMC40My0wLjQzLTAuMjEtMC44NmMtMC4xMS0wLjIxLTAuNDMtMC4yMS0wLjY1LDBjLTAuMzIsMC4zMy0wLjQzLDAuNjQtMC41MywwLjY0Yy0wLjMzLDAuMjItMC41NCwwLjIyLTAuODYsMC4xMSAgICAgIGMtMC40My0wLjExLTAuMzItMS4wNywwLjEtMC45NmMxLjI5LDAuMzIsMC4xMS0wLjQzLDAuNDMtMC42NGMwLjExLTAuMTEsMC41NC0wLjQzLDAuNzYtMC43NWMwLjIxLTAuMjEsMC4xLTAuODUsMC41My0wLjc1ICAgICAgYzAuMjIsMCwwLjExLDAuNDMsMC4zMywwLjU0YzAuMSwwLjEsMC40MywwLDAuNjQsMGMwLjMyLDAsMC4zMi0wLjIyLDAuMzItMC41NGMwLTAuNDMsMC43Ni0wLjMyLDAuNzYtMC41MyAgICAgIGMtMC4xMS0wLjMyLTAuODYsMC4xLTAuODYtMC4zMmMwLTAuNTQsMC42NC0wLjY1LDAuMjEtMC43NWMtMC4zMi0wLjExLTAuNzUsMC4yMS0wLjY0LDAuOTZjMC4xLDAuNzUsMC4yMSwxLjA3LTAuMzMsMC44NSAgICAgIGMtMC40My0wLjMxLDAuMTEtMC44NS0wLjMyLTAuNjRjLTAuMzIsMC4yMi0wLjU0LDAuMzMtMC41NC0wLjIxYzAtMC40MywwLjg2LTEuNzEsMS41MS0xLjkzYy0xLjE5LTAuOTYtMi41OC0xLjYtNC4xOS0xLjgxbDAsMCAgICAgIGMwLDAuODUsMCwxLjM5LTAuMTEsMS44MWMwLDAuNTQtMS42MSwwLjY1LTEuODMsMS42MWMtMC4yMSwwLjg2LTAuNTMsMC4zMi0xLjA3LTAuMzJzMC4xMS0xLjUtMC4yMS0yLjAzICAgICAgQzguMTcsNTIuNzUsNy4yLDUzLjUsNy4yLDUyLjk2YzAtMC4yMSwwLjIyLTAuNDIsMC4yMi0wLjUzYy0wLjExLDAuMTEtMC4yMiwwLjExLTAuMzMsMC4xMWMtMC4zMiwwLjIxLTAuNTMsMC44Ni0wLjY0LDAuOTYgICAgICBjLTAuMzIsMC40MywwLjQzLDAuMzIsMC43NSwwLjc1YzAuNDMsMC42NCwwLjc1LDEuMDcsMC41NCwxLjM5Yy0wLjExLDAuMzItMS40LDAtMS4xOC0wLjU0YzAuMzItMC41MywwLjExLTAuNjQtMC4yMi0wLjc0ICAgICAgYy0wLjMyLDAtMC4zMiwwLjQyLTAuMzIsMC45NmMwLDAuNDMtMC44NiwwLjUzLTEuMjksMC45NmMtMC40MywwLjUzLDAuMzIsMC45NiwwLjk3LDEuMThjMC42NCwwLjIxLDAuMjEtMC44NiwwLjQzLTEuMzkgICAgICBjMC4yMS0wLjc1LDAuOTYtMC4xMSwxLjUsMC41M2MwLjQzLDAuNjQsMS4xOCwxLjUsMC4yMiwxLjkzYy0xLjYyLDAuNjQtMi4yNiwxLjM5LTIuNTgsMi4wM2MtMC4zMywwLjY0LDAsMC45Ni0wLjIyLDEuMTcgICAgICBjLTAuMjEsMC4yMi0wLjIxLTAuMS0wLjQzLTAuNjRjLTAuMjEtMC4zMi0wLjk2LTAuMzItMS4yOSwwLjMyYy0wLjIxLDAuMTEtMC4yMSwwLjQzLTAuMjEsMC43NWMwLDEuMDcsMC43NS0wLjMyLDEuMTgtMC4xICAgICAgYzAuNTQsMC4xLTAuNDMsMC4yMS0wLjMyLDAuNjRjMC4xLDAuNDMsMC43NS0wLjIyLDAuNTQsMC43NGMtMC4xMSwwLjU0LDAuNzUsMC4xMSwxLjI5LTAuMWMxLjE4LTAuNDMsMi4wNCwxLjUsMi45LDEuODIgICAgICBjMC45NiwwLjMyLDEuMjksMC41MywxLjA3LDAuOTZjLTAuNjQsMS4yOC0xLjkzLDIuMTQtMi41OCwzLjY0YzAuODYsMC4zMSwxLjk0LDAuNDIsMi45LDAuNDIgICAgICBDMTEuNSw3MC4xOCwxMi42OCw2OS45NywxMy44Niw2OS40M3ogTTE5LjAyLDYzLjIzYy0wLjIxLDAtMC40MywwLjExLTAuNTQsMC4xMWMtMC41My0wLjIxLTAuMjEtMi4zNS0wLjk2LTIuMjUgICAgICBjLTAuMzIsMC4xMSwwLjIxLDEuNzEsMC45NiwyLjU3YzAuMTEsMC4xMSwwLjIyLDAsMC40NCwwQzE4LjkyLDYzLjU1LDE5LjAyLDYzLjM0LDE5LjAyLDYzLjIzeiBNMTguNDgsNjQuNzMgICAgICBjLTAuODYtMC4yMi0xLjUsMS43MS0xLjcxLDIuNTZDMTcuNTIsNjYuNTUsMTguMDYsNjUuNjksMTguNDgsNjQuNzN6IE01LjU5LDY5LjAxYzAuMTEtMC44NiwwLjIyLTEuODIsMC0xLjkzICAgICAgYy0wLjc1LTAuNjQtMS4yOS0xLjYtMC41NC0yLjU3YzAuMTEtMC4xLDAuMjItMC4yMSwwLjIyLTAuNDJjMC4xLTAuMzItMC4yMi0wLjExLTAuNzUtMC4xMWMtMC41NCwwLTAuMTEtMC44NS0xLjE5LTAuOTYgICAgICBjLTEuMDctMC4xMS0xLjA3LTAuMzItMS4xOC0wLjk2YzAtMC42NS0wLjY0LTEuMjktMS4xOC0xLjRjMCwwLjExLDAsMC4zMywwLDAuNDNDMC45Nyw2NC41MSwyLjksNjcuNTEsNS41OSw2OS4wMXogICAgICAgTTExLjYxLDU1LjQzYzAuNDMsMC4yMSwwLjg2LTAuMTEsMC43NS0wLjQzQzEyLjA0LDU0LjQ2LDExLjA3LDU0Ljc4LDExLjYxLDU1LjQzeiBNMTMuNDMsNTYuMjhjMC4zMywwLDAuNTQsMC42NCwwLjQzLDAuOTYgICAgICBjLTAuMjEsMC42NC0wLjc1LDAuMjItMC44Ni0wLjIxQzEzLDU2LjYsMTMuMTEsNTYuMjgsMTMuNDMsNTYuMjh6IE0xNi45OCw1OS4yOGMtMC4zMi0wLjMzLTAuMjEtMC43NSwwLjIyLTAuODYgICAgICBjMC43NS0wLjExLDEuNzIsMC42NCwxLjA3LDAuODZDMTcuOTUsNTkuMzgsMTcuNDEsNTkuMzgsMTYuOTgsNTkuMjh6IE00Ljk0LDYxLjk1YzAuMzMsMCwxLjE5LDAuMjEsMS40LDAuNDMgICAgICBjMC4yMiwwLjMyLTAuNjQsMC4yMS0xLjE4LDBDNC44NCw2Mi4yNyw0LjYyLDYyLjA2LDQuOTQsNjEuOTV6Ii8+JiN4YTsJCQk8L2c+JiN4YTsJCTwvZz4mI3hhOwk8L2c+JiN4YTs8L2c+JiN4YTs8L3N2Zz4=;" vertex="1" parent="1">
          <mxGeometry x="900" y="886" width="63" height="70" as="geometry" />
        </mxCell>
        <mxCell id="UOPAoyRl8zIuu1TyD0ZJ-45" style="edgeStyle=orthogonalEdgeStyle;rounded=0;orthogonalLoop=1;jettySize=auto;html=1;exitX=0.5;exitY=0;exitDx=0;exitDy=0;entryX=0.5;entryY=1;entryDx=0;entryDy=0;" edge="1" parent="1" source="UOPAoyRl8zIuu1TyD0ZJ-3" target="UOPAoyRl8zIuu1TyD0ZJ-7">
          <mxGeometry relative="1" as="geometry" />
        </mxCell>
        <mxCell id="UOPAoyRl8zIuu1TyD0ZJ-3" value="lic" style="shape=image;verticalLabelPosition=bottom;labelBackgroundColor=#ffffff;verticalAlign=top;aspect=fixed;imageAspect=0;image=data:image/svg+xml,PHN2ZyB4bWxuczpjYz0iaHR0cDovL2NyZWF0aXZlY29tbW9ucy5vcmcvbnMjIiB4bWxuczpkYz0iaHR0cDovL3B1cmwub3JnL2RjL2VsZW1lbnRzLzEuMS8iIHhtbG5zOmlua3NjYXBlPSJodHRwOi8vd3d3Lmlua3NjYXBlLm9yZy9uYW1lc3BhY2VzL2lua3NjYXBlIiB4bWxuczpyZGY9Imh0dHA6Ly93d3cudzMub3JnLzE5OTkvMDIvMjItcmRmLXN5bnRheC1ucyMiIHhtbG5zOnNvZGlwb2RpPSJodHRwOi8vc29kaXBvZGkuc291cmNlZm9yZ2UubmV0L0RURC9zb2RpcG9kaS0wLmR0ZCIgeG1sbnM6c3ZnPSJodHRwOi8vd3d3LnczLm9yZy8yMDAwL3N2ZyIgeG1sbnM9Imh0dHA6Ly93d3cudzMub3JnLzIwMDAvc3ZnIiB4bWxuczp4bGluaz0iaHR0cDovL3d3dy53My5vcmcvMTk5OS94bGluayIgdmVyc2lvbj0iMS4xIiBpZD0ic3ZnMjA2ODEiIGlua3NjYXBlOnZlcnNpb249IjAuOTIuMyAoMjQwNTU0NiwgMjAxOC0wMy0xMSkiIHNvZGlwb2RpOmRvY25hbWU9InNlcnZlcl9ibHVlLnN2ZyIgeD0iMHB4IiB5PSIwcHgiIHZpZXdCb3g9IjAgMCAyNyA0Ni41IiBzdHlsZT0iZW5hYmxlLWJhY2tncm91bmQ6bmV3IDAgMCAyNyA0Ni41OyIgeG1sOnNwYWNlPSJwcmVzZXJ2ZSI+JiN4YTs8c29kaXBvZGk6bmFtZWR2aWV3IGJvcmRlcmNvbG9yPSIjNjY2NjY2IiBib3JkZXJvcGFjaXR5PSIxIiBmaXQtbWFyZ2luLWJvdHRvbT0iMCIgZml0LW1hcmdpbi1sZWZ0PSIwIiBmaXQtbWFyZ2luLXJpZ2h0PSIwIiBmaXQtbWFyZ2luLXRvcD0iMCIgZ3JpZHRvbGVyYW5jZT0iMTAiIGd1aWRldG9sZXJhbmNlPSIxMCIgaWQ9Im5hbWVkdmlldzIwNjgzIiBpbmtzY2FwZTpjdXJyZW50LWxheWVyPSJzdmcyMDY4MSIgaW5rc2NhcGU6Y3g9IjE3Ljk5OTk4NCIgaW5rc2NhcGU6Y3k9IjMwLjk5OTk3MiIgaW5rc2NhcGU6cGFnZW9wYWNpdHk9IjAiIGlua3NjYXBlOnBhZ2VzaGFkb3c9IjIiIGlua3NjYXBlOndpbmRvdy1oZWlnaHQ9IjEwMTciIGlua3NjYXBlOndpbmRvdy1tYXhpbWl6ZWQ9IjEiIGlua3NjYXBlOndpbmRvdy13aWR0aD0iMTkyMCIgaW5rc2NhcGU6d2luZG93LXg9Ii04IiBpbmtzY2FwZTp3aW5kb3cteT0iLTgiIGlua3NjYXBlOnpvb209IjEzLjU0Njg2OSIgb2JqZWN0dG9sZXJhbmNlPSIxMCIgcGFnZWNvbG9yPSIjZmZmZmZmIiBzaG93Z3JpZD0iZmFsc2UiPiYjeGE7CTwvc29kaXBvZGk6bmFtZWR2aWV3PiYjeGE7PGcgaWQ9ImcyMDY3OSIgdHJhbnNmb3JtPSJ0cmFuc2xhdGUoLTAuNzUsLTAuNzUwMDMzMTMpIj4mI3hhOwk8dGl0bGUgaWQ9InRpdGxlMjA1NjkiPlBhZ2UtMTwvdGl0bGU+JiN4YTsJPGcgaWQ9Imdyb3VwNzU1OC0xIiB0cmFuc2Zvcm09InRyYW5zbGF0ZSgwLjc1LC0wLjc1KSI+JiN4YTsJCTx0aXRsZSBpZD0idGl0bGUyMDU3MSI+U2VydmVyIChCbHVlKTwvdGl0bGU+JiN4YTsJCTxnIGlkPSJzaGFwZTc1NTktMiIgdHJhbnNmb3JtPSJ0cmFuc2xhdGUoMTYuNSwtNDUpIj4mI3hhOwkJCTx0aXRsZSBpZD0idGl0bGUyMDU3MyI+cmVjdDEwMzU8L3RpdGxlPiYjeGE7CQkJPHJlY3QgaWQ9InJlY3QyMDU3NSIgeT0iNDYuNSIgc3R5bGU9ImZpbGw6I0ZGRkZGRjsiIHdpZHRoPSIxLjUiIGhlaWdodD0iMS41Ii8+JiN4YTsJCTwvZz4mI3hhOwkJPGcgaWQ9InNoYXBlNzU2MC00IiB0cmFuc2Zvcm09InRyYW5zbGF0ZSgxNi41LC00MC41KSI+JiN4YTsJCQk8dGl0bGUgaWQ9InRpdGxlMjA1NzgiPnJlY3QxMDM3PC90aXRsZT4mI3hhOwkJCTxyZWN0IGlkPSJyZWN0MjA1ODAiIHk9IjQ2LjUiIHN0eWxlPSJmaWxsOiNGRkZGRkY7IiB3aWR0aD0iMS41IiBoZWlnaHQ9IjEuNSIvPiYjeGE7CQk8L2c+JiN4YTsJCTxnIGlkPSJzaGFwZTc1NjEtNiIgdHJhbnNmb3JtPSJ0cmFuc2xhdGUoMTYuNSwtMzYpIj4mI3hhOwkJCTx0aXRsZSBpZD0idGl0bGUyMDU4MyI+cmVjdDEwMzk8L3RpdGxlPiYjeGE7CQkJPHJlY3QgaWQ9InJlY3QyMDU4NSIgeT0iNDYuNSIgc3R5bGU9ImZpbGw6I0ZGRkZGRjsiIHdpZHRoPSIxLjUiIGhlaWdodD0iMS41Ii8+JiN4YTsJCTwvZz4mI3hhOwkJPGcgaWQ9InNoYXBlNzU2Mi04Ij4mI3hhOwkJCTx0aXRsZSBpZD0idGl0bGUyMDU4OCI+cmVjdDEwNjM8L3RpdGxlPiYjeGE7CQkJPHJlY3QgaWQ9InJlY3QyMDU5MCIgeT0iMS41IiBzdHlsZT0iZmlsbDojNTVBNUU0OyIgd2lkdGg9IjI3IiBoZWlnaHQ9IjQ2LjUiLz4mI3hhOwkJPC9nPiYjeGE7CQk8ZyBpZD0ic2hhcGU3NTYzLTEwIiB0cmFuc2Zvcm09InRyYW5zbGF0ZSgxNy4yNSkiPiYjeGE7CQkJPHRpdGxlIGlkPSJ0aXRsZTIwNTkzIj5yZWN0MTA2NTwvdGl0bGU+JiN4YTsJCQk8cmVjdCBpZD0icmVjdDIwNTk1IiB5PSIxLjUiIHN0eWxlPSJmaWxsOiMyQTZEQ0Y7IiB3aWR0aD0iOS43NSIgaGVpZ2h0PSI0Ni41Ii8+JiN4YTsJCTwvZz4mI3hhOwkJPGcgaWQ9InNoYXBlNzU2NC0xMiIgdHJhbnNmb3JtPSJ0cmFuc2xhdGUoMTUuNzUsLTMzKSI+JiN4YTsJCQk8dGl0bGUgaWQ9InRpdGxlMjA1OTgiPnJlY3QxMDY3PC90aXRsZT4mI3hhOwkJCTxyZWN0IGlkPSJyZWN0MjA2MDAiIHk9IjQ2LjUiIHdpZHRoPSI5Ljc1IiBoZWlnaHQ9IjEuNSIvPiYjeGE7CQk8L2c+JiN4YTsJCTxnIGlkPSJzaGFwZTc1NjUtMTQiIHRyYW5zZm9ybT0idHJhbnNsYXRlKDAuNzgwMDAxLC0zMykiPiYjeGE7CQkJPHRpdGxlIGlkPSJ0aXRsZTIwNjAzIj5yZWN0MTA2OTwvdGl0bGU+JiN4YTsJCQk8cmVjdCBpZD0icmVjdDIwNjA1IiB4PSIwIiB5PSI0Ni41IiBzdHlsZT0iZmlsbDojMzMzMzMzOyIgd2lkdGg9IjExLjk3IiBoZWlnaHQ9IjEuNSIvPiYjeGE7CQk8L2c+JiN4YTsJCTxnIGlkPSJzaGFwZTc1NjYtMTYiIHRyYW5zZm9ybT0idHJhbnNsYXRlKDAuNDcyNSwtNDAuNDAyNSkiPiYjeGE7CQkJPHRpdGxlIGlkPSJ0aXRsZTIwNjA4Ij5wb2x5Z29uMTA3MTwvdGl0bGU+JiN4YTsJCQk8cmVjdCBpZD0icmVjdDIwNjEwIiB4PSIwIiB5PSI0Ni41MSIgc3R5bGU9ImZpbGw6bm9uZTsiIHdpZHRoPSIxOC40NSIgaGVpZ2h0PSIxLjQ5Ii8+JiN4YTsJCTwvZz4mI3hhOwkJPGcgaWQ9InNoYXBlNzU2Ny0xOCIgdHJhbnNmb3JtPSJ0cmFuc2xhdGUoMC40NzI1LC00MC40MDI1KSI+JiN4YTsJCQk8dGl0bGUgaWQ9InRpdGxlMjA2MTMiPnBvbHlsaW5lMTA3MzwvdGl0bGU+JiN4YTsJCQk8cmVjdCBpZD0icmVjdDIwNjE1IiB4PSIwIiB5PSI0Ni41MSIgc3R5bGU9ImZpbGw6bm9uZTsiIHdpZHRoPSIxOC40NSIgaGVpZ2h0PSIxLjQ5Ii8+JiN4YTsJCTwvZz4mI3hhOwkJPGcgaWQ9InNoYXBlNzU2OC0yMCIgdHJhbnNmb3JtPSJ0cmFuc2xhdGUoMTIsLTMzKSI+JiN4YTsJCQk8dGl0bGUgaWQ9InRpdGxlMjA2MTgiPnBvbHlnb24xMDc1PC90aXRsZT4mI3hhOwkJCTxyZWN0IGlkPSJyZWN0MjA2MjAiIHk9IjQ2LjUiIHN0eWxlPSJmaWxsOiNENEU4Rjg7IiB3aWR0aD0iNS4yNSIgaGVpZ2h0PSIxLjUiLz4mI3hhOwkJPC9nPiYjeGE7CQk8ZyBpZD0ic2hhcGU3NTY5LTIyIiB0cmFuc2Zvcm09InRyYW5zbGF0ZSgxNS43NSwtMzYuNzUpIj4mI3hhOwkJCTx0aXRsZSBpZD0idGl0bGUyMDYyMyI+cmVjdDEwNzc8L3RpdGxlPiYjeGE7CQkJPHJlY3QgaWQ9InJlY3QyMDYyNSIgeT0iNDYuNSIgd2lkdGg9IjkuNzUiIGhlaWdodD0iMS41Ii8+JiN4YTsJCTwvZz4mI3hhOwkJPGcgaWQ9InNoYXBlNzU3MC0yNCIgdHJhbnNmb3JtPSJ0cmFuc2xhdGUoMC43ODAwMDEsLTM2Ljc1KSI+JiN4YTsJCQk8dGl0bGUgaWQ9InRpdGxlMjA2MjgiPnJlY3QxMDc5PC90aXRsZT4mI3hhOwkJCTxyZWN0IGlkPSJyZWN0MjA2MzAiIHg9IjAiIHk9IjQ2LjUiIHN0eWxlPSJmaWxsOiMzMzMzMzM7IiB3aWR0aD0iMTEuOTciIGhlaWdodD0iMS41Ii8+JiN4YTsJCTwvZz4mI3hhOwkJPGcgaWQ9InNoYXBlNzU3MS0yNiIgdHJhbnNmb3JtPSJ0cmFuc2xhdGUoMTIsLTM2Ljc1KSI+JiN4YTsJCQk8dGl0bGUgaWQ9InRpdGxlMjA2MzMiPnBvbHlnb24xMDgxPC90aXRsZT4mI3hhOwkJCTxyZWN0IGlkPSJyZWN0MjA2MzUiIHk9IjQ2LjUiIHN0eWxlPSJmaWxsOiNENEU4Rjg7IiB3aWR0aD0iNS4yNSIgaGVpZ2h0PSIxLjUiLz4mI3hhOwkJPC9nPiYjeGE7CQk8ZyBpZD0ic2hhcGU3NTcyLTI4IiB0cmFuc2Zvcm09InRyYW5zbGF0ZSgxNS43NSwtNDAuNSkiPiYjeGE7CQkJPHRpdGxlIGlkPSJ0aXRsZTIwNjM4Ij5yZWN0MTA4MzwvdGl0bGU+JiN4YTsJCQk8cmVjdCBpZD0icmVjdDIwNjQwIiB5PSI0Ni41IiB3aWR0aD0iOS43NSIgaGVpZ2h0PSIxLjUiLz4mI3hhOwkJPC9nPiYjeGE7CQk8ZyBpZD0ic2hhcGU3NTczLTMwIiB0cmFuc2Zvcm09InRyYW5zbGF0ZSgwLjc4MDAwMSwtNDAuNSkiPiYjeGE7CQkJPHRpdGxlIGlkPSJ0aXRsZTIwNjQzIj5yZWN0MTA4NTwvdGl0bGU+JiN4YTsJCQk8cmVjdCBpZD0icmVjdDIwNjQ1IiB4PSIwIiB5PSI0Ni41IiBzdHlsZT0iZmlsbDojMzMzMzMzOyIgd2lkdGg9IjExLjk3IiBoZWlnaHQ9IjEuNSIvPiYjeGE7CQk8L2c+JiN4YTsJCTxnIGlkPSJzaGFwZTc1NzQtMzIiIHRyYW5zZm9ybT0idHJhbnNsYXRlKDEyLC00MC41MDc1KSI+JiN4YTsJCQk8dGl0bGUgaWQ9InRpdGxlMjA2NDgiPnBvbHlnb24xMDg3PC90aXRsZT4mI3hhOwkJCTxyZWN0IGlkPSJyZWN0MjA2NTAiIHk9IjQ2LjUxIiBzdHlsZT0iZmlsbDojRDRFOEY4OyIgd2lkdGg9IjUuMjUiIGhlaWdodD0iMS40OSIvPiYjeGE7CQk8L2c+JiN4YTsJCTxnIGlkPSJzaGFwZTc1NzUtMzQiIHRyYW5zZm9ybT0idHJhbnNsYXRlKDAsLTQwLjUpIj4mI3hhOwkJCTx0aXRsZSBpZD0idGl0bGUyMDY1MyI+cmVjdDEwODk8L3RpdGxlPiYjeGE7CQkJPHJlY3QgaWQ9InJlY3QyMDY1NSIgeT0iNDYuNSIgc3R5bGU9ImZpbGw6I0ZGRkZGRjsiIHdpZHRoPSIxLjUiIGhlaWdodD0iMS41Ii8+JiN4YTsJCTwvZz4mI3hhOwkJPGcgaWQ9InNoYXBlNzU3Ni0zNiIgdHJhbnNmb3JtPSJ0cmFuc2xhdGUoMCwtMzYuNzUpIj4mI3hhOwkJCTx0aXRsZSBpZD0idGl0bGUyMDY1OCI+cmVjdDEwOTE8L3RpdGxlPiYjeGE7CQkJPHJlY3QgaWQ9InJlY3QyMDY2MCIgeT0iNDYuNSIgc3R5bGU9ImZpbGw6I0ZGRkZGRjsiIHdpZHRoPSIxLjUiIGhlaWdodD0iMS41Ii8+JiN4YTsJCTwvZz4mI3hhOwkJPGcgaWQ9InNoYXBlNzU3Ny0zOCIgdHJhbnNmb3JtPSJ0cmFuc2xhdGUoMCwtMzMpIj4mI3hhOwkJCTx0aXRsZSBpZD0idGl0bGUyMDY2MyI+cmVjdDEwOTM8L3RpdGxlPiYjeGE7CQkJPHJlY3QgaWQ9InJlY3QyMDY2NSIgeT0iNDYuNSIgc3R5bGU9ImZpbGw6I0ZGRkZGRjsiIHdpZHRoPSIxLjUiIGhlaWdodD0iMS41Ii8+JiN4YTsJCTwvZz4mI3hhOwkJPGcgaWQ9InNoYXBlNzU3OC00MCIgdHJhbnNmb3JtPSJ0cmFuc2xhdGUoMCwtMjkuMjUpIj4mI3hhOwkJCTx0aXRsZSBpZD0idGl0bGUyMDY2OCI+cmVjdDEwOTU8L3RpdGxlPiYjeGE7CQkJPHJlY3QgaWQ9InJlY3QyMDY3MCIgeT0iNDYuNSIgc3R5bGU9ImZpbGw6I0ZGRkZGRjsiIHdpZHRoPSIxLjUiIGhlaWdodD0iMS41Ii8+JiN4YTsJCTwvZz4mI3hhOwkJPGcgaWQ9InNoYXBlNzU3OS00MiIgdHJhbnNmb3JtPSJ0cmFuc2xhdGUoMCwtMjUuNSkiPiYjeGE7CQkJPHRpdGxlIGlkPSJ0aXRsZTIwNjczIj5yZWN0MTA5NzwvdGl0bGU+JiN4YTsJCQk8cmVjdCBpZD0icmVjdDIwNjc1IiB5PSI0Ni41IiBzdHlsZT0iZmlsbDojRkZGRkZGOyIgd2lkdGg9IjEuNSIgaGVpZ2h0PSIxLjUiLz4mI3hhOwkJPC9nPiYjeGE7CTwvZz4mI3hhOzwvZz4mI3hhOzwvc3ZnPg==;" vertex="1" parent="1">
          <mxGeometry x="518.39" y="817" width="40.21" height="70" as="geometry" />
        </mxCell>
        <mxCell id="UOPAoyRl8zIuu1TyD0ZJ-47" style="edgeStyle=orthogonalEdgeStyle;rounded=0;orthogonalLoop=1;jettySize=auto;html=1;exitX=0.5;exitY=0;exitDx=0;exitDy=0;entryX=0.5;entryY=1;entryDx=0;entryDy=0;" edge="1" parent="1" source="UOPAoyRl8zIuu1TyD0ZJ-4" target="UOPAoyRl8zIuu1TyD0ZJ-6">
          <mxGeometry relative="1" as="geometry" />
        </mxCell>
        <mxCell id="UOPAoyRl8zIuu1TyD0ZJ-48" style="edgeStyle=orthogonalEdgeStyle;rounded=0;orthogonalLoop=1;jettySize=auto;html=1;exitX=1;exitY=0.5;exitDx=0;exitDy=0;" edge="1" parent="1" source="UOPAoyRl8zIuu1TyD0ZJ-4" target="UOPAoyRl8zIuu1TyD0ZJ-3">
          <mxGeometry relative="1" as="geometry" />
        </mxCell>
        <mxCell id="UOPAoyRl8zIuu1TyD0ZJ-4" value="lipm" style="shape=image;verticalLabelPosition=bottom;labelBackgroundColor=#ffffff;verticalAlign=top;aspect=fixed;imageAspect=0;image=data:image/svg+xml,PHN2ZyB4bWxuczpjYz0iaHR0cDovL2NyZWF0aXZlY29tbW9ucy5vcmcvbnMjIiB4bWxuczpkYz0iaHR0cDovL3B1cmwub3JnL2RjL2VsZW1lbnRzLzEuMS8iIHhtbG5zOmlua3NjYXBlPSJodHRwOi8vd3d3Lmlua3NjYXBlLm9yZy9uYW1lc3BhY2VzL2lua3NjYXBlIiB4bWxuczpyZGY9Imh0dHA6Ly93d3cudzMub3JnLzE5OTkvMDIvMjItcmRmLXN5bnRheC1ucyMiIHhtbG5zOnNvZGlwb2RpPSJodHRwOi8vc29kaXBvZGkuc291cmNlZm9yZ2UubmV0L0RURC9zb2RpcG9kaS0wLmR0ZCIgeG1sbnM6c3ZnPSJodHRwOi8vd3d3LnczLm9yZy8yMDAwL3N2ZyIgeG1sbnM9Imh0dHA6Ly93d3cudzMub3JnLzIwMDAvc3ZnIiB4bWxuczp4bGluaz0iaHR0cDovL3d3dy53My5vcmcvMTk5OS94bGluayIgdmVyc2lvbj0iMS4xIiBpZD0ic3ZnMTkzMDUiIGlua3NjYXBlOnZlcnNpb249IjAuOTIuMyAoMjQwNTU0NiwgMjAxOC0wMy0xMSkiIHNvZGlwb2RpOmRvY25hbWU9InNlcnZlcl9ibGFjay5zdmciIHg9IjBweCIgeT0iMHB4IiB2aWV3Qm94PSIwIDAgMzQuNSA2MCIgc3R5bGU9ImVuYWJsZS1iYWNrZ3JvdW5kOm5ldyAwIDAgMzQuNSA2MDsiIHhtbDpzcGFjZT0icHJlc2VydmUiPiYjeGE7PHNvZGlwb2RpOm5hbWVkdmlldyBib3JkZXJjb2xvcj0iIzY2NjY2NiIgYm9yZGVyb3BhY2l0eT0iMSIgZml0LW1hcmdpbi1ib3R0b209IjAiIGZpdC1tYXJnaW4tbGVmdD0iMCIgZml0LW1hcmdpbi1yaWdodD0iMCIgZml0LW1hcmdpbi10b3A9IjAiIGdyaWR0b2xlcmFuY2U9IjEwIiBndWlkZXRvbGVyYW5jZT0iMTAiIGlkPSJuYW1lZHZpZXcxOTMwNyIgaW5rc2NhcGU6Y3VycmVudC1sYXllcj0ic3ZnMTkzMDUiIGlua3NjYXBlOmN4PSIyMyIgaW5rc2NhcGU6Y3k9IjQwIiBpbmtzY2FwZTpwYWdlb3BhY2l0eT0iMCIgaW5rc2NhcGU6cGFnZXNoYWRvdz0iMiIgaW5rc2NhcGU6d2luZG93LWhlaWdodD0iMTAxNyIgaW5rc2NhcGU6d2luZG93LW1heGltaXplZD0iMSIgaW5rc2NhcGU6d2luZG93LXdpZHRoPSIxOTIwIiBpbmtzY2FwZTp3aW5kb3cteD0iLTgiIGlua3NjYXBlOndpbmRvdy15PSItOCIgaW5rc2NhcGU6em9vbT0iMTAuNTczMTY3IiBvYmplY3R0b2xlcmFuY2U9IjEwIiBwYWdlY29sb3I9IiNmZmZmZmYiIHNob3dncmlkPSJmYWxzZSI+JiN4YTsJPC9zb2RpcG9kaTpuYW1lZHZpZXc+JiN4YTs8ZyBpZD0iZzE5MzAzIiB0cmFuc2Zvcm09InRyYW5zbGF0ZSgtMC43NSwtMC43NSkiPiYjeGE7CTx0aXRsZSBpZD0idGl0bGUxOTIwOCI+UGFnZS0xPC90aXRsZT4mI3hhOwk8ZyBpZD0iZ3JvdXA3NTk0LTEiIHRyYW5zZm9ybT0idHJhbnNsYXRlKDAuNzUsLTAuNzUpIj4mI3hhOwkJPHRpdGxlIGlkPSJ0aXRsZTE5MjEwIj5TZXJ2ZXIgKEJsYWNrKTwvdGl0bGU+JiN4YTsJCTxnIGlkPSJzaGFwZTc1OTUtMiI+JiN4YTsJCQk8dGl0bGUgaWQ9InRpdGxlMTkyMTIiPnJlY3QxNDI1PC90aXRsZT4mI3hhOwkJCTxyZWN0IGlkPSJyZWN0MTkyMTQiIHk9IjEuNSIgc3R5bGU9ImZpbGw6IzY2NjY2NjsiIHdpZHRoPSIzNC41IiBoZWlnaHQ9IjYwIi8+JiN4YTsJCTwvZz4mI3hhOwkJPGcgaWQ9InNoYXBlNzU5Ni00IiB0cmFuc2Zvcm09InRyYW5zbGF0ZSgyMS43NSkiPiYjeGE7CQkJPHRpdGxlIGlkPSJ0aXRsZTE5MjE3Ij5yZWN0MTQyNzwvdGl0bGU+JiN4YTsJCQk8cmVjdCBpZD0icmVjdDE5MjE5IiB5PSIxLjUiIHN0eWxlPSJmaWxsOiMzMzMzMzM7IiB3aWR0aD0iMTIuNzUiIGhlaWdodD0iNjAiLz4mI3hhOwkJPC9nPiYjeGE7CQk8ZyBpZD0ic2hhcGU3NTk3LTYiIHRyYW5zZm9ybT0idHJhbnNsYXRlKDAuNTg1LC01MS40MzUpIj4mI3hhOwkJCTx0aXRsZSBpZD0idGl0bGUxOTIyMiI+cG9seWdvbjE0Mjk8L3RpdGxlPiYjeGE7CQkJPHJlY3QgaWQ9InJlY3QxOTIyNCIgeD0iMCIgeT0iNTkuNjMiIHN0eWxlPSJmaWxsOm5vbmU7IiB3aWR0aD0iMjMuMDciIGhlaWdodD0iMS44OCIvPiYjeGE7CQk8L2c+JiN4YTsJCTxnIGlkPSJzaGFwZTc1OTgtOCIgdHJhbnNmb3JtPSJ0cmFuc2xhdGUoMC41ODUsLTUxLjQzNSkiPiYjeGE7CQkJPHRpdGxlIGlkPSJ0aXRsZTE5MjI3Ij5wb2x5bGluZTE0MzE8L3RpdGxlPiYjeGE7CQkJPHJlY3QgaWQ9InJlY3QxOTIyOSIgeD0iMCIgeT0iNTkuNjMiIHN0eWxlPSJmaWxsOm5vbmU7IiB3aWR0aD0iMjMuMDciIGhlaWdodD0iMS44OCIvPiYjeGE7CQk8L2c+JiN4YTsJCTxnIGlkPSJzaGFwZTc1OTktMTAiIHRyYW5zZm9ybT0idHJhbnNsYXRlKDIxLC01MS43NSkiPiYjeGE7CQkJPHRpdGxlIGlkPSJ0aXRsZTE5MjMyIj5yZWN0MTQzMzwvdGl0bGU+JiN4YTsJCQk8cmVjdCBpZD0icmVjdDE5MjM0IiB5PSI2MCIgd2lkdGg9IjEyIiBoZWlnaHQ9IjEuNSIvPiYjeGE7CQk8L2c+JiN4YTsJCTxnIGlkPSJzaGFwZTc2MDAtMTIiIHRyYW5zZm9ybT0idHJhbnNsYXRlKDEuNSwtNTEuNzUpIj4mI3hhOwkJCTx0aXRsZSBpZD0idGl0bGUxOTIzNyI+cmVjdDE0MzU8L3RpdGxlPiYjeGE7CQkJPHJlY3QgaWQ9InJlY3QxOTIzOSIgeT0iNjAiIHN0eWxlPSJmaWxsOiMzMzMzMzM7IiB3aWR0aD0iMTIuNzUiIGhlaWdodD0iMS41Ii8+JiN4YTsJCTwvZz4mI3hhOwkJPGcgaWQ9InNoYXBlNzYwMS0xNCIgdHJhbnNmb3JtPSJ0cmFuc2xhdGUoMTQuMjUsLTUxLjc1KSI+JiN4YTsJCQk8dGl0bGUgaWQ9InRpdGxlMTkyNDIiPnBvbHlnb24xNDM3PC90aXRsZT4mI3hhOwkJCTxyZWN0IGlkPSJyZWN0MTkyNDQiIHk9IjYwIiBzdHlsZT0iZmlsbDojRDRFOEY4OyIgd2lkdGg9IjcuNSIgaGVpZ2h0PSIxLjUiLz4mI3hhOwkJPC9nPiYjeGE7CQk8ZyBpZD0ic2hhcGU3NjAyLTE2IiB0cmFuc2Zvcm09InRyYW5zbGF0ZSgwLC01MS43NSkiPiYjeGE7CQkJPHRpdGxlIGlkPSJ0aXRsZTE5MjQ3Ij5yZWN0MTQzOTwvdGl0bGU+JiN4YTsJCQk8cmVjdCBpZD0icmVjdDE5MjQ5IiB5PSI2MCIgc3R5bGU9ImZpbGw6I0ZGRkZGRjsiIHdpZHRoPSIxLjUiIGhlaWdodD0iMS41Ii8+JiN4YTsJCTwvZz4mI3hhOwkJPGcgaWQ9InNoYXBlNzYwMy0xOCIgdHJhbnNmb3JtPSJ0cmFuc2xhdGUoMjEsLTQ3LjI1KSI+JiN4YTsJCQk8dGl0bGUgaWQ9InRpdGxlMTkyNTIiPnJlY3QxNDQxPC90aXRsZT4mI3hhOwkJCTxyZWN0IGlkPSJyZWN0MTkyNTQiIHk9IjYwIiB3aWR0aD0iMTIiIGhlaWdodD0iMS41Ii8+JiN4YTsJCTwvZz4mI3hhOwkJPGcgaWQ9InNoYXBlNzYwNC0yMCIgdHJhbnNmb3JtPSJ0cmFuc2xhdGUoMS41LC00Ny4yNSkiPiYjeGE7CQkJPHRpdGxlIGlkPSJ0aXRsZTE5MjU3Ij5yZWN0MTQ0MzwvdGl0bGU+JiN4YTsJCQk8cmVjdCBpZD0icmVjdDE5MjU5IiB5PSI2MCIgc3R5bGU9ImZpbGw6IzMzMzMzMzsiIHdpZHRoPSIxMi43NSIgaGVpZ2h0PSIxLjUiLz4mI3hhOwkJPC9nPiYjeGE7CQk8ZyBpZD0ic2hhcGU3NjA1LTIyIiB0cmFuc2Zvcm09InRyYW5zbGF0ZSgxNC4yNSwtNDcuMjUpIj4mI3hhOwkJCTx0aXRsZSBpZD0idGl0bGUxOTI2MiI+cG9seWdvbjE0NDU8L3RpdGxlPiYjeGE7CQkJPHJlY3QgaWQ9InJlY3QxOTI2NCIgeT0iNjAiIHN0eWxlPSJmaWxsOiNENEU4Rjg7IiB3aWR0aD0iNy41IiBoZWlnaHQ9IjEuNSIvPiYjeGE7CQk8L2c+JiN4YTsJCTxnIGlkPSJzaGFwZTc2MDYtMjQiIHRyYW5zZm9ybT0idHJhbnNsYXRlKDAsLTQ3LjI1KSI+JiN4YTsJCQk8dGl0bGUgaWQ9InRpdGxlMTkyNjciPnJlY3QxNDQ3PC90aXRsZT4mI3hhOwkJCTxyZWN0IGlkPSJyZWN0MTkyNjkiIHk9IjYwIiBzdHlsZT0iZmlsbDojRkZGRkZGOyIgd2lkdGg9IjEuNSIgaGVpZ2h0PSIxLjUiLz4mI3hhOwkJPC9nPiYjeGE7CQk8ZyBpZD0ic2hhcGU3NjA3LTI2IiB0cmFuc2Zvcm09InRyYW5zbGF0ZSgyMSwtNDIuNzUpIj4mI3hhOwkJCTx0aXRsZSBpZD0idGl0bGUxOTI3MiI+cmVjdDE0NDk8L3RpdGxlPiYjeGE7CQkJPHJlY3QgaWQ9InJlY3QxOTI3NCIgeT0iNjAiIHdpZHRoPSIxMiIgaGVpZ2h0PSIxLjUiLz4mI3hhOwkJPC9nPiYjeGE7CQk8ZyBpZD0ic2hhcGU3NjA4LTI4IiB0cmFuc2Zvcm09InRyYW5zbGF0ZSgxLjUsLTQyLjc1KSI+JiN4YTsJCQk8dGl0bGUgaWQ9InRpdGxlMTkyNzciPnJlY3QxNDUxPC90aXRsZT4mI3hhOwkJCTxyZWN0IGlkPSJyZWN0MTkyNzkiIHk9IjYwIiBzdHlsZT0iZmlsbDojMzMzMzMzOyIgd2lkdGg9IjEyLjc1IiBoZWlnaHQ9IjEuNSIvPiYjeGE7CQk8L2c+JiN4YTsJCTxnIGlkPSJzaGFwZTc2MDktMzAiIHRyYW5zZm9ybT0idHJhbnNsYXRlKDE0LjI1LC00Mi43NSkiPiYjeGE7CQkJPHRpdGxlIGlkPSJ0aXRsZTE5MjgyIj5wb2x5Z29uMTQ1MzwvdGl0bGU+JiN4YTsJCQk8cmVjdCBpZD0icmVjdDE5Mjg0IiB5PSI2MCIgc3R5bGU9ImZpbGw6I0Q0RThGODsiIHdpZHRoPSI3LjUiIGhlaWdodD0iMS41Ii8+JiN4YTsJCTwvZz4mI3hhOwkJPGcgaWQ9InNoYXBlNzYxMC0zMiIgdHJhbnNmb3JtPSJ0cmFuc2xhdGUoMCwtNDIuNzUpIj4mI3hhOwkJCTx0aXRsZSBpZD0idGl0bGUxOTI4NyI+cmVjdDE0NTU8L3RpdGxlPiYjeGE7CQkJPHJlY3QgaWQ9InJlY3QxOTI4OSIgeT0iNjAiIHN0eWxlPSJmaWxsOiNGRkZGRkY7IiB3aWR0aD0iMS41IiBoZWlnaHQ9IjEuNSIvPiYjeGE7CQk8L2c+JiN4YTsJCTxnIGlkPSJzaGFwZTc2MTEtMzQiIHRyYW5zZm9ybT0idHJhbnNsYXRlKDAsLTM4LjI1KSI+JiN4YTsJCQk8dGl0bGUgaWQ9InRpdGxlMTkyOTIiPnJlY3QxNDU3PC90aXRsZT4mI3hhOwkJCTxyZWN0IGlkPSJyZWN0MTkyOTQiIHk9IjYwIiBzdHlsZT0iZmlsbDojRkZGRkZGOyIgd2lkdGg9IjEuNSIgaGVpZ2h0PSIxLjUiLz4mI3hhOwkJPC9nPiYjeGE7CQk8ZyBpZD0ic2hhcGU3NjEyLTM2IiB0cmFuc2Zvcm09InRyYW5zbGF0ZSgwLC0zMy43NSkiPiYjeGE7CQkJPHRpdGxlIGlkPSJ0aXRsZTE5Mjk3Ij5yZWN0MTQ1OTwvdGl0bGU+JiN4YTsJCQk8cmVjdCBpZD0icmVjdDE5Mjk5IiB5PSI2MCIgc3R5bGU9ImZpbGw6I0ZGRkZGRjsiIHdpZHRoPSIxLjUiIGhlaWdodD0iMS41Ii8+JiN4YTsJCTwvZz4mI3hhOwk8L2c+JiN4YTs8L2c+JiN4YTs8L3N2Zz4=;" vertex="1" parent="1">
          <mxGeometry x="338.09000000000003" y="817" width="40.83" height="70" as="geometry" />
        </mxCell>
        <mxCell id="UOPAoyRl8zIuu1TyD0ZJ-37" style="edgeStyle=orthogonalEdgeStyle;rounded=0;orthogonalLoop=1;jettySize=auto;html=1;exitX=0;exitY=0.5;exitDx=0;exitDy=0;" edge="1" parent="1" source="UOPAoyRl8zIuu1TyD0ZJ-15" target="UOPAoyRl8zIuu1TyD0ZJ-9">
          <mxGeometry relative="1" as="geometry" />
        </mxCell>
        <mxCell id="UOPAoyRl8zIuu1TyD0ZJ-15" value="第三方物联网平台" style="shape=image;verticalLabelPosition=bottom;labelBackgroundColor=#ffffff;verticalAlign=top;aspect=fixed;imageAspect=0;image=data:image/svg+xml,PHN2ZyB4bWxuczpjYz0iaHR0cDovL2NyZWF0aXZlY29tbW9ucy5vcmcvbnMjIiB4bWxuczpkYz0iaHR0cDovL3B1cmwub3JnL2RjL2VsZW1lbnRzLzEuMS8iIHhtbG5zOmlua3NjYXBlPSJodHRwOi8vd3d3Lmlua3NjYXBlLm9yZy9uYW1lc3BhY2VzL2lua3NjYXBlIiB4bWxuczpyZGY9Imh0dHA6Ly93d3cudzMub3JnLzE5OTkvMDIvMjItcmRmLXN5bnRheC1ucyMiIHhtbG5zOnNvZGlwb2RpPSJodHRwOi8vc29kaXBvZGkuc291cmNlZm9yZ2UubmV0L0RURC9zb2RpcG9kaS0wLmR0ZCIgeG1sbnM6c3ZnPSJodHRwOi8vd3d3LnczLm9yZy8yMDAwL3N2ZyIgeG1sbnM9Imh0dHA6Ly93d3cudzMub3JnLzIwMDAvc3ZnIiB4bWxuczp4bGluaz0iaHR0cDovL3d3dy53My5vcmcvMTk5OS94bGluayIgdmVyc2lvbj0iMS4xIiBpZD0ic3ZnODE2MzAiIGlua3NjYXBlOnZlcnNpb249IjAuOTIuMyAoMjQwNTU0NiwgMjAxOC0wMy0xMSkiIHNvZGlwb2RpOmRvY25hbWU9ImlvdF9jZW50cmFsLnN2ZyIgeD0iMHB4IiB5PSIwcHgiIHZpZXdCb3g9IjAgMCAzNy41NyA0Mi45MyIgc3R5bGU9ImVuYWJsZS1iYWNrZ3JvdW5kOm5ldyAwIDAgMzcuNTcgNDIuOTM7IiB4bWw6c3BhY2U9InByZXNlcnZlIj4mI3hhOzxzb2RpcG9kaTpuYW1lZHZpZXcgYm9yZGVyY29sb3I9IiM2NjY2NjYiIGJvcmRlcm9wYWNpdHk9IjEiIGZpdC1tYXJnaW4tYm90dG9tPSIwIiBmaXQtbWFyZ2luLWxlZnQ9IjAiIGZpdC1tYXJnaW4tcmlnaHQ9IjAiIGZpdC1tYXJnaW4tdG9wPSIwIiBncmlkdG9sZXJhbmNlPSIxMCIgZ3VpZGV0b2xlcmFuY2U9IjEwIiBpZD0ibmFtZWR2aWV3ODE2MzIiIGlua3NjYXBlOmN1cnJlbnQtbGF5ZXI9InN2ZzgxNjMwIiBpbmtzY2FwZTpjeD0iNDEuMjM0NTQxIiBpbmtzY2FwZTpjeT0iMjAuMDQ5NTk4IiBpbmtzY2FwZTpwYWdlb3BhY2l0eT0iMCIgaW5rc2NhcGU6cGFnZXNoYWRvdz0iMiIgaW5rc2NhcGU6d2luZG93LWhlaWdodD0iMTAxNyIgaW5rc2NhcGU6d2luZG93LW1heGltaXplZD0iMSIgaW5rc2NhcGU6d2luZG93LXdpZHRoPSIxOTIwIiBpbmtzY2FwZTp3aW5kb3cteD0iLTgiIGlua3NjYXBlOndpbmRvdy15PSItOCIgaW5rc2NhcGU6em9vbT0iNi44MjA0MDkiIG9iamVjdHRvbGVyYW5jZT0iMTAiIHBhZ2Vjb2xvcj0iI2ZmZmZmZiIgc2hvd2dyaWQ9ImZhbHNlIj4mI3hhOwk8L3NvZGlwb2RpOm5hbWVkdmlldz4mI3hhOzxnIGlkPSJnODE2MjgiIHRyYW5zZm9ybT0idHJhbnNsYXRlKC0xMi4yNCwtMTIuMjQwMDQpIj4mI3hhOwk8dGl0bGUgaWQ9InRpdGxlODE2MTMiPlBhZ2UtMTwvdGl0bGU+JiN4YTsJPGcgaWQ9Imdyb3VwNTI5MC0xIiB0cmFuc2Zvcm09InRyYW5zbGF0ZSgxMi4yNCwtMTIuMjQpIj4mI3hhOwkJPHRpdGxlIGlkPSJ0aXRsZTgxNjE1Ij5Jb1QgQ2VudHJhbDwvdGl0bGU+JiN4YTsJCTxnIGlkPSJzaGFwZTUyOTEtMiIgdHJhbnNmb3JtPSJ0cmFuc2xhdGUoMTAuNzMzNywtMTEuNjI4MikiPiYjeGE7CQkJPHRpdGxlIGlkPSJ0aXRsZTgxNjE3Ij5TaGVldC41MjkxPC90aXRsZT4mI3hhOwkJCTxwYXRoIGlkPSJwYXRoODE2MTkiIGlua3NjYXBlOmNvbm5lY3Rvci1jdXJ2YXR1cmU9IjAiIHN0eWxlPSJmaWxsOiMwMDcyQzY7IiBkPSJNOC4wNSw2Ny40MWw4LjA1LTQuNzFWNTIuNDVsLTguMDUtNC43MUwwLDUyLjQzICAgICB2MTAuMjRMOC4wNSw2Ny40MXoiLz4mI3hhOwkJPC9nPiYjeGE7CQk8ZyBpZD0ic2hhcGU1MjkyLTQiPiYjeGE7CQkJPHRpdGxlIGlkPSJ0aXRsZTgxNjIyIj5TaGVldC41MjkyPC90aXRsZT4mI3hhOwkJCTxwYXRoIGlkPSJwYXRoODE2MjQiIGlua3NjYXBlOmNvbm5lY3Rvci1jdXJ2YXR1cmU9IjAiIHN0eWxlPSJmaWxsOiMwMDcyQzY7IiBkPSJNMTguNzgsMjQuNDhMMCwzNS4xN3Y3LjI3bDguOTQsNS4xMXYtNC4xMiAgICAgbC01LjM2LTMuMDd2LTMuMTFsMTUuMi04LjY1bDE1LjIxLDguNjlWNTQuNmwtMTUuMjEsOC42OUwwLDUyLjU2djQuMTJsMTguNzgsMTAuNzNsMTguNzktMTAuNzNWMzUuMjFMMTguNzgsMjQuNDh6Ii8+JiN4YTsJCTwvZz4mI3hhOwk8L2c+JiN4YTs8L2c+JiN4YTs8L3N2Zz4=;" vertex="1" parent="1">
          <mxGeometry x="1070" y="621.5" width="38" height="43" as="geometry" />
        </mxCell>
        <mxCell id="UOPAoyRl8zIuu1TyD0ZJ-36" style="edgeStyle=orthogonalEdgeStyle;rounded=0;orthogonalLoop=1;jettySize=auto;html=1;exitX=0;exitY=0.5;exitDx=0;exitDy=0;entryX=1;entryY=0.5;entryDx=0;entryDy=0;" edge="1" parent="1" source="UOPAoyRl8zIuu1TyD0ZJ-17" target="UOPAoyRl8zIuu1TyD0ZJ-15">
          <mxGeometry relative="1" as="geometry" />
        </mxCell>
        <mxCell id="UOPAoyRl8zIuu1TyD0ZJ-17" value="物联感知设备" style="shape=image;verticalLabelPosition=bottom;labelBackgroundColor=#ffffff;verticalAlign=top;aspect=fixed;imageAspect=0;image=data:image/svg+xml,PHN2ZyB4bWxuczpjYz0iaHR0cDovL2NyZWF0aXZlY29tbW9ucy5vcmcvbnMjIiB4bWxuczpkYz0iaHR0cDovL3B1cmwub3JnL2RjL2VsZW1lbnRzLzEuMS8iIHhtbG5zOmlua3NjYXBlPSJodHRwOi8vd3d3Lmlua3NjYXBlLm9yZy9uYW1lc3BhY2VzL2lua3NjYXBlIiB4bWxuczpyZGY9Imh0dHA6Ly93d3cudzMub3JnLzE5OTkvMDIvMjItcmRmLXN5bnRheC1ucyMiIHhtbG5zOnNvZGlwb2RpPSJodHRwOi8vc29kaXBvZGkuc291cmNlZm9yZ2UubmV0L0RURC9zb2RpcG9kaS0wLmR0ZCIgeG1sbnM6c3ZnPSJodHRwOi8vd3d3LnczLm9yZy8yMDAwL3N2ZyIgeG1sbnM9Imh0dHA6Ly93d3cudzMub3JnLzIwMDAvc3ZnIiB4bWxuczp4bGluaz0iaHR0cDovL3d3dy53My5vcmcvMTk5OS94bGluayIgdmVyc2lvbj0iMS4xIiBpZD0ic3ZnNDcxMyIgaW5rc2NhcGU6dmVyc2lvbj0iMC45Mi4zICgyNDA1NTQ2LCAyMDE4LTAzLTExKSIgc29kaXBvZGk6ZG9jbmFtZT0iZW50aXR5X2xpbmtpbmdfc2VydmljZS5zdmciIHg9IjBweCIgeT0iMHB4IiB2aWV3Qm94PSIwIDAgMzcuNSAzNy41NiIgc3R5bGU9ImVuYWJsZS1iYWNrZ3JvdW5kOm5ldyAwIDAgMzcuNSAzNy41NjsiIHhtbDpzcGFjZT0icHJlc2VydmUiPiYjeGE7PHNvZGlwb2RpOm5hbWVkdmlldyBib3JkZXJjb2xvcj0iIzY2NjY2NiIgYm9yZGVyb3BhY2l0eT0iMSIgZml0LW1hcmdpbi1ib3R0b209IjAiIGZpdC1tYXJnaW4tbGVmdD0iMCIgZml0LW1hcmdpbi1yaWdodD0iMCIgZml0LW1hcmdpbi10b3A9IjAiIGdyaWR0b2xlcmFuY2U9IjEwIiBndWlkZXRvbGVyYW5jZT0iMTAiIGlkPSJuYW1lZHZpZXc0NzE1IiBpbmtzY2FwZTpjdXJyZW50LWxheWVyPSJzdmc0NzEzIiBpbmtzY2FwZTpjeD0iMjEuMDMwOTczIiBpbmtzY2FwZTpjeT0iMTYuOTQzNjkyIiBpbmtzY2FwZTpwYWdlb3BhY2l0eT0iMCIgaW5rc2NhcGU6cGFnZXNoYWRvdz0iMiIgaW5rc2NhcGU6d2luZG93LWhlaWdodD0iMTAxNyIgaW5rc2NhcGU6d2luZG93LW1heGltaXplZD0iMSIgaW5rc2NhcGU6d2luZG93LXdpZHRoPSIxOTIwIiBpbmtzY2FwZTp3aW5kb3cteD0iLTgiIGlua3NjYXBlOndpbmRvdy15PSItOCIgaW5rc2NhcGU6em9vbT0iMTIuMjQxMzMyIiBvYmplY3R0b2xlcmFuY2U9IjEwIiBwYWdlY29sb3I9IiNmZmZmZmYiIHNob3dncmlkPSJmYWxzZSI+JiN4YTsJPC9zb2RpcG9kaTpuYW1lZHZpZXc+JiN4YTs8ZyBpZD0iZzQ3MTEiPiYjeGE7CTx0aXRsZSBpZD0idGl0bGU0NjgxIj5QYWdlLTE8L3RpdGxlPiYjeGE7CTxnIGlkPSJncm91cDQwOTMtMSI+JiN4YTsJCTx0aXRsZSBpZD0idGl0bGU0NjgzIj5FbnRpdHkgTGlua2luZyBTZXJ2aWNlPC90aXRsZT4mI3hhOwkJPGcgaWQ9InNoYXBlNDA5NC0yIj4mI3hhOwkJCTx0aXRsZSBpZD0idGl0bGU0Njg1Ij5TaGVldC40MDk0PC90aXRsZT4mI3hhOwkJCTxwYXRoIGlkPSJwYXRoNDY4NyIgaW5rc2NhcGU6Y29ubmVjdG9yLWN1cnZhdHVyZT0iMCIgc3R5bGU9ImZpbGw6IzNGNTc2NTsiIGQ9Ik0wLDB2MzcuNTZoMzcuNVYwSDB6Ii8+JiN4YTsJCTwvZz4mI3hhOwkJPGcgaWQ9InNoYXBlNDA5NS00IiB0cmFuc2Zvcm09InRyYW5zbGF0ZSg0Ljk5MzE1LC01LjAwMjU0KSI+JiN4YTsJCQk8dGl0bGUgaWQ9InRpdGxlNDY5MCI+U2hlZXQuNDA5NTwvdGl0bGU+JiN4YTsJCQk8cGF0aCBpZD0icGF0aDQ2OTIiIGlua3NjYXBlOmNvbm5lY3Rvci1jdXJ2YXR1cmU9IjAiIHN0eWxlPSJmaWxsOiNGREZERkQ7IiBkPSJNMjcuMzMsMjMuNzhjMC4wOC0wLjQ0LDAtMSwwLjA4LTEuNTUgICAgIGMwLjEtMC45Mi0wLjE4LTEuMjgtMS0xLjJjLTAuMjYsMC0wLjYzLDAuMS0wLjkxLDAuMWMtMC4zNi0xLjI5LTAuOTItMi41Ny0xLjU1LTMuNjhjMC4xOS0wLjI4LDAuNTUtMC40NiwwLjgxLTAuNjQgICAgIGMwLjQ2LTAuNDYsMC41Ni0wLjczLDAtMS4xOWMtMC45LTAuODItMS44MS0xLjY1LTIuNjMtMi42N2MtMC41Ni0wLjY0LTEuMS0wLjcyLTEuNjUsMC4xYy0wLjEsMC4xOC0wLjI4LDAuMzYtMC40NiwwLjU1ICAgICBjLTEuMS0wLjczLTIuMjktMS4xOS0zLjU2LTEuNDdjMC0wLjI4LTAuMDktMC41NSwwLTAuOTJjMC4xOC0wLjkxLTAuMTgtMS4yOS0wLjkyLTEuMTljLTEuMTgsMC4xLTIuMzcsMC4xLTMuNTUsMCAgICAgYy0wLjgzLDAtMS4xMSwwLjI4LTEuMTEsMS4xOWMwLjEsMC4yOCwwLjEsMC41NiwwLjEsMC44NGMtMS4yOCwwLjM2LTIuNTcsMC44Mi0zLjY1LDEuNTVjLTAuMTktMC4yNy0wLjM3LTAuNTUtMC42NS0wLjgzICAgICBjLTAuNDYtMC41NC0wLjcyLTAuNDYtMS4xOCwwYy0wLjgzLDAuOTItMS43NSwxLjg1LTIuNjUsMi41N2MtMC44MywwLjc0LTAuNjQsMS4xMSwwLjA5LDEuNjVjMC4wOSwwLjE4LDAuMzcsMC4yOCwwLjU1LDAuNDYgICAgIGMtMC42NCwxLjExLTEuMTksMi4yOS0xLjQ3LDMuNjhjLTAuMzYsMC0wLjgyLTAuMTgtMS4xLTAuMWMtMC4wOCwwLTAuMDgsMC0wLjE4LDBjLTAuNjMtMC4wOC0wLjcyLDAuMjgtMC43MiwwLjkyICAgICBjMC4wOSwxLjE5LDAuMDksMi4zOSwwLDMuNWMtMC4xLDAuOSwwLjI3LDEuMjgsMSwxLjFjMC4zNi0wLjEsMC42NC0wLjEsMC45MiwwYzAuMjcsMS4yOSwwLjgxLDIuNDcsMS40NSwzLjU4bDAsMCAgICAgYy0wLjI2LDAuMTgtMC40NSwwLjQ2LTAuNzIsMC42NGMtMC41NSwwLjM2LTAuNjUsMC42NC0wLjEsMS4xOWMxLDAuOTIsMS45MiwxLjkzLDIuOTMsMi44NWMwLjQ2LDAuNTQsMC43MiwwLjU0LDEuMTgsMCAgICAgYzAuMTktMC4xOCwwLjM3LTAuNDYsMC42NS0wLjY0YzEuMDgsMC43MiwyLjM3LDEuMTgsMy43MywxLjU2YzAsMC4xOC0wLjA4LDAuNDUtMC4wOCwwLjkxYy0wLjE4LDAuNzQsMC4yNywwLjkyLDAuODIsMC45MiAgICAgYzEuMTktMC4xLDIuMjgtMC4xLDMuNDgsMGMwLjksMC4wOCwxLjI3LTAuMjgsMS4wOS0xLjM4YzAtMC4xOCwwLTAuMzcsMC0wLjQ1YzEuMzYtMC4yOCwyLjY1LTAuODQsMy43NS0xLjU2ICAgICBjMC4xOCwwLjA4LDAuMzYsMC4zNiwwLjU0LDAuNjRjMC4zNywwLjU0LDAuNzMsMC42NCwxLjI5LDBjMC44MS0wLjkyLDEuODEtMS44NSwyLjczLTIuNjdjMC40Ni0wLjQ2LDAuNjQtMC45MSwwLTEuMjkgICAgIGMtMC4zNi0wLjE4LTAuNTQtMC4zNi0wLjczLTAuNTRjMC43My0xLjE5LDEuMjctMi4zOSwxLjU1LTMuNzZjMC42NSwwLDEuNDcsMC4zNiwxLjczLTAuMkMyNy42LDI1LjcxLDI3LjMzLDI0LjcxLDI3LjMzLDIzLjc4ICAgICBMMjcuMzMsMjMuNzh6IE0xMy43MSwzMS4wNGMtNC4wMSwwLTcuMjEtMy4yLTcuMjEtNy4yNmMwLTQuMDQsMy4yLTcuMjUsNy4yMS03LjI1YzQuMDIsMCw3LjIyLDMuMjEsNy4yMiw3LjI1ICAgICBDMjAuOTMsMjcuODQsMTcuNzMsMzEuMDQsMTMuNzEsMzEuMDR6Ii8+JiN4YTsJCTwvZz4mI3hhOwkJPGcgaWQ9InNoYXBlNDA5Ni02IiB0cmFuc2Zvcm09InRyYW5zbGF0ZSgxMS4zODM5LC0xMS42MjYpIj4mI3hhOwkJCTx0aXRsZSBpZD0idGl0bGU0Njk1Ij5TaGVldC40MDk2PC90aXRsZT4mI3hhOwkJCTxwYXRoIGlkPSJwYXRoNDY5NyIgaW5rc2NhcGU6Y29ubmVjdG9yLWN1cnZhdHVyZT0iMCIgc3R5bGU9ImZpbGw6IzNGNTc2NTsiIGQ9Ik0wLDMwLjQxYzAtMy45NCwzLjI1LTcuMTYsNy4yNS03LjE2ICAgICBjNC4wMiwwLDcuMjYsMy4yMiw3LjI2LDcuMTZjMCwzLjk1LTMuMjQsNy4xNS03LjI2LDcuMTVDMy4yNSwzNy41NiwwLDM0LjM2LDAsMzAuNDF6Ii8+JiN4YTsJCTwvZz4mI3hhOwkJPGcgaWQ9InNoYXBlNDA5Ny04IiB0cmFuc2Zvcm09InRyYW5zbGF0ZSgxNC44NDM4LC0xNi44ODAxKSI+JiN4YTsJCQk8dGl0bGUgaWQ9InRpdGxlNDcwMCI+U2hlZXQuNDA5NzwvdGl0bGU+JiN4YTsJCQkmI3hhOwkJCQk8cGF0aCBpZD0icGF0aDQ3MDIiIGlua3NjYXBlOmNvbm5lY3Rvci1jdXJ2YXR1cmU9IjAiIHN0eWxlPSJmaWxsOm5vbmU7c3Ryb2tlOiNGRkZGRkY7c3Ryb2tlLXdpZHRoOjEuODI1NTtzdHJva2UtbGluZWNhcDpyb3VuZDtzdHJva2UtbGluZWpvaW46cm91bmQ7c3Ryb2tlLW1pdGVybGltaXQ6MzsiIGQ9IiAgICAgTTAsMzIuNWMwLTAuNTMsMC40NS0wLjk4LDAuOTgtMC45OGgzLjg2YzAuNTMsMCwwLjk2LDAuNDUsMC45NiwwLjk4djQuMWMwLDAuNTMtMC40MywwLjk2LTAuOTYsMC45NkgwLjk4ICAgICBDMC40NSwzNy41NiwwLDM3LjEzLDAsMzYuNlYzMi41eiIvPiYjeGE7CQk8L2c+JiN4YTsJCTxnIGlkPSJzaGFwZTQwOTgtMTAiIHRyYW5zZm9ybT0idHJhbnNsYXRlKDE3LjA3NTksLTE0LjY0NDMpIj4mI3hhOwkJCTx0aXRsZSBpZD0idGl0bGU0NzA1Ij5TaGVldC40MDk4PC90aXRsZT4mI3hhOwkJCSYjeGE7CQkJCTxwYXRoIGlkPSJwYXRoNDcwNyIgaW5rc2NhcGU6Y29ubmVjdG9yLWN1cnZhdHVyZT0iMCIgc3R5bGU9ImZpbGw6bm9uZTtzdHJva2U6I0ZGRkZGRjtzdHJva2Utd2lkdGg6MS44MjU1O3N0cm9rZS1saW5lY2FwOnJvdW5kO3N0cm9rZS1saW5lam9pbjpyb3VuZDtzdHJva2UtbWl0ZXJsaW1pdDozOyIgZD0iICAgICBNMCwzMi43M2MwLTAuNTMsMC40NS0wLjk4LDAuOTgtMC45OGg0LjA4YzAuNTMsMCwwLjk3LDAuNDUsMC45NywwLjk4djMuODdjMCwwLjUzLTAuNDQsMC45Ni0wLjk3LDAuOTZIMC45OCAgICAgQzAuNDUsMzcuNTYsMCwzNy4xMywwLDM2LjZWMzIuNzN6Ii8+JiN4YTsJCTwvZz4mI3hhOwk8L2c+JiN4YTs8L2c+JiN4YTs8L3N2Zz4=;" vertex="1" parent="1">
          <mxGeometry x="1188.5" y="624" width="38" height="38" as="geometry" />
        </mxCell>
        <mxCell id="UOPAoyRl8zIuu1TyD0ZJ-53" style="edgeStyle=orthogonalEdgeStyle;rounded=0;orthogonalLoop=1;jettySize=auto;html=1;exitX=0.75;exitY=0;exitDx=0;exitDy=0;entryX=0.5;entryY=1;entryDx=0;entryDy=0;" edge="1" parent="1" source="UOPAoyRl8zIuu1TyD0ZJ-18" target="UOPAoyRl8zIuu1TyD0ZJ-24">
          <mxGeometry relative="1" as="geometry" />
        </mxCell>
        <mxCell id="UOPAoyRl8zIuu1TyD0ZJ-18" value="pvia" style="shape=image;verticalLabelPosition=bottom;labelBackgroundColor=#ffffff;verticalAlign=top;aspect=fixed;imageAspect=0;image=data:image/svg+xml,PHN2ZyB4bWxuczpjYz0iaHR0cDovL2NyZWF0aXZlY29tbW9ucy5vcmcvbnMjIiB4bWxuczpkYz0iaHR0cDovL3B1cmwub3JnL2RjL2VsZW1lbnRzLzEuMS8iIHhtbG5zOmlua3NjYXBlPSJodHRwOi8vd3d3Lmlua3NjYXBlLm9yZy9uYW1lc3BhY2VzL2lua3NjYXBlIiB4bWxuczpyZGY9Imh0dHA6Ly93d3cudzMub3JnLzE5OTkvMDIvMjItcmRmLXN5bnRheC1ucyMiIHhtbG5zOnNvZGlwb2RpPSJodHRwOi8vc29kaXBvZGkuc291cmNlZm9yZ2UubmV0L0RURC9zb2RpcG9kaS0wLmR0ZCIgeG1sbnM6c3ZnPSJodHRwOi8vd3d3LnczLm9yZy8yMDAwL3N2ZyIgeG1sbnM9Imh0dHA6Ly93d3cudzMub3JnLzIwMDAvc3ZnIiB4bWxuczp4bGluaz0iaHR0cDovL3d3dy53My5vcmcvMTk5OS94bGluayIgdmVyc2lvbj0iMS4xIiBpZD0ic3ZnODg5NTEiIGlua3NjYXBlOnZlcnNpb249IjAuOTIuMyAoMjQwNTU0NiwgMjAxOC0wMy0xMSkiIHNvZGlwb2RpOmRvY25hbWU9InNlcnZlci5zdmciIHg9IjBweCIgeT0iMHB4IiB2aWV3Qm94PSIwIDAgMzYuNzUgNjIuMzkiIHN0eWxlPSJlbmFibGUtYmFja2dyb3VuZDpuZXcgMCAwIDM2Ljc1IDYyLjM5OyIgeG1sOnNwYWNlPSJwcmVzZXJ2ZSI+JiN4YTs8c29kaXBvZGk6bmFtZWR2aWV3IGJvcmRlcmNvbG9yPSIjNjY2NjY2IiBib3JkZXJvcGFjaXR5PSIxIiBmaXQtbWFyZ2luLWJvdHRvbT0iMCIgZml0LW1hcmdpbi1sZWZ0PSIwIiBmaXQtbWFyZ2luLXJpZ2h0PSIwIiBmaXQtbWFyZ2luLXRvcD0iMCIgZ3JpZHRvbGVyYW5jZT0iMTAiIGd1aWRldG9sZXJhbmNlPSIxMCIgaWQ9Im5hbWVkdmlldzg4OTUzIiBpbmtzY2FwZTpjdXJyZW50LWxheWVyPSJzdmc4ODk1MSIgaW5rc2NhcGU6Y3g9IjIzLjU4MzIxMyIgaW5rc2NhcGU6Y3k9IjIzLjYzNjE5NSIgaW5rc2NhcGU6cGFnZW9wYWNpdHk9IjAiIGlua3NjYXBlOnBhZ2VzaGFkb3c9IjIiIGlua3NjYXBlOndpbmRvdy1oZWlnaHQ9IjEwMTciIGlua3NjYXBlOndpbmRvdy1tYXhpbWl6ZWQ9IjEiIGlua3NjYXBlOndpbmRvdy13aWR0aD0iMTkyMCIgaW5rc2NhcGU6d2luZG93LXg9Ii04IiBpbmtzY2FwZTp3aW5kb3cteT0iLTgiIGlua3NjYXBlOnpvb209IjUuMDg5MTEyIiBvYmplY3R0b2xlcmFuY2U9IjEwIiBwYWdlY29sb3I9IiNmZmZmZmYiIHNob3dncmlkPSJmYWxzZSI+JiN4YTsJPC9zb2RpcG9kaTpuYW1lZHZpZXc+JiN4YTs8ZyBpZD0iZzg4OTQ5IiB0cmFuc2Zvcm09InRyYW5zbGF0ZSgtMC43NSwtMC43NSkiPiYjeGE7CTx0aXRsZSBpZD0idGl0bGU4ODkwMSI+UGFnZS0xPC90aXRsZT4mI3hhOwk8ZyBpZD0iZ3JvdXAxNzU4LTEiIHRyYW5zZm9ybT0idHJhbnNsYXRlKDEuNSwtMS41KSI+JiN4YTsJCTx0aXRsZSBpZD0idGl0bGU4ODkwMyI+U2VydmVyPC90aXRsZT4mI3hhOwkJPGcgaWQ9InNoYXBlMTc1OS0yIj4mI3hhOwkJCTx0aXRsZSBpZD0idGl0bGU4ODkwNSI+cmVjdDE2MTg3PC90aXRsZT4mI3hhOwkJCSYjeGE7CQkJCTxyZWN0IGlkPSJyZWN0ODg5MDciIHk9IjMiIHN0eWxlPSJmaWxsOiNGRkZGRkY7c3Ryb2tlOiM1NTZBOEE7c3Ryb2tlLXdpZHRoOjEuNTtzdHJva2UtbWl0ZXJsaW1pdDozOyIgd2lkdGg9IjM1LjI1IiBoZWlnaHQ9IjYwLjg5Ii8+JiN4YTsJCTwvZz4mI3hhOwkJPGcgaWQ9Imdyb3VwMTc2MC00IiB0cmFuc2Zvcm09InRyYW5zbGF0ZSgwLjgwMTEzNiwtMC44MDExMzYpIj4mI3hhOwkJCTx0aXRsZSBpZD0idGl0bGU4ODkxMCI+ZzE2MjAzPC90aXRsZT4mI3hhOwkJCTxnIGlkPSJzaGFwZTE3NjEtNSIgdHJhbnNmb3JtPSJ0cmFuc2xhdGUoMTYuMDIyNykiPiYjeGE7CQkJCTx0aXRsZSBpZD0idGl0bGU4ODkxMiI+cmVjdDE2MTg5PC90aXRsZT4mI3hhOwkJCQk8cmVjdCBpZD0icmVjdDg4OTE0IiB4PSIwIiB5PSI0LjYiIHN0eWxlPSJmaWxsOiNFNUU1RTU7IiB3aWR0aD0iMTcuNjMiIGhlaWdodD0iNTkuMjgiLz4mI3hhOwkJCTwvZz4mI3hhOwkJCTxnIGlkPSJzaGFwZTE3NjItNyIgdHJhbnNmb3JtPSJ0cmFuc2xhdGUoMCwtNTIuMDczOSkiPiYjeGE7CQkJCTx0aXRsZSBpZD0idGl0bGU4ODkxNyI+cmVjdDE2MTkxPC90aXRsZT4mI3hhOwkJCQk8cmVjdCBpZD0icmVjdDg4OTE5IiB4PSIwIiB5PSI2Mi4yOCIgc3R5bGU9ImZpbGw6IzU1NkE4QTsiIHdpZHRoPSIzMy42NSIgaGVpZ2h0PSIxLjYiLz4mI3hhOwkJCTwvZz4mI3hhOwkJCTxnIGlkPSJzaGFwZTE3NjMtOSIgdHJhbnNmb3JtPSJ0cmFuc2xhdGUoMi40MDM0MSwtNTIuMDczOSkiPiYjeGE7CQkJCTx0aXRsZSBpZD0idGl0bGU4ODkyMiI+cmVjdDE2MTkzPC90aXRsZT4mI3hhOwkJCQk8cmVjdCBpZD0icmVjdDg4OTI0IiB4PSIwIiB5PSI2Mi4yOCIgc3R5bGU9ImZpbGw6IzJCQzdGNDsiIHdpZHRoPSIxMy42MiIgaGVpZ2h0PSIxLjYiLz4mI3hhOwkJCTwvZz4mI3hhOwkJCTxnIGlkPSJzaGFwZTE3NjQtMTEiIHRyYW5zZm9ybT0idHJhbnNsYXRlKDAsLTQ4LjA2ODIpIj4mI3hhOwkJCQk8dGl0bGUgaWQ9InRpdGxlODg5MjciPnJlY3QxNjE5NTwvdGl0bGU+JiN4YTsJCQkJPHJlY3QgaWQ9InJlY3Q4ODkyOSIgeD0iMCIgeT0iNjIuMjgiIHN0eWxlPSJmaWxsOiM1NTZBOEE7IiB3aWR0aD0iMzMuNjUiIGhlaWdodD0iMS42Ii8+JiN4YTsJCQk8L2c+JiN4YTsJCQk8ZyBpZD0ic2hhcGUxNzY1LTEzIiB0cmFuc2Zvcm09InRyYW5zbGF0ZSgyLjQwMzQxLC00OC4wNjgyKSI+JiN4YTsJCQkJPHRpdGxlIGlkPSJ0aXRsZTg4OTMyIj5yZWN0MTYxOTc8L3RpdGxlPiYjeGE7CQkJCTxyZWN0IGlkPSJyZWN0ODg5MzQiIHg9IjAiIHk9IjYyLjI4IiBzdHlsZT0iZmlsbDojMkJDN0Y0OyIgd2lkdGg9IjEzLjYyIiBoZWlnaHQ9IjEuNiIvPiYjeGE7CQkJPC9nPiYjeGE7CQkJPGcgaWQ9InNoYXBlMTc2Ni0xNSIgdHJhbnNmb3JtPSJ0cmFuc2xhdGUoMCwtNDQuMDYyNSkiPiYjeGE7CQkJCTx0aXRsZSBpZD0idGl0bGU4ODkzNyI+cmVjdDE2MTk5PC90aXRsZT4mI3hhOwkJCQk8cmVjdCBpZD0icmVjdDg4OTM5IiB4PSIwIiB5PSI2Mi4yOCIgc3R5bGU9ImZpbGw6IzU1NkE4QTsiIHdpZHRoPSIzMy42NSIgaGVpZ2h0PSIxLjYiLz4mI3hhOwkJCTwvZz4mI3hhOwkJCTxnIGlkPSJzaGFwZTE3NjctMTciIHRyYW5zZm9ybT0idHJhbnNsYXRlKDIuNDAzNDEsLTQ0LjA2MjUpIj4mI3hhOwkJCQk8dGl0bGUgaWQ9InRpdGxlODg5NDIiPnJlY3QxNjIwMTwvdGl0bGU+JiN4YTsJCQkJPHJlY3QgaWQ9InJlY3Q4ODk0NCIgeD0iMCIgeT0iNjIuMjgiIHN0eWxlPSJmaWxsOiMyQkM3RjQ7IiB3aWR0aD0iMTMuNjIiIGhlaWdodD0iMS42Ii8+JiN4YTsJCQk8L2c+JiN4YTsJCTwvZz4mI3hhOwk8L2c+JiN4YTs8L2c+JiN4YTs8L3N2Zz4=;" vertex="1" parent="1">
          <mxGeometry x="900" y="1080" width="41.77" height="70" as="geometry" />
        </mxCell>
        <mxCell id="UOPAoyRl8zIuu1TyD0ZJ-83" style="edgeStyle=orthogonalEdgeStyle;rounded=0;orthogonalLoop=1;jettySize=auto;html=1;exitX=0.5;exitY=0;exitDx=0;exitDy=0;entryX=0.5;entryY=1;entryDx=0;entryDy=0;" edge="1" parent="1" source="UOPAoyRl8zIuu1TyD0ZJ-19" target="UOPAoyRl8zIuu1TyD0ZJ-3">
          <mxGeometry relative="1" as="geometry" />
        </mxCell>
        <mxCell id="UOPAoyRl8zIuu1TyD0ZJ-84" style="edgeStyle=orthogonalEdgeStyle;rounded=0;orthogonalLoop=1;jettySize=auto;html=1;exitX=0.5;exitY=0;exitDx=0;exitDy=0;entryX=0.5;entryY=1;entryDx=0;entryDy=0;" edge="1" parent="1" source="UOPAoyRl8zIuu1TyD0ZJ-19" target="UOPAoyRl8zIuu1TyD0ZJ-40">
          <mxGeometry relative="1" as="geometry" />
        </mxCell>
        <mxCell id="UOPAoyRl8zIuu1TyD0ZJ-19" value="isc" style="shape=image;verticalLabelPosition=bottom;labelBackgroundColor=#ffffff;verticalAlign=top;aspect=fixed;imageAspect=0;image=data:image/svg+xml,PHN2ZyB4bWxuczpjYz0iaHR0cDovL2NyZWF0aXZlY29tbW9ucy5vcmcvbnMjIiB4bWxuczpkYz0iaHR0cDovL3B1cmwub3JnL2RjL2VsZW1lbnRzLzEuMS8iIHhtbG5zOmlua3NjYXBlPSJodHRwOi8vd3d3Lmlua3NjYXBlLm9yZy9uYW1lc3BhY2VzL2lua3NjYXBlIiB4bWxuczpyZGY9Imh0dHA6Ly93d3cudzMub3JnLzE5OTkvMDIvMjItcmRmLXN5bnRheC1ucyMiIHhtbG5zOnNvZGlwb2RpPSJodHRwOi8vc29kaXBvZGkuc291cmNlZm9yZ2UubmV0L0RURC9zb2RpcG9kaS0wLmR0ZCIgeG1sbnM6c3ZnPSJodHRwOi8vd3d3LnczLm9yZy8yMDAwL3N2ZyIgeG1sbnM9Imh0dHA6Ly93d3cudzMub3JnLzIwMDAvc3ZnIiB4bWxuczp4bGluaz0iaHR0cDovL3d3dy53My5vcmcvMTk5OS94bGluayIgdmVyc2lvbj0iMS4xIiBpZD0ic3ZnODkwOTkiIGlua3NjYXBlOnZlcnNpb249IjAuOTIuMyAoMjQwNTU0NiwgMjAxOC0wMy0xMSkiIHNvZGlwb2RpOmRvY25hbWU9InNlcnZlcl8yLnN2ZyIgeD0iMHB4IiB5PSIwcHgiIHZpZXdCb3g9IjAgMCAzNi43NSA2MC43NSIgc3R5bGU9ImVuYWJsZS1iYWNrZ3JvdW5kOm5ldyAwIDAgMzYuNzUgNjAuNzU7IiB4bWw6c3BhY2U9InByZXNlcnZlIj4mI3hhOzxzb2RpcG9kaTpuYW1lZHZpZXcgYm9yZGVyY29sb3I9IiM2NjY2NjYiIGJvcmRlcm9wYWNpdHk9IjEiIGZpdC1tYXJnaW4tYm90dG9tPSIwIiBmaXQtbWFyZ2luLWxlZnQ9IjAiIGZpdC1tYXJnaW4tcmlnaHQ9IjAiIGZpdC1tYXJnaW4tdG9wPSIwIiBncmlkdG9sZXJhbmNlPSIxMCIgZ3VpZGV0b2xlcmFuY2U9IjEwIiBpZD0ibmFtZWR2aWV3ODkxMDEiIGlua3NjYXBlOmN1cnJlbnQtbGF5ZXI9InN2Zzg5MDk5IiBpbmtzY2FwZTpjeD0iMTUuODQ4MDU1IiBpbmtzY2FwZTpjeT0iMzMuMDk5MzM1IiBpbmtzY2FwZTpwYWdlb3BhY2l0eT0iMCIgaW5rc2NhcGU6cGFnZXNoYWRvdz0iMiIgaW5rc2NhcGU6d2luZG93LWhlaWdodD0iMTAxNyIgaW5rc2NhcGU6d2luZG93LW1heGltaXplZD0iMSIgaW5rc2NhcGU6d2luZG93LXdpZHRoPSIxOTIwIiBpbmtzY2FwZTp3aW5kb3cteD0iLTgiIGlua3NjYXBlOndpbmRvdy15PSItOCIgaW5rc2NhcGU6em9vbT0iNS4yMjI4OTM1IiBvYmplY3R0b2xlcmFuY2U9IjEwIiBwYWdlY29sb3I9IiNmZmZmZmYiIHNob3dncmlkPSJmYWxzZSI+JiN4YTsJPC9zb2RpcG9kaTpuYW1lZHZpZXc+JiN4YTs8ZyBpZD0iZzg5MDk3IiB0cmFuc2Zvcm09InRyYW5zbGF0ZSgtMC43NSwtMC43NSkiPiYjeGE7CTx0aXRsZSBpZD0idGl0bGU4OTAzOSI+UGFnZS0xPC90aXRsZT4mI3hhOwk8ZyBpZD0iZ3JvdXAxNzY4LTEiIHRyYW5zZm9ybT0idHJhbnNsYXRlKDEuNSwtMS41KSI+JiN4YTsJCTx0aXRsZSBpZD0idGl0bGU4OTA0MSI+U2VydmVyICMyPC90aXRsZT4mI3hhOwkJPGcgaWQ9InNoYXBlMTc2OS0yIj4mI3hhOwkJCTx0aXRsZSBpZD0idGl0bGU4OTA0MyI+cmVjdDE1NjEwPC90aXRsZT4mI3hhOwkJCSYjeGE7CQkJCTxyZWN0IGlkPSJyZWN0ODkwNDUiIHg9IjAiIHk9IjMiIHN0eWxlPSJmaWxsOiNGRkZGRkY7c3Ryb2tlOiM1NTZBOEE7c3Ryb2tlLXdpZHRoOjEuNTtzdHJva2UtbWl0ZXJsaW1pdDozOyIgd2lkdGg9IjM1LjI1IiBoZWlnaHQ9IjU5LjI1Ii8+JiN4YTsJCTwvZz4mI3hhOwkJPGcgaWQ9Imdyb3VwMTc3MC00IiB0cmFuc2Zvcm09InRyYW5zbGF0ZSgxLjUsLTAuNzUpIj4mI3hhOwkJCTx0aXRsZSBpZD0idGl0bGU4OTA0OCI+ZzE1NjIyPC90aXRsZT4mI3hhOwkJCTxnIGlkPSJzaGFwZTE3NzEtNSIgdHJhbnNmb3JtPSJ0cmFuc2xhdGUoMTcuMjUpIj4mI3hhOwkJCQk8dGl0bGUgaWQ9InRpdGxlODkwNTAiPnJlY3QxNTYxMjwvdGl0bGU+JiN4YTsJCQkJPHJlY3QgaWQ9InJlY3Q4OTA1MiIgeD0iMCIgeT0iNC41IiBzdHlsZT0iZmlsbDojRTVFNUU1OyIgd2lkdGg9IjE1Ljc1IiBoZWlnaHQ9IjU3Ljc1Ii8+JiN4YTsJCQk8L2c+JiN4YTsJCQk8ZyBpZD0ic2hhcGUxNzcyLTciIHRyYW5zZm9ybT0idHJhbnNsYXRlKDAsLTQ5LjUpIj4mI3hhOwkJCQk8dGl0bGUgaWQ9InRpdGxlODkwNTUiPnBvbHlnb24xNTYxNDwvdGl0bGU+JiN4YTsJCQkJPHJlY3QgaWQ9InJlY3Q4OTA1NyIgeD0iMCIgeT0iNjAiIHN0eWxlPSJmaWxsOm5vbmU7IiB3aWR0aD0iMjciIGhlaWdodD0iMi4yNSIvPiYjeGE7CQkJPC9nPiYjeGE7CQkJPGcgaWQ9InNoYXBlMTc3My05IiB0cmFuc2Zvcm09InRyYW5zbGF0ZSgwLC00OS41KSI+JiN4YTsJCQkJPHRpdGxlIGlkPSJ0aXRsZTg5MDYwIj5wb2x5bGluZTE1NjE2PC90aXRsZT4mI3hhOwkJCQk8cmVjdCBpZD0icmVjdDg5MDYyIiB4PSIwIiB5PSI2MCIgc3R5bGU9ImZpbGw6bm9uZTsiIHdpZHRoPSIyNyIgaGVpZ2h0PSIyLjI1Ii8+JiN4YTsJCQk8L2c+JiN4YTsJCQk8ZyBpZD0ic2hhcGUxNzc0LTExIiB0cmFuc2Zvcm09InRyYW5zbGF0ZSgwLC00OS41KSI+JiN4YTsJCQkJPHRpdGxlIGlkPSJ0aXRsZTg5MDY1Ij5yZWN0MTU2MTg8L3RpdGxlPiYjeGE7CQkJCTxyZWN0IGlkPSJyZWN0ODkwNjciIHg9IjAiIHk9IjYwIiBzdHlsZT0iZmlsbDojMkJDN0Y0OyIgd2lkdGg9IjE4IiBoZWlnaHQ9IjIuMjUiLz4mI3hhOwkJCTwvZz4mI3hhOwkJCTxnIGlkPSJzaGFwZTE3NzUtMTMiIHRyYW5zZm9ybT0idHJhbnNsYXRlKDE3LjI1LC00OS41KSI+JiN4YTsJCQkJPHRpdGxlIGlkPSJ0aXRsZTg5MDcwIj5yZWN0MTU2MjA8L3RpdGxlPiYjeGE7CQkJCTxyZWN0IGlkPSJyZWN0ODkwNzIiIHg9IjAiIHk9IjYwIiBzdHlsZT0iZmlsbDojNTU2QThBOyIgd2lkdGg9IjE1Ljc1IiBoZWlnaHQ9IjIuMjUiLz4mI3hhOwkJCTwvZz4mI3hhOwkJPC9nPiYjeGE7CQk8ZyBpZD0ic2hhcGUxNzc2LTE1IiB0cmFuc2Zvcm09InRyYW5zbGF0ZSgwLjc1LC01MC4yNSkiPiYjeGE7CQkJPHRpdGxlIGlkPSJ0aXRsZTg5MDc2Ij5yZWN0MTU2MjQ8L3RpdGxlPiYjeGE7CQkJPHJlY3QgaWQ9InJlY3Q4OTA3OCIgeD0iMCIgeT0iNjAiIHN0eWxlPSJmaWxsOiM1NTZBOEE7IiB3aWR0aD0iMi4yNSIgaGVpZ2h0PSIyLjI1Ii8+JiN4YTsJCTwvZz4mI3hhOwkJPGcgaWQ9InNoYXBlMTc3Ny0xNyIgdHJhbnNmb3JtPSJ0cmFuc2xhdGUoMS41LC00NC4yNSkiPiYjeGE7CQkJPHRpdGxlIGlkPSJ0aXRsZTg5MDgxIj5yZWN0MTU2MjY8L3RpdGxlPiYjeGE7CQkJPHJlY3QgaWQ9InJlY3Q4OTA4MyIgeD0iMCIgeT0iNjAiIHN0eWxlPSJmaWxsOiMyQkM3RjQ7IiB3aWR0aD0iMTgiIGhlaWdodD0iMi4yNSIvPiYjeGE7CQk8L2c+JiN4YTsJCTxnIGlkPSJzaGFwZTE3NzgtMTkiIHRyYW5zZm9ybT0idHJhbnNsYXRlKDE4Ljc1LC00NC4yNSkiPiYjeGE7CQkJPHRpdGxlIGlkPSJ0aXRsZTg5MDg2Ij5yZWN0MTU2Mjg8L3RpdGxlPiYjeGE7CQkJPHJlY3QgaWQ9InJlY3Q4OTA4OCIgeD0iMCIgeT0iNjAiIHN0eWxlPSJmaWxsOiM1NTZBOEE7IiB3aWR0aD0iMTUuNzUiIGhlaWdodD0iMi4yNSIvPiYjeGE7CQk8L2c+JiN4YTsJCTxnIGlkPSJzaGFwZTE3NzktMjEiIHRyYW5zZm9ybT0idHJhbnNsYXRlKDAuNzUsLTQ0LjI1KSI+JiN4YTsJCQk8dGl0bGUgaWQ9InRpdGxlODkwOTEiPnJlY3QxNTYzMDwvdGl0bGU+JiN4YTsJCQk8cmVjdCBpZD0icmVjdDg5MDkzIiB4PSIwIiB5PSI2MCIgc3R5bGU9ImZpbGw6IzU1NkE4QTsiIHdpZHRoPSIyLjI1IiBoZWlnaHQ9IjIuMjUiLz4mI3hhOwkJPC9nPiYjeGE7CTwvZz4mI3hhOzwvZz4mI3hhOzwvc3ZnPg==;" vertex="1" parent="1">
          <mxGeometry x="607.54" y="987" width="42.46" height="70" as="geometry" />
        </mxCell>
        <mxCell id="UOPAoyRl8zIuu1TyD0ZJ-82" style="edgeStyle=orthogonalEdgeStyle;rounded=0;orthogonalLoop=1;jettySize=auto;html=1;exitX=1;exitY=0.5;exitDx=0;exitDy=0;entryX=0;entryY=0.5;entryDx=0;entryDy=0;" edge="1" parent="1" source="UOPAoyRl8zIuu1TyD0ZJ-21" target="UOPAoyRl8zIuu1TyD0ZJ-22">
          <mxGeometry relative="1" as="geometry" />
        </mxCell>
        <mxCell id="UOPAoyRl8zIuu1TyD0ZJ-21" value="门禁设备" style="shape=image;verticalLabelPosition=bottom;labelBackgroundColor=#ffffff;verticalAlign=top;aspect=fixed;imageAspect=0;image=data:image/svg+xml,PHN2ZyB4bWxuczpjYz0iaHR0cDovL2NyZWF0aXZlY29tbW9ucy5vcmcvbnMjIiB4bWxuczpkYz0iaHR0cDovL3B1cmwub3JnL2RjL2VsZW1lbnRzLzEuMS8iIHhtbG5zOmlua3NjYXBlPSJodHRwOi8vd3d3Lmlua3NjYXBlLm9yZy9uYW1lc3BhY2VzL2lua3NjYXBlIiB4bWxuczpyZGY9Imh0dHA6Ly93d3cudzMub3JnLzE5OTkvMDIvMjItcmRmLXN5bnRheC1ucyMiIHhtbG5zOnNvZGlwb2RpPSJodHRwOi8vc29kaXBvZGkuc291cmNlZm9yZ2UubmV0L0RURC9zb2RpcG9kaS0wLmR0ZCIgeG1sbnM6c3ZnPSJodHRwOi8vd3d3LnczLm9yZy8yMDAwL3N2ZyIgeG1sbnM9Imh0dHA6Ly93d3cudzMub3JnLzIwMDAvc3ZnIiB4bWxuczp4bGluaz0iaHR0cDovL3d3dy53My5vcmcvMTk5OS94bGluayIgdmVyc2lvbj0iMS4xIiBpZD0ic3ZnNDcxMyIgaW5rc2NhcGU6dmVyc2lvbj0iMC45Mi4zICgyNDA1NTQ2LCAyMDE4LTAzLTExKSIgc29kaXBvZGk6ZG9jbmFtZT0iZW50aXR5X2xpbmtpbmdfc2VydmljZS5zdmciIHg9IjBweCIgeT0iMHB4IiB2aWV3Qm94PSIwIDAgMzcuNSAzNy41NiIgc3R5bGU9ImVuYWJsZS1iYWNrZ3JvdW5kOm5ldyAwIDAgMzcuNSAzNy41NjsiIHhtbDpzcGFjZT0icHJlc2VydmUiPiYjeGE7PHNvZGlwb2RpOm5hbWVkdmlldyBib3JkZXJjb2xvcj0iIzY2NjY2NiIgYm9yZGVyb3BhY2l0eT0iMSIgZml0LW1hcmdpbi1ib3R0b209IjAiIGZpdC1tYXJnaW4tbGVmdD0iMCIgZml0LW1hcmdpbi1yaWdodD0iMCIgZml0LW1hcmdpbi10b3A9IjAiIGdyaWR0b2xlcmFuY2U9IjEwIiBndWlkZXRvbGVyYW5jZT0iMTAiIGlkPSJuYW1lZHZpZXc0NzE1IiBpbmtzY2FwZTpjdXJyZW50LWxheWVyPSJzdmc0NzEzIiBpbmtzY2FwZTpjeD0iMjEuMDMwOTczIiBpbmtzY2FwZTpjeT0iMTYuOTQzNjkyIiBpbmtzY2FwZTpwYWdlb3BhY2l0eT0iMCIgaW5rc2NhcGU6cGFnZXNoYWRvdz0iMiIgaW5rc2NhcGU6d2luZG93LWhlaWdodD0iMTAxNyIgaW5rc2NhcGU6d2luZG93LW1heGltaXplZD0iMSIgaW5rc2NhcGU6d2luZG93LXdpZHRoPSIxOTIwIiBpbmtzY2FwZTp3aW5kb3cteD0iLTgiIGlua3NjYXBlOndpbmRvdy15PSItOCIgaW5rc2NhcGU6em9vbT0iMTIuMjQxMzMyIiBvYmplY3R0b2xlcmFuY2U9IjEwIiBwYWdlY29sb3I9IiNmZmZmZmYiIHNob3dncmlkPSJmYWxzZSI+JiN4YTsJPC9zb2RpcG9kaTpuYW1lZHZpZXc+JiN4YTs8ZyBpZD0iZzQ3MTEiPiYjeGE7CTx0aXRsZSBpZD0idGl0bGU0NjgxIj5QYWdlLTE8L3RpdGxlPiYjeGE7CTxnIGlkPSJncm91cDQwOTMtMSI+JiN4YTsJCTx0aXRsZSBpZD0idGl0bGU0NjgzIj5FbnRpdHkgTGlua2luZyBTZXJ2aWNlPC90aXRsZT4mI3hhOwkJPGcgaWQ9InNoYXBlNDA5NC0yIj4mI3hhOwkJCTx0aXRsZSBpZD0idGl0bGU0Njg1Ij5TaGVldC40MDk0PC90aXRsZT4mI3hhOwkJCTxwYXRoIGlkPSJwYXRoNDY4NyIgaW5rc2NhcGU6Y29ubmVjdG9yLWN1cnZhdHVyZT0iMCIgc3R5bGU9ImZpbGw6IzNGNTc2NTsiIGQ9Ik0wLDB2MzcuNTZoMzcuNVYwSDB6Ii8+JiN4YTsJCTwvZz4mI3hhOwkJPGcgaWQ9InNoYXBlNDA5NS00IiB0cmFuc2Zvcm09InRyYW5zbGF0ZSg0Ljk5MzE1LC01LjAwMjU0KSI+JiN4YTsJCQk8dGl0bGUgaWQ9InRpdGxlNDY5MCI+U2hlZXQuNDA5NTwvdGl0bGU+JiN4YTsJCQk8cGF0aCBpZD0icGF0aDQ2OTIiIGlua3NjYXBlOmNvbm5lY3Rvci1jdXJ2YXR1cmU9IjAiIHN0eWxlPSJmaWxsOiNGREZERkQ7IiBkPSJNMjcuMzMsMjMuNzhjMC4wOC0wLjQ0LDAtMSwwLjA4LTEuNTUgICAgIGMwLjEtMC45Mi0wLjE4LTEuMjgtMS0xLjJjLTAuMjYsMC0wLjYzLDAuMS0wLjkxLDAuMWMtMC4zNi0xLjI5LTAuOTItMi41Ny0xLjU1LTMuNjhjMC4xOS0wLjI4LDAuNTUtMC40NiwwLjgxLTAuNjQgICAgIGMwLjQ2LTAuNDYsMC41Ni0wLjczLDAtMS4xOWMtMC45LTAuODItMS44MS0xLjY1LTIuNjMtMi42N2MtMC41Ni0wLjY0LTEuMS0wLjcyLTEuNjUsMC4xYy0wLjEsMC4xOC0wLjI4LDAuMzYtMC40NiwwLjU1ICAgICBjLTEuMS0wLjczLTIuMjktMS4xOS0zLjU2LTEuNDdjMC0wLjI4LTAuMDktMC41NSwwLTAuOTJjMC4xOC0wLjkxLTAuMTgtMS4yOS0wLjkyLTEuMTljLTEuMTgsMC4xLTIuMzcsMC4xLTMuNTUsMCAgICAgYy0wLjgzLDAtMS4xMSwwLjI4LTEuMTEsMS4xOWMwLjEsMC4yOCwwLjEsMC41NiwwLjEsMC44NGMtMS4yOCwwLjM2LTIuNTcsMC44Mi0zLjY1LDEuNTVjLTAuMTktMC4yNy0wLjM3LTAuNTUtMC42NS0wLjgzICAgICBjLTAuNDYtMC41NC0wLjcyLTAuNDYtMS4xOCwwYy0wLjgzLDAuOTItMS43NSwxLjg1LTIuNjUsMi41N2MtMC44MywwLjc0LTAuNjQsMS4xMSwwLjA5LDEuNjVjMC4wOSwwLjE4LDAuMzcsMC4yOCwwLjU1LDAuNDYgICAgIGMtMC42NCwxLjExLTEuMTksMi4yOS0xLjQ3LDMuNjhjLTAuMzYsMC0wLjgyLTAuMTgtMS4xLTAuMWMtMC4wOCwwLTAuMDgsMC0wLjE4LDBjLTAuNjMtMC4wOC0wLjcyLDAuMjgtMC43MiwwLjkyICAgICBjMC4wOSwxLjE5LDAuMDksMi4zOSwwLDMuNWMtMC4xLDAuOSwwLjI3LDEuMjgsMSwxLjFjMC4zNi0wLjEsMC42NC0wLjEsMC45MiwwYzAuMjcsMS4yOSwwLjgxLDIuNDcsMS40NSwzLjU4bDAsMCAgICAgYy0wLjI2LDAuMTgtMC40NSwwLjQ2LTAuNzIsMC42NGMtMC41NSwwLjM2LTAuNjUsMC42NC0wLjEsMS4xOWMxLDAuOTIsMS45MiwxLjkzLDIuOTMsMi44NWMwLjQ2LDAuNTQsMC43MiwwLjU0LDEuMTgsMCAgICAgYzAuMTktMC4xOCwwLjM3LTAuNDYsMC42NS0wLjY0YzEuMDgsMC43MiwyLjM3LDEuMTgsMy43MywxLjU2YzAsMC4xOC0wLjA4LDAuNDUtMC4wOCwwLjkxYy0wLjE4LDAuNzQsMC4yNywwLjkyLDAuODIsMC45MiAgICAgYzEuMTktMC4xLDIuMjgtMC4xLDMuNDgsMGMwLjksMC4wOCwxLjI3LTAuMjgsMS4wOS0xLjM4YzAtMC4xOCwwLTAuMzcsMC0wLjQ1YzEuMzYtMC4yOCwyLjY1LTAuODQsMy43NS0xLjU2ICAgICBjMC4xOCwwLjA4LDAuMzYsMC4zNiwwLjU0LDAuNjRjMC4zNywwLjU0LDAuNzMsMC42NCwxLjI5LDBjMC44MS0wLjkyLDEuODEtMS44NSwyLjczLTIuNjdjMC40Ni0wLjQ2LDAuNjQtMC45MSwwLTEuMjkgICAgIGMtMC4zNi0wLjE4LTAuNTQtMC4zNi0wLjczLTAuNTRjMC43My0xLjE5LDEuMjctMi4zOSwxLjU1LTMuNzZjMC42NSwwLDEuNDcsMC4zNiwxLjczLTAuMkMyNy42LDI1LjcxLDI3LjMzLDI0LjcxLDI3LjMzLDIzLjc4ICAgICBMMjcuMzMsMjMuNzh6IE0xMy43MSwzMS4wNGMtNC4wMSwwLTcuMjEtMy4yLTcuMjEtNy4yNmMwLTQuMDQsMy4yLTcuMjUsNy4yMS03LjI1YzQuMDIsMCw3LjIyLDMuMjEsNy4yMiw3LjI1ICAgICBDMjAuOTMsMjcuODQsMTcuNzMsMzEuMDQsMTMuNzEsMzEuMDR6Ii8+JiN4YTsJCTwvZz4mI3hhOwkJPGcgaWQ9InNoYXBlNDA5Ni02IiB0cmFuc2Zvcm09InRyYW5zbGF0ZSgxMS4zODM5LC0xMS42MjYpIj4mI3hhOwkJCTx0aXRsZSBpZD0idGl0bGU0Njk1Ij5TaGVldC40MDk2PC90aXRsZT4mI3hhOwkJCTxwYXRoIGlkPSJwYXRoNDY5NyIgaW5rc2NhcGU6Y29ubmVjdG9yLWN1cnZhdHVyZT0iMCIgc3R5bGU9ImZpbGw6IzNGNTc2NTsiIGQ9Ik0wLDMwLjQxYzAtMy45NCwzLjI1LTcuMTYsNy4yNS03LjE2ICAgICBjNC4wMiwwLDcuMjYsMy4yMiw3LjI2LDcuMTZjMCwzLjk1LTMuMjQsNy4xNS03LjI2LDcuMTVDMy4yNSwzNy41NiwwLDM0LjM2LDAsMzAuNDF6Ii8+JiN4YTsJCTwvZz4mI3hhOwkJPGcgaWQ9InNoYXBlNDA5Ny04IiB0cmFuc2Zvcm09InRyYW5zbGF0ZSgxNC44NDM4LC0xNi44ODAxKSI+JiN4YTsJCQk8dGl0bGUgaWQ9InRpdGxlNDcwMCI+U2hlZXQuNDA5NzwvdGl0bGU+JiN4YTsJCQkmI3hhOwkJCQk8cGF0aCBpZD0icGF0aDQ3MDIiIGlua3NjYXBlOmNvbm5lY3Rvci1jdXJ2YXR1cmU9IjAiIHN0eWxlPSJmaWxsOm5vbmU7c3Ryb2tlOiNGRkZGRkY7c3Ryb2tlLXdpZHRoOjEuODI1NTtzdHJva2UtbGluZWNhcDpyb3VuZDtzdHJva2UtbGluZWpvaW46cm91bmQ7c3Ryb2tlLW1pdGVybGltaXQ6MzsiIGQ9IiAgICAgTTAsMzIuNWMwLTAuNTMsMC40NS0wLjk4LDAuOTgtMC45OGgzLjg2YzAuNTMsMCwwLjk2LDAuNDUsMC45NiwwLjk4djQuMWMwLDAuNTMtMC40MywwLjk2LTAuOTYsMC45NkgwLjk4ICAgICBDMC40NSwzNy41NiwwLDM3LjEzLDAsMzYuNlYzMi41eiIvPiYjeGE7CQk8L2c+JiN4YTsJCTxnIGlkPSJzaGFwZTQwOTgtMTAiIHRyYW5zZm9ybT0idHJhbnNsYXRlKDE3LjA3NTksLTE0LjY0NDMpIj4mI3hhOwkJCTx0aXRsZSBpZD0idGl0bGU0NzA1Ij5TaGVldC40MDk4PC90aXRsZT4mI3hhOwkJCSYjeGE7CQkJCTxwYXRoIGlkPSJwYXRoNDcwNyIgaW5rc2NhcGU6Y29ubmVjdG9yLWN1cnZhdHVyZT0iMCIgc3R5bGU9ImZpbGw6bm9uZTtzdHJva2U6I0ZGRkZGRjtzdHJva2Utd2lkdGg6MS44MjU1O3N0cm9rZS1saW5lY2FwOnJvdW5kO3N0cm9rZS1saW5lam9pbjpyb3VuZDtzdHJva2UtbWl0ZXJsaW1pdDozOyIgZD0iICAgICBNMCwzMi43M2MwLTAuNTMsMC40NS0wLjk4LDAuOTgtMC45OGg0LjA4YzAuNTMsMCwwLjk3LDAuNDUsMC45NywwLjk4djMuODdjMCwwLjUzLTAuNDQsMC45Ni0wLjk3LDAuOTZIMC45OCAgICAgQzAuNDUsMzcuNTYsMCwzNy4xMywwLDM2LjZWMzIuNzN6Ii8+JiN4YTsJCTwvZz4mI3hhOwk8L2c+JiN4YTs8L2c+JiN4YTs8L3N2Zz4=;" vertex="1" parent="1">
          <mxGeometry x="510" y="1096" width="38" height="38" as="geometry" />
        </mxCell>
        <mxCell id="UOPAoyRl8zIuu1TyD0ZJ-51" style="edgeStyle=orthogonalEdgeStyle;rounded=0;orthogonalLoop=1;jettySize=auto;html=1;exitX=0.5;exitY=0;exitDx=0;exitDy=0;entryX=0.5;entryY=1;entryDx=0;entryDy=0;" edge="1" parent="1" source="UOPAoyRl8zIuu1TyD0ZJ-22" target="UOPAoyRl8zIuu1TyD0ZJ-19">
          <mxGeometry relative="1" as="geometry" />
        </mxCell>
        <mxCell id="UOPAoyRl8zIuu1TyD0ZJ-52" style="edgeStyle=orthogonalEdgeStyle;rounded=0;orthogonalLoop=1;jettySize=auto;html=1;exitX=1;exitY=0.5;exitDx=0;exitDy=0;entryX=0;entryY=0.5;entryDx=0;entryDy=0;" edge="1" parent="1" source="UOPAoyRl8zIuu1TyD0ZJ-22" target="UOPAoyRl8zIuu1TyD0ZJ-18">
          <mxGeometry relative="1" as="geometry" />
        </mxCell>
        <mxCell id="UOPAoyRl8zIuu1TyD0ZJ-22" value="超脑" style="shape=image;verticalLabelPosition=bottom;labelBackgroundColor=#ffffff;verticalAlign=top;aspect=fixed;imageAspect=0;image=data:image/svg+xml,PHN2ZyB4bWxuczpjYz0iaHR0cDovL2NyZWF0aXZlY29tbW9ucy5vcmcvbnMjIiB4bWxuczpkYz0iaHR0cDovL3B1cmwub3JnL2RjL2VsZW1lbnRzLzEuMS8iIHhtbG5zOmlua3NjYXBlPSJodHRwOi8vd3d3Lmlua3NjYXBlLm9yZy9uYW1lc3BhY2VzL2lua3NjYXBlIiB4bWxuczpyZGY9Imh0dHA6Ly93d3cudzMub3JnLzE5OTkvMDIvMjItcmRmLXN5bnRheC1ucyMiIHhtbG5zOnNvZGlwb2RpPSJodHRwOi8vc29kaXBvZGkuc291cmNlZm9yZ2UubmV0L0RURC9zb2RpcG9kaS0wLmR0ZCIgeG1sbnM6c3ZnPSJodHRwOi8vd3d3LnczLm9yZy8yMDAwL3N2ZyIgeG1sbnM9Imh0dHA6Ly93d3cudzMub3JnLzIwMDAvc3ZnIiB4bWxuczp4bGluaz0iaHR0cDovL3d3dy53My5vcmcvMTk5OS94bGluayIgdmVyc2lvbj0iMS4xIiBpZD0ic3ZnNDcxMyIgaW5rc2NhcGU6dmVyc2lvbj0iMC45Mi4zICgyNDA1NTQ2LCAyMDE4LTAzLTExKSIgc29kaXBvZGk6ZG9jbmFtZT0iZW50aXR5X2xpbmtpbmdfc2VydmljZS5zdmciIHg9IjBweCIgeT0iMHB4IiB2aWV3Qm94PSIwIDAgMzcuNSAzNy41NiIgc3R5bGU9ImVuYWJsZS1iYWNrZ3JvdW5kOm5ldyAwIDAgMzcuNSAzNy41NjsiIHhtbDpzcGFjZT0icHJlc2VydmUiPiYjeGE7PHNvZGlwb2RpOm5hbWVkdmlldyBib3JkZXJjb2xvcj0iIzY2NjY2NiIgYm9yZGVyb3BhY2l0eT0iMSIgZml0LW1hcmdpbi1ib3R0b209IjAiIGZpdC1tYXJnaW4tbGVmdD0iMCIgZml0LW1hcmdpbi1yaWdodD0iMCIgZml0LW1hcmdpbi10b3A9IjAiIGdyaWR0b2xlcmFuY2U9IjEwIiBndWlkZXRvbGVyYW5jZT0iMTAiIGlkPSJuYW1lZHZpZXc0NzE1IiBpbmtzY2FwZTpjdXJyZW50LWxheWVyPSJzdmc0NzEzIiBpbmtzY2FwZTpjeD0iMjEuMDMwOTczIiBpbmtzY2FwZTpjeT0iMTYuOTQzNjkyIiBpbmtzY2FwZTpwYWdlb3BhY2l0eT0iMCIgaW5rc2NhcGU6cGFnZXNoYWRvdz0iMiIgaW5rc2NhcGU6d2luZG93LWhlaWdodD0iMTAxNyIgaW5rc2NhcGU6d2luZG93LW1heGltaXplZD0iMSIgaW5rc2NhcGU6d2luZG93LXdpZHRoPSIxOTIwIiBpbmtzY2FwZTp3aW5kb3cteD0iLTgiIGlua3NjYXBlOndpbmRvdy15PSItOCIgaW5rc2NhcGU6em9vbT0iMTIuMjQxMzMyIiBvYmplY3R0b2xlcmFuY2U9IjEwIiBwYWdlY29sb3I9IiNmZmZmZmYiIHNob3dncmlkPSJmYWxzZSI+JiN4YTsJPC9zb2RpcG9kaTpuYW1lZHZpZXc+JiN4YTs8ZyBpZD0iZzQ3MTEiPiYjeGE7CTx0aXRsZSBpZD0idGl0bGU0NjgxIj5QYWdlLTE8L3RpdGxlPiYjeGE7CTxnIGlkPSJncm91cDQwOTMtMSI+JiN4YTsJCTx0aXRsZSBpZD0idGl0bGU0NjgzIj5FbnRpdHkgTGlua2luZyBTZXJ2aWNlPC90aXRsZT4mI3hhOwkJPGcgaWQ9InNoYXBlNDA5NC0yIj4mI3hhOwkJCTx0aXRsZSBpZD0idGl0bGU0Njg1Ij5TaGVldC40MDk0PC90aXRsZT4mI3hhOwkJCTxwYXRoIGlkPSJwYXRoNDY4NyIgaW5rc2NhcGU6Y29ubmVjdG9yLWN1cnZhdHVyZT0iMCIgc3R5bGU9ImZpbGw6IzNGNTc2NTsiIGQ9Ik0wLDB2MzcuNTZoMzcuNVYwSDB6Ii8+JiN4YTsJCTwvZz4mI3hhOwkJPGcgaWQ9InNoYXBlNDA5NS00IiB0cmFuc2Zvcm09InRyYW5zbGF0ZSg0Ljk5MzE1LC01LjAwMjU0KSI+JiN4YTsJCQk8dGl0bGUgaWQ9InRpdGxlNDY5MCI+U2hlZXQuNDA5NTwvdGl0bGU+JiN4YTsJCQk8cGF0aCBpZD0icGF0aDQ2OTIiIGlua3NjYXBlOmNvbm5lY3Rvci1jdXJ2YXR1cmU9IjAiIHN0eWxlPSJmaWxsOiNGREZERkQ7IiBkPSJNMjcuMzMsMjMuNzhjMC4wOC0wLjQ0LDAtMSwwLjA4LTEuNTUgICAgIGMwLjEtMC45Mi0wLjE4LTEuMjgtMS0xLjJjLTAuMjYsMC0wLjYzLDAuMS0wLjkxLDAuMWMtMC4zNi0xLjI5LTAuOTItMi41Ny0xLjU1LTMuNjhjMC4xOS0wLjI4LDAuNTUtMC40NiwwLjgxLTAuNjQgICAgIGMwLjQ2LTAuNDYsMC41Ni0wLjczLDAtMS4xOWMtMC45LTAuODItMS44MS0xLjY1LTIuNjMtMi42N2MtMC41Ni0wLjY0LTEuMS0wLjcyLTEuNjUsMC4xYy0wLjEsMC4xOC0wLjI4LDAuMzYtMC40NiwwLjU1ICAgICBjLTEuMS0wLjczLTIuMjktMS4xOS0zLjU2LTEuNDdjMC0wLjI4LTAuMDktMC41NSwwLTAuOTJjMC4xOC0wLjkxLTAuMTgtMS4yOS0wLjkyLTEuMTljLTEuMTgsMC4xLTIuMzcsMC4xLTMuNTUsMCAgICAgYy0wLjgzLDAtMS4xMSwwLjI4LTEuMTEsMS4xOWMwLjEsMC4yOCwwLjEsMC41NiwwLjEsMC44NGMtMS4yOCwwLjM2LTIuNTcsMC44Mi0zLjY1LDEuNTVjLTAuMTktMC4yNy0wLjM3LTAuNTUtMC42NS0wLjgzICAgICBjLTAuNDYtMC41NC0wLjcyLTAuNDYtMS4xOCwwYy0wLjgzLDAuOTItMS43NSwxLjg1LTIuNjUsMi41N2MtMC44MywwLjc0LTAuNjQsMS4xMSwwLjA5LDEuNjVjMC4wOSwwLjE4LDAuMzcsMC4yOCwwLjU1LDAuNDYgICAgIGMtMC42NCwxLjExLTEuMTksMi4yOS0xLjQ3LDMuNjhjLTAuMzYsMC0wLjgyLTAuMTgtMS4xLTAuMWMtMC4wOCwwLTAuMDgsMC0wLjE4LDBjLTAuNjMtMC4wOC0wLjcyLDAuMjgtMC43MiwwLjkyICAgICBjMC4wOSwxLjE5LDAuMDksMi4zOSwwLDMuNWMtMC4xLDAuOSwwLjI3LDEuMjgsMSwxLjFjMC4zNi0wLjEsMC42NC0wLjEsMC45MiwwYzAuMjcsMS4yOSwwLjgxLDIuNDcsMS40NSwzLjU4bDAsMCAgICAgYy0wLjI2LDAuMTgtMC40NSwwLjQ2LTAuNzIsMC42NGMtMC41NSwwLjM2LTAuNjUsMC42NC0wLjEsMS4xOWMxLDAuOTIsMS45MiwxLjkzLDIuOTMsMi44NWMwLjQ2LDAuNTQsMC43MiwwLjU0LDEuMTgsMCAgICAgYzAuMTktMC4xOCwwLjM3LTAuNDYsMC42NS0wLjY0YzEuMDgsMC43MiwyLjM3LDEuMTgsMy43MywxLjU2YzAsMC4xOC0wLjA4LDAuNDUtMC4wOCwwLjkxYy0wLjE4LDAuNzQsMC4yNywwLjkyLDAuODIsMC45MiAgICAgYzEuMTktMC4xLDIuMjgtMC4xLDMuNDgsMGMwLjksMC4wOCwxLjI3LTAuMjgsMS4wOS0xLjM4YzAtMC4xOCwwLTAuMzcsMC0wLjQ1YzEuMzYtMC4yOCwyLjY1LTAuODQsMy43NS0xLjU2ICAgICBjMC4xOCwwLjA4LDAuMzYsMC4zNiwwLjU0LDAuNjRjMC4zNywwLjU0LDAuNzMsMC42NCwxLjI5LDBjMC44MS0wLjkyLDEuODEtMS44NSwyLjczLTIuNjdjMC40Ni0wLjQ2LDAuNjQtMC45MSwwLTEuMjkgICAgIGMtMC4zNi0wLjE4LTAuNTQtMC4zNi0wLjczLTAuNTRjMC43My0xLjE5LDEuMjctMi4zOSwxLjU1LTMuNzZjMC42NSwwLDEuNDcsMC4zNiwxLjczLTAuMkMyNy42LDI1LjcxLDI3LjMzLDI0LjcxLDI3LjMzLDIzLjc4ICAgICBMMjcuMzMsMjMuNzh6IE0xMy43MSwzMS4wNGMtNC4wMSwwLTcuMjEtMy4yLTcuMjEtNy4yNmMwLTQuMDQsMy4yLTcuMjUsNy4yMS03LjI1YzQuMDIsMCw3LjIyLDMuMjEsNy4yMiw3LjI1ICAgICBDMjAuOTMsMjcuODQsMTcuNzMsMzEuMDQsMTMuNzEsMzEuMDR6Ii8+JiN4YTsJCTwvZz4mI3hhOwkJPGcgaWQ9InNoYXBlNDA5Ni02IiB0cmFuc2Zvcm09InRyYW5zbGF0ZSgxMS4zODM5LC0xMS42MjYpIj4mI3hhOwkJCTx0aXRsZSBpZD0idGl0bGU0Njk1Ij5TaGVldC40MDk2PC90aXRsZT4mI3hhOwkJCTxwYXRoIGlkPSJwYXRoNDY5NyIgaW5rc2NhcGU6Y29ubmVjdG9yLWN1cnZhdHVyZT0iMCIgc3R5bGU9ImZpbGw6IzNGNTc2NTsiIGQ9Ik0wLDMwLjQxYzAtMy45NCwzLjI1LTcuMTYsNy4yNS03LjE2ICAgICBjNC4wMiwwLDcuMjYsMy4yMiw3LjI2LDcuMTZjMCwzLjk1LTMuMjQsNy4xNS03LjI2LDcuMTVDMy4yNSwzNy41NiwwLDM0LjM2LDAsMzAuNDF6Ii8+JiN4YTsJCTwvZz4mI3hhOwkJPGcgaWQ9InNoYXBlNDA5Ny04IiB0cmFuc2Zvcm09InRyYW5zbGF0ZSgxNC44NDM4LC0xNi44ODAxKSI+JiN4YTsJCQk8dGl0bGUgaWQ9InRpdGxlNDcwMCI+U2hlZXQuNDA5NzwvdGl0bGU+JiN4YTsJCQkmI3hhOwkJCQk8cGF0aCBpZD0icGF0aDQ3MDIiIGlua3NjYXBlOmNvbm5lY3Rvci1jdXJ2YXR1cmU9IjAiIHN0eWxlPSJmaWxsOm5vbmU7c3Ryb2tlOiNGRkZGRkY7c3Ryb2tlLXdpZHRoOjEuODI1NTtzdHJva2UtbGluZWNhcDpyb3VuZDtzdHJva2UtbGluZWpvaW46cm91bmQ7c3Ryb2tlLW1pdGVybGltaXQ6MzsiIGQ9IiAgICAgTTAsMzIuNWMwLTAuNTMsMC40NS0wLjk4LDAuOTgtMC45OGgzLjg2YzAuNTMsMCwwLjk2LDAuNDUsMC45NiwwLjk4djQuMWMwLDAuNTMtMC40MywwLjk2LTAuOTYsMC45NkgwLjk4ICAgICBDMC40NSwzNy41NiwwLDM3LjEzLDAsMzYuNlYzMi41eiIvPiYjeGE7CQk8L2c+JiN4YTsJCTxnIGlkPSJzaGFwZTQwOTgtMTAiIHRyYW5zZm9ybT0idHJhbnNsYXRlKDE3LjA3NTksLTE0LjY0NDMpIj4mI3hhOwkJCTx0aXRsZSBpZD0idGl0bGU0NzA1Ij5TaGVldC40MDk4PC90aXRsZT4mI3hhOwkJCSYjeGE7CQkJCTxwYXRoIGlkPSJwYXRoNDcwNyIgaW5rc2NhcGU6Y29ubmVjdG9yLWN1cnZhdHVyZT0iMCIgc3R5bGU9ImZpbGw6bm9uZTtzdHJva2U6I0ZGRkZGRjtzdHJva2Utd2lkdGg6MS44MjU1O3N0cm9rZS1saW5lY2FwOnJvdW5kO3N0cm9rZS1saW5lam9pbjpyb3VuZDtzdHJva2UtbWl0ZXJsaW1pdDozOyIgZD0iICAgICBNMCwzMi43M2MwLTAuNTMsMC40NS0wLjk4LDAuOTgtMC45OGg0LjA4YzAuNTMsMCwwLjk3LDAuNDUsMC45NywwLjk4djMuODdjMCwwLjUzLTAuNDQsMC45Ni0wLjk3LDAuOTZIMC45OCAgICAgQzAuNDUsMzcuNTYsMCwzNy4xMywwLDM2LjZWMzIuNzN6Ii8+JiN4YTsJCTwvZz4mI3hhOwk8L2c+JiN4YTs8L2c+JiN4YTs8L3N2Zz4=;" vertex="1" parent="1">
          <mxGeometry x="607.54" y="1096" width="38" height="38" as="geometry" />
        </mxCell>
        <mxCell id="UOPAoyRl8zIuu1TyD0ZJ-50" style="edgeStyle=orthogonalEdgeStyle;rounded=0;orthogonalLoop=1;jettySize=auto;html=1;exitX=0.5;exitY=0;exitDx=0;exitDy=0;" edge="1" parent="1" source="UOPAoyRl8zIuu1TyD0ZJ-23" target="UOPAoyRl8zIuu1TyD0ZJ-22">
          <mxGeometry relative="1" as="geometry" />
        </mxCell>
        <mxCell id="UOPAoyRl8zIuu1TyD0ZJ-23" value="nvr" style="shape=image;verticalLabelPosition=bottom;labelBackgroundColor=#ffffff;verticalAlign=top;aspect=fixed;imageAspect=0;image=data:image/svg+xml,PHN2ZyB4bWxuczpjYz0iaHR0cDovL2NyZWF0aXZlY29tbW9ucy5vcmcvbnMjIiB4bWxuczpkYz0iaHR0cDovL3B1cmwub3JnL2RjL2VsZW1lbnRzLzEuMS8iIHhtbG5zOmlua3NjYXBlPSJodHRwOi8vd3d3Lmlua3NjYXBlLm9yZy9uYW1lc3BhY2VzL2lua3NjYXBlIiB4bWxuczpyZGY9Imh0dHA6Ly93d3cudzMub3JnLzE5OTkvMDIvMjItcmRmLXN5bnRheC1ucyMiIHhtbG5zOnNvZGlwb2RpPSJodHRwOi8vc29kaXBvZGkuc291cmNlZm9yZ2UubmV0L0RURC9zb2RpcG9kaS0wLmR0ZCIgeG1sbnM6c3ZnPSJodHRwOi8vd3d3LnczLm9yZy8yMDAwL3N2ZyIgeG1sbnM9Imh0dHA6Ly93d3cudzMub3JnLzIwMDAvc3ZnIiB4bWxuczp4bGluaz0iaHR0cDovL3d3dy53My5vcmcvMTk5OS94bGluayIgdmVyc2lvbj0iMS4xIiBpZD0ic3ZnNDcxMyIgaW5rc2NhcGU6dmVyc2lvbj0iMC45Mi4zICgyNDA1NTQ2LCAyMDE4LTAzLTExKSIgc29kaXBvZGk6ZG9jbmFtZT0iZW50aXR5X2xpbmtpbmdfc2VydmljZS5zdmciIHg9IjBweCIgeT0iMHB4IiB2aWV3Qm94PSIwIDAgMzcuNSAzNy41NiIgc3R5bGU9ImVuYWJsZS1iYWNrZ3JvdW5kOm5ldyAwIDAgMzcuNSAzNy41NjsiIHhtbDpzcGFjZT0icHJlc2VydmUiPiYjeGE7PHNvZGlwb2RpOm5hbWVkdmlldyBib3JkZXJjb2xvcj0iIzY2NjY2NiIgYm9yZGVyb3BhY2l0eT0iMSIgZml0LW1hcmdpbi1ib3R0b209IjAiIGZpdC1tYXJnaW4tbGVmdD0iMCIgZml0LW1hcmdpbi1yaWdodD0iMCIgZml0LW1hcmdpbi10b3A9IjAiIGdyaWR0b2xlcmFuY2U9IjEwIiBndWlkZXRvbGVyYW5jZT0iMTAiIGlkPSJuYW1lZHZpZXc0NzE1IiBpbmtzY2FwZTpjdXJyZW50LWxheWVyPSJzdmc0NzEzIiBpbmtzY2FwZTpjeD0iMjEuMDMwOTczIiBpbmtzY2FwZTpjeT0iMTYuOTQzNjkyIiBpbmtzY2FwZTpwYWdlb3BhY2l0eT0iMCIgaW5rc2NhcGU6cGFnZXNoYWRvdz0iMiIgaW5rc2NhcGU6d2luZG93LWhlaWdodD0iMTAxNyIgaW5rc2NhcGU6d2luZG93LW1heGltaXplZD0iMSIgaW5rc2NhcGU6d2luZG93LXdpZHRoPSIxOTIwIiBpbmtzY2FwZTp3aW5kb3cteD0iLTgiIGlua3NjYXBlOndpbmRvdy15PSItOCIgaW5rc2NhcGU6em9vbT0iMTIuMjQxMzMyIiBvYmplY3R0b2xlcmFuY2U9IjEwIiBwYWdlY29sb3I9IiNmZmZmZmYiIHNob3dncmlkPSJmYWxzZSI+JiN4YTsJPC9zb2RpcG9kaTpuYW1lZHZpZXc+JiN4YTs8ZyBpZD0iZzQ3MTEiPiYjeGE7CTx0aXRsZSBpZD0idGl0bGU0NjgxIj5QYWdlLTE8L3RpdGxlPiYjeGE7CTxnIGlkPSJncm91cDQwOTMtMSI+JiN4YTsJCTx0aXRsZSBpZD0idGl0bGU0NjgzIj5FbnRpdHkgTGlua2luZyBTZXJ2aWNlPC90aXRsZT4mI3hhOwkJPGcgaWQ9InNoYXBlNDA5NC0yIj4mI3hhOwkJCTx0aXRsZSBpZD0idGl0bGU0Njg1Ij5TaGVldC40MDk0PC90aXRsZT4mI3hhOwkJCTxwYXRoIGlkPSJwYXRoNDY4NyIgaW5rc2NhcGU6Y29ubmVjdG9yLWN1cnZhdHVyZT0iMCIgc3R5bGU9ImZpbGw6IzNGNTc2NTsiIGQ9Ik0wLDB2MzcuNTZoMzcuNVYwSDB6Ii8+JiN4YTsJCTwvZz4mI3hhOwkJPGcgaWQ9InNoYXBlNDA5NS00IiB0cmFuc2Zvcm09InRyYW5zbGF0ZSg0Ljk5MzE1LC01LjAwMjU0KSI+JiN4YTsJCQk8dGl0bGUgaWQ9InRpdGxlNDY5MCI+U2hlZXQuNDA5NTwvdGl0bGU+JiN4YTsJCQk8cGF0aCBpZD0icGF0aDQ2OTIiIGlua3NjYXBlOmNvbm5lY3Rvci1jdXJ2YXR1cmU9IjAiIHN0eWxlPSJmaWxsOiNGREZERkQ7IiBkPSJNMjcuMzMsMjMuNzhjMC4wOC0wLjQ0LDAtMSwwLjA4LTEuNTUgICAgIGMwLjEtMC45Mi0wLjE4LTEuMjgtMS0xLjJjLTAuMjYsMC0wLjYzLDAuMS0wLjkxLDAuMWMtMC4zNi0xLjI5LTAuOTItMi41Ny0xLjU1LTMuNjhjMC4xOS0wLjI4LDAuNTUtMC40NiwwLjgxLTAuNjQgICAgIGMwLjQ2LTAuNDYsMC41Ni0wLjczLDAtMS4xOWMtMC45LTAuODItMS44MS0xLjY1LTIuNjMtMi42N2MtMC41Ni0wLjY0LTEuMS0wLjcyLTEuNjUsMC4xYy0wLjEsMC4xOC0wLjI4LDAuMzYtMC40NiwwLjU1ICAgICBjLTEuMS0wLjczLTIuMjktMS4xOS0zLjU2LTEuNDdjMC0wLjI4LTAuMDktMC41NSwwLTAuOTJjMC4xOC0wLjkxLTAuMTgtMS4yOS0wLjkyLTEuMTljLTEuMTgsMC4xLTIuMzcsMC4xLTMuNTUsMCAgICAgYy0wLjgzLDAtMS4xMSwwLjI4LTEuMTEsMS4xOWMwLjEsMC4yOCwwLjEsMC41NiwwLjEsMC44NGMtMS4yOCwwLjM2LTIuNTcsMC44Mi0zLjY1LDEuNTVjLTAuMTktMC4yNy0wLjM3LTAuNTUtMC42NS0wLjgzICAgICBjLTAuNDYtMC41NC0wLjcyLTAuNDYtMS4xOCwwYy0wLjgzLDAuOTItMS43NSwxLjg1LTIuNjUsMi41N2MtMC44MywwLjc0LTAuNjQsMS4xMSwwLjA5LDEuNjVjMC4wOSwwLjE4LDAuMzcsMC4yOCwwLjU1LDAuNDYgICAgIGMtMC42NCwxLjExLTEuMTksMi4yOS0xLjQ3LDMuNjhjLTAuMzYsMC0wLjgyLTAuMTgtMS4xLTAuMWMtMC4wOCwwLTAuMDgsMC0wLjE4LDBjLTAuNjMtMC4wOC0wLjcyLDAuMjgtMC43MiwwLjkyICAgICBjMC4wOSwxLjE5LDAuMDksMi4zOSwwLDMuNWMtMC4xLDAuOSwwLjI3LDEuMjgsMSwxLjFjMC4zNi0wLjEsMC42NC0wLjEsMC45MiwwYzAuMjcsMS4yOSwwLjgxLDIuNDcsMS40NSwzLjU4bDAsMCAgICAgYy0wLjI2LDAuMTgtMC40NSwwLjQ2LTAuNzIsMC42NGMtMC41NSwwLjM2LTAuNjUsMC42NC0wLjEsMS4xOWMxLDAuOTIsMS45MiwxLjkzLDIuOTMsMi44NWMwLjQ2LDAuNTQsMC43MiwwLjU0LDEuMTgsMCAgICAgYzAuMTktMC4xOCwwLjM3LTAuNDYsMC42NS0wLjY0YzEuMDgsMC43MiwyLjM3LDEuMTgsMy43MywxLjU2YzAsMC4xOC0wLjA4LDAuNDUtMC4wOCwwLjkxYy0wLjE4LDAuNzQsMC4yNywwLjkyLDAuODIsMC45MiAgICAgYzEuMTktMC4xLDIuMjgtMC4xLDMuNDgsMGMwLjksMC4wOCwxLjI3LTAuMjgsMS4wOS0xLjM4YzAtMC4xOCwwLTAuMzcsMC0wLjQ1YzEuMzYtMC4yOCwyLjY1LTAuODQsMy43NS0xLjU2ICAgICBjMC4xOCwwLjA4LDAuMzYsMC4zNiwwLjU0LDAuNjRjMC4zNywwLjU0LDAuNzMsMC42NCwxLjI5LDBjMC44MS0wLjkyLDEuODEtMS44NSwyLjczLTIuNjdjMC40Ni0wLjQ2LDAuNjQtMC45MSwwLTEuMjkgICAgIGMtMC4zNi0wLjE4LTAuNTQtMC4zNi0wLjczLTAuNTRjMC43My0xLjE5LDEuMjctMi4zOSwxLjU1LTMuNzZjMC42NSwwLDEuNDcsMC4zNiwxLjczLTAuMkMyNy42LDI1LjcxLDI3LjMzLDI0LjcxLDI3LjMzLDIzLjc4ICAgICBMMjcuMzMsMjMuNzh6IE0xMy43MSwzMS4wNGMtNC4wMSwwLTcuMjEtMy4yLTcuMjEtNy4yNmMwLTQuMDQsMy4yLTcuMjUsNy4yMS03LjI1YzQuMDIsMCw3LjIyLDMuMjEsNy4yMiw3LjI1ICAgICBDMjAuOTMsMjcuODQsMTcuNzMsMzEuMDQsMTMuNzEsMzEuMDR6Ii8+JiN4YTsJCTwvZz4mI3hhOwkJPGcgaWQ9InNoYXBlNDA5Ni02IiB0cmFuc2Zvcm09InRyYW5zbGF0ZSgxMS4zODM5LC0xMS42MjYpIj4mI3hhOwkJCTx0aXRsZSBpZD0idGl0bGU0Njk1Ij5TaGVldC40MDk2PC90aXRsZT4mI3hhOwkJCTxwYXRoIGlkPSJwYXRoNDY5NyIgaW5rc2NhcGU6Y29ubmVjdG9yLWN1cnZhdHVyZT0iMCIgc3R5bGU9ImZpbGw6IzNGNTc2NTsiIGQ9Ik0wLDMwLjQxYzAtMy45NCwzLjI1LTcuMTYsNy4yNS03LjE2ICAgICBjNC4wMiwwLDcuMjYsMy4yMiw3LjI2LDcuMTZjMCwzLjk1LTMuMjQsNy4xNS03LjI2LDcuMTVDMy4yNSwzNy41NiwwLDM0LjM2LDAsMzAuNDF6Ii8+JiN4YTsJCTwvZz4mI3hhOwkJPGcgaWQ9InNoYXBlNDA5Ny04IiB0cmFuc2Zvcm09InRyYW5zbGF0ZSgxNC44NDM4LC0xNi44ODAxKSI+JiN4YTsJCQk8dGl0bGUgaWQ9InRpdGxlNDcwMCI+U2hlZXQuNDA5NzwvdGl0bGU+JiN4YTsJCQkmI3hhOwkJCQk8cGF0aCBpZD0icGF0aDQ3MDIiIGlua3NjYXBlOmNvbm5lY3Rvci1jdXJ2YXR1cmU9IjAiIHN0eWxlPSJmaWxsOm5vbmU7c3Ryb2tlOiNGRkZGRkY7c3Ryb2tlLXdpZHRoOjEuODI1NTtzdHJva2UtbGluZWNhcDpyb3VuZDtzdHJva2UtbGluZWpvaW46cm91bmQ7c3Ryb2tlLW1pdGVybGltaXQ6MzsiIGQ9IiAgICAgTTAsMzIuNWMwLTAuNTMsMC40NS0wLjk4LDAuOTgtMC45OGgzLjg2YzAuNTMsMCwwLjk2LDAuNDUsMC45NiwwLjk4djQuMWMwLDAuNTMtMC40MywwLjk2LTAuOTYsMC45NkgwLjk4ICAgICBDMC40NSwzNy41NiwwLDM3LjEzLDAsMzYuNlYzMi41eiIvPiYjeGE7CQk8L2c+JiN4YTsJCTxnIGlkPSJzaGFwZTQwOTgtMTAiIHRyYW5zZm9ybT0idHJhbnNsYXRlKDE3LjA3NTksLTE0LjY0NDMpIj4mI3hhOwkJCTx0aXRsZSBpZD0idGl0bGU0NzA1Ij5TaGVldC40MDk4PC90aXRsZT4mI3hhOwkJCSYjeGE7CQkJCTxwYXRoIGlkPSJwYXRoNDcwNyIgaW5rc2NhcGU6Y29ubmVjdG9yLWN1cnZhdHVyZT0iMCIgc3R5bGU9ImZpbGw6bm9uZTtzdHJva2U6I0ZGRkZGRjtzdHJva2Utd2lkdGg6MS44MjU1O3N0cm9rZS1saW5lY2FwOnJvdW5kO3N0cm9rZS1saW5lam9pbjpyb3VuZDtzdHJva2UtbWl0ZXJsaW1pdDozOyIgZD0iICAgICBNMCwzMi43M2MwLTAuNTMsMC40NS0wLjk4LDAuOTgtMC45OGg0LjA4YzAuNTMsMCwwLjk3LDAuNDUsMC45NywwLjk4djMuODdjMCwwLjUzLTAuNDQsMC45Ni0wLjk3LDAuOTZIMC45OCAgICAgQzAuNDUsMzcuNTYsMCwzNy4xMywwLDM2LjZWMzIuNzN6Ii8+JiN4YTsJCTwvZz4mI3hhOwk8L2c+JiN4YTs8L2c+JiN4YTs8L3N2Zz4=;" vertex="1" parent="1">
          <mxGeometry x="607.54" y="1176" width="38" height="38" as="geometry" />
        </mxCell>
        <mxCell id="UOPAoyRl8zIuu1TyD0ZJ-46" style="edgeStyle=orthogonalEdgeStyle;rounded=0;orthogonalLoop=1;jettySize=auto;html=1;exitX=0.5;exitY=0;exitDx=0;exitDy=0;entryX=0.5;entryY=1;entryDx=0;entryDy=0;" edge="1" parent="1" source="UOPAoyRl8zIuu1TyD0ZJ-40" target="UOPAoyRl8zIuu1TyD0ZJ-8">
          <mxGeometry relative="1" as="geometry" />
        </mxCell>
        <mxCell id="UOPAoyRl8zIuu1TyD0ZJ-40" value="lsc" style="shape=image;verticalLabelPosition=bottom;labelBackgroundColor=#ffffff;verticalAlign=top;aspect=fixed;imageAspect=0;image=data:image/svg+xml,PHN2ZyB4bWxuczpjYz0iaHR0cDovL2NyZWF0aXZlY29tbW9ucy5vcmcvbnMjIiB4bWxuczpkYz0iaHR0cDovL3B1cmwub3JnL2RjL2VsZW1lbnRzLzEuMS8iIHhtbG5zOmlua3NjYXBlPSJodHRwOi8vd3d3Lmlua3NjYXBlLm9yZy9uYW1lc3BhY2VzL2lua3NjYXBlIiB4bWxuczpyZGY9Imh0dHA6Ly93d3cudzMub3JnLzE5OTkvMDIvMjItcmRmLXN5bnRheC1ucyMiIHhtbG5zOnNvZGlwb2RpPSJodHRwOi8vc29kaXBvZGkuc291cmNlZm9yZ2UubmV0L0RURC9zb2RpcG9kaS0wLmR0ZCIgeG1sbnM6c3ZnPSJodHRwOi8vd3d3LnczLm9yZy8yMDAwL3N2ZyIgeG1sbnM9Imh0dHA6Ly93d3cudzMub3JnLzIwMDAvc3ZnIiB4bWxuczp4bGluaz0iaHR0cDovL3d3dy53My5vcmcvMTk5OS94bGluayIgdmVyc2lvbj0iMS4xIiBpZD0ic3ZnMjA2ODEiIGlua3NjYXBlOnZlcnNpb249IjAuOTIuMyAoMjQwNTU0NiwgMjAxOC0wMy0xMSkiIHNvZGlwb2RpOmRvY25hbWU9InNlcnZlcl9ibHVlLnN2ZyIgeD0iMHB4IiB5PSIwcHgiIHZpZXdCb3g9IjAgMCAyNyA0Ni41IiBzdHlsZT0iZW5hYmxlLWJhY2tncm91bmQ6bmV3IDAgMCAyNyA0Ni41OyIgeG1sOnNwYWNlPSJwcmVzZXJ2ZSI+JiN4YTs8c29kaXBvZGk6bmFtZWR2aWV3IGJvcmRlcmNvbG9yPSIjNjY2NjY2IiBib3JkZXJvcGFjaXR5PSIxIiBmaXQtbWFyZ2luLWJvdHRvbT0iMCIgZml0LW1hcmdpbi1sZWZ0PSIwIiBmaXQtbWFyZ2luLXJpZ2h0PSIwIiBmaXQtbWFyZ2luLXRvcD0iMCIgZ3JpZHRvbGVyYW5jZT0iMTAiIGd1aWRldG9sZXJhbmNlPSIxMCIgaWQ9Im5hbWVkdmlldzIwNjgzIiBpbmtzY2FwZTpjdXJyZW50LWxheWVyPSJzdmcyMDY4MSIgaW5rc2NhcGU6Y3g9IjE3Ljk5OTk4NCIgaW5rc2NhcGU6Y3k9IjMwLjk5OTk3MiIgaW5rc2NhcGU6cGFnZW9wYWNpdHk9IjAiIGlua3NjYXBlOnBhZ2VzaGFkb3c9IjIiIGlua3NjYXBlOndpbmRvdy1oZWlnaHQ9IjEwMTciIGlua3NjYXBlOndpbmRvdy1tYXhpbWl6ZWQ9IjEiIGlua3NjYXBlOndpbmRvdy13aWR0aD0iMTkyMCIgaW5rc2NhcGU6d2luZG93LXg9Ii04IiBpbmtzY2FwZTp3aW5kb3cteT0iLTgiIGlua3NjYXBlOnpvb209IjEzLjU0Njg2OSIgb2JqZWN0dG9sZXJhbmNlPSIxMCIgcGFnZWNvbG9yPSIjZmZmZmZmIiBzaG93Z3JpZD0iZmFsc2UiPiYjeGE7CTwvc29kaXBvZGk6bmFtZWR2aWV3PiYjeGE7PGcgaWQ9ImcyMDY3OSIgdHJhbnNmb3JtPSJ0cmFuc2xhdGUoLTAuNzUsLTAuNzUwMDMzMTMpIj4mI3hhOwk8dGl0bGUgaWQ9InRpdGxlMjA1NjkiPlBhZ2UtMTwvdGl0bGU+JiN4YTsJPGcgaWQ9Imdyb3VwNzU1OC0xIiB0cmFuc2Zvcm09InRyYW5zbGF0ZSgwLjc1LC0wLjc1KSI+JiN4YTsJCTx0aXRsZSBpZD0idGl0bGUyMDU3MSI+U2VydmVyIChCbHVlKTwvdGl0bGU+JiN4YTsJCTxnIGlkPSJzaGFwZTc1NTktMiIgdHJhbnNmb3JtPSJ0cmFuc2xhdGUoMTYuNSwtNDUpIj4mI3hhOwkJCTx0aXRsZSBpZD0idGl0bGUyMDU3MyI+cmVjdDEwMzU8L3RpdGxlPiYjeGE7CQkJPHJlY3QgaWQ9InJlY3QyMDU3NSIgeT0iNDYuNSIgc3R5bGU9ImZpbGw6I0ZGRkZGRjsiIHdpZHRoPSIxLjUiIGhlaWdodD0iMS41Ii8+JiN4YTsJCTwvZz4mI3hhOwkJPGcgaWQ9InNoYXBlNzU2MC00IiB0cmFuc2Zvcm09InRyYW5zbGF0ZSgxNi41LC00MC41KSI+JiN4YTsJCQk8dGl0bGUgaWQ9InRpdGxlMjA1NzgiPnJlY3QxMDM3PC90aXRsZT4mI3hhOwkJCTxyZWN0IGlkPSJyZWN0MjA1ODAiIHk9IjQ2LjUiIHN0eWxlPSJmaWxsOiNGRkZGRkY7IiB3aWR0aD0iMS41IiBoZWlnaHQ9IjEuNSIvPiYjeGE7CQk8L2c+JiN4YTsJCTxnIGlkPSJzaGFwZTc1NjEtNiIgdHJhbnNmb3JtPSJ0cmFuc2xhdGUoMTYuNSwtMzYpIj4mI3hhOwkJCTx0aXRsZSBpZD0idGl0bGUyMDU4MyI+cmVjdDEwMzk8L3RpdGxlPiYjeGE7CQkJPHJlY3QgaWQ9InJlY3QyMDU4NSIgeT0iNDYuNSIgc3R5bGU9ImZpbGw6I0ZGRkZGRjsiIHdpZHRoPSIxLjUiIGhlaWdodD0iMS41Ii8+JiN4YTsJCTwvZz4mI3hhOwkJPGcgaWQ9InNoYXBlNzU2Mi04Ij4mI3hhOwkJCTx0aXRsZSBpZD0idGl0bGUyMDU4OCI+cmVjdDEwNjM8L3RpdGxlPiYjeGE7CQkJPHJlY3QgaWQ9InJlY3QyMDU5MCIgeT0iMS41IiBzdHlsZT0iZmlsbDojNTVBNUU0OyIgd2lkdGg9IjI3IiBoZWlnaHQ9IjQ2LjUiLz4mI3hhOwkJPC9nPiYjeGE7CQk8ZyBpZD0ic2hhcGU3NTYzLTEwIiB0cmFuc2Zvcm09InRyYW5zbGF0ZSgxNy4yNSkiPiYjeGE7CQkJPHRpdGxlIGlkPSJ0aXRsZTIwNTkzIj5yZWN0MTA2NTwvdGl0bGU+JiN4YTsJCQk8cmVjdCBpZD0icmVjdDIwNTk1IiB5PSIxLjUiIHN0eWxlPSJmaWxsOiMyQTZEQ0Y7IiB3aWR0aD0iOS43NSIgaGVpZ2h0PSI0Ni41Ii8+JiN4YTsJCTwvZz4mI3hhOwkJPGcgaWQ9InNoYXBlNzU2NC0xMiIgdHJhbnNmb3JtPSJ0cmFuc2xhdGUoMTUuNzUsLTMzKSI+JiN4YTsJCQk8dGl0bGUgaWQ9InRpdGxlMjA1OTgiPnJlY3QxMDY3PC90aXRsZT4mI3hhOwkJCTxyZWN0IGlkPSJyZWN0MjA2MDAiIHk9IjQ2LjUiIHdpZHRoPSI5Ljc1IiBoZWlnaHQ9IjEuNSIvPiYjeGE7CQk8L2c+JiN4YTsJCTxnIGlkPSJzaGFwZTc1NjUtMTQiIHRyYW5zZm9ybT0idHJhbnNsYXRlKDAuNzgwMDAxLC0zMykiPiYjeGE7CQkJPHRpdGxlIGlkPSJ0aXRsZTIwNjAzIj5yZWN0MTA2OTwvdGl0bGU+JiN4YTsJCQk8cmVjdCBpZD0icmVjdDIwNjA1IiB4PSIwIiB5PSI0Ni41IiBzdHlsZT0iZmlsbDojMzMzMzMzOyIgd2lkdGg9IjExLjk3IiBoZWlnaHQ9IjEuNSIvPiYjeGE7CQk8L2c+JiN4YTsJCTxnIGlkPSJzaGFwZTc1NjYtMTYiIHRyYW5zZm9ybT0idHJhbnNsYXRlKDAuNDcyNSwtNDAuNDAyNSkiPiYjeGE7CQkJPHRpdGxlIGlkPSJ0aXRsZTIwNjA4Ij5wb2x5Z29uMTA3MTwvdGl0bGU+JiN4YTsJCQk8cmVjdCBpZD0icmVjdDIwNjEwIiB4PSIwIiB5PSI0Ni41MSIgc3R5bGU9ImZpbGw6bm9uZTsiIHdpZHRoPSIxOC40NSIgaGVpZ2h0PSIxLjQ5Ii8+JiN4YTsJCTwvZz4mI3hhOwkJPGcgaWQ9InNoYXBlNzU2Ny0xOCIgdHJhbnNmb3JtPSJ0cmFuc2xhdGUoMC40NzI1LC00MC40MDI1KSI+JiN4YTsJCQk8dGl0bGUgaWQ9InRpdGxlMjA2MTMiPnBvbHlsaW5lMTA3MzwvdGl0bGU+JiN4YTsJCQk8cmVjdCBpZD0icmVjdDIwNjE1IiB4PSIwIiB5PSI0Ni41MSIgc3R5bGU9ImZpbGw6bm9uZTsiIHdpZHRoPSIxOC40NSIgaGVpZ2h0PSIxLjQ5Ii8+JiN4YTsJCTwvZz4mI3hhOwkJPGcgaWQ9InNoYXBlNzU2OC0yMCIgdHJhbnNmb3JtPSJ0cmFuc2xhdGUoMTIsLTMzKSI+JiN4YTsJCQk8dGl0bGUgaWQ9InRpdGxlMjA2MTgiPnBvbHlnb24xMDc1PC90aXRsZT4mI3hhOwkJCTxyZWN0IGlkPSJyZWN0MjA2MjAiIHk9IjQ2LjUiIHN0eWxlPSJmaWxsOiNENEU4Rjg7IiB3aWR0aD0iNS4yNSIgaGVpZ2h0PSIxLjUiLz4mI3hhOwkJPC9nPiYjeGE7CQk8ZyBpZD0ic2hhcGU3NTY5LTIyIiB0cmFuc2Zvcm09InRyYW5zbGF0ZSgxNS43NSwtMzYuNzUpIj4mI3hhOwkJCTx0aXRsZSBpZD0idGl0bGUyMDYyMyI+cmVjdDEwNzc8L3RpdGxlPiYjeGE7CQkJPHJlY3QgaWQ9InJlY3QyMDYyNSIgeT0iNDYuNSIgd2lkdGg9IjkuNzUiIGhlaWdodD0iMS41Ii8+JiN4YTsJCTwvZz4mI3hhOwkJPGcgaWQ9InNoYXBlNzU3MC0yNCIgdHJhbnNmb3JtPSJ0cmFuc2xhdGUoMC43ODAwMDEsLTM2Ljc1KSI+JiN4YTsJCQk8dGl0bGUgaWQ9InRpdGxlMjA2MjgiPnJlY3QxMDc5PC90aXRsZT4mI3hhOwkJCTxyZWN0IGlkPSJyZWN0MjA2MzAiIHg9IjAiIHk9IjQ2LjUiIHN0eWxlPSJmaWxsOiMzMzMzMzM7IiB3aWR0aD0iMTEuOTciIGhlaWdodD0iMS41Ii8+JiN4YTsJCTwvZz4mI3hhOwkJPGcgaWQ9InNoYXBlNzU3MS0yNiIgdHJhbnNmb3JtPSJ0cmFuc2xhdGUoMTIsLTM2Ljc1KSI+JiN4YTsJCQk8dGl0bGUgaWQ9InRpdGxlMjA2MzMiPnBvbHlnb24xMDgxPC90aXRsZT4mI3hhOwkJCTxyZWN0IGlkPSJyZWN0MjA2MzUiIHk9IjQ2LjUiIHN0eWxlPSJmaWxsOiNENEU4Rjg7IiB3aWR0aD0iNS4yNSIgaGVpZ2h0PSIxLjUiLz4mI3hhOwkJPC9nPiYjeGE7CQk8ZyBpZD0ic2hhcGU3NTcyLTI4IiB0cmFuc2Zvcm09InRyYW5zbGF0ZSgxNS43NSwtNDAuNSkiPiYjeGE7CQkJPHRpdGxlIGlkPSJ0aXRsZTIwNjM4Ij5yZWN0MTA4MzwvdGl0bGU+JiN4YTsJCQk8cmVjdCBpZD0icmVjdDIwNjQwIiB5PSI0Ni41IiB3aWR0aD0iOS43NSIgaGVpZ2h0PSIxLjUiLz4mI3hhOwkJPC9nPiYjeGE7CQk8ZyBpZD0ic2hhcGU3NTczLTMwIiB0cmFuc2Zvcm09InRyYW5zbGF0ZSgwLjc4MDAwMSwtNDAuNSkiPiYjeGE7CQkJPHRpdGxlIGlkPSJ0aXRsZTIwNjQzIj5yZWN0MTA4NTwvdGl0bGU+JiN4YTsJCQk8cmVjdCBpZD0icmVjdDIwNjQ1IiB4PSIwIiB5PSI0Ni41IiBzdHlsZT0iZmlsbDojMzMzMzMzOyIgd2lkdGg9IjExLjk3IiBoZWlnaHQ9IjEuNSIvPiYjeGE7CQk8L2c+JiN4YTsJCTxnIGlkPSJzaGFwZTc1NzQtMzIiIHRyYW5zZm9ybT0idHJhbnNsYXRlKDEyLC00MC41MDc1KSI+JiN4YTsJCQk8dGl0bGUgaWQ9InRpdGxlMjA2NDgiPnBvbHlnb24xMDg3PC90aXRsZT4mI3hhOwkJCTxyZWN0IGlkPSJyZWN0MjA2NTAiIHk9IjQ2LjUxIiBzdHlsZT0iZmlsbDojRDRFOEY4OyIgd2lkdGg9IjUuMjUiIGhlaWdodD0iMS40OSIvPiYjeGE7CQk8L2c+JiN4YTsJCTxnIGlkPSJzaGFwZTc1NzUtMzQiIHRyYW5zZm9ybT0idHJhbnNsYXRlKDAsLTQwLjUpIj4mI3hhOwkJCTx0aXRsZSBpZD0idGl0bGUyMDY1MyI+cmVjdDEwODk8L3RpdGxlPiYjeGE7CQkJPHJlY3QgaWQ9InJlY3QyMDY1NSIgeT0iNDYuNSIgc3R5bGU9ImZpbGw6I0ZGRkZGRjsiIHdpZHRoPSIxLjUiIGhlaWdodD0iMS41Ii8+JiN4YTsJCTwvZz4mI3hhOwkJPGcgaWQ9InNoYXBlNzU3Ni0zNiIgdHJhbnNmb3JtPSJ0cmFuc2xhdGUoMCwtMzYuNzUpIj4mI3hhOwkJCTx0aXRsZSBpZD0idGl0bGUyMDY1OCI+cmVjdDEwOTE8L3RpdGxlPiYjeGE7CQkJPHJlY3QgaWQ9InJlY3QyMDY2MCIgeT0iNDYuNSIgc3R5bGU9ImZpbGw6I0ZGRkZGRjsiIHdpZHRoPSIxLjUiIGhlaWdodD0iMS41Ii8+JiN4YTsJCTwvZz4mI3hhOwkJPGcgaWQ9InNoYXBlNzU3Ny0zOCIgdHJhbnNmb3JtPSJ0cmFuc2xhdGUoMCwtMzMpIj4mI3hhOwkJCTx0aXRsZSBpZD0idGl0bGUyMDY2MyI+cmVjdDEwOTM8L3RpdGxlPiYjeGE7CQkJPHJlY3QgaWQ9InJlY3QyMDY2NSIgeT0iNDYuNSIgc3R5bGU9ImZpbGw6I0ZGRkZGRjsiIHdpZHRoPSIxLjUiIGhlaWdodD0iMS41Ii8+JiN4YTsJCTwvZz4mI3hhOwkJPGcgaWQ9InNoYXBlNzU3OC00MCIgdHJhbnNmb3JtPSJ0cmFuc2xhdGUoMCwtMjkuMjUpIj4mI3hhOwkJCTx0aXRsZSBpZD0idGl0bGUyMDY2OCI+cmVjdDEwOTU8L3RpdGxlPiYjeGE7CQkJPHJlY3QgaWQ9InJlY3QyMDY3MCIgeT0iNDYuNSIgc3R5bGU9ImZpbGw6I0ZGRkZGRjsiIHdpZHRoPSIxLjUiIGhlaWdodD0iMS41Ii8+JiN4YTsJCTwvZz4mI3hhOwkJPGcgaWQ9InNoYXBlNzU3OS00MiIgdHJhbnNmb3JtPSJ0cmFuc2xhdGUoMCwtMjUuNSkiPiYjeGE7CQkJPHRpdGxlIGlkPSJ0aXRsZTIwNjczIj5yZWN0MTA5NzwvdGl0bGU+JiN4YTsJCQk8cmVjdCBpZD0icmVjdDIwNjc1IiB5PSI0Ni41IiBzdHlsZT0iZmlsbDojRkZGRkZGOyIgd2lkdGg9IjEuNSIgaGVpZ2h0PSIxLjUiLz4mI3hhOwkJPC9nPiYjeGE7CTwvZz4mI3hhOzwvZz4mI3hhOzwvc3ZnPg==;" vertex="1" parent="1">
          <mxGeometry x="698.39" y="817" width="40.21" height="70" as="geometry" />
        </mxCell>
        <mxCell id="UOPAoyRl8zIuu1TyD0ZJ-42" style="edgeStyle=orthogonalEdgeStyle;rounded=0;orthogonalLoop=1;jettySize=auto;html=1;exitX=0.5;exitY=1;exitDx=0;exitDy=0;" edge="1" parent="1" source="UOPAoyRl8zIuu1TyD0ZJ-8">
          <mxGeometry relative="1" as="geometry">
            <mxPoint x="719" y="690" as="targetPoint" />
          </mxGeometry>
        </mxCell>
        <mxCell id="UOPAoyRl8zIuu1TyD0ZJ-86" style="edgeStyle=orthogonalEdgeStyle;rounded=0;orthogonalLoop=1;jettySize=auto;html=1;exitX=0;exitY=0.5;exitDx=0;exitDy=0;" edge="1" parent="1" source="UOPAoyRl8zIuu1TyD0ZJ-16" target="UOPAoyRl8zIuu1TyD0ZJ-9">
          <mxGeometry relative="1" as="geometry" />
        </mxCell>
        <mxCell id="UOPAoyRl8zIuu1TyD0ZJ-87" style="edgeStyle=orthogonalEdgeStyle;rounded=0;orthogonalLoop=1;jettySize=auto;html=1;exitX=0;exitY=0.5;exitDx=0;exitDy=0;" edge="1" parent="1" source="UOPAoyRl8zIuu1TyD0ZJ-16" target="UOPAoyRl8zIuu1TyD0ZJ-8">
          <mxGeometry relative="1" as="geometry" />
        </mxCell>
        <mxCell id="UOPAoyRl8zIuu1TyD0ZJ-88" style="edgeStyle=orthogonalEdgeStyle;rounded=0;orthogonalLoop=1;jettySize=auto;html=1;exitX=0;exitY=0.5;exitDx=0;exitDy=0;" edge="1" parent="1" source="UOPAoyRl8zIuu1TyD0ZJ-16" target="UOPAoyRl8zIuu1TyD0ZJ-7">
          <mxGeometry relative="1" as="geometry" />
        </mxCell>
        <mxCell id="UOPAoyRl8zIuu1TyD0ZJ-16" value="移动端" style="shape=image;verticalLabelPosition=bottom;labelBackgroundColor=#ffffff;verticalAlign=top;aspect=fixed;imageAspect=0;image=data:image/svg+xml,PHN2ZyB4bWxuczpjYz0iaHR0cDovL2NyZWF0aXZlY29tbW9ucy5vcmcvbnMjIiB4bWxuczpkYz0iaHR0cDovL3B1cmwub3JnL2RjL2VsZW1lbnRzLzEuMS8iIHhtbG5zOmlua3NjYXBlPSJodHRwOi8vd3d3Lmlua3NjYXBlLm9yZy9uYW1lc3BhY2VzL2lua3NjYXBlIiB4bWxuczpyZGY9Imh0dHA6Ly93d3cudzMub3JnLzE5OTkvMDIvMjItcmRmLXN5bnRheC1ucyMiIHhtbG5zOnNvZGlwb2RpPSJodHRwOi8vc29kaXBvZGkuc291cmNlZm9yZ2UubmV0L0RURC9zb2RpcG9kaS0wLmR0ZCIgeG1sbnM6c3ZnPSJodHRwOi8vd3d3LnczLm9yZy8yMDAwL3N2ZyIgeG1sbnM9Imh0dHA6Ly93d3cudzMub3JnLzIwMDAvc3ZnIiB4bWxuczp4bGluaz0iaHR0cDovL3d3dy53My5vcmcvMTk5OS94bGluayIgdmVyc2lvbj0iMS4xIiBpZD0ic3ZnMTE5NSIgaW5rc2NhcGU6dmVyc2lvbj0iMC45Mi4zICgyNDA1NTQ2LCAyMDE4LTAzLTExKSIgc29kaXBvZGk6ZG9jbmFtZT0iYW5kcm9pZC5zdmciIHg9IjBweCIgeT0iMHB4IiB2aWV3Qm94PSIwIDAgMjkuMzggNTAuODUiIHN0eWxlPSJlbmFibGUtYmFja2dyb3VuZDpuZXcgMCAwIDI5LjM4IDUwLjg1OyIgeG1sOnNwYWNlPSJwcmVzZXJ2ZSI+JiN4YTs8c29kaXBvZGk6bmFtZWR2aWV3IGJvcmRlcmNvbG9yPSIjNjY2NjY2IiBib3JkZXJvcGFjaXR5PSIxIiBmaXQtbWFyZ2luLWJvdHRvbT0iMCIgZml0LW1hcmdpbi1sZWZ0PSIwIiBmaXQtbWFyZ2luLXJpZ2h0PSIwIiBmaXQtbWFyZ2luLXRvcD0iMCIgZ3JpZHRvbGVyYW5jZT0iMTAiIGd1aWRldG9sZXJhbmNlPSIxMCIgaWQ9Im5hbWVkdmlldzExOTciIGlua3NjYXBlOmN1cnJlbnQtbGF5ZXI9InN2ZzExOTUiIGlua3NjYXBlOmN4PSIxOS41ODkzNCIgaW5rc2NhcGU6Y3k9IjMzLjg5NzQ3NiIgaW5rc2NhcGU6cGFnZW9wYWNpdHk9IjAiIGlua3NjYXBlOnBhZ2VzaGFkb3c9IjIiIGlua3NjYXBlOndpbmRvdy1oZWlnaHQ9IjEwMTciIGlua3NjYXBlOndpbmRvdy1tYXhpbWl6ZWQ9IjEiIGlua3NjYXBlOndpbmRvdy13aWR0aD0iMTkyMCIgaW5rc2NhcGU6d2luZG93LXg9Ii04IiBpbmtzY2FwZTp3aW5kb3cteT0iLTgiIGlua3NjYXBlOnpvb209IjEyLjc4NjY1MSIgb2JqZWN0dG9sZXJhbmNlPSIxMCIgcGFnZWNvbG9yPSIjZmZmZmZmIiBzaG93Z3JpZD0iZmFsc2UiPiYjeGE7CTwvc29kaXBvZGk6bmFtZWR2aWV3PiYjeGE7PGcgaWQ9ImcxMTkzIiB0cmFuc2Zvcm09InRyYW5zbGF0ZSgtMi42ODI2ODU1ZS01KSI+JiN4YTsJPHRpdGxlIGlkPSJ0aXRsZTExNjMiPlBhZ2UtMTwvdGl0bGU+JiN4YTsJPGcgaWQ9Imdyb3VwMzQ5OS0xIj4mI3hhOwkJPHRpdGxlIGlkPSJ0aXRsZTExNjUiPkFuZHJvaWQ8L3RpdGxlPiYjeGE7CQk8ZyBpZD0ic2hhcGUzNTAwLTIiPiYjeGE7CQkJPHRpdGxlIGlkPSJ0aXRsZTExNjciPlNoZWV0LjM1MDA8L3RpdGxlPiYjeGE7CQkJPHBhdGggaWQ9InBhdGgxMTY5IiBpbmtzY2FwZTpjb25uZWN0b3ItY3VydmF0dXJlPSIwIiBzdHlsZT0iZmlsbDojM0Y1NzY1OyIgZD0iTTI3LjQzLDBDMi4xLDAsMi4xLDAsMi4xLDBDMC45MiwwLDAsMC44LDAsMS44NCAgICAgYzAsNDYuOTUsMCw0Ni45NSwwLDQ2Ljk1YzAsMC45MiwwLjkyLDIuMDYsMi4xLDIuMDZjMjUuMzMsMCwyNS4zMywwLDI1LjMzLDBjMS4wNywwLDEuOTUtMS4xNCwxLjk1LTIuMDYgICAgIGMwLTQ2Ljk1LDAtNDYuOTUsMC00Ni45NUMyOS4zOCwwLjgsMjguNSwwLDI3LjQzLDB6Ii8+JiN4YTsJCTwvZz4mI3hhOwkJPGcgaWQ9InNoYXBlMzUwMS00IiB0cmFuc2Zvcm09InRyYW5zbGF0ZSgzLjA2MDg0LC03LjI1MTY3KSI+JiN4YTsJCQk8dGl0bGUgaWQ9InRpdGxlMTE3MiI+U2hlZXQuMzUwMTwvdGl0bGU+JiN4YTsJCQk8cGF0aCBpZD0icGF0aDExNzQiIGlua3NjYXBlOmNvbm5lY3Rvci1jdXJ2YXR1cmU9IjAiIHN0eWxlPSJmaWxsOiNGRkZGRkY7IiBkPSJNMCwxMC41OWgyMy4yNnY0MC4yNkgwVjEwLjU5eiIvPiYjeGE7CQk8L2c+JiN4YTsJCTxnIGlkPSJzaGFwZTM1MDItNiIgdHJhbnNmb3JtPSJ0cmFuc2xhdGUoMTIuODU1NSwtMy4wNjM0OCkiPiYjeGE7CQkJPHRpdGxlIGlkPSJ0aXRsZTExNzciPlNoZWV0LjM1MDI8L3RpdGxlPiYjeGE7CQkJPHBhdGggaWQ9InBhdGgxMTc5IiBpbmtzY2FwZTpjb25uZWN0b3ItY3VydmF0dXJlPSIwIiBzdHlsZT0iZmlsbDojRkZGRkZGOyIgZD0iTTAsNDkuMzJjMC0wLjg0LDAuNzctMS41MywxLjY0LTEuNTMgICAgIGMwLjkzLDAsMS42NSwwLjY5LDEuNjUsMS41M2MwLDAuODgtMC43MiwxLjUzLTEuNjUsMS41M0MwLjc3LDUwLjg1LDAsNTAuMiwwLDQ5LjMyeiIvPiYjeGE7CQk8L2c+JiN4YTsJCTxnIGlkPSJzaGFwZTM1MDMtOCIgdHJhbnNmb3JtPSJ0cmFuc2xhdGUoMTcuNzUyOSwtMy42NzYxOCkiPiYjeGE7CQkJPHRpdGxlIGlkPSJ0aXRsZTExODIiPlNoZWV0LjM1MDM8L3RpdGxlPiYjeGE7CQkJPHBhdGggaWQ9InBhdGgxMTg0IiBpbmtzY2FwZTpjb25uZWN0b3ItY3VydmF0dXJlPSIwIiBzdHlsZT0iZmlsbDojRkZGRkZGOyIgZD0iTTAsNDkuOTNjMC0wLjQ5LDAuMzEtMC45MSwwLjYxLTAuOTEgICAgIGMwLjM1LDAsMC42MSwwLjQyLDAuNjEsMC45MWMwLDAuNTQtMC4yNiwwLjkyLTAuNjEsMC45MkMwLjMxLDUwLjg1LDAsNTAuNDcsMCw0OS45M3oiLz4mI3hhOwkJPC9nPiYjeGE7CQk8ZyBpZD0ic2hhcGUzNTA0LTEwIiB0cmFuc2Zvcm09InRyYW5zbGF0ZSg5LjE4MjUxLC0zLjY3NjE4KSI+JiN4YTsJCQk8dGl0bGUgaWQ9InRpdGxlMTE4NyI+U2hlZXQuMzUwNDwvdGl0bGU+JiN4YTsJCQk8cGF0aCBpZD0icGF0aDExODkiIGlua3NjYXBlOmNvbm5lY3Rvci1jdXJ2YXR1cmU9IjAiIHN0eWxlPSJmaWxsOiNGRkZGRkY7IiBkPSJNMCw0OS45M2MwLTAuNDksMC4zMS0wLjkxLDAuNjEtMC45MSAgICAgYzAuMzUsMCwwLjYxLDAuNDIsMC42MSwwLjkxYzAsMC41NC0wLjI2LDAuOTItMC42MSwwLjkyQzAuMzEsNTAuODUsMCw1MC40NywwLDQ5LjkzeiIvPiYjeGE7CQk8L2c+JiN4YTsJPC9nPiYjeGE7PC9nPiYjeGE7PC9zdmc+;" vertex="1" parent="1">
          <mxGeometry x="1193" y="507" width="29" height="51" as="geometry" />
        </mxCell>
        <mxCell id="UOPAoyRl8zIuu1TyD0ZJ-5" value="kdo" style="shape=image;verticalLabelPosition=bottom;labelBackgroundColor=#ffffff;verticalAlign=top;aspect=fixed;imageAspect=0;image=data:image/svg+xml,PHN2ZyB4bWxuczpkYz0iaHR0cDovL3B1cmwub3JnL2RjL2VsZW1lbnRzLzEuMS8iIHhtbG5zOmNjPSJodHRwOi8vY3JlYXRpdmVjb21tb25zLm9yZy9ucyMiIHhtbG5zOnJkZj0iaHR0cDovL3d3dy53My5vcmcvMTk5OS8wMi8yMi1yZGYtc3ludGF4LW5zIyIgeG1sbnM6c3ZnPSJodHRwOi8vd3d3LnczLm9yZy8yMDAwL3N2ZyIgeG1sbnM9Imh0dHA6Ly93d3cudzMub3JnLzIwMDAvc3ZnIiB4bWxuczpzb2RpcG9kaT0iaHR0cDovL3NvZGlwb2RpLnNvdXJjZWZvcmdlLm5ldC9EVEQvc29kaXBvZGktMC5kdGQiIHhtbG5zOmlua3NjYXBlPSJodHRwOi8vd3d3Lmlua3NjYXBlLm9yZy9uYW1lc3BhY2VzL2lua3NjYXBlIiB2ZXJzaW9uPSIxLjEiIGlkPSJzdmc3MjQ4MCIgaW5rc2NhcGU6dmVyc2lvbj0iMC45Mi4zICgyNDA1NTQ2LCAyMDE4LTAzLTExKSIgc29kaXBvZGk6ZG9jbmFtZT0iY29nbml0aXZlX3NlcnZpY2VzLnN2ZyIgeD0iMHB4IiB5PSIwcHgiIHZpZXdCb3g9IjAgMCAxMjAuMDg2OTIgNzEuMTMiIHhtbDpzcGFjZT0icHJlc2VydmUiIHdpZHRoPSIxMjAuMDg2OTEiIGhlaWdodD0iNzEuMTI5OTk3Ij48bWV0YWRhdGEgaWQ9Im1ldGFkYXRhMjE1MTkiPjxyZGY6UkRGPjxjYzpXb3JrIHJkZjphYm91dD0iIj48ZGM6Zm9ybWF0PmltYWdlL3N2Zyt4bWw8L2RjOmZvcm1hdD48ZGM6dHlwZSByZGY6cmVzb3VyY2U9Imh0dHA6Ly9wdXJsLm9yZy9kYy9kY21pdHlwZS9TdGlsbEltYWdlIi8+PGRjOnRpdGxlLz48L2NjOldvcms+PC9yZGY6UkRGPjwvbWV0YWRhdGE+PGRlZnMgaWQ9ImRlZnMyMTUxNyIvPiYjeGE7PGZpbHRlciBpZD0iZmlsdGVyXzIiPiYjeGE7CTxmZUdhdXNzaWFuQmx1ciBpZD0iZmVHYXVzc2lhbkJsdXI3MjQwNSIgc3RkRGV2aWF0aW9uPSIyIi8+JiN4YTs8L2ZpbHRlcj4mI3hhOzxzb2RpcG9kaTpuYW1lZHZpZXcgYm9yZGVyY29sb3I9IiM2NjY2NjYiIGJvcmRlcm9wYWNpdHk9IjEiIGZpdC1tYXJnaW4tYm90dG9tPSIwIiBmaXQtbWFyZ2luLWxlZnQ9IjAiIGZpdC1tYXJnaW4tcmlnaHQ9IjAiIGZpdC1tYXJnaW4tdG9wPSIwIiBncmlkdG9sZXJhbmNlPSIxMCIgZ3VpZGV0b2xlcmFuY2U9IjEwIiBpZD0ibmFtZWR2aWV3NzI0ODIiIGlua3NjYXBlOmN1cnJlbnQtbGF5ZXI9InN2ZzcyNDgwIiBpbmtzY2FwZTpjeD0iMjMuMzQ3NjM2IiBpbmtzY2FwZTpjeT0iMjUuMzc2MzE2IiBpbmtzY2FwZTpwYWdlb3BhY2l0eT0iMCIgaW5rc2NhcGU6cGFnZXNoYWRvdz0iMiIgaW5rc2NhcGU6d2luZG93LWhlaWdodD0iMTAxNyIgaW5rc2NhcGU6d2luZG93LW1heGltaXplZD0iMSIgaW5rc2NhcGU6d2luZG93LXdpZHRoPSIxOTIwIiBpbmtzY2FwZTp3aW5kb3cteD0iLTgiIGlua3NjYXBlOndpbmRvdy15PSItOCIgaW5rc2NhcGU6em9vbT0iNC44MDg5OTYiIG9iamVjdHRvbGVyYW5jZT0iMTAiIHBhZ2Vjb2xvcj0iI2ZmZmZmZiIgc2hvd2dyaWQ9ImZhbHNlIj4mI3hhOwk8L3NvZGlwb2RpOm5hbWVkdmlldz4mI3hhOyYjeGE7PHBhdGggaWQ9InBhdGg3MjQxOCIgaW5rc2NhcGU6Y29ubmVjdG9yLWN1cnZhdHVyZT0iMCIgc3R5bGU9ImZpbGw6IzAwOTU4MCIgZD0ibSAxMTguNjAyNjksMzUuMjYgYyAtMi4xOCwtNS4xNyAtNi42OSwtOS41NCAtMTIuNTIsLTEyLjIxIC0yLjY5LC05LjA0IC0xMC4yMiwtMTguMDggLTIxLjQ0LC0xOC4wOCAtMC4zNiwwIC0wLjcyLDAuMDEgLTEuMDksMC4wMiAtNC42OCwtMy4zNSAtOS4yMywtNC45OSAtMTMuODYsLTQuOTkgLTIuNzksMCAtNS42NCwwLjYyIC04LjUsMS44MyAtMi4xMiwtMS4xIC00LjU1LC0xLjY4IC03LjE0LC0xLjY4IC01Ljc1LDAgLTExLjIsMi42NSAtMTQuNTYsNS43NiAtMS4wNiwtMC4yNSAtMi4xNiwtMC4zOCAtMy4zLC0wLjM4IC04LjU3LDAgLTE3LjA2LDcuMDggLTE5LjM2LDE1LjY3IC03LjM4OTk5OTksMi42OCAtMTIuNzc5OTk5OSw3LjU1IC0xNS4zMDk5OTk5LDEzLjg4IC0yLjQ1OTk5OTk5LDYuMTUgLTEuOTE5OTk5OTksMTMuMDIgMS40OCwxOC44NSAzLjM4LDUuOCA5LjI3OTk5OTksOS4yNiAxNS43OTk5OTk5LDkuMjYgMi41LDAgNC45MSwtMC41MSA3LjExLC0xLjQ5IDMuOTYsMy42IDkuMDYsNS43NSAxMy44OSw1Ljc1IDEuNjgsMCAzLjMsLTAuMjUgNC44MiwtMC43NCAzLjkxLDMuMjIgOS45LDQuNDIgMTQuNzcsNC40MiA1LjczLDAgMTAuNzIsLTEuNTEgMTQuMDIsLTQuMTYgMi4xNSwwLjk5IDQuNSwxLjUxIDYuOTcsMS41MSB2IDAgYyA2LjE1LDAgMTIuNTIsLTMuMjkgMTUuOTksLTcuODUgMS45NCwwLjggMy45OCwxLjIxIDYuMDQsMS4yMSB2IDAgYyA2LjczLDAgMTIuOTgsLTQuMzkgMTUuOTIsLTExLjE5IDIuMjQsLTUuMTggMi4zNCwtMTAuNSAwLjI3LC0xNS4zOSB6Ii8+JiN4YTsmI3hhOzxwYXRoIGlkPSJwYXRoNzI0MjYiIGlua3NjYXBlOmNvbm5lY3Rvci1jdXJ2YXR1cmU9IjAiIHN0eWxlPSJmaWxsOiNmZmZmZmYiIGQ9Ik0gMzguNjAyNjksNjcuNCBWIDQ2LjI2IGMgMCwtMi42MyAtMi4xMywtNC43NiAtNC43NiwtNC43NiBoIC03LjkyIHYgMy4zNiBoIDcuOTIgYyAwLjc3LDAgMS40LDAuNjMgMS40LDEuNCB2IDIwLjU4IGMgMS4xMSwwLjI5IDIuMjQsMC40OCAzLjM2LDAuNTYgeiIvPiYjeGE7JiN4YTs8cGF0aCBpZD0icGF0aDcyNDM0IiBpbmtzY2FwZTpjb25uZWN0b3ItY3VydmF0dXJlPSIwIiBzdHlsZT0iZmlsbDojZmZmZmZmIiBkPSJtIDUzLjIyMjY5LDMxLjIzIGggLTEwLjY0IGMgLTAuNzcsMCAtMS40LC0wLjYyIC0xLjQsLTEuMzkgViA0LjUzIGMgLTAuNiwwLjQ0IC0xLjE3LDAuOTEgLTEuNjgsMS4zOCAtMC41NSwtMC4xMyAtMS4xMSwtMC4yMiAtMS42OCwtMC4yOCB2IDI0LjIxIGMgMCwyLjYyIDIuMTQsNC43NiA0Ljc2LDQuNzYgaCAxMC42NCBjIDAuNzcsMCAxLjM5LDAuNjIgMS4zOSwxLjM5IHYgNy44OCBoIDMuMzcgdiAtNy44OCBjIDAsLTIuNjIgLTIuMTQsLTQuNzYgLTQuNzYsLTQuNzYgeiIvPiYjeGE7JiN4YTs8cGF0aCBpZD0icGF0aDcyNDQyIiBpbmtzY2FwZTpjb25uZWN0b3ItY3VydmF0dXJlPSIwIiBzdHlsZT0iZmlsbDojZmZmZmZmIiBkPSJtIDk4LjAwMjY5LDQ0LjY3IHYgLTMuMDIgaCAtMy4zNiB2IDMuMDIgYyAwLDAuNzcgLTAuNjMsMS40IC0xLjQsMS40IGggLTEzLjQ4IFYgMjEuOTUgYyAwLC0yLjYyIC0yLjEzLC00Ljc2IC00Ljc1LC00Ljc2IGggLTkuMTcgdiAzLjM3IGggOS4xNyBjIDAuNzcsMCAxLjM5LDAuNjIgMS4zOSwxLjM5IHYgNDYuMDQgYyAxLjA5LDAuMjcgMi4yMSwwLjQyIDMuMzYsMC40NiBWIDQ5LjQzIGggMTMuNDggYyAyLjYzLDAgNC43NiwtMi4xMyA0Ljc2LC00Ljc2IHoiLz4mI3hhOyYjeGE7PHBhdGggaWQ9InBhdGg3MjQ1MCIgaW5rc2NhcGU6Y29ubmVjdG9yLWN1cnZhdHVyZT0iMCIgc3R5bGU9ImZpbGw6I2ZmZmZmZiIgZD0ibSA1Ni4yOTI2OSw1Ny43OCBjIC00LjEzLDAgLTcuNDksLTMuMzYgLTcuNDksLTcuNDkgMCwtNC4xMyAzLjM2LC03LjUgNy40OSwtNy41IDQuMTQsMCA3LjUsMy4zNyA3LjUsNy41IDAsNC4xMyAtMy4zNyw3LjQ5IC03LjUsNy40OSB6IG0gMCwtMTEuODggYyAtMi40MSwwIC00LjM4LDEuOTcgLTQuMzgsNC4zOSAwLDIuNDIgMS45Nyw0LjM4IDQuMzgsNC4zOCAyLjQyLDAgNC4zOSwtMS45NiA0LjM5LC00LjM4IDAsLTIuNDIgLTEuOTcsLTQuMzkgLTQuMzksLTQuMzkgeiIvPiYjeGE7JiN4YTs8cGF0aCBpZD0icGF0aDcyNDU4IiBpbmtzY2FwZTpjb25uZWN0b3ItY3VydmF0dXJlPSIwIiBzdHlsZT0iZmlsbDojZmZmZmZmIiBkPSJtIDIwLjQ3MjY5LDUwLjY0IGMgLTQuMTMsMCAtNy40OSwtMy4zNiAtNy40OSwtNy40OSAwLC00LjE0IDMuMzYsLTcuNSA3LjQ5LC03LjUgNC4xMywwIDcuNSwzLjM3IDcuNSw3LjUgMCw0LjEzIC0zLjM2LDcuNDkgLTcuNSw3LjQ5IHogbSAwLC0xMS44OCBjIC0yLjQyLDAgLTQuMzgsMS45NyAtNC4zOCw0LjM5IDAsMi40MSAxLjk3LDQuMzggNC4zOCw0LjM4IDIuNDIsMCA0LjM5LC0xLjk3IDQuMzksLTQuMzggMCwtMi40MiAtMS45NywtNC4zOSAtNC4zOSwtNC4zOSB6Ii8+JiN4YTsmI3hhOzxwYXRoIGlkPSJwYXRoNzI0NjYiIGlua3NjYXBlOmNvbm5lY3Rvci1jdXJ2YXR1cmU9IjAiIHN0eWxlPSJmaWxsOiNmZmZmZmYiIGQ9Im0gOTYuMzQyNjksNDMuNDkgYyAtNC4xMywwIC03LjQ5LC0zLjM2IC03LjQ5LC03LjQ5IDAsLTQuMTMgMy4zNiwtNy40OSA3LjQ5LC03LjQ5IDQuMTMsMCA3LjUsMy4zNiA3LjUsNy40OSAwLDQuMTMgLTMuMzcsNy40OSAtNy41LDcuNDkgeiBtIDAsLTExLjg3IGMgLTIuNDIsMCAtNC4zOCwxLjk2IC00LjM4LDQuMzggMCwyLjQxIDEuOTcsNC4zOCA0LjM4LDQuMzggMi40MiwwIDQuMzksLTEuOTYgNC4zOSwtNC4zOCAwLC0yLjQyIC0xLjk3LC00LjM4IC00LjM5LC00LjM4IHoiLz4mI3hhOyYjeGE7PHBhdGggaWQ9InBhdGg3MjQ3NCIgaW5rc2NhcGU6Y29ubmVjdG9yLWN1cnZhdHVyZT0iMCIgc3R5bGU9ImZpbGw6I2ZmZmZmZiIgZD0ibSA2MC4zOTI2OSwyNi4zNCBjIC00LjEzLDAgLTcuNDksLTMuMzYgLTcuNDksLTcuNDkgMCwtNC4xMyAzLjM2LC03LjQ5IDcuNDksLTcuNDkgNC4xMywwIDcuNSwzLjM2IDcuNSw3LjQ5IDAsNC4xMyAtMy4zNiw3LjQ5IC03LjUsNy40OSB6IG0gMCwtMTEuODggYyAtMi40MiwwIC00LjM4LDEuOTcgLTQuMzgsNC4zOSAwLDIuNDEgMS45Nyw0LjM4IDQuMzgsNC4zOCAyLjQyLDAgNC4zOSwtMS45NyA0LjM5LC00LjM4IDAsLTIuNDIgLTEuOTcsLTQuMzkgLTQuMzksLTQuMzkgeiIvPiYjeGE7PC9zdmc+;" vertex="1" parent="1">
          <mxGeometry x="299.9999999999999" y="436" width="120" height="71" as="geometry" />
        </mxCell>
      </root>
    </mxGraphModel>
  </diagram>
</mxfile>
